<svg width="1728" height="1716" viewBox="0 0 1728 1716" fill="none" xmlns="http://www.w3.org/2000/svg">
<g clip-path="url(#clip0_7116_11315)">
<rect width="1728" height="1716" fill="#0C0C1B"/>
<path opacity="0.7" d="M-284.205 464.733C-278.612 454.774 -275.447 422.417 -307.532 372.652C-347.638 310.447 -366.463 226.142 -277.248 235.146C-188.032 244.149 71.8394 419.716 140.184 325.18C208.528 230.644 -81.2187 -50.9176 -97.9978 -224.847C-113.958 -328.387 11.6803 -334.525 31.7333 -329.205" stroke="url(#paint0_linear_7116_11315)" stroke-opacity="0.7" stroke-width="5"/>
<path opacity="0.7" d="M1437.8 1951.73C1443.39 1941.77 1446.55 1909.42 1414.47 1859.65C1374.36 1797.45 1355.54 1713.14 1444.75 1722.15C1533.97 1731.15 1793.84 1906.72 1862.18 1812.18C1930.53 1717.64 1640.78 1436.08 1624 1262.15C1608.04 1158.61 1733.68 1152.47 1753.73 1157.79" stroke="url(#paint1_linear_7116_11315)" stroke-opacity="0.7" stroke-width="5"/>
<path opacity="0.0144928" d="M1176.37 411.389C1181.45 414.97 1188.09 415.076 1193 411.711L1193.47 411.375L1417.43 243.734C1420.39 241.517 1422.32 238.207 1422.83 234.507L1422.88 234.148L1466.24 -154.373C1466.56 -157.255 1466 -160.195 1464.64 -162.815L1464.36 -163.334L1289.28 -471.083C1286.57 -475.842 1281.51 -478.817 1276.12 -478.812L1022.95 -478.606C1017.73 -478.601 1013.03 -475.802 1010.63 -471.296L1010.4 -470.855L859.803 -162.84C858.543 -160.263 858.105 -157.341 858.54 -154.454L858.638 -153.877L932.888 234.548C933.6 238.272 935.721 241.625 938.798 243.907L939.098 244.124L1176.37 411.389Z" stroke="url(#paint2_linear_7116_11315)" stroke-width="2.5289"/>
<path opacity="0.0289855" d="M1132.4 403.692C1137.27 407.486 1143.84 407.924 1148.91 404.845L1149.4 404.536L1381.26 250.202C1384.35 248.142 1386.48 244.93 1387.2 241.25L1387.26 240.893L1451.35 -140.556C1451.83 -143.436 1451.43 -146.421 1450.2 -149.12L1449.94 -149.655L1292.4 -462.333C1289.95 -467.201 1285.06 -470.41 1279.69 -470.676L1027.77 -483.184C1022.57 -483.442 1017.74 -480.898 1015.09 -476.54L1014.84 -476.113L848.42 -179.519C847.005 -176.997 846.401 -174.082 846.683 -171.158L846.751 -170.573L899.645 216.684C900.159 220.449 902.11 223.912 905.075 226.344L905.366 226.575L1132.4 403.692Z" stroke="url(#paint3_linear_7116_11315)" stroke-width="2.5289"/>
<path opacity="0.0434783" d="M1088.93 394.765C1093.56 398.76 1100.07 399.522 1105.28 396.734L1105.78 396.454L1344.75 255.712C1347.97 253.815 1350.28 250.71 1351.2 247.062L1351.29 246.708L1435.53 -126.683C1436.18 -129.55 1435.94 -132.569 1434.84 -135.34L1434.61 -135.891L1294.73 -452.56C1292.53 -457.525 1287.84 -460.957 1282.5 -461.491L1032.52 -486.536C1027.35 -487.054 1022.4 -484.771 1019.51 -480.573L1019.23 -480.16L837.767 -195.686C836.199 -193.229 835.43 -190.331 835.554 -187.38L835.592 -186.789L867.378 198.227C867.691 202.024 869.464 205.587 872.309 208.162L872.588 208.408L1088.93 394.765Z" stroke="url(#paint4_linear_7116_11315)" stroke-width="2.5289"/>
<path opacity="0.057971" d="M1045.99 384.641C1050.4 388.827 1056.82 389.906 1062.16 387.413L1062.67 387.161L1307.92 260.25C1311.26 258.525 1313.75 255.538 1314.88 251.934L1314.98 251.584L1418.78 -112.806C1419.59 -115.65 1419.5 -118.694 1418.55 -121.528L1418.35 -122.093L1296.19 -441.824C1294.26 -446.871 1289.76 -450.516 1284.48 -451.315L1037.11 -488.686C1031.99 -489.46 1026.93 -487.441 1023.81 -483.414L1023.51 -483.019L827.791 -211.313C826.074 -208.929 825.139 -206.059 825.104 -203.09L825.11 -202.495L836.093 179.234C836.203 183.05 837.791 186.702 840.509 189.415L840.776 189.674L1045.99 384.641Z" stroke="url(#paint5_linear_7116_11315)" stroke-width="2.5289"/>
<path opacity="0.0724638" d="M1003.68 373.359C1007.85 377.723 1014.17 379.114 1019.62 376.918L1020.15 376.695L1270.86 263.809C1274.3 262.26 1276.97 259.402 1278.3 255.855L1278.43 255.51L1401.09 -98.9783C1402.07 -101.791 1402.15 -104.85 1401.34 -107.74L1401.17 -108.315L1296.75 -430.183C1295.09 -435.3 1290.8 -439.147 1285.58 -440.206L1041.5 -489.658C1036.44 -490.684 1031.28 -488.934 1027.94 -485.09L1027.63 -484.711L818.475 -226.374C816.613 -224.074 815.513 -221.242 815.316 -218.266L815.29 -217.668L805.832 159.758C805.737 163.58 807.135 167.312 809.717 170.155L809.97 170.427L1003.68 373.359Z" stroke="url(#paint6_linear_7116_11315)" stroke-width="2.5289"/>
<path opacity="0.0869565" d="M962.041 360.973C965.961 365.505 972.174 367.199 977.725 365.304L978.26 365.11L1233.61 266.396C1237.15 265.029 1239.99 262.309 1241.51 258.832L1241.66 258.493L1382.49 -85.2419C1383.63 -88.0115 1383.87 -91.0747 1383.21 -94.0111L1383.07 -94.5969L1296.37 -417.689C1294.98 -422.862 1290.91 -426.899 1285.75 -428.214L1045.62 -489.468C1040.62 -490.742 1035.38 -489.265 1031.83 -485.613L1031.5 -485.253L809.776 -240.835C807.774 -238.628 806.511 -235.844 806.152 -232.869L806.092 -232.272L776.611 139.866C776.308 143.683 777.511 147.483 779.949 150.449L780.19 150.734L962.041 360.973Z" stroke="url(#paint7_linear_7116_11315)" stroke-width="2.5289"/>
<path opacity="0.101449" d="M921.134 347.513C924.802 352.201 930.895 354.195 936.53 352.602L937.074 352.435L1196.23 267.995C1199.85 266.815 1202.84 264.244 1204.57 260.847L1204.73 260.516L1362.97 -71.6607C1364.27 -74.3772 1364.68 -77.4341 1364.18 -80.4079L1364.06 -81.0012L1294.98 -404.417C1293.87 -409.633 1290.02 -413.849 1284.95 -415.415L1049.39 -488.161C1044.48 -489.678 1039.17 -488.476 1035.42 -485.027L1035.06 -484.686L801.658 -254.684C799.521 -252.579 798.097 -249.855 797.575 -246.892L797.482 -246.297L748.443 119.603C747.934 123.403 748.937 127.261 751.225 130.342L751.451 130.638L921.134 347.513Z" stroke="url(#paint8_linear_7116_11315)" stroke-width="2.5289"/>
<path opacity="0.115942" d="M881.021 333.055C884.432 337.888 890.393 340.171 896.098 338.882L896.65 338.746L1158.77 268.633C1162.46 267.645 1165.61 265.232 1167.52 261.928L1167.71 261.605L1167.71 261.604L1342.56 -58.2586C1344.01 -60.9115 1344.6 -63.951 1344.24 -66.9529L1344.16 -67.5527L1292.57 -390.407C1291.74 -395.652 1288.12 -400.037 1283.14 -401.85L1052.78 -485.746C1047.95 -487.502 1042.59 -486.577 1038.65 -483.34L1038.27 -483.019L794.088 -267.879C791.823 -265.883 790.242 -263.228 789.557 -260.289L789.431 -259.698L721.352 99.0519C720.637 102.822 721.436 106.725 723.567 109.913L723.778 110.219L881.021 333.055Z" stroke="url(#paint9_linear_7116_11315)" stroke-width="2.5289"/>
<path opacity="0.130435" d="M841.749 317.638C844.897 322.606 850.716 325.173 856.477 324.188L857.034 324.082L1121.28 268.308C1125.03 267.514 1128.32 265.268 1130.43 262.067L1130.63 261.753L1321.27 -45.0917C1322.87 -47.671 1323.62 -50.6829 1323.43 -53.7032L1323.38 -54.3077L1289.1 -375.734C1288.54 -380.995 1285.16 -385.537 1280.29 -387.592L1055.7 -482.266C1050.98 -484.256 1045.57 -483.61 1041.46 -480.594L1041.06 -480.294L787.024 -280.406C784.637 -278.528 782.903 -275.954 782.056 -273.048L781.898 -272.462L695.341 78.2599C694.421 81.9888 695.015 85.9256 696.982 89.2125L697.177 89.5286L841.749 317.638Z" stroke="url(#paint10_linear_7116_11315)" stroke-width="2.5289"/>
<path opacity="0.144928" d="M803.363 301.318C806.245 306.409 811.909 309.251 817.713 308.572L818.274 308.496L1083.81 267.025C1087.62 266.43 1091.04 264.358 1093.32 261.271L1093.54 260.969L1299.1 -32.2077C1300.85 -34.704 1301.77 -37.6779 1301.74 -40.707L1301.72 -41.3138L1284.52 -360.465C1284.24 -365.728 1281.11 -370.415 1276.35 -372.707L1058.11 -477.761C1053.5 -479.981 1048.06 -479.615 1043.78 -476.826L1043.37 -476.549L780.422 -292.251C777.922 -290.499 776.039 -288.014 775.032 -285.152L774.842 -284.574L670.417 57.2874C669.294 60.9626 669.679 64.9209 671.478 68.2979L671.657 68.6235L803.363 301.318Z" stroke="url(#paint11_linear_7116_11315)" stroke-width="2.5289"/>
<path opacity="0.15942" d="M765.914 284.147C768.524 289.35 774.024 292.462 779.855 292.089L780.421 292.042L1046.43 264.794C1050.28 264.399 1053.82 262.51 1056.27 259.548L1056.51 259.258L1276.1 -19.6535C1277.99 -22.0572 1279.07 -24.9819 1279.19 -28.0099L1279.21 -28.6169L1278.82 -344.67C1278.81 -349.922 1275.94 -354.743 1271.3 -357.265L1059.96 -472.274C1055.47 -474.717 1050.01 -474.632 1045.58 -472.08L1045.15 -471.825L774.248 -303.401C771.642 -301.781 769.617 -299.395 768.453 -296.587L768.231 -296.019L646.585 36.189C645.263 39.7987 645.439 43.7673 647.064 47.2254L647.225 47.559L765.914 284.147Z" stroke="url(#paint12_linear_7116_11315)" stroke-width="2.5289"/>
<path opacity="0.173913" d="M729.446 266.207C731.781 271.511 737.108 274.884 742.952 274.816L743.519 274.799L1009.18 261.65C1013.06 261.458 1016.71 259.757 1019.33 256.93L1019.58 256.652L1252.27 -7.44934C1254.3 -9.7516 1255.54 -12.6172 1255.83 -15.6343L1255.87 -16.2397L1271.98 -328.395C1272.25 -333.623 1269.63 -338.564 1265.13 -341.311L1061.19 -465.825C1056.83 -468.486 1051.37 -468.683 1046.8 -466.374L1046.36 -466.143L768.464 -313.82C765.762 -312.339 763.601 -310.061 762.282 -307.316L762.03 -306.761L623.852 15.0456C622.335 18.5783 622.301 22.545 623.747 26.0749L623.891 26.4161L729.446 266.207Z" stroke="url(#paint13_linear_7116_11315)" stroke-width="2.5289"/>
<path opacity="0.188406" d="M693.985 247.53C696.041 252.923 701.183 256.55 707.027 256.788L707.595 256.801L972.108 257.583C976.004 257.594 979.75 256.089 982.528 253.406L982.794 253.143L1227.65 4.33732C1229.81 2.14465 1231.2 -0.651566 1231.65 -3.6483L1231.72 -4.24968L1263.97 -311.732C1264.51 -316.923 1262.15 -321.975 1257.8 -324.94L1061.75 -458.486C1057.53 -461.359 1052.08 -461.838 1047.39 -459.777L1046.94 -459.569L763.017 -323.524C760.227 -322.187 757.937 -320.026 756.47 -317.354L756.187 -316.813L602.201 -6.11032C600.494 -2.66575 600.25 1.28739 601.513 4.87987L601.64 5.22635L693.985 247.53Z" stroke="url(#paint14_linear_7116_11315)" stroke-width="2.5289"/>
<path opacity="0.202899" d="M659.575 228.202C661.348 233.673 666.295 237.546 672.124 238.088L672.691 238.13L935.264 252.635C939.165 252.851 942.998 251.545 945.923 249.015L946.203 248.766L1202.25 15.6901C1204.53 13.6149 1206.08 10.8975 1206.68 7.93106L1206.79 7.33452L1254.78 -294.73C1255.59 -299.87 1253.5 -305.021 1249.3 -308.198L1061.6 -450.282C1057.53 -453.36 1052.11 -454.119 1047.3 -452.313L1046.84 -452.129L757.873 -332.481C755.005 -331.293 752.595 -329.256 750.982 -326.667L750.671 -326.143L581.634 -27.2006C579.742 -23.8546 579.289 -19.9261 580.366 -16.2803L580.474 -15.9286L659.575 228.202Z" stroke="url(#paint15_linear_7116_11315)" stroke-width="2.5289"/>
<path opacity="0.217391" d="M626.244 208.284C627.731 213.821 632.473 217.933 638.273 218.778L638.838 218.849L898.699 246.827C902.593 247.246 906.5 246.145 909.563 243.776L909.856 243.542L1176.12 26.5706C1178.51 24.6201 1180.21 21.991 1180.97 19.0638L1181.11 18.4737L1244.4 -277.457C1245.48 -282.534 1243.66 -287.771 1239.63 -291.153L1060.7 -441.262C1056.8 -444.537 1051.41 -445.575 1046.51 -444.028L1046.03 -443.87L752.992 -340.687C750.055 -339.653 747.533 -337.747 745.781 -335.248L745.441 -334.741L562.14 -48.1687C560.07 -44.9318 559.411 -41.0397 560.297 -37.3506L560.389 -36.9939L626.244 208.284Z" stroke="url(#paint16_linear_7116_11315)" stroke-width="2.5289"/>
<path opacity="0.231884" d="M594.011 187.825C595.208 193.416 599.735 197.758 605.491 198.903L606.052 199.004L862.447 240.167C866.322 240.789 870.292 239.895 873.482 237.694L873.789 237.478L1149.27 36.93C1151.77 35.1102 1153.6 32.576 1154.52 29.6965L1154.69 29.1172L1232.81 -259.996C1234.16 -264.997 1232.61 -270.31 1228.76 -273.888L1059 -431.491C1055.26 -434.957 1049.93 -436.273 1044.94 -434.989L1044.46 -434.857L748.32 -348.151C745.326 -347.274 742.7 -345.506 740.814 -343.106L740.447 -342.617L543.699 -68.9753C541.456 -65.8567 540.593 -62.011 541.288 -58.2878L541.36 -57.9276L594.011 187.825Z" stroke="url(#paint17_linear_7116_11315)" stroke-width="2.5289"/>
<path opacity="0.246377" d="M562.912 166.907C563.819 172.54 568.119 177.103 573.817 178.546L574.372 178.676L826.57 232.697C830.415 233.52 834.433 232.838 837.741 230.811L838.059 230.61L1121.75 46.7495C1124.35 45.0664 1126.32 42.6366 1127.38 39.8139L1127.58 39.2441L1220.03 -242.399C1221.65 -247.312 1220.37 -252.687 1216.7 -256.455L1056.48 -421.005C1052.92 -424.655 1047.66 -426.246 1042.6 -425.227L1042.11 -425.121L743.834 -354.855C740.791 -354.138 738.07 -352.512 736.058 -350.218L735.664 -349.751L526.309 -89.5489C523.902 -86.5578 522.837 -82.7698 523.338 -79.0224L523.391 -78.6596L562.912 166.907Z" stroke="url(#paint18_linear_7116_11315)" stroke-width="2.5289"/>
<path opacity="0.26087" d="M532.956 145.592C533.569 151.255 537.632 156.03 543.256 157.767L543.805 157.926L791.096 224.44C794.899 225.463 798.954 224.994 802.369 223.147L802.698 222.965L1093.59 55.9959C1096.27 54.4545 1098.37 52.1352 1099.58 49.3773L1099.81 48.8204L1206.05 -224.737C1207.92 -229.549 1206.93 -234.974 1203.46 -238.923L1053.09 -409.86C1049.72 -413.685 1044.54 -415.548 1039.43 -414.799L1038.93 -414.718L739.478 -360.801C736.396 -360.246 733.59 -358.769 731.458 -356.588L731.04 -356.142L509.938 -109.841C507.375 -106.986 506.112 -103.265 506.418 -99.5032L506.453 -99.1387L532.956 145.592Z" stroke="url(#paint19_linear_7116_11315)" stroke-width="2.5289"/>
<path opacity="0.275362" d="M504.156 123.942C504.475 129.623 508.29 134.599 513.825 136.627L514.367 136.814L756.068 215.425C759.818 216.644 763.897 216.39 767.408 214.728L767.746 214.563L1064.81 64.636C1067.58 63.2407 1069.79 61.0388 1071.15 58.3536L1071.41 57.8099L1190.88 -207.08C1193 -211.78 1192.29 -217.242 1189.02 -221.363L1048.81 -398.117C1045.64 -402.109 1040.55 -404.24 1035.4 -403.76L1034.9 -403.706L735.213 -365.996C732.103 -365.605 729.221 -364.28 726.976 -362.218L726.535 -361.795L494.567 -129.803C491.856 -127.091 490.399 -123.448 490.509 -119.681L490.525 -119.317L504.156 123.942Z" stroke="url(#paint20_linear_7116_11315)" stroke-width="2.5289"/>
<path opacity="0.289855" d="M476.522 102.032C476.544 107.717 480.102 112.883 485.534 115.197L486.065 115.412L721.523 205.688C725.208 207.101 729.298 207.062 732.893 205.59L733.24 205.443L1035.47 72.6494C1038.3 71.4038 1040.63 69.3264 1042.13 66.721L1042.41 66.1929L1174.52 -189.484C1176.89 -194.061 1176.46 -199.548 1173.4 -203.831L1043.6 -385.823C1040.64 -389.971 1035.66 -392.364 1030.49 -392.157L1029.99 -392.129L730.996 -370.435C727.868 -370.208 724.919 -369.039 722.568 -367.102L722.107 -366.704L480.168 -149.379C477.317 -146.817 475.673 -143.262 475.586 -139.5L475.583 -139.135L476.522 102.032Z" stroke="url(#paint21_linear_7116_11315)" stroke-width="2.5289"/>
<path opacity="0.304348" d="M450.062 79.9201C449.787 85.596 453.078 90.9413 458.39 93.5365L458.91 93.7787L687.498 195.259C691.107 196.862 695.197 197.037 698.865 195.758L699.219 195.629L1005.59 80.0078C1008.49 78.9147 1010.92 76.9655 1012.55 74.4466L1012.87 73.9357L1156.99 -172.023C1159.59 -176.465 1159.45 -181.963 1156.62 -186.398L1037.45 -373.039C1034.71 -377.335 1029.86 -379.985 1024.67 -380.049L1024.17 -380.048L726.788 -374.132C723.652 -374.07 720.646 -373.059 718.197 -371.251L717.715 -370.878L466.717 -168.525C463.735 -166.121 461.906 -162.662 461.624 -158.913L461.601 -158.55L450.062 79.9201Z" stroke="url(#paint22_linear_7116_11315)" stroke-width="2.5289"/>
<path opacity="0.318841" d="M424.776 57.6852C424.205 63.3382 427.218 68.8495 432.395 71.7193L432.903 71.9888L654.027 184.183C657.551 185.97 661.626 186.36 665.357 185.275L665.716 185.166L975.225 86.6992C978.174 85.7611 980.706 83.9457 982.463 81.5198L982.804 81.0265L1138.3 -154.744C1141.14 -159.041 1141.28 -164.537 1138.68 -169.114L1030.34 -359.811C1027.83 -364.245 1023.11 -367.145 1017.93 -367.481L1017.43 -367.505L722.551 -377.082C719.416 -377.183 716.362 -376.332 713.823 -374.659L713.322 -374.313L454.181 -187.186C451.077 -184.945 449.07 -181.59 448.592 -177.866L448.551 -177.504L424.776 57.6852Z" stroke="url(#paint23_linear_7116_11315)" stroke-width="2.5289"/>
<path opacity="0.333333" d="M400.665 35.3758C399.797 40.9924 402.522 46.6566 407.549 49.7936L408.042 50.0888L621.142 172.478C624.568 174.446 628.617 175.048 632.399 174.162L632.765 174.071L944.406 92.6872C947.398 91.9057 950.019 90.2282 951.901 87.901L952.267 87.4265L1118.48 -137.727C1121.54 -141.868 1121.97 -147.349 1119.61 -152.056L1022.26 -346.214C1019.97 -350.773 1015.41 -353.917 1010.25 -354.522L1009.75 -354.573L718.242 -379.31C715.118 -379.575 712.025 -378.885 709.403 -377.349L708.885 -377.031L442.528 -205.333C439.312 -203.26 437.132 -200.018 436.46 -196.327L436.399 -195.968L400.665 35.3758Z" stroke="url(#paint24_linear_7116_11315)" stroke-width="2.5289"/>
<path opacity="0.347826" d="M377.715 13.0659C376.553 18.6316 378.981 24.4341 383.841 27.8303L384.319 28.1515L588.865 160.195C592.184 162.337 596.196 163.149 600.018 162.462L600.388 162.39L913.171 97.9653C916.198 97.3418 918.902 95.8046 920.902 93.5813L921.292 93.1279L1097.54 -121.02C1100.81 -124.995 1101.53 -130.447 1099.42 -135.272L1013.17 -332.294C1011.12 -336.968 1006.73 -340.346 1001.61 -341.22L1001.11 -341.297L713.818 -380.818C710.714 -381.245 707.592 -380.719 704.894 -379.323L704.361 -379.033L431.717 -222.915C428.397 -221.014 426.051 -217.892 425.186 -214.243L425.107 -213.888L377.715 13.0659Z" stroke="url(#paint25_linear_7116_11315)" stroke-width="2.5289"/>
<path opacity="0.362319" d="M355.926 -9.17554C354.471 -3.6747 356.593 2.25098 361.272 5.89707L361.733 6.24276L557.233 147.375C560.435 149.687 564.399 150.705 568.25 150.218L568.622 150.166L881.572 102.522C884.626 102.057 887.405 100.664 889.518 98.5497L889.931 98.1173L1075.52 -104.677C1079 -108.476 1080 -113.885 1078.14 -118.815L1003.09 -318.104C1001.29 -322.88 997.077 -326.484 992.007 -327.622L991.514 -327.725L709.252 -381.614C706.176 -382.201 703.032 -381.839 700.267 -380.586L699.719 -380.324L421.718 -239.886C418.304 -238.162 415.798 -235.168 414.742 -231.569L414.644 -231.22L355.926 -9.17554Z" stroke="url(#paint26_linear_7116_11315)" stroke-width="2.5289"/>
<path opacity="0.376812" d="M335.276 -31.3015C333.533 -25.8805 335.34 -19.848 339.823 -15.9622L340.265 -15.593L526.265 134.044C529.34 136.518 533.243 137.741 537.113 137.453L537.487 137.421L849.647 106.33C852.719 106.024 855.565 104.778 857.785 102.777L858.221 102.366L1052.44 -88.7651C1056.12 -92.3798 1057.41 -97.7316 1055.81 -102.754L991.996 -303.717C990.451 -308.582 986.434 -312.4 981.431 -313.8L980.944 -313.929L704.498 -381.729C701.459 -382.475 698.303 -382.275 695.477 -381.169L694.917 -380.935L412.486 -256.224C408.988 -254.68 406.329 -251.82 405.085 -248.282L404.968 -247.938L335.276 -31.3015Z" stroke="url(#paint27_linear_7116_11315)" stroke-width="2.5289"/>
<path opacity="0.391304" d="M315.751 -53.2302C313.722 -47.9035 315.207 -41.7822 319.478 -37.6682L319.901 -37.2767L495.982 120.262C498.921 122.892 502.752 124.314 506.63 124.227L507.006 124.214L817.438 109.399C820.52 109.252 823.427 108.155 825.748 106.271L826.205 105.884L1028.34 -73.3181C1032.2 -76.7395 1033.77 -82.0208 1032.45 -87.1216L979.893 -289.168C978.607 -294.109 974.799 -298.132 969.878 -299.788L969.398 -299.941L699.52 -381.159C696.527 -382.06 693.367 -382.023 690.489 -381.064L689.917 -380.86L403.979 -271.876C400.405 -270.514 397.599 -267.796 396.169 -264.326L396.035 -263.987L315.751 -53.2302Z" stroke="url(#paint28_linear_7116_11315)" stroke-width="2.5289"/>
<path opacity="0.405797" d="M297.331 -74.9195C295.022 -69.7019 296.18 -63.5094 300.226 -59.1797L300.625 -58.7667L466.409 106.055C469.203 108.833 472.951 110.45 476.827 110.562L477.203 110.568L784.995 111.705C788.079 111.717 791.039 110.77 793.457 109.008L793.934 108.645L1003.26 -58.4027C1007.3 -61.6226 1009.15 -66.8183 1008.09 -71.9825L966.784 -274.531C965.764 -279.534 962.176 -283.748 957.352 -285.656L956.88 -285.833L694.291 -379.938C691.351 -380.991 688.194 -381.117 685.27 -380.307L684.688 -380.132L396.157 -286.823C392.517 -285.646 389.571 -283.074 387.959 -279.681L387.808 -279.351L297.331 -74.9195Z" stroke="url(#paint29_linear_7116_11315)" stroke-width="2.5289"/>
<path opacity="0.42029" d="M279.984 -96.3075C277.401 -91.2135 278.225 -84.9692 282.03 -80.4373L282.409 -80.0043L437.55 91.4674C440.19 94.3861 443.847 96.1947 447.711 96.5047L448.086 96.53L752.35 113.248C755.43 113.417 758.436 112.623 760.945 110.985L761.44 110.646L977.229 -44.0619C981.428 -47.0727 983.55 -52.1693 982.775 -57.382L952.666 -259.856C951.915 -264.905 948.559 -269.298 943.845 -271.451L943.384 -271.653L688.763 -378.08C685.884 -379.283 682.739 -379.571 679.775 -378.911L679.185 -378.767L388.966 -301.032C385.268 -300.042 382.19 -297.623 380.4 -294.315L380.23 -293.992L279.984 -96.3075Z" stroke="url(#paint30_linear_7116_11315)" stroke-width="2.5289"/>
<path opacity="0.434783" d="M263.687 -117.339C260.837 -112.383 261.324 -106.107 264.877 -101.388L265.23 -100.936L409.429 76.5435C411.909 79.5951 415.463 81.5886 419.305 82.0953L419.677 82.1396L719.557 114.024C722.624 114.35 725.671 113.708 728.264 112.198L728.777 111.884L950.29 -30.3405C954.642 -33.1352 957.033 -38.1176 956.54 -43.363L937.551 -245.197C937.073 -250.279 933.96 -254.837 929.372 -257.228L928.923 -257.453L682.914 -375.608C680.103 -376.958 676.977 -377.406 673.981 -376.897L673.383 -376.782L382.364 -314.476C378.619 -313.674 375.415 -311.413 373.45 -308.198L373.263 -307.884L263.687 -117.339Z" stroke="url(#paint31_linear_7116_11315)" stroke-width="2.5289"/>
<path opacity="0.449275" d="M248.408 -137.957C245.3 -133.154 245.447 -126.867 248.734 -121.976L249.062 -121.507L382.057 61.3281C384.367 64.5039 387.808 66.6766 391.619 67.3782L391.988 67.4423L686.658 114.034C689.705 114.516 692.785 114.028 695.458 112.648L695.988 112.361L922.488 -17.2775C926.982 -19.8497 929.636 -24.7022 929.427 -29.964L921.451 -230.604C921.248 -235.702 918.389 -240.412 913.939 -243.033L913.503 -243.28L676.71 -372.539C673.974 -374.033 670.873 -374.64 667.851 -374.282L667.248 -374.198L376.302 -327.127C372.517 -326.514 369.195 -324.416 367.06 -321.301L366.857 -320.997L248.408 -137.957Z" stroke="url(#paint32_linear_7116_11315)" stroke-width="2.5289"/>
<path opacity="0.463768" d="M234.117 -158.118C230.76 -153.481 230.566 -147.204 233.577 -142.159L233.878 -141.675L355.445 45.8565C357.579 49.1482 360.899 51.4952 364.669 52.3894L365.034 52.4721L653.7 113.276C656.722 113.912 659.828 113.578 662.576 112.332L663.121 112.071L893.874 -4.91651C898.497 -7.26038 901.408 -11.971 901.485 -17.233L904.382 -216.138C904.456 -221.235 901.859 -226.08 897.562 -228.922L897.14 -229.192L670.125 -368.906C667.471 -370.539 664.402 -371.304 661.361 -371.098L660.753 -371.044L370.735 -338.971C366.919 -338.549 363.486 -336.617 361.186 -333.611L360.967 -333.316L234.117 -158.118Z" stroke="url(#paint33_linear_7116_11315)" stroke-width="2.5289"/>
<path opacity="0.478261" d="M220.773 -177.77C217.177 -173.313 216.642 -167.068 219.366 -161.886L219.639 -161.387L329.595 30.1772C331.546 33.5757 334.736 36.0901 338.456 37.1745L338.817 37.2754L620.723 111.755C623.712 112.545 626.839 112.367 629.656 111.256L630.216 111.022L864.492 6.70812C869.232 4.59771 872.391 0.0439794 872.754 -5.20128L886.357 -201.841C886.708 -206.922 884.383 -211.886 880.251 -214.941L879.845 -215.231L663.126 -364.728C660.56 -366.498 657.531 -367.418 654.476 -367.364L653.865 -367.341L365.605 -349.984C361.768 -349.753 358.231 -347.993 355.77 -345.102L355.535 -344.818L220.773 -177.77Z" stroke="url(#paint34_linear_7116_11315)" stroke-width="2.5289"/>
<path opacity="0.492754" d="M208.333 -196.875C204.51 -192.611 203.638 -186.419 206.065 -181.118L206.309 -180.608L304.512 14.326C306.273 17.8216 309.325 20.4969 312.985 21.7688L313.341 21.8878L587.769 109.474C590.719 110.415 593.861 110.393 596.742 109.421L597.315 109.213L834.391 17.5588C839.235 15.6862 842.633 11.3024 843.281 6.09062L867.395 -187.771C868.023 -192.82 865.976 -197.886 862.022 -201.143L861.634 -201.453L655.684 -360.038C653.213 -361.941 650.23 -363.015 647.167 -363.114L646.554 -363.121L360.863 -360.156C357.012 -360.116 353.379 -358.532 350.763 -355.763L350.513 -355.492L208.333 -196.875Z" stroke="url(#paint35_linear_7116_11315)" stroke-width="2.5289"/>
<path opacity="0.507246" d="M196.763 -215.375C192.727 -211.316 191.52 -205.2 193.642 -199.8L193.858 -199.28L280.203 -1.64242C281.769 1.94092 284.673 4.77007 288.266 6.22635L288.617 6.36308L554.888 106.452C557.793 107.544 560.944 107.678 563.884 106.846L564.469 106.666L803.628 27.6184C808.562 25.9875 812.19 21.7866 813.121 16.6253L847.525 -173.959C848.428 -178.959 846.666 -184.111 842.902 -187.56L842.53 -187.888L647.781 -354.85C645.412 -356.881 642.481 -358.108 639.416 -358.36L638.802 -358.397L356.46 -369.462C352.604 -369.613 348.883 -368.209 346.117 -365.569L345.852 -365.31L196.763 -215.375Z" stroke="url(#paint36_linear_7116_11315)" stroke-width="2.5289"/>
<path opacity="0.521739" d="M186.014 -233.246C181.777 -229.403 180.241 -223.384 182.053 -217.905L182.238 -217.376L256.662 -17.7C258.027 -14.0386 260.777 -11.0624 264.294 -9.42491L264.636 -9.27097L522.115 102.688C524.969 103.928 528.123 104.22 531.118 103.53L531.715 103.379L772.251 36.8474C777.262 35.4612 781.108 31.4561 782.32 26.3621L826.769 -160.466C827.943 -165.401 826.469 -170.619 822.906 -174.248L822.555 -174.595L639.389 -349.206C637.127 -351.362 634.253 -352.74 631.192 -353.144L630.578 -353.211L352.338 -377.906C348.485 -378.248 344.683 -377.027 341.774 -374.523L341.495 -374.277L186.014 -233.246Z" stroke="url(#paint37_linear_7116_11315)" stroke-width="2.5289"/>
<path opacity="0.536232" d="M176.04 -250.451C171.618 -246.835 169.762 -240.934 171.257 -235.397L171.412 -234.863L233.889 -33.8054C235.048 -30.0765 237.635 -26.961 241.067 -25.1458L241.402 -24.9739L489.497 98.1931C492.293 99.5812 495.445 100.031 498.488 99.4848L499.096 99.3618L740.318 45.2214C745.393 44.0823 749.444 40.285 750.932 35.2756L805.155 -147.334C806.596 -152.188 805.415 -157.456 802.064 -161.252L801.734 -161.615L630.487 -343.136C628.339 -345.413 625.529 -346.939 622.478 -347.496L621.865 -347.594L348.448 -385.481C344.606 -386.014 340.732 -384.979 337.685 -382.618L337.393 -382.385L176.04 -250.451Z" stroke="url(#paint38_linear_7116_11315)" stroke-width="2.5289"/>
<path opacity="0.550725" d="M166.789 -266.947C162.197 -263.567 160.029 -257.805 161.205 -252.231L161.328 -251.692L211.87 -49.9073C212.818 -46.1213 215.237 -42.8736 218.576 -40.8845L218.901 -40.6962L457.066 92.9949C459.799 94.5287 462.943 95.1358 466.03 94.7358L466.646 94.6422L707.876 52.7315C713 51.841 717.246 48.2624 719.004 43.3534L782.707 -134.594C784.409 -139.349 783.524 -144.649 780.395 -148.6L780.085 -148.978L621.047 -336.658C619.019 -339.052 616.281 -340.725 613.245 -341.435L612.633 -341.564L344.727 -392.174C340.905 -392.896 336.966 -392.05 333.788 -389.837L333.483 -389.618L166.789 -266.947Z" stroke="url(#paint39_linear_7116_11315)" stroke-width="2.5289"/>
<path opacity="0.565217" d="M158.222 -282.71C153.475 -279.575 151.006 -273.973 151.861 -268.382L151.954 -267.842L190.611 -65.9741C191.345 -62.1421 193.587 -58.7709 196.824 -56.6118L197.141 -56.4061L424.874 87.1005C427.536 88.7784 430.667 89.5445 433.793 89.2929L434.418 89.2291L674.992 59.3535C680.153 58.7126 684.58 55.3645 686.6 50.5723L759.469 -122.288C761.426 -126.931 760.837 -132.244 757.939 -136.337L757.651 -136.73L611.065 -329.812C609.162 -332.319 606.5 -334.137 603.485 -335L602.877 -335.159L341.136 -397.99C337.342 -398.901 333.346 -398.248 330.044 -396.189L329.727 -395.984L158.222 -282.71Z" stroke="url(#paint40_linear_7116_11315)" stroke-width="2.5289"/>
<path opacity="0.57971" d="M150.28 -297.711C145.396 -294.828 142.639 -289.403 143.172 -283.818L143.234 -283.277L170.094 -81.962C170.61 -78.0944 172.669 -74.6074 175.797 -72.2826L176.103 -72.0616L392.952 80.535C395.539 82.3555 398.65 83.2804 401.81 83.1788L402.442 83.1447L641.72 65.0791C646.903 64.6877 651.494 61.5779 653.769 56.9178L735.469 -110.452C737.672 -114.967 737.379 -120.275 734.721 -124.496L734.456 -124.901L600.514 -322.625C598.742 -325.24 596.164 -327.2 593.176 -328.216L592.572 -328.407L337.612 -402.928C333.854 -404.026 329.81 -403.568 326.392 -401.668L326.063 -401.48L150.28 -297.711Z" stroke="url(#paint41_linear_7116_11315)" stroke-width="2.5289"/>
<path opacity="0.594203" d="M142.915 -311.939C137.912 -309.314 134.881 -304.086 135.094 -298.527L135.125 -297.987L150.31 -97.8478C150.606 -93.9566 152.475 -90.3631 155.484 -87.8772L155.779 -87.6401L361.341 73.3046C363.846 75.2656 366.931 76.3502 370.12 76.4008L370.759 76.397L608.116 69.884C613.308 69.7416 618.049 66.8792 620.569 62.366L710.745 -99.1312C713.187 -103.503 713.187 -108.788 710.776 -113.123L710.536 -113.54L589.385 -315.143C587.751 -317.861 585.262 -319.962 582.306 -321.131L581.708 -321.352L334.105 -407.007C330.392 -408.291 326.31 -408.029 322.782 -406.293L322.443 -406.121L142.915 -311.939Z" stroke="url(#paint42_linear_7116_11315)" stroke-width="2.5289"/>
<path opacity="0.608696" d="M136.079 -325.354C130.973 -322.992 127.685 -317.975 127.58 -312.463L127.58 -311.928L131.251 -113.575C131.323 -109.671 132.997 -105.98 135.88 -103.337L136.163 -103.085L330.083 65.4533C332.499 67.5528 335.552 68.7972 338.764 69.0019L339.408 69.029L574.244 73.7822C579.431 73.8872 584.306 71.2794 587.061 66.9271L685.34 -88.3362C688.009 -92.5525 688.302 -97.7965 686.144 -102.231L685.928 -102.658L577.667 -307.377C576.177 -310.193 573.784 -312.434 570.866 -313.756L570.276 -314.008L330.571 -410.213C326.91 -411.682 322.797 -411.62 319.168 -410.054L318.818 -409.897L136.079 -325.354Z" stroke="url(#paint43_linear_7116_11315)" stroke-width="2.5289"/>
<path opacity="0.623188" d="M129.703 -337.96C124.514 -335.863 120.985 -331.074 120.568 -325.629L120.537 -325.1L112.884 -129.128C112.732 -125.223 114.205 -121.443 116.954 -118.65L117.224 -118.382L299.196 56.9832C301.516 59.2193 304.532 60.6238 307.762 60.9847L308.411 61.0429L540.148 76.7494C545.316 77.0996 550.309 74.7529 553.287 70.5746L659.28 -78.1158C662.165 -82.1636 662.746 -87.3501 660.847 -91.8681L660.656 -92.3031L565.337 -299.382C563.997 -302.292 561.706 -304.668 558.832 -306.144L558.251 -306.426L326.94 -412.58C323.341 -414.232 319.206 -414.372 315.484 -412.978L315.125 -412.839L129.703 -337.96Z" stroke="url(#paint44_linear_7116_11315)" stroke-width="2.5289"/>
<path opacity="0.637681" d="M123.751 -349.728C118.494 -347.901 114.741 -343.352 114.018 -337.994L113.958 -337.472L95.2079 -144.461C94.8295 -140.567 96.0954 -136.706 98.7032 -133.767L98.9597 -133.486L268.73 47.9368C270.948 50.307 273.919 51.8719 277.161 52.3905L277.813 52.48L505.899 78.7996C511.033 79.3921 516.127 77.3118 519.317 73.3199L632.618 -68.4824C635.708 -72.3496 636.572 -77.461 634.937 -82.0476L634.771 -82.4896L552.399 -291.178C551.215 -294.175 549.033 -296.685 546.21 -298.313L545.637 -298.627L323.179 -414.107C319.649 -415.94 315.502 -416.282 311.694 -415.067L311.327 -414.944L123.751 -349.728Z" stroke="url(#paint45_linear_7116_11315)" stroke-width="2.5289"/>
<path opacity="0.652174" d="M118.157 -360.647C112.852 -359.088 108.893 -354.793 107.873 -349.54L107.784 -349.028L78.1931 -159.537C77.5886 -155.666 78.6429 -151.736 81.1002 -148.657L81.3429 -148.362L238.706 38.3427C240.815 40.8447 243.735 42.5702 246.983 43.2484L247.637 43.3697L471.546 79.9392C476.634 80.7702 481.812 78.9596 485.199 75.1653L605.389 -59.4562C608.671 -63.1319 609.811 -68.1515 608.444 -72.7908L608.304 -73.2394L538.836 -282.794C537.815 -285.873 535.75 -288.515 532.985 -290.296L532.422 -290.64L319.228 -414.81C315.776 -416.82 311.625 -417.366 307.742 -416.332L307.367 -416.228L118.157 -360.647Z" stroke="url(#paint46_linear_7116_11315)" stroke-width="2.5289"/>
<path opacity="0.666667" d="M112.87 -370.726C107.535 -369.437 103.391 -365.402 102.081 -360.273L101.963 -359.774L61.8219 -174.342C60.9915 -170.506 61.8304 -166.517 64.1301 -163.305L64.3568 -162.996L209.158 28.213C211.217 30.9316 214.204 32.8555 217.587 33.6506L217.916 33.7242L437.148 80.1571C442.177 81.2222 447.421 79.6846 450.993 76.0979L577.639 -51.073C581.099 -54.5478 582.507 -59.4613 581.41 -64.1381L581.297 -64.5897L524.649 -274.282C523.768 -277.542 521.723 -280.391 518.879 -282.33L518.602 -282.515L315.042 -414.722C311.677 -416.907 307.533 -417.658 303.582 -416.81L303.2 -416.722L112.87 -370.726Z" stroke="url(#paint47_linear_7116_11315)" stroke-width="2.5289"/>
<path opacity="0.681159" d="M107.839 -379.942C102.49 -378.92 98.1798 -375.156 96.5913 -370.167L96.4458 -369.68L46.0719 -188.83C45.0166 -185.041 45.6348 -181.003 47.7686 -177.664L47.9799 -177.344L180.116 17.5981C182.047 20.4466 184.968 22.5379 188.349 23.5013L188.677 23.5913L402.762 79.4813C407.719 80.7753 413.012 79.5116 416.754 76.1415L549.409 -43.3339C553.034 -46.5987 554.703 -51.3904 553.879 -56.0885L553.792 -56.5431L509.833 -265.657C509.133 -268.988 507.221 -271.968 504.447 -274.065L504.176 -274.266L310.574 -413.848C307.304 -416.205 303.178 -417.161 299.168 -416.501L298.781 -416.432L107.839 -379.942Z" stroke="url(#paint48_linear_7116_11315)" stroke-width="2.5289"/>
<path opacity="0.695652" d="M103.007 -388.311C97.6618 -387.553 93.2052 -384.067 91.3496 -379.234L91.1777 -378.762L30.9184 -202.99C29.6395 -199.26 30.0331 -195.183 31.9937 -191.725L32.1882 -191.393L32.1889 -191.393L151.604 6.51259C153.399 9.48726 156.246 11.7457 159.618 12.879L159.946 12.985L368.442 77.9073C373.314 79.4245 378.639 78.4353 382.537 75.2895L520.745 -36.2694C524.52 -39.3171 526.44 -43.9734 525.889 -48.6772L525.828 -49.1326L494.386 -256.969C493.872 -260.363 492.101 -263.471 489.405 -265.725L489.141 -265.941L305.779 -412.23C302.614 -414.756 298.514 -415.916 294.455 -415.447L294.063 -415.396L103.007 -388.311Z" stroke="url(#paint49_linear_7116_11315)" stroke-width="2.5289"/>
<path opacity="0.710145" d="M98.33 -395.818C93.0044 -395.32 88.421 -392.115 86.3111 -387.454L86.1142 -386.999L16.3423 -216.777C14.8427 -213.118 15.0089 -209.014 16.7885 -205.446L16.9655 -205.102L123.656 -4.99261C125.307 -1.89589 128.071 0.528498 131.426 1.8329L131.753 1.95571L334.248 75.4688C339.024 77.2026 344.364 76.4869 348.402 73.572L491.698 -29.8754C495.609 -32.6993 497.771 -37.2061 497.492 -41.8996L497.457 -42.3546L478.316 -248.234C477.995 -251.684 476.375 -254.915 473.763 -257.325L473.507 -257.556L300.621 -409.877C297.568 -412.567 293.506 -413.93 289.408 -413.653L289.012 -413.621L98.33 -395.818Z" stroke="url(#paint50_linear_7116_11315)" stroke-width="2.5289"/>
<path opacity="0.724638" d="M93.7374 -402.484C88.4477 -402.242 83.7565 -399.323 81.4056 -394.847L81.1853 -394.408L2.29956 -230.186C0.582017 -226.61 0.518335 -222.49 2.11001 -218.819L2.26881 -218.465L96.2732 -16.9007C97.7721 -13.6868 100.446 -11.097 103.777 -9.62035L104.102 -9.48117L300.217 72.1671C304.885 74.1103 310.224 73.6659 314.386 70.9878L462.295 -24.1772C466.328 -26.7718 468.72 -31.1174 468.712 -35.7851L468.703 -36.2376L461.61 -239.503C461.488 -242.999 460.024 -246.348 457.505 -248.913L457.258 -249.159L295.04 -406.835C292.109 -409.683 288.095 -411.25 283.968 -411.168L283.568 -411.155L93.7374 -402.484Z" stroke="url(#paint51_linear_7116_11315)" stroke-width="2.5289"/>
<path opacity="0.73913" d="M89.188 -408.302C83.9489 -408.31 79.1703 -405.678 76.5926 -401.397L76.3499 -400.978L-11.2264 -243.176C-13.1576 -239.696 -13.4541 -235.573 -12.0578 -231.807L-11.9172 -231.444L69.491 -29.159C70.8295 -25.8333 73.4026 -23.0799 76.7017 -21.4304L77.0233 -21.2748L266.409 68.0395C270.958 70.1848 276.28 70.0084 280.552 67.571L432.593 -19.1663C436.731 -21.5276 439.343 -25.7004 439.603 -30.3267L439.622 -30.7762L444.28 -230.79C444.362 -234.324 443.065 -237.785 440.648 -240.503L440.41 -240.764L289.008 -403.118C286.207 -406.121 282.251 -407.888 278.105 -408.002L277.703 -408.007L89.188 -408.302Z" stroke="url(#paint52_linear_7116_11315)" stroke-width="2.5289"/>
<path opacity="0.753623" d="M84.6312 -413.294C79.457 -413.545 74.6098 -411.199 71.8203 -407.126L71.5567 -406.727L-24.2646 -255.741C-26.405 -252.368 -26.9368 -248.253 -25.7423 -244.403L-25.6206 -244.03L43.3262 -41.7444C44.4958 -38.3129 46.9586 -35.3975 50.2175 -33.5747L50.5357 -33.4016L232.876 63.0988C237.296 65.4378 242.583 65.5258 246.95 63.3327L402.635 -14.8572C406.866 -16.9819 409.684 -20.9721 410.211 -25.5418L410.254 -25.9861L426.336 -222.14C426.628 -225.701 425.504 -229.27 423.197 -232.138L422.97 -232.413L282.487 -398.772C279.826 -401.923 275.939 -403.889 271.784 -404.199L271.381 -404.224L84.6312 -413.294Z" stroke="url(#paint53_linear_7116_11315)" stroke-width="2.5289"/>
<path opacity="0.768116" d="M80.0205 -417.472C74.9242 -417.959 70.0252 -415.9 67.039 -412.044L66.7558 -411.664L-36.8435 -267.861C-39.1879 -264.607 -39.9546 -260.512 -38.968 -256.587L-38.8676 -256.208L17.7947 -54.6188C18.7871 -51.0879 21.1313 -48.0133 24.3418 -46.0173L24.6551 -45.8277L199.666 57.371C203.946 59.8948 209.185 60.2414 213.631 58.2946L372.468 -11.2537C376.776 -13.1398 379.789 -16.9372 380.577 -21.4357L380.646 -21.8725L407.786 -213.585C408.292 -217.162 407.351 -220.832 405.162 -223.847L404.947 -224.137L275.444 -393.832C272.93 -397.126 269.125 -399.286 264.97 -399.793L264.567 -399.836L80.0205 -417.472Z" stroke="url(#paint54_linear_7116_11315)" stroke-width="2.5289"/>
<path opacity="0.782609" d="M75.2993 -420.853C70.2931 -421.568 65.3604 -419.791 62.1933 -416.159L61.8919 -415.802L-49.0009 -279.519C-51.5429 -276.395 -52.5454 -272.332 -51.7729 -268.344L-51.6925 -267.958L-7.09357 -67.743C-6.28659 -64.1203 -4.07166 -60.8903 -0.918337 -58.7216L-0.610898 -58.5154L166.817 50.8868C170.949 53.5865 176.124 54.1856 180.635 52.4864L342.13 -8.35255C346.5 -9.99868 349.696 -13.5946 350.739 -18.007L350.834 -18.4364L388.633 -205.152C389.358 -208.735 388.608 -212.498 386.548 -215.656L386.345 -215.96L267.84 -388.333C265.482 -391.762 261.767 -394.114 257.624 -394.816L257.222 -394.879L75.2993 -420.853Z" stroke="url(#paint55_linear_7116_11315)" stroke-width="2.5289"/>
<path opacity="0.797101" d="M70.4275 -423.441C65.5229 -424.375 60.5735 -422.877 57.2411 -419.477L56.9241 -419.143L-60.7603 -290.685C-63.4925 -287.703 -64.7306 -283.687 -64.1776 -279.646L-64.1187 -279.254L-31.322 -81.0665C-30.7086 -77.3604 -28.633 -73.979 -25.5463 -71.6387L-25.2448 -71.4164L134.38 43.6898C138.355 46.5558 143.453 47.4012 148.013 45.95L311.672 -6.13794C316.09 -7.54403 319.454 -10.9313 320.748 -15.2439L320.867 -15.6636L368.895 -196.86C369.843 -200.437 369.293 -204.284 367.371 -207.581L367.181 -207.898L259.65 -382.3C257.457 -385.857 253.844 -388.396 249.722 -389.294L249.322 -389.375L70.4275 -423.441Z" stroke="url(#paint56_linear_7116_11315)" stroke-width="2.5289"/>
<path opacity="0.811594" d="M65.3474 -425.281C60.5551 -426.425 55.6046 -425.204 52.1229 -422.042L51.7904 -421.729L-72.166 -301.375C-75.0815 -298.544 -76.5537 -294.587 -76.225 -290.504L-76.1874 -290.109L-54.8934 -94.5763C-54.4816 -90.7957 -52.5564 -87.2676 -49.5457 -84.7572L-49.2507 -84.5179L102.383 35.7891C106.193 38.8119 111.202 39.8956 115.797 38.6915L281.123 -4.62903C285.575 -5.79567 289.095 -8.96699 290.631 -13.1657L290.774 -13.5752L348.575 -188.761C349.75 -192.32 349.406 -196.243 347.63 -199.674L347.454 -200.004L250.834 -375.799C248.813 -379.475 245.313 -382.197 241.223 -383.288L240.825 -383.388L65.3474 -425.281Z" stroke="url(#paint57_linear_7116_11315)" stroke-width="2.5289"/>
<path opacity="0.826087" d="M60.0291 -426.373C55.3582 -427.718 50.4222 -426.766 46.807 -423.846L46.4619 -423.557L-83.2365 -311.55C-86.3266 -308.882 -88.0317 -304.996 -87.9313 -300.885L-87.9154 -300.487L-77.7869 -108.209C-77.5843 -104.363 -75.8188 -100.694 -72.8933 -98.016L-72.6059 -97.7599L70.8827 27.2448C74.5206 30.4139 79.4266 31.728 84.0434 30.7696L250.54 -3.79289C255.013 -4.72139 258.676 -7.6712 260.447 -11.7438L260.612 -12.1406L327.702 -180.859C329.104 -184.386 328.975 -188.375 327.355 -191.935L327.195 -192.278L241.383 -368.845C239.542 -372.633 236.164 -375.53 232.115 -376.813L231.722 -376.932L60.0291 -426.373Z" stroke="url(#paint58_linear_7116_11315)" stroke-width="2.5289"/>
<path opacity="0.84058" d="M54.4244 -426.755C49.884 -428.292 44.976 -427.603 41.243 -424.928L40.885 -424.663L-94.0116 -321.216C-97.2671 -318.72 -99.2018 -314.919 -99.3331 -310.792L-99.3402 -310.392L-100.006 -121.937C-100.02 -118.038 -98.4243 -114.234 -95.5937 -111.391L-95.3151 -111.118L39.9047 18.0806C43.3641 21.3859 48.1564 22.9218 52.7812 22.2069L219.957 -3.63302C224.437 -4.32553 228.23 -7.04826 230.227 -10.9818L230.415 -11.3661L306.282 -173.192C307.915 -176.675 308.009 -180.719 306.554 -184.4L306.409 -184.756L231.264 -361.493C229.611 -365.382 226.366 -368.449 222.37 -369.921L221.981 -370.059L54.4244 -426.755Z" stroke="url(#paint59_linear_7116_11315)" stroke-width="2.5289"/>
<path opacity="0.855072" d="M48.4866 -426.458C44.0837 -428.176 39.2172 -427.744 35.382 -425.316L35.0144 -425.075L-104.527 -330.371C-107.939 -328.055 -110.1 -324.352 -110.466 -320.222L-110.495 -319.821L-121.553 -135.727C-121.79 -131.785 -120.374 -127.854 -117.648 -124.849L-117.38 -124.561L9.47917 8.33421C12.7541 11.7649 17.4223 13.5128 22.0418 13.0388L189.411 -4.1394C193.886 -4.59871 197.794 -7.09025 200.008 -10.8729L200.217 -11.2425L284.332 -165.792C286.195 -169.216 286.518 -173.303 285.237 -177.099L285.109 -177.465L220.455 -353.788C218.995 -357.77 215.894 -361 211.959 -362.659L211.576 -362.814L48.4866 -426.458Z" stroke="url(#paint60_linear_7116_11315)" stroke-width="2.5289"/>
<path opacity="0.869565" d="M42.1909 -425.505C37.9326 -427.395 33.1196 -427.213 29.1974 -425.033L28.8209 -424.816L-114.806 -339C-118.363 -336.874 -120.744 -333.282 -121.347 -329.163L-121.4 -328.762L-142.416 -149.532C-142.882 -145.56 -141.656 -141.511 -139.044 -138.349L-138.787 -138.045L-20.3495 -1.94955C-17.2639 1.59589 -12.7297 3.54737 -8.12801 3.31046L158.951 -5.29137C163.408 -5.52087 167.419 -7.77779 169.84 -11.3983L170.069 -11.753L261.881 -158.673C263.975 -162.025 264.534 -166.144 263.435 -170.045L263.324 -170.421L208.95 -345.77C207.69 -349.833 204.741 -353.219 200.878 -355.06L200.502 -355.233L42.1909 -425.505Z" stroke="url(#paint61_linear_7116_11315)" stroke-width="2.5289"/>
<path opacity="0.913043" d="M20.743 -419.04C16.9517 -421.388 12.3651 -421.91 8.2704 -420.475L7.87579 -420.329L-144.594 -361.732C-148.521 -360.223 -151.533 -357.041 -152.847 -353.036L-152.969 -352.646L-201.002 -190.682C-202.183 -186.699 -201.584 -182.352 -199.37 -178.748L-199.151 -178.402L-106.049 -35.6077C-103.554 -31.782 -99.4716 -29.2796 -94.9935 -28.831L68.4063 -12.4606C72.7445 -12.0259 76.9813 -13.5662 79.9563 -16.6419L80.2404 -16.9441L191.68 -139.246C194.454 -142.291 195.749 -146.424 195.248 -150.586L195.193 -150.989L170.075 -320.281C169.446 -324.522 167.007 -328.321 163.415 -330.685L163.064 -330.909L20.743 -419.04Z" stroke="url(#paint62_linear_7116_11315)" stroke-width="2.5289"/>
<path opacity="0.927536" d="M12.6439 -415.807C9.01699 -418.288 4.52494 -419.027 0.400965 -417.838L0.00316481 -417.717L-154.274 -368.268C-158.301 -366.977 -161.508 -363.956 -163.056 -360.017L-163.2 -359.633L-219.213 -204.195C-220.639 -200.237 -220.264 -195.812 -218.201 -192.074L-217.996 -191.714L-133.268 -47.6234C-130.976 -43.7257 -127.059 -41.0598 -122.644 -40.3926L38.6278 -16.0281C42.9049 -15.3819 47.1901 -16.6811 50.3259 -19.5576L50.6258 -19.8411L167.414 -133.487C170.408 -136.4 171.955 -140.509 171.667 -144.738L171.633 -145.146L155.643 -311.463C155.232 -315.74 152.979 -319.658 149.495 -322.186L149.154 -322.427L12.6439 -415.807Z" stroke="url(#paint63_linear_7116_11315)" stroke-width="2.5289"/>
<path opacity="0.942029" d="M4.01712 -412.086C0.55778 -414.691 -3.83037 -415.64 -7.97015 -414.694L-8.36986 -414.596L-163.885 -374.278C-167.998 -373.212 -171.391 -370.363 -173.171 -366.505L-173.339 -366.128L-236.787 -217.536C-238.459 -213.618 -238.317 -209.129 -236.414 -205.263L-236.224 -204.891L-159.787 -59.9525C-157.699 -55.9932 -153.952 -53.1738 -149.61 -52.2941L9.10063 -20.1376C13.3072 -19.2854 17.6282 -20.3437 20.9122 -23.0143L21.2266 -23.2773L142.752 -128.107C145.958 -130.873 147.76 -134.942 147.691 -139.224L147.679 -139.639L140.463 -302.549C140.273 -306.85 138.212 -310.877 134.845 -313.563L134.515 -313.82L4.01712 -412.086Z" stroke="url(#paint64_linear_7116_11315)" stroke-width="2.5289"/>
<path opacity="0.956522" d="M-5.16338 -407.924C-8.45249 -410.644 -12.7299 -411.793 -16.8726 -411.087L-17.2736 -411.013L-173.462 -379.776C-177.649 -378.938 -181.22 -376.274 -183.228 -372.51L-183.417 -372.142L-253.741 -230.679C-255.661 -226.817 -255.759 -222.276 -254.023 -218.29L-253.849 -217.907L-185.597 -72.5548C-183.714 -68.5445 -180.143 -65.5819 -175.884 -64.4954L-20.1497 -24.7701C-16.0234 -23.7176 -11.6793 -24.535 -8.26021 -26.9925L-7.93243 -27.2354L117.714 -123.127C121.127 -125.732 123.184 -129.745 123.339 -134.069L123.348 -134.489L124.531 -293.59C124.563 -297.902 122.701 -302.028 119.457 -304.867L119.139 -305.138L-5.16338 -407.924Z" stroke="url(#paint65_linear_7116_11315)" stroke-width="2.5289"/>
<path opacity="0.971014" d="M-14.9065 -403.356C-18.0232 -406.182 -22.1824 -407.524 -26.3153 -407.054L-26.7147 -407.003L-183.02 -384.766C-187.268 -384.162 -191.005 -381.692 -193.236 -378.037L-193.447 -377.68L-270.079 -243.588C-272.246 -239.798 -272.587 -235.219 -271.027 -231.122L-270.87 -230.727L-210.671 -85.3829C-208.993 -81.3318 -205.603 -78.2356 -201.436 -76.9486L-49.0796 -29.8974C-45.0425 -28.6507 -40.6892 -29.2294 -37.1485 -31.468L-36.8076 -31.6897L92.3413 -118.559C95.9531 -120.989 98.2644 -124.93 98.649 -129.284L98.6798 -129.707L107.865 -284.628C108.12 -288.939 106.461 -293.151 103.349 -296.137L103.044 -296.423L-14.9065 -403.356Z" stroke="url(#paint66_linear_7116_11315)" stroke-width="2.5289"/>
<path opacity="0.985507" d="M-25.2396 -398.432C-28.1819 -401.354 -32.2156 -402.881 -36.3263 -402.643L-36.7244 -402.614L-192.598 -389.265C-196.892 -388.897 -200.785 -386.633 -203.233 -383.099L-203.465 -382.754L-285.827 -256.24C-288.237 -252.537 -288.828 -247.934 -287.449 -243.734L-287.31 -243.329L-235.012 -98.3958C-233.539 -94.3142 -230.334 -91.0954 -226.267 -89.6144L-77.6736 -35.4996C-73.7341 -34.0649 -69.383 -34.4058 -65.7341 -36.4206L-65.3826 -36.62L66.6512 -114.423C70.4524 -116.663 73.0169 -120.517 73.6343 -124.887L73.688 -125.312L90.4588 -275.712C90.938 -280.01 89.4876 -284.299 86.5148 -287.425L86.2224 -287.724L-25.2396 -398.432Z" stroke="url(#paint67_linear_7116_11315)" stroke-width="2.5289"/>
<path d="M-36.1807 -393.183C-38.9471 -396.194 -42.8483 -397.896 -46.9246 -397.885L-47.3193 -397.879L-202.224 -393.274C-206.551 -393.146 -210.588 -391.096 -213.245 -387.698L-213.498 -387.365L-301.003 -268.595C-303.656 -264.995 -304.5 -260.382 -303.31 -256.088L-303.189 -255.673L-258.616 -111.541C-257.347 -107.438 -254.329 -104.106 -250.371 -102.438L-105.906 -41.5387C-102.073 -39.9227 -97.7373 -40.0284 -93.9944 -41.8151L-93.6334 -41.9926L40.6706 -110.72C44.6512 -112.757 47.466 -116.508 48.3188 -120.881L48.3954 -121.306L72.3226 -266.877C73.0247 -271.149 71.7856 -275.503 68.9585 -278.763L68.6801 -279.075L-36.1807 -393.183Z" stroke="url(#paint68_linear_7116_11315)" stroke-width="2.5289"/>
</g>
<defs>
<linearGradient id="paint0_linear_7116_11315" x1="-463.477" y1="180.986" x2="408.816" y2="25.3134" gradientUnits="userSpaceOnUse">
<stop stop-color="#15BFFD"/>
<stop offset="1" stop-color="#9C37FD"/>
</linearGradient>
<linearGradient id="paint1_linear_7116_11315" x1="1258.52" y1="1667.99" x2="2130.82" y2="1512.31" gradientUnits="userSpaceOnUse">
<stop stop-color="#15BFFD"/>
<stop offset="1" stop-color="#9C37FD"/>
</linearGradient>
<linearGradient id="paint2_linear_7116_11315" x1="1185.23" y1="419.15" x2="1184.43" y2="-562.317" gradientUnits="userSpaceOnUse">
<stop stop-color="#FF1CF7"/>
<stop offset="1" stop-color="#00F0FF"/>
</linearGradient>
<linearGradient id="paint3_linear_7116_11315" x1="1140.79" y1="411.811" x2="1188.94" y2="-557.985" gradientUnits="userSpaceOnUse">
<stop stop-color="#FF1CF7"/>
<stop offset="1" stop-color="#00F0FF"/>
</linearGradient>
<linearGradient id="paint4_linear_7116_11315" x1="1096.83" y1="403.215" x2="1192.6" y2="-552.751" gradientUnits="userSpaceOnUse">
<stop stop-color="#FF1CF7"/>
<stop offset="1" stop-color="#00F0FF"/>
</linearGradient>
<linearGradient id="paint5_linear_7116_11315" x1="1053.4" y1="393.4" x2="1195.43" y2="-546.692" gradientUnits="userSpaceOnUse">
<stop stop-color="#FF1CF7"/>
<stop offset="1" stop-color="#00F0FF"/>
</linearGradient>
<linearGradient id="paint6_linear_7116_11315" x1="1010.58" y1="382.402" x2="1197.44" y2="-539.88" gradientUnits="userSpaceOnUse">
<stop stop-color="#FF1CF7"/>
<stop offset="1" stop-color="#00F0FF"/>
</linearGradient>
<linearGradient id="paint7_linear_7116_11315" x1="968.429" y1="370.276" x2="1198.68" y2="-532.36" gradientUnits="userSpaceOnUse">
<stop stop-color="#FF1CF7"/>
<stop offset="1" stop-color="#00F0FF"/>
</linearGradient>
<linearGradient id="paint8_linear_7116_11315" x1="927.001" y1="357.054" x2="1199.15" y2="-524.195" gradientUnits="userSpaceOnUse">
<stop stop-color="#FF1CF7"/>
<stop offset="1" stop-color="#00F0FF"/>
</linearGradient>
<linearGradient id="paint9_linear_7116_11315" x1="886.362" y1="342.81" x2="1198.9" y2="-515.399" gradientUnits="userSpaceOnUse">
<stop stop-color="#FF1CF7"/>
<stop offset="1" stop-color="#00F0FF"/>
</linearGradient>
<linearGradient id="paint10_linear_7116_11315" x1="846.556" y1="327.586" x2="1197.96" y2="-506.008" gradientUnits="userSpaceOnUse">
<stop stop-color="#FF1CF7"/>
<stop offset="1" stop-color="#00F0FF"/>
</linearGradient>
<linearGradient id="paint11_linear_7116_11315" x1="807.633" y1="311.434" x2="1196.33" y2="-496.044" gradientUnits="userSpaceOnUse">
<stop stop-color="#FF1CF7"/>
<stop offset="1" stop-color="#00F0FF"/>
</linearGradient>
<linearGradient id="paint12_linear_7116_11315" x1="769.64" y1="294.411" x2="1194.06" y2="-485.522" gradientUnits="userSpaceOnUse">
<stop stop-color="#FF1CF7"/>
<stop offset="1" stop-color="#00F0FF"/>
</linearGradient>
<linearGradient id="paint13_linear_7116_11315" x1="732.627" y1="276.594" x2="1191.15" y2="-474.427" gradientUnits="userSpaceOnUse">
<stop stop-color="#FF1CF7"/>
<stop offset="1" stop-color="#00F0FF"/>
</linearGradient>
<linearGradient id="paint14_linear_7116_11315" x1="696.617" y1="258.02" x2="1187.62" y2="-462.784" gradientUnits="userSpaceOnUse">
<stop stop-color="#FF1CF7"/>
<stop offset="1" stop-color="#00F0FF"/>
</linearGradient>
<linearGradient id="paint15_linear_7116_11315" x1="661.654" y1="238.771" x2="1183.46" y2="-450.567" gradientUnits="userSpaceOnUse">
<stop stop-color="#FF1CF7"/>
<stop offset="1" stop-color="#00F0FF"/>
</linearGradient>
<linearGradient id="paint16_linear_7116_11315" x1="627.77" y1="218.91" x2="1178.68" y2="-437.77" gradientUnits="userSpaceOnUse">
<stop stop-color="#FF1CF7"/>
<stop offset="1" stop-color="#00F0FF"/>
</linearGradient>
<linearGradient id="paint17_linear_7116_11315" x1="594.981" y1="198.486" x2="1173.26" y2="-424.401" gradientUnits="userSpaceOnUse">
<stop stop-color="#FF1CF7"/>
<stop offset="1" stop-color="#00F0FF"/>
</linearGradient>
<linearGradient id="paint18_linear_7116_11315" x1="563.326" y1="177.579" x2="1167.2" y2="-410.434" gradientUnits="userSpaceOnUse">
<stop stop-color="#FF1CF7"/>
<stop offset="1" stop-color="#00F0FF"/>
</linearGradient>
<linearGradient id="paint19_linear_7116_11315" x1="532.813" y1="156.252" x2="1160.46" y2="-395.866" gradientUnits="userSpaceOnUse">
<stop stop-color="#FF1CF7"/>
<stop offset="1" stop-color="#00F0FF"/>
</linearGradient>
<linearGradient id="paint20_linear_7116_11315" x1="503.458" y1="134.567" x2="1153" y2="-380.697" gradientUnits="userSpaceOnUse">
<stop stop-color="#FF1CF7"/>
<stop offset="1" stop-color="#00F0FF"/>
</linearGradient>
<linearGradient id="paint21_linear_7116_11315" x1="475.271" y1="112.597" x2="1144.78" y2="-364.919" gradientUnits="userSpaceOnUse">
<stop stop-color="#FF1CF7"/>
<stop offset="1" stop-color="#00F0FF"/>
</linearGradient>
<linearGradient id="paint22_linear_7116_11315" x1="448.26" y1="90.4013" x2="1135.76" y2="-348.546" gradientUnits="userSpaceOnUse">
<stop stop-color="#FF1CF7"/>
<stop offset="1" stop-color="#00F0FF"/>
</linearGradient>
<linearGradient id="paint23_linear_7116_11315" x1="422.428" y1="68.0572" x2="1125.88" y2="-331.577" gradientUnits="userSpaceOnUse">
<stop stop-color="#FF1CF7"/>
<stop offset="1" stop-color="#00F0FF"/>
</linearGradient>
<linearGradient id="paint24_linear_7116_11315" x1="397.774" y1="45.6133" x2="1115.08" y2="-314.051" gradientUnits="userSpaceOnUse">
<stop stop-color="#FF1CF7"/>
<stop offset="1" stop-color="#00F0FF"/>
</linearGradient>
<linearGradient id="paint25_linear_7116_11315" x1="374.288" y1="23.1435" x2="1103.3" y2="-295.989" gradientUnits="userSpaceOnUse">
<stop stop-color="#FF1CF7"/>
<stop offset="1" stop-color="#00F0FF"/>
</linearGradient>
<linearGradient id="paint26_linear_7116_11315" x1="351.971" y1="0.716205" x2="1090.48" y2="-277.427" gradientUnits="userSpaceOnUse">
<stop stop-color="#FF1CF7"/>
<stop offset="1" stop-color="#00F0FF"/>
</linearGradient>
<linearGradient id="paint27_linear_7116_11315" x1="330.804" y1="-21.6214" x2="1076.55" y2="-258.433" gradientUnits="userSpaceOnUse">
<stop stop-color="#FF1CF7"/>
<stop offset="1" stop-color="#00F0FF"/>
</linearGradient>
<linearGradient id="paint28_linear_7116_11315" x1="310.77" y1="-43.7888" x2="1061.45" y2="-239.049" gradientUnits="userSpaceOnUse">
<stop stop-color="#FF1CF7"/>
<stop offset="1" stop-color="#00F0FF"/>
</linearGradient>
<linearGradient id="paint29_linear_7116_11315" x1="291.857" y1="-65.7423" x2="1045.13" y2="-219.367" gradientUnits="userSpaceOnUse">
<stop stop-color="#FF1CF7"/>
<stop offset="1" stop-color="#00F0FF"/>
</linearGradient>
<linearGradient id="paint30_linear_7116_11315" x1="274.03" y1="-87.4204" x2="1027.52" y2="-199.468" gradientUnits="userSpaceOnUse">
<stop stop-color="#FF1CF7"/>
<stop offset="1" stop-color="#00F0FF"/>
</linearGradient>
<linearGradient id="paint31_linear_7116_11315" x1="257.271" y1="-108.768" x2="1008.58" y2="-179.449" gradientUnits="userSpaceOnUse">
<stop stop-color="#FF1CF7"/>
<stop offset="1" stop-color="#00F0FF"/>
</linearGradient>
<linearGradient id="paint32_linear_7116_11315" x1="241.549" y1="-129.726" x2="988.272" y2="-159.413" gradientUnits="userSpaceOnUse">
<stop stop-color="#FF1CF7"/>
<stop offset="1" stop-color="#00F0FF"/>
</linearGradient>
<linearGradient id="paint33_linear_7116_11315" x1="226.836" y1="-150.252" x2="966.585" y2="-139.48" gradientUnits="userSpaceOnUse">
<stop stop-color="#FF1CF7"/>
<stop offset="1" stop-color="#00F0FF"/>
</linearGradient>
<linearGradient id="paint34_linear_7116_11315" x1="213.091" y1="-170.292" x2="943.499" y2="-119.766" gradientUnits="userSpaceOnUse">
<stop stop-color="#FF1CF7"/>
<stop offset="1" stop-color="#00F0FF"/>
</linearGradient>
<linearGradient id="paint35_linear_7116_11315" x1="200.278" y1="-189.805" x2="919.015" y2="-100.404" gradientUnits="userSpaceOnUse">
<stop stop-color="#FF1CF7"/>
<stop offset="1" stop-color="#00F0FF"/>
</linearGradient>
<linearGradient id="paint36_linear_7116_11315" x1="188.361" y1="-208.735" x2="893.159" y2="-81.5058" gradientUnits="userSpaceOnUse">
<stop stop-color="#FF1CF7"/>
<stop offset="1" stop-color="#00F0FF"/>
</linearGradient>
<linearGradient id="paint37_linear_7116_11315" x1="177.292" y1="-227.054" x2="865.959" y2="-63.2133" gradientUnits="userSpaceOnUse">
<stop stop-color="#FF1CF7"/>
<stop offset="1" stop-color="#00F0FF"/>
</linearGradient>
<linearGradient id="paint38_linear_7116_11315" x1="167.03" y1="-244.725" x2="837.468" y2="-45.6511" gradientUnits="userSpaceOnUse">
<stop stop-color="#FF1CF7"/>
<stop offset="1" stop-color="#00F0FF"/>
</linearGradient>
<linearGradient id="paint39_linear_7116_11315" x1="157.522" y1="-261.7" x2="807.746" y2="-28.9267" gradientUnits="userSpaceOnUse">
<stop stop-color="#FF1CF7"/>
<stop offset="1" stop-color="#00F0FF"/>
</linearGradient>
<linearGradient id="paint40_linear_7116_11315" x1="148.73" y1="-277.956" x2="776.883" y2="-13.1585" gradientUnits="userSpaceOnUse">
<stop stop-color="#FF1CF7"/>
<stop offset="1" stop-color="#00F0FF"/>
</linearGradient>
<linearGradient id="paint41_linear_7116_11315" x1="140.597" y1="-293.459" x2="744.966" y2="1.55701" gradientUnits="userSpaceOnUse">
<stop stop-color="#FF1CF7"/>
<stop offset="1" stop-color="#00F0FF"/>
</linearGradient>
<linearGradient id="paint42_linear_7116_11315" x1="133.076" y1="-308.198" x2="712.104" y2="15.117" gradientUnits="userSpaceOnUse">
<stop stop-color="#FF1CF7"/>
<stop offset="1" stop-color="#00F0FF"/>
</linearGradient>
<linearGradient id="paint43_linear_7116_11315" x1="126.118" y1="-322.128" x2="678.416" y2="27.4678" gradientUnits="userSpaceOnUse">
<stop stop-color="#FF1CF7"/>
<stop offset="1" stop-color="#00F0FF"/>
</linearGradient>
<linearGradient id="paint44_linear_7116_11315" x1="119.656" y1="-335.252" x2="644.008" y2="38.528" gradientUnits="userSpaceOnUse">
<stop stop-color="#FF1CF7"/>
<stop offset="1" stop-color="#00F0FF"/>
</linearGradient>
<linearGradient id="paint45_linear_7116_11315" x1="113.651" y1="-347.539" x2="609.023" y2="48.268" gradientUnits="userSpaceOnUse">
<stop stop-color="#FF1CF7"/>
<stop offset="1" stop-color="#00F0FF"/>
</linearGradient>
<linearGradient id="paint46_linear_7116_11315" x1="108.039" y1="-358.974" x2="573.581" y2="56.6623" gradientUnits="userSpaceOnUse">
<stop stop-color="#FF1CF7"/>
<stop offset="1" stop-color="#00F0FF"/>
</linearGradient>
<linearGradient id="paint47_linear_7116_11315" x1="102.769" y1="-369.564" x2="537.814" y2="63.6826" gradientUnits="userSpaceOnUse">
<stop stop-color="#FF1CF7"/>
<stop offset="1" stop-color="#00F0FF"/>
</linearGradient>
<linearGradient id="paint48_linear_7116_11315" x1="97.7863" y1="-379.285" x2="501.849" y2="69.3508" gradientUnits="userSpaceOnUse">
<stop stop-color="#FF1CF7"/>
<stop offset="1" stop-color="#00F0FF"/>
</linearGradient>
<linearGradient id="paint49_linear_7116_11315" x1="93.0348" y1="-388.149" x2="465.806" y2="73.6685" gradientUnits="userSpaceOnUse">
<stop stop-color="#FF1CF7"/>
<stop offset="1" stop-color="#00F0FF"/>
</linearGradient>
<linearGradient id="paint50_linear_7116_11315" x1="88.4682" y1="-396.14" x2="429.809" y2="76.6852" gradientUnits="userSpaceOnUse">
<stop stop-color="#FF1CF7"/>
<stop offset="1" stop-color="#00F0FF"/>
</linearGradient>
<linearGradient id="paint51_linear_7116_11315" x1="84.0148" y1="-403.278" x2="393.945" y2="78.4268" gradientUnits="userSpaceOnUse">
<stop stop-color="#FF1CF7"/>
<stop offset="1" stop-color="#00F0FF"/>
</linearGradient>
<linearGradient id="paint52_linear_7116_11315" x1="79.632" y1="-409.553" x2="358.325" y2="78.9636" gradientUnits="userSpaceOnUse">
<stop stop-color="#FF1CF7"/>
<stop offset="1" stop-color="#00F0FF"/>
</linearGradient>
<linearGradient id="paint53_linear_7116_11315" x1="75.2676" y1="-414.985" x2="323.034" y2="78.3462" gradientUnits="userSpaceOnUse">
<stop stop-color="#FF1CF7"/>
<stop offset="1" stop-color="#00F0FF"/>
</linearGradient>
<linearGradient id="paint54_linear_7116_11315" x1="70.8713" y1="-419.588" x2="288.15" y2="76.6423" gradientUnits="userSpaceOnUse">
<stop stop-color="#FF1CF7"/>
<stop offset="1" stop-color="#00F0FF"/>
</linearGradient>
<linearGradient id="paint55_linear_7116_11315" x1="66.3868" y1="-423.373" x2="253.731" y2="73.9268" gradientUnits="userSpaceOnUse">
<stop stop-color="#FF1CF7"/>
<stop offset="1" stop-color="#00F0FF"/>
</linearGradient>
<linearGradient id="paint56_linear_7116_11315" x1="61.7717" y1="-426.347" x2="219.836" y2="70.2878" gradientUnits="userSpaceOnUse">
<stop stop-color="#FF1CF7"/>
<stop offset="1" stop-color="#00F0FF"/>
</linearGradient>
<linearGradient id="paint57_linear_7116_11315" x1="56.9657" y1="-428.553" x2="186.496" y2="65.7777" gradientUnits="userSpaceOnUse">
<stop stop-color="#FF1CF7"/>
<stop offset="1" stop-color="#00F0FF"/>
</linearGradient>
<linearGradient id="paint58_linear_7116_11315" x1="51.9383" y1="-429.991" x2="153.757" y2="60.4975" gradientUnits="userSpaceOnUse">
<stop stop-color="#FF1CF7"/>
<stop offset="1" stop-color="#00F0FF"/>
</linearGradient>
<linearGradient id="paint59_linear_7116_11315" x1="46.6372" y1="-430.698" x2="121.635" y2="54.5092" gradientUnits="userSpaceOnUse">
<stop stop-color="#FF1CF7"/>
<stop offset="1" stop-color="#00F0FF"/>
</linearGradient>
<linearGradient id="paint60_linear_7116_11315" x1="41.0164" y1="-430.705" x2="90.1368" y2="47.8817" gradientUnits="userSpaceOnUse">
<stop stop-color="#FF1CF7"/>
<stop offset="1" stop-color="#00F0FF"/>
</linearGradient>
<linearGradient id="paint61_linear_7116_11315" x1="35.0474" y1="-430.034" x2="59.282" y2="40.6892" gradientUnits="userSpaceOnUse">
<stop stop-color="#FF1CF7"/>
<stop offset="1" stop-color="#00F0FF"/>
</linearGradient>
<linearGradient id="paint62_linear_7116_11315" x1="14.6288" y1="-424.295" x2="-29.5153" y2="16.3249" gradientUnits="userSpaceOnUse">
<stop stop-color="#FF1CF7"/>
<stop offset="1" stop-color="#00F0FF"/>
</linearGradient>
<linearGradient id="paint63_linear_7116_11315" x1="6.88317" y1="-421.263" x2="-57.8854" y2="7.44581" gradientUnits="userSpaceOnUse">
<stop stop-color="#FF1CF7"/>
<stop offset="1" stop-color="#00F0FF"/>
</linearGradient>
<linearGradient id="paint64_linear_7116_11315" x1="-1.38506" y1="-417.724" x2="-85.6703" y2="-1.7272" gradientUnits="userSpaceOnUse">
<stop stop-color="#FF1CF7"/>
<stop offset="1" stop-color="#00F0FF"/>
</linearGradient>
<linearGradient id="paint65_linear_7116_11315" x1="-10.206" y1="-413.724" x2="-112.893" y2="-11.1628" gradientUnits="userSpaceOnUse">
<stop stop-color="#FF1CF7"/>
<stop offset="1" stop-color="#00F0FF"/>
</linearGradient>
<linearGradient id="paint66_linear_7116_11315" x1="-19.5875" y1="-409.299" x2="-139.557" y2="-20.8269" gradientUnits="userSpaceOnUse">
<stop stop-color="#FF1CF7"/>
<stop offset="1" stop-color="#00F0FF"/>
</linearGradient>
<linearGradient id="paint67_linear_7116_11315" x1="-29.5584" y1="-404.5" x2="-165.689" y2="-30.6985" gradientUnits="userSpaceOnUse">
<stop stop-color="#FF1CF7"/>
<stop offset="1" stop-color="#00F0FF"/>
</linearGradient>
<linearGradient id="paint68_linear_7116_11315" x1="-40.1368" y1="-399.357" x2="-191.309" y2="-40.746" gradientUnits="userSpaceOnUse">
<stop stop-color="#FF1CF7"/>
<stop offset="1" stop-color="#00F0FF"/>
</linearGradient>
<clipPath id="clip0_7116_11315">
<rect width="1728" height="1716" fill="white"/>
</clipPath>
</defs>
</svg>
