<svg width="52" height="52" viewBox="0 0 52 52" fill="none" xmlns="http://www.w3.org/2000/svg">
<rect x="0.541016" y="26" width="36" height="36" rx="18" transform="rotate(-45 0.541016 26)" fill="white"/>
<path d="M20.0618 21.4764V20.3826C20.0867 19.9102 20.4596 19.5373 20.9071 19.5373L30.5773 19.5125C31.0496 19.5373 31.4225 19.9102 31.4225 20.3577V30.0528C31.4225 30.5003 31.0496 30.8731 30.5773 30.898H29.4835C29.0112 30.8731 28.6383 30.5003 28.6134 30.0279L28.7626 24.1612L21.628 31.2958C21.2799 31.6438 20.7828 31.6438 20.4347 31.2958L19.6392 30.5003C19.3161 30.1771 19.2912 29.655 19.6392 29.307L26.7738 22.1724L20.9319 22.3464C20.4596 22.3216 20.0618 21.9735 20.0618 21.4764Z" fill="#090B0E"/>
</svg>
