<svg width="25" height="17" viewBox="0 0 25 17" fill="none" xmlns="http://www.w3.org/2000/svg">
<path d="M7.23634 0.00534623C7.91184 -0.00716972 8.58638 0.0619419 9.24523 0.211174C9.79997 0.332037 10.3266 0.556944 10.7973 0.873939C11.2319 1.18915 11.5759 1.61293 11.7945 2.10273C12.0458 2.70502 12.167 3.35341 12.1503 4.00561C12.1788 4.72173 11.9956 5.4304 11.6233 6.0433C11.2317 6.62217 10.6904 7.08447 10.0568 7.38118C10.9166 7.6125 11.6655 8.14237 12.1689 8.87549C12.652 9.65228 12.8949 10.554 12.867 11.4679C12.883 12.1965 12.732 12.9191 12.4256 13.5807C12.1425 14.1578 11.7278 14.6608 11.2149 15.0493C10.6869 15.4335 10.0927 15.7178 9.4618 15.888C8.80757 16.0687 8.13171 16.1594 7.45291 16.1577H0V0.00534623H7.23634ZM6.80631 6.53832C7.33705 6.56015 7.85952 6.40159 8.28823 6.08858C8.49354 5.90618 8.65326 5.67837 8.75461 5.42338C8.85596 5.16838 8.89613 4.89326 8.87192 4.62C8.88566 4.30085 8.82198 3.98311 8.68629 3.69378C8.57119 3.46342 8.39222 3.27088 8.17066 3.13907C7.94625 2.99398 7.69413 2.89691 7.43022 2.854C7.14387 2.79864 6.85249 2.77346 6.56087 2.77887H3.37634V6.55272H6.80631V6.53832ZM6.99193 13.415C7.31291 13.4194 7.63322 13.3848 7.94585 13.3121C8.23154 13.2491 8.5025 13.1321 8.74404 12.9673C8.98067 12.8027 9.17185 12.5811 9.29989 12.3231C9.44835 11.9941 9.51656 11.6348 9.49892 11.2744C9.53111 10.946 9.48753 10.6147 9.37152 10.3057C9.2555 9.99671 9.07014 9.71836 8.82964 9.49194C8.31989 9.11726 7.69519 8.93166 7.06309 8.96708H3.37634V13.415H6.99193Z" fill="white"/>
<path d="M17.6778 13.3553C17.9428 13.6004 18.255 13.7892 18.5954 13.9102C18.9357 14.0312 19.2972 14.0819 19.6578 14.0592C20.2295 14.0736 20.7901 13.9 21.2532 13.5652C21.6299 13.3207 21.9152 12.959 22.0648 12.5361H24.7574C24.4705 13.74 23.7699 14.8055 22.7774 15.5473C21.8252 16.178 20.7 16.4974 19.5578 16.4612C18.7426 16.4719 17.9335 16.3189 17.1787 16.0115C16.4959 15.7273 15.8835 15.2977 15.3843 14.7528C14.887 14.1818 14.5049 13.5203 14.2592 12.8047C13.9833 12.0047 13.8483 11.1632 13.8601 10.3172C13.8551 9.48552 13.9946 8.65922 14.2726 7.8751C14.646 6.77198 15.36 5.81527 16.3121 5.14226C17.2643 4.46925 18.4056 4.11455 19.5722 4.12904C20.4336 4.11107 21.2853 4.31224 22.0473 4.71359C22.736 5.09046 23.3301 5.61826 23.7849 6.25729C24.2502 6.92783 24.5837 7.68042 24.7677 8.47509C24.9695 9.32841 25.0415 10.2072 24.9812 11.0819H16.9611C16.8961 11.9037 17.153 12.7186 17.6778 13.3553ZM21.1965 7.21233C20.972 6.98831 20.7021 6.81489 20.4048 6.70376C20.1076 6.59263 19.7899 6.54637 19.4732 6.56809C19.0531 6.5521 18.636 6.645 18.2625 6.83773C17.9665 7.00038 17.7051 7.21923 17.4932 7.48197C17.3054 7.7283 17.1655 8.00755 17.0807 8.30528C17.0043 8.55359 16.9566 8.80979 16.9384 9.0689H21.906C21.8627 8.39343 21.6161 7.74671 21.1985 7.21336L21.1965 7.21233Z" fill="white"/>
<path d="M22.5216 1.08398H16.2969V2.67194H22.5216V1.08398Z" fill="white"/>
</svg>
