<svg width="25" height="26" viewBox="0 0 25 26" fill="none" xmlns="http://www.w3.org/2000/svg">
<g clip-path="url(#clip0_6465_2905)">
<path fill-rule="evenodd" clip-rule="evenodd" d="M0 13.2334C0 6.31934 5.58594 0.733398 12.5 0.733398C19.4141 0.733398 25 6.31934 25 13.2334C25 20.1475 19.4141 25.7334 12.5 25.7334H11.4844V25.6943C5.07812 25.1865 0 19.7959 0 13.2334ZM12.8125 23.7021C18.4375 23.5459 22.9688 18.8975 22.9688 13.2334C22.9688 7.45215 18.2812 2.76465 12.5 2.76465C6.71875 2.76465 2.03125 7.45215 2.03125 13.2334C2.03125 19.0146 6.71875 23.7021 12.5 23.7021H12.8125Z" fill="white"/>
<path fill-rule="evenodd" clip-rule="evenodd" d="M7.42188 4.09277C7.26563 4.05371 7.14844 4.01465 6.99219 3.93652L7.65625 2.02246C7.73438 2.06152 7.8125 2.06152 7.96875 2.10059C8.20312 2.17871 8.47656 2.25684 8.63281 2.33496C8.67188 2.33496 8.71094 2.37402 8.78906 2.37402C9.0625 2.49121 9.375 2.6084 9.64844 2.72559L9.6875 2.76465C9.80469 2.84277 10 2.9209 10.1562 2.99902C10.2344 3.03809 10.3125 3.07715 10.3906 3.11621H10.4297H10.4687C10.5078 3.15527 10.625 3.19434 10.7422 3.27246H10.7812C10.7812 3.27246 10.8203 3.27246 10.8203 3.31152C10.8203 3.31152 10.8594 3.31152 10.8594 3.35059C10.8594 3.35059 10.8594 3.35059 10.8984 3.35059C10.8984 3.35059 10.8984 3.35059 10.9375 3.35059C10.9375 3.35059 10.9766 3.35059 10.9766 3.38965C11.0547 3.42871 11.1719 3.50684 11.25 3.5459C11.3672 3.62402 11.5234 3.70215 11.6406 3.78027C11.7578 3.8584 11.9141 3.97559 12.0312 4.01465L12.0703 4.05371C12.1484 4.09277 12.2266 4.13184 12.2656 4.1709C12.3437 4.20996 12.4219 4.28809 12.5 4.32715C12.5391 4.36621 12.5781 4.36621 12.5781 4.40527C12.6172 4.44434 12.6562 4.44434 12.6953 4.4834C12.7344 4.52246 12.7344 4.52246 12.7734 4.52246C12.7734 4.52246 12.7734 4.52246 12.8125 4.52246H12.8516H12.8906C14.0234 5.38184 15 6.3584 15.8594 7.49121C16.7969 8.74121 17.5391 10.1084 18.0469 11.5928C19.5703 15.8896 19.1406 20.8115 16.7187 24.7178L15 23.6631C17.0703 20.3037 17.4609 16.0068 16.1328 12.2568C15.7031 11.0068 15.0391 9.7959 14.2188 8.74121C13.4766 7.76465 12.6172 6.90527 11.6406 6.16309C11.6016 6.12402 11.5234 6.08496 11.4844 6.0459C11.4453 6.00684 11.4062 5.96777 11.3672 5.96777C11.3281 5.92871 11.3281 5.92871 11.2891 5.88965C11.2109 5.85059 11.1719 5.77246 11.0937 5.7334C11.0547 5.69434 11.0156 5.69434 11.0156 5.69434H10.9766V5.81152C10.9375 5.77246 10.8594 5.7334 10.8203 5.7334C10.7422 5.65527 10.6641 5.61621 10.5859 5.57715L10.5469 5.53809L10.5078 5.49902C10.5078 5.49902 10.4688 5.49902 10.4297 5.45996C10.3906 5.4209 10.3125 5.38184 10.2344 5.34277C10.1563 5.30371 10.0391 5.22559 10 5.18652C9.96094 5.18652 9.92187 5.14746 9.92187 5.14746L9.88281 5.1084C9.84375 5.1084 9.84375 5.06934 9.80469 5.06934C9.80469 5.06934 9.76562 5.03027 9.72656 5.03027C9.6875 4.99121 9.64844 4.99121 9.57031 4.95215C9.49219 4.91309 9.41406 4.87402 9.33594 4.83496C9.17969 4.75684 9.02344 4.67871 8.86719 4.63965L8.82813 4.60059C8.63281 4.52246 8.39844 4.44434 8.16406 4.32715C8.04687 4.28809 8.00781 4.24902 7.92969 4.24902C7.77344 4.1709 7.61719 4.13184 7.42188 4.09277Z" fill="white"/>
<path fill-rule="evenodd" clip-rule="evenodd" d="M11.7188 8.89746C14.7656 8.35059 17.6172 6.63184 19.5312 4.1709L21.1328 5.4209C18.8672 8.27246 15.625 10.2646 12.0703 10.8896C10.3125 11.2021 8.47656 11.2021 6.71875 10.8896C4.96094 10.5771 3.24219 9.95215 1.67969 9.01465L2.73437 7.2959C4.0625 8.07715 5.54688 8.66309 7.07031 8.93652C8.59375 9.1709 10.1562 9.1709 11.7188 8.89746Z" fill="white"/>
<path fill-rule="evenodd" clip-rule="evenodd" d="M6.28906 23.5068C8.00781 14.6786 17.0313 9.79583 24.375 11.788L23.8281 13.7411C17.5781 12.0224 9.76563 16.2411 8.24219 23.8974L6.28906 23.5068Z" fill="white"/>
</g>
<defs>
<clipPath id="clip0_6465_2905">
<rect width="25" height="25" fill="white" transform="translate(0 0.733398)"/>
</clipPath>
</defs>
</svg>
