<svg width="118" height="21" viewBox="0 0 118 21" fill="none" xmlns="http://www.w3.org/2000/svg">
<path d="M103.277 20.6513H107.184V14.3245L112.636 20.6513H117.417L111.07 13.3597L116.491 7.03727H112.141L107.184 12.8645V0L103.277 0.512555V20.6513ZM94.2672 6.68854C89.9298 6.68854 86.9179 9.60854 86.9179 13.8421C86.9179 18.0758 89.9298 20.9958 94.2672 20.9958C98.6044 20.9958 101.616 18.0758 101.616 13.8421C101.616 9.60854 98.6044 6.68854 94.2672 6.68854ZM94.2672 17.6623C92.2577 17.6623 90.8809 16.1075 90.8809 13.8421C90.8809 11.5768 92.2577 10.022 94.2672 10.022C96.2766 10.022 97.6535 11.5768 97.6535 13.8421C97.6535 16.1075 96.2766 17.6623 94.2672 17.6623ZM78.3895 6.68854C74.0523 6.68854 71.0403 9.60854 71.0403 13.8421C71.0403 18.0758 74.0523 20.9958 78.3895 20.9958C82.7269 20.9958 85.7388 18.0758 85.7388 13.8421C85.7388 9.60854 82.7269 6.68854 78.3895 6.68854ZM78.3895 17.6623C76.3802 17.6623 75.0032 16.1075 75.0032 13.8421C75.0032 11.5768 76.3802 10.022 78.3895 10.022C80.399 10.022 81.7759 11.5768 81.7759 13.8421C81.7759 16.1075 80.399 17.6623 78.3895 17.6623ZM63.4371 6.68854C61.6299 6.68854 60.1325 7.39914 59.1945 8.69976V0L55.2832 0.508177V20.6469H58.7513L58.8201 18.5452C59.7453 20.1128 61.4018 20.9958 63.4371 20.9958C67.1462 20.9958 69.8613 17.9809 69.8613 13.8421C69.8613 9.70325 67.1591 6.68854 63.4371 6.68854ZM62.512 17.6623C60.5025 17.6623 59.1257 16.1075 59.1257 13.8421C59.1257 11.5768 60.5025 10.022 62.512 10.022C64.5214 10.022 65.8983 11.5768 65.8983 13.8421C65.8983 16.1075 64.5214 17.6623 62.512 17.6623ZM47.4519 17.8389C45.378 17.8389 43.8892 16.8741 43.3815 15.2117H53.0069C53.1017 14.7036 53.1662 14.1005 53.1662 13.6957C53.1662 9.31565 50.7178 6.68854 46.6043 6.68854C42.4521 6.68854 39.5777 9.60854 39.5777 13.8421C39.5777 18.1317 42.5898 20.9958 47.0604 20.9958C49.3753 20.9958 51.6257 20.2206 53.0328 18.9328L51.6257 16.4521C50.2618 17.3953 48.9235 17.8389 47.4519 17.8389ZM46.5784 9.72911C48.3857 9.72911 49.5388 10.8273 49.5388 12.5285V12.5415H43.2997C43.6741 10.737 44.8401 9.72911 46.5784 9.72911ZM33.4591 21C35.4814 21 37.4607 20.2248 38.8548 18.8811L37.3273 16.3099C36.2429 17.1541 35.0124 17.6106 33.8463 17.6106C31.6776 17.6106 30.2319 16.0945 30.2319 13.8464C30.2319 11.5983 31.6776 10.0822 33.8463 10.0822C34.9177 10.0822 36.0838 10.4698 37.0304 11.1547L38.5838 8.52745C37.3273 7.39052 35.3824 6.69279 33.4547 6.69279C29.2121 6.69279 26.213 9.65589 26.213 13.8464C26.2173 18.024 29.2164 21 33.4591 21ZM21.0367 7.03727L20.9679 9.15634C20.0427 7.5757 18.3861 6.69279 16.3509 6.69279C12.6289 6.69279 9.92666 9.70762 9.92666 13.8464C9.92666 17.9853 12.6461 21 16.3509 21C18.3861 21 20.0469 20.1171 20.9679 18.5494L21.0367 20.6511H24.5048V7.03727H21.0367ZM17.2759 17.6623C15.2666 17.6623 13.8896 16.1075 13.8896 13.8421C13.8896 11.5768 15.2666 10.022 17.2759 10.022C19.2854 10.022 20.6623 11.5768 20.6623 13.8421C20.6623 16.1075 19.2811 17.6623 17.2759 17.6623ZM9.63404 7.06287H6.11863V5.89994C6.11863 4.15999 6.7985 3.49251 8.5627 3.49251C9.1091 3.49251 9.55228 3.50537 9.8062 3.53124V0.546645C9.3242 0.413068 8.14961 0.279624 7.46975 0.279624C3.87681 0.279624 2.22022 1.97646 2.22022 5.64155V7.0585H0V10.349H2.22022V20.6466H6.12288V10.3532H9.03171L9.63404 7.06287Z" fill="#0866FF"/>
</svg>
