<svg width="16" height="16" viewBox="0 0 16 16" fill="none" xmlns="http://www.w3.org/2000/svg">
<path d="M14.5377 6.69694H14.0007V6.66927H8.00065V9.33594H11.7683C11.2187 10.8883 9.74165 12.0026 8.00065 12.0026C5.79165 12.0026 4.00065 10.2116 4.00065 8.0026C4.00065 5.7936 5.79165 4.0026 8.00065 4.0026C9.02032 4.0026 9.94798 4.38727 10.6543 5.0156L12.54 3.12994C11.3493 2.02027 9.75665 1.33594 8.00065 1.33594C4.31898 1.33594 1.33398 4.32094 1.33398 8.0026C1.33398 11.6843 4.31898 14.6693 8.00065 14.6693C11.6823 14.6693 14.6673 11.6843 14.6673 8.0026C14.6673 7.5556 14.6213 7.11927 14.5377 6.69694Z" fill="#FFC107"/>
<path d="M2.10156 4.8996L4.2919 6.50594C4.88456 5.0386 6.3199 4.0026 7.99956 4.0026C9.01923 4.0026 9.9469 4.38727 10.6532 5.0156L12.5389 3.12994C11.3482 2.02027 9.75556 1.33594 7.99956 1.33594C5.4389 1.33594 3.21823 2.7816 2.10156 4.8996Z" fill="#FF3D00"/>
<path d="M7.99945 14.6669C9.72145 14.6669 11.2861 14.0079 12.4691 12.9362L10.4058 11.1902C9.71409 11.7166 8.86865 12.0012 7.99945 12.0002C6.26545 12.0002 4.79312 10.8946 4.23845 9.35156L2.06445 11.0266C3.16779 13.1856 5.40845 14.6669 7.99945 14.6669Z" fill="#4CAF50"/>
<path d="M14.537 6.69173H14V6.66406H8V9.33073H11.7677C11.5047 10.0695 11.0311 10.7151 10.4053 11.1877L10.4063 11.1871L12.4697 12.9331C12.3237 13.0657 14.6667 11.3307 14.6667 7.9974C14.6667 7.5504 14.6207 7.11406 14.537 6.69173Z" fill="#1976D2"/>
</svg>
