<svg width="64" height="21" viewBox="0 0 64 21" fill="none" xmlns="http://www.w3.org/2000/svg">
<g clip-path="url(#clip0_8337_6868)">
<path d="M62.0057 12.8366L63.7812 14.0203C63.205 14.869 61.8267 16.3252 59.4439 16.3252C56.4849 16.3252 54.2812 14.0359 54.2812 11.1235C54.2812 8.02438 56.5082 5.92188 59.1947 5.92188C61.8967 5.92188 63.2205 8.071 63.6489 9.23125L63.8825 9.82313L56.921 12.7042C57.4505 13.7477 58.276 14.2773 59.4439 14.2773C60.612 14.2773 61.4217 13.701 62.0057 12.8366ZM56.5472 10.9601L61.196 9.02887C60.939 8.38262 60.176 7.92325 59.2647 7.92325C58.1046 7.92325 56.4927 8.95113 56.5472 10.9601Z" fill="#FF302F"/>
<path d="M50.9258 0.617188H53.1683V15.8484H50.9258V0.617188Z" fill="#20B15A"/>
<path d="M47.3905 6.32669H49.5553V15.5776C49.5553 19.4164 47.2893 20.9972 44.6105 20.9972C42.0876 20.9972 40.5693 19.2997 40.0008 17.9214L41.9864 17.0959C42.3445 17.9447 43.2089 18.9493 44.6105 18.9493C46.3314 18.9493 47.3905 17.8824 47.3905 15.8891V15.1416H47.3126C46.7986 15.7644 45.8175 16.3251 44.5716 16.3251C41.9708 16.3251 39.5879 14.0591 39.5879 11.1391C39.5879 8.20331 41.9708 5.91406 44.5716 5.91406C45.8098 5.91406 46.7986 6.46694 47.3126 7.07431H47.3905V6.32669ZM47.5461 11.1391C47.5461 9.30131 46.3236 7.96194 44.7663 7.96194C43.1933 7.96194 41.8695 9.30131 41.8695 11.1391C41.8695 12.9533 43.1933 14.2693 44.7663 14.2693C46.3238 14.2772 47.5463 12.9533 47.5463 11.1391" fill="#3686F7"/>
<path d="M27.2763 11.1C27.2763 14.098 24.9403 16.3016 22.0747 16.3016C19.2092 16.3016 16.873 14.0903 16.873 11.1C16.873 8.0865 19.2092 5.89062 22.0747 5.89062C24.9403 5.89062 27.2763 8.0865 27.2763 11.1ZM25.0025 11.1C25.0025 9.23125 23.6475 7.94625 22.0747 7.94625C20.5018 7.94625 19.1468 9.23125 19.1468 11.1C19.1468 12.9532 20.5018 14.2537 22.0747 14.2537C23.6477 14.2537 25.0025 12.9532 25.0025 11.1Z" fill="#FF302F"/>
<path d="M38.6376 11.1235C38.6376 14.1215 36.3015 16.3251 33.436 16.3251C30.5704 16.3251 28.2344 14.1214 28.2344 11.1235C28.2344 8.11 30.5704 5.92188 33.436 5.92188C36.3015 5.92188 38.6376 8.10225 38.6376 11.1235ZM36.356 11.1235C36.356 9.25475 35.0011 7.96975 33.4281 7.96975C31.8551 7.96975 30.5002 9.25475 30.5002 11.1235C30.5002 12.9768 31.8552 14.2773 33.4281 14.2773C35.0089 14.2773 36.356 12.969 36.356 11.1235Z" fill="#FFBA40"/>
<path d="M8.3245 14.04C5.06175 14.04 2.50775 11.408 2.50775 8.14525C2.50775 4.88262 5.06175 2.25063 8.3245 2.25063C10.0844 2.25063 11.3691 2.94362 12.3191 3.83138L13.8844 2.26625C12.5606 0.997 10.793 0.03125 8.3245 0.03125C3.85487 0.031375 0.09375 3.67575 0.09375 8.14525C0.09375 12.6147 3.85487 16.2593 8.3245 16.2593C10.7385 16.2593 12.5606 15.465 13.9856 13.9855C15.4495 12.5215 15.9011 10.4657 15.9011 8.79937C15.9011 8.27762 15.8389 7.74038 15.7687 7.34325H8.3245V9.508H13.6274C13.4716 10.863 13.0434 11.7896 12.4126 12.4202C11.6495 13.1912 10.4426 14.04 8.3245 14.04Z" fill="#3686F7"/>
</g>
<defs>
<clipPath id="clip0_8337_6868">
<rect width="64" height="21" fill="white"/>
</clipPath>
</defs>
</svg>
