<svg width="24" height="24" viewBox="0 0 24 24" fill="none" xmlns="http://www.w3.org/2000/svg">
<rect width="24" height="24" rx="4" fill="#FA0C00" fill-opacity="0.1"/>
<mask id="mask0_6409_1462" style="mask-type:alpha" maskUnits="userSpaceOnUse" x="4" y="4" width="16" height="16">
<rect x="4" y="4" width="16" height="16" fill="#D9D9D9"/>
</mask>
<g mask="url(#mask0_6409_1462)">
<path d="M9.11797 14.667L7.66797 8.66699L12.0013 4.66699L16.3346 8.66699L14.8846 14.667H9.11797ZM10.168 13.3337H13.8346L14.8513 9.11699L12.668 7.10033V8.86699C12.8235 8.9781 12.9457 9.11699 13.0346 9.28366C13.1235 9.45033 13.168 9.63366 13.168 9.83366C13.168 10.1559 13.0541 10.4309 12.8263 10.6587C12.5985 10.8864 12.3235 11.0003 12.0013 11.0003C11.6791 11.0003 11.4041 10.8864 11.1763 10.6587C10.9485 10.4309 10.8346 10.1559 10.8346 9.83366C10.8346 9.63366 10.8791 9.45033 10.968 9.28366C11.0569 9.11699 11.1791 8.9781 11.3346 8.86699V7.10033L9.1513 9.11699L10.168 13.3337ZM6.66797 18.0003L7.03464 16.917C7.12352 16.6392 7.28464 16.417 7.51797 16.2503C7.7513 16.0837 8.01241 16.0003 8.3013 16.0003H15.7013C15.9902 16.0003 16.2513 16.0837 16.4846 16.2503C16.718 16.417 16.8791 16.6392 16.968 16.917L17.3346 18.0003H6.66797Z" fill="#DA281C"/>
</g>
</svg>
