<svg width="25" height="24" viewBox="0 0 25 24" fill="none" xmlns="http://www.w3.org/2000/svg">
<rect x="0.667969" width="24" height="24" rx="4" fill="#FA0C00" fill-opacity="0.1"/>
<mask id="mask0_6409_1512" style="mask-type:alpha" maskUnits="userSpaceOnUse" x="4" y="4" width="17" height="16">
<rect x="4.66797" y="4" width="16" height="16" fill="#D9D9D9"/>
</mask>
<g mask="url(#mask0_6409_1512)">
<path d="M6.66927 18.667C6.3026 18.667 5.98872 18.5364 5.7276 18.2753C5.46649 18.0142 5.33594 17.7003 5.33594 17.3337V8.66699H6.66927V17.3337H16.6693V18.667H6.66927ZM14.0026 13.1003L9.33594 10.367V14.667H18.6693V10.367L14.0026 13.1003ZM9.33594 16.0003C8.96927 16.0003 8.65538 15.8698 8.39427 15.6087C8.13316 15.3475 8.0026 15.0337 8.0026 14.667V9.00033C8.0026 8.76699 8.05538 8.54477 8.16094 8.33366C8.26649 8.12255 8.42483 7.95588 8.63594 7.83366L14.0026 4.66699L15.3359 5.45033L9.46927 8.90033L14.0026 11.567L18.5026 8.90033C18.6693 8.80033 18.8387 8.7531 19.0109 8.75866C19.1832 8.76421 19.347 8.81144 19.5026 8.90033C19.6582 8.98921 19.7804 9.10866 19.8693 9.25866C19.9582 9.40866 20.0026 9.5781 20.0026 9.76699V14.667C20.0026 15.0337 19.872 15.3475 19.6109 15.6087C19.3498 15.8698 19.0359 16.0003 18.6693 16.0003H9.33594ZM14.0026 10.667L12.1359 8.80033L13.0693 7.86699L14.0026 8.80033L16.3693 6.43366L17.3026 7.36699L14.0026 10.667Z" fill="#DA281C"/>
</g>
</svg>
