<svg width="24" height="24" viewBox="0 0 24 24" fill="none" xmlns="http://www.w3.org/2000/svg">
<rect width="24" height="24" rx="4" fill="#FA0C00" fill-opacity="0.1"/>
<mask id="mask0_6415_1601" style="mask-type:alpha" maskUnits="userSpaceOnUse" x="4" y="4" width="16" height="16">
<rect x="4" y="4" width="16" height="16" fill="#D9D9D9"/>
</mask>
<g mask="url(#mask0_6415_1601)">
<path d="M11.9987 18.6663C11.0765 18.6663 10.2098 18.4913 9.3987 18.1413C8.58759 17.7913 7.88203 17.3163 7.28203 16.7163C6.68203 16.1163 6.20703 15.4108 5.85703 14.5997C5.50703 13.7886 5.33203 12.9219 5.33203 11.9997C5.33203 11.0775 5.50703 10.2108 5.85703 9.39967C6.20703 8.58856 6.68203 7.88301 7.28203 7.28301C7.88203 6.68301 8.58759 6.20801 9.3987 5.85801C10.2098 5.50801 11.0765 5.33301 11.9987 5.33301H17.332C17.6987 5.33301 18.0126 5.46356 18.2737 5.72467C18.5348 5.98579 18.6654 6.29967 18.6654 6.66634V11.9997C18.6654 12.9219 18.4904 13.7886 18.1404 14.5997C17.7904 15.4108 17.3154 16.1163 16.7154 16.7163C16.1154 17.3163 15.4098 17.7913 14.5987 18.1413C13.7876 18.4913 12.9209 18.6663 11.9987 18.6663ZM11.9987 17.333C13.4876 17.333 14.7487 16.8163 15.782 15.783C16.8154 14.7497 17.332 13.4886 17.332 11.9997V6.66634H11.9987C10.5098 6.66634 9.2487 7.18301 8.21536 8.21634C7.18203 9.24967 6.66536 10.5108 6.66536 11.9997C6.66536 13.4886 7.18203 14.7497 8.21536 15.783C9.2487 16.8163 10.5098 17.333 11.9987 17.333ZM8.66536 13.9997H13.332V12.6663L15.332 13.9997V9.99967L13.332 11.333V9.99967H8.66536V13.9997Z" fill="#DA281C"/>
</g>
</svg>
