<svg width="24" height="24" viewBox="0 0 24 24" fill="none" xmlns="http://www.w3.org/2000/svg">
<rect width="24" height="24" rx="4" fill="#FA0C00" fill-opacity="0.1"/>
<mask id="mask0_6409_1451" style="mask-type:alpha" maskUnits="userSpaceOnUse" x="4" y="4" width="16" height="16">
<rect x="4" y="4" width="16" height="16" fill="#D9D9D9"/>
</mask>
<g mask="url(#mask0_6409_1451)">
<path d="M11.2846 13.3667L15.068 9.6L14.118 8.65L11.2846 11.4833L9.86797 10.0667L8.93464 11L11.2846 13.3667ZM4.66797 18V16.6667H19.3346V18H4.66797ZM6.66797 16C6.3013 16 5.98741 15.8694 5.7263 15.6083C5.46519 15.3472 5.33464 15.0333 5.33464 14.6667V7.33333C5.33464 6.96667 5.46519 6.65278 5.7263 6.39167C5.98741 6.13056 6.3013 6 6.66797 6H17.3346C17.7013 6 18.0152 6.13056 18.2763 6.39167C18.5374 6.65278 18.668 6.96667 18.668 7.33333V14.6667C18.668 15.0333 18.5374 15.3472 18.2763 15.6083C18.0152 15.8694 17.7013 16 17.3346 16H6.66797ZM6.66797 14.6667H17.3346V7.33333H6.66797V14.6667Z" fill="#DA281C"/>
</g>
</svg>
