<svg width="24" height="24" viewBox="0 0 24 24" fill="none" xmlns="http://www.w3.org/2000/svg">
<rect width="24" height="24" rx="4" fill="#FA0C00" fill-opacity="0.1"/>
<mask id="mask0_6409_1479" style="mask-type:alpha" maskUnits="userSpaceOnUse" x="4" y="4" width="16" height="16">
<rect x="4" y="4" width="16" height="16" fill="#D9D9D9"/>
</mask>
<g mask="url(#mask0_6409_1479)">
<path d="M14.632 18.667L11.7987 15.8337L12.732 14.9003L14.632 16.8003L18.3987 13.0337L19.332 13.967L14.632 18.667ZM11.9987 11.3337L17.332 8.00033H6.66536L11.9987 11.3337ZM11.9987 12.667L6.66536 9.33366V16.0003H10.0987L11.432 17.3337H6.66536C6.2987 17.3337 5.98481 17.2031 5.7237 16.942C5.46259 16.6809 5.33203 16.367 5.33203 16.0003V8.00033C5.33203 7.63366 5.46259 7.31977 5.7237 7.05866C5.98481 6.79755 6.2987 6.66699 6.66536 6.66699H17.332C17.6987 6.66699 18.0126 6.79755 18.2737 7.05866C18.5348 7.31977 18.6654 7.63366 18.6654 8.00033V10.9003L17.332 12.2337V9.33366L11.9987 12.667Z" fill="#DA281C"/>
</g>
</svg>
