<svg width="25" height="24" viewBox="0 0 25 24" fill="none" xmlns="http://www.w3.org/2000/svg">
<rect x="0.667969" width="24" height="24" rx="4" fill="#FA0C00" fill-opacity="0.1"/>
<mask id="mask0_6409_1490" style="mask-type:alpha" maskUnits="userSpaceOnUse" x="4" y="4" width="17" height="16">
<rect x="4.66797" y="4" width="16" height="16" fill="#D9D9D9"/>
</mask>
<g mask="url(#mask0_6409_1490)">
<path d="M7.76667 18.6663C7.16667 18.6663 6.72222 18.5441 6.43333 18.2997C6.14444 18.0552 6 17.6886 6 17.1997C6 16.5552 6.27222 16.1441 6.81667 15.9663C7.36111 15.7886 8.00556 15.6997 8.75 15.6997H9.1V14.7663C9.1 14.3886 9.09444 14.0802 9.08333 13.8413C9.07222 13.6025 9.03889 13.4052 8.98333 13.2497C8.92778 13.0941 8.86389 12.9858 8.79167 12.9247C8.71944 12.8636 8.62222 12.833 8.5 12.833C8.4 12.833 8.30833 12.8497 8.225 12.883C8.14167 12.9163 8.07222 12.9608 8.01667 13.0163C7.97222 13.0719 7.94444 13.1302 7.93333 13.1913C7.92222 13.2525 7.92778 13.3163 7.95 13.383C8.01667 13.5052 8.09444 13.6247 8.18333 13.7413C8.27222 13.858 8.31667 13.9941 8.31667 14.1497C8.31667 14.4275 8.21944 14.6636 8.025 14.858C7.83056 15.0525 7.59444 15.1497 7.31667 15.1497C7.03889 15.1497 6.80278 15.0525 6.60833 14.858C6.41389 14.6636 6.31667 14.4275 6.31667 14.1497C6.31667 13.8497 6.38333 13.6052 6.51667 13.4163C6.65 13.2275 6.83056 13.0775 7.05833 12.9663C7.28611 12.8552 7.55 12.7775 7.85 12.733C8.15 12.6886 8.47222 12.6663 8.81667 12.6663C9.76111 12.6663 10.4167 12.8358 10.7833 13.1747C11.15 13.5136 11.3333 14.1108 11.3333 14.9663V17.4163C11.3333 17.6275 11.3583 17.783 11.4083 17.883C11.4583 17.983 11.5444 18.033 11.6667 18.033C11.8 18.033 11.9083 17.933 11.9917 17.733C12.075 17.533 12.1278 17.2219 12.15 16.7997H12.3333C12.3 17.4886 12.1694 17.9719 11.9417 18.2497C11.7139 18.5275 11.3333 18.6663 10.8 18.6663C10.3222 18.6663 9.94722 18.5913 9.675 18.4413C9.40278 18.2913 9.22778 18.0663 9.15 17.7663C9.03889 18.0886 8.875 18.3191 8.65833 18.458C8.44167 18.5969 8.14444 18.6663 7.76667 18.6663ZM13.9833 18.6663C13.7611 18.6663 13.5806 18.5747 13.4417 18.3913C13.3028 18.208 13.2778 18.0108 13.3667 17.7997L15.0667 13.3163C15.1444 13.1275 15.2667 12.9719 15.4333 12.8497C15.6 12.7275 15.7889 12.6663 16 12.6663C16.2111 12.6663 16.4 12.7275 16.5667 12.8497C16.7333 12.9719 16.8556 13.1275 16.9333 13.3163L18.6333 17.7997C18.7222 18.0108 18.6972 18.208 18.5583 18.3913C18.4194 18.5747 18.2389 18.6663 18.0167 18.6663C17.8833 18.6663 17.7611 18.6275 17.65 18.5497C17.5389 18.4719 17.4556 18.3663 17.4 18.233L17.0667 17.2663H14.9333L14.6 18.233C14.5556 18.3552 14.4778 18.458 14.3667 18.5413C14.2556 18.6247 14.1278 18.6663 13.9833 18.6663ZM8.58333 18.183C8.72778 18.183 8.85 18.0691 8.95 17.8413C9.05 17.6136 9.1 17.3386 9.1 17.0163V15.8997C8.81111 15.8997 8.6 15.9858 8.46667 16.158C8.33333 16.3302 8.26667 16.6108 8.26667 16.9997V17.183C8.26667 17.583 8.28889 17.8497 8.33333 17.983C8.37778 18.1163 8.46111 18.183 8.58333 18.183ZM15.3667 16.0997H16.65L16 14.1997L15.3667 16.0997ZM14.75 11.3497C14.2167 11.3497 13.7917 11.1636 13.475 10.7913C13.1583 10.4191 13 9.91634 13 9.28301C13 8.12745 13.3667 7.18023 14.1 6.44134C14.8333 5.70245 15.7722 5.33301 16.9167 5.33301C17.3833 5.33301 17.7611 5.38579 18.05 5.49134C18.3389 5.5969 18.4833 5.73301 18.4833 5.89967C18.4833 5.96634 18.4722 6.03301 18.45 6.09967C18.4278 6.16634 18.3889 6.22745 18.3333 6.28301C18.2778 6.36079 18.2083 6.41634 18.125 6.44967C18.0417 6.48301 17.9556 6.48856 17.8667 6.46634C17.7111 6.4219 17.5333 6.38301 17.3333 6.34967C17.1333 6.31634 16.95 6.29967 16.7833 6.29967C15.9944 6.29967 15.3611 6.56634 14.8833 7.09967C14.4056 7.63301 14.1667 8.33856 14.1667 9.21634C14.1667 9.46079 14.2111 9.71634 14.3 9.98301C14.3889 10.2497 14.5889 10.383 14.9 10.383C15.0222 10.383 15.1417 10.3552 15.2583 10.2997C15.375 10.2441 15.4778 10.1663 15.5667 10.0663C15.7556 9.86634 15.9306 9.53301 16.0917 9.06634C16.2528 8.59967 16.4 8.03301 16.5333 7.36634C16.5556 7.2219 16.6139 7.11912 16.7083 7.05801C16.8028 6.9969 16.9333 6.96634 17.1 6.96634C17.3 6.96634 17.4528 7.01912 17.5583 7.12467C17.6639 7.23023 17.6944 7.36079 17.65 7.51634C17.5167 7.99412 17.4194 8.41079 17.3583 8.76634C17.2972 9.1219 17.2667 9.44412 17.2667 9.73301C17.2667 9.95523 17.2972 10.1163 17.3583 10.2163C17.4194 10.3163 17.5111 10.3663 17.6333 10.3663C17.7556 10.3663 17.875 10.3219 17.9917 10.233C18.1083 10.1441 18.2722 9.97745 18.4833 9.73301C18.5056 9.69967 18.5889 9.66079 18.7333 9.61634C18.8222 9.61634 18.8889 9.64967 18.9333 9.71634C18.9778 9.78301 19 9.87745 19 9.99967C19 10.3108 18.8222 10.6108 18.4667 10.8997C18.1111 11.1886 17.7389 11.333 17.35 11.333C17.0611 11.333 16.8139 11.2552 16.6083 11.0997C16.4028 10.9441 16.2611 10.7219 16.1833 10.433C16.0167 10.7219 15.8111 10.9469 15.5667 11.108C15.3222 11.2691 15.05 11.3497 14.75 11.3497ZM6.66667 11.333V7.66634C6.66667 7.0219 6.89444 6.4719 7.35 6.01634C7.80556 5.56079 8.35556 5.33301 9 5.33301C9.64444 5.33301 10.1944 5.56079 10.65 6.01634C11.1056 6.4719 11.3333 7.0219 11.3333 7.66634V11.333H10V9.99967H8V11.333H6.66667ZM8 8.66634H10V7.66634C10 7.38856 9.90278 7.15245 9.70833 6.95801C9.51389 6.76356 9.27778 6.66634 9 6.66634C8.72222 6.66634 8.48611 6.76356 8.29167 6.95801C8.09722 7.15245 8 7.38856 8 7.66634V8.66634Z" fill="#DA281C"/>
</g>
</svg>
