<svg width="24" height="24" viewBox="0 0 24 24" fill="none" xmlns="http://www.w3.org/2000/svg">
<rect width="24" height="24" rx="4" fill="#FA0C00" fill-opacity="0.1"/>
<mask id="mask0_6415_1628" style="mask-type:alpha" maskUnits="userSpaceOnUse" x="4" y="4" width="16" height="16">
<rect x="4" y="4" width="16" height="16" fill="#D9D9D9"/>
</mask>
<g mask="url(#mask0_6415_1628)">
<path d="M14.6654 12.667H17.9987V10.667H14.6654V12.667ZM13.332 15.3337V10.0003C13.332 9.81144 13.3959 9.6531 13.5237 9.52533C13.6515 9.39755 13.8098 9.33366 13.9987 9.33366H18.6654C18.8543 9.33366 19.0126 9.39755 19.1404 9.52533C19.2681 9.6531 19.332 9.81144 19.332 10.0003V13.3337C19.332 13.5225 19.2681 13.6809 19.1404 13.8087C19.0126 13.9364 18.8543 14.0003 18.6654 14.0003H14.6654L13.332 15.3337ZM8.66536 19.3337C8.2987 19.3337 7.98481 19.2031 7.7237 18.942C7.46259 18.6809 7.33203 18.367 7.33203 18.0003V6.00033C7.33203 5.63366 7.46259 5.31977 7.7237 5.05866C7.98481 4.79755 8.2987 4.66699 8.66536 4.66699H15.332C15.6987 4.66699 16.0126 4.79755 16.2737 5.05866C16.5348 5.31977 16.6654 5.63366 16.6654 6.00033V8.66699H15.332V8.00033H8.66536V16.0003H15.332V15.3337H16.6654V18.0003C16.6654 18.367 16.5348 18.6809 16.2737 18.942C16.0126 19.2031 15.6987 19.3337 15.332 19.3337H8.66536ZM8.66536 17.3337V18.0003H15.332V17.3337H8.66536ZM8.66536 6.66699H15.332V6.00033H8.66536V6.66699Z" fill="#DA281C"/>
</g>
</svg>
