<svg width="24" height="24" viewBox="0 0 24 24" fill="none" xmlns="http://www.w3.org/2000/svg">
<rect width="24" height="24" rx="4" fill="#FA0C00" fill-opacity="0.1"/>
<mask id="mask0_6409_1404" style="mask-type:alpha" maskUnits="userSpaceOnUse" x="4" y="4" width="16" height="16">
<rect x="4" y="4" width="16" height="16" fill="#D9D9D9"/>
</mask>
<g mask="url(#mask0_6409_1404)">
<path d="M6.66536 6L7.9987 8.66667H9.9987L8.66536 6H9.9987L11.332 8.66667H13.332L11.9987 6H13.332L14.6654 8.66667H16.6654L15.332 6H17.332C17.6987 6 18.0126 6.13056 18.2737 6.39167C18.5348 6.65278 18.6654 6.96667 18.6654 7.33333V16.6667C18.6654 17.0333 18.5348 17.3472 18.2737 17.6083C18.0126 17.8694 17.6987 18 17.332 18H6.66536C6.2987 18 5.98481 17.8694 5.7237 17.6083C5.46259 17.3472 5.33203 17.0333 5.33203 16.6667V7.33333C5.33203 6.96667 5.46259 6.65278 5.7237 6.39167C5.98481 6.13056 6.2987 6 6.66536 6ZM6.66536 10V16.6667H17.332V10H6.66536ZM9.33203 16H14.6654V15.6333C14.6654 15.1444 14.4209 14.75 13.932 14.45C13.4431 14.15 12.7987 14 11.9987 14C11.1987 14 10.5543 14.15 10.0654 14.45C9.57648 14.75 9.33203 15.1444 9.33203 15.6333V16ZM11.9987 13.3333C12.3654 13.3333 12.6793 13.2028 12.9404 12.9417C13.2015 12.6806 13.332 12.3667 13.332 12C13.332 11.6333 13.2015 11.3194 12.9404 11.0583C12.6793 10.7972 12.3654 10.6667 11.9987 10.6667C11.632 10.6667 11.3181 10.7972 11.057 11.0583C10.7959 11.3194 10.6654 11.6333 10.6654 12C10.6654 12.3667 10.7959 12.6806 11.057 12.9417C11.3181 13.2028 11.632 13.3333 11.9987 13.3333Z" fill="#DA281C"/>
</g>
</svg>
