<svg width="24" height="24" viewBox="0 0 24 24" fill="none" xmlns="http://www.w3.org/2000/svg">
<rect width="24" height="24" rx="4" fill="#FA0C00" fill-opacity="0.1"/>
<mask id="mask0_6415_1612" style="mask-type:alpha" maskUnits="userSpaceOnUse" x="4" y="4" width="16" height="16">
<rect x="4" y="4" width="16" height="16" fill="#D9D9D9"/>
</mask>
<g mask="url(#mask0_6415_1612)">
<path d="M6.0013 18.0003C5.63464 18.0003 5.32075 17.8698 5.05964 17.6087C4.79852 17.3475 4.66797 17.0337 4.66797 16.667V8.66699C4.66797 8.30033 4.79852 7.98644 5.05964 7.72533C5.32075 7.46421 5.63464 7.33366 6.0013 7.33366H8.1013L9.33464 6.00033H13.3346V7.33366H9.91797L8.7013 8.66699H6.0013V16.667H16.668V10.667H18.0013V16.667C18.0013 17.0337 17.8707 17.3475 17.6096 17.6087C17.3485 17.8698 17.0346 18.0003 16.668 18.0003H6.0013ZM16.668 8.66699V7.33366H15.3346V6.00033H16.668V4.66699H18.0013V6.00033H19.3346V7.33366H18.0013V8.66699H16.668ZM11.3346 15.667C12.168 15.667 12.8763 15.3753 13.4596 14.792C14.043 14.2087 14.3346 13.5003 14.3346 12.667C14.3346 11.8337 14.043 11.1253 13.4596 10.542C12.8763 9.95866 12.168 9.66699 11.3346 9.66699C10.5013 9.66699 9.79297 9.95866 9.20964 10.542C8.6263 11.1253 8.33464 11.8337 8.33464 12.667C8.33464 13.5003 8.6263 14.2087 9.20964 14.792C9.79297 15.3753 10.5013 15.667 11.3346 15.667ZM11.3346 14.3337C10.868 14.3337 10.4735 14.1725 10.1513 13.8503C9.82908 13.5281 9.66797 13.1337 9.66797 12.667C9.66797 12.2003 9.82908 11.8059 10.1513 11.4837C10.4735 11.1614 10.868 11.0003 11.3346 11.0003C11.8013 11.0003 12.1957 11.1614 12.518 11.4837C12.8402 11.8059 13.0013 12.2003 13.0013 12.667C13.0013 13.1337 12.8402 13.5281 12.518 13.8503C12.1957 14.1725 11.8013 14.3337 11.3346 14.3337Z" fill="#DA281C"/>
</g>
</svg>
