<svg width="25" height="24" viewBox="0 0 25 24" fill="none" xmlns="http://www.w3.org/2000/svg">
<rect x="0.667969" width="24" height="24" rx="4" fill="#FA0C00" fill-opacity="0.1"/>
<mask id="mask0_6409_1529" style="mask-type:alpha" maskUnits="userSpaceOnUse" x="4" y="4" width="17" height="16">
<rect x="4.66797" y="4" width="16" height="16" fill="#D9D9D9"/>
</mask>
<g mask="url(#mask0_6409_1529)">
<path d="M7.56797 17.8C7.34575 17.8889 7.14019 17.8639 6.9513 17.725C6.76241 17.5861 6.66797 17.4 6.66797 17.1667V7.83333C6.66797 7.68889 6.70964 7.56111 6.79297 7.45C6.8763 7.33889 6.99019 7.25556 7.13464 7.2L10.668 6L14.668 7.4L17.768 6.2C17.9902 6.11111 18.1957 6.13611 18.3846 6.275C18.5735 6.41389 18.668 6.6 18.668 6.83333V12.45C18.5013 12.1944 18.3041 11.9611 18.0763 11.75C17.8485 11.5389 17.6013 11.3556 17.3346 11.2V7.8L15.3346 8.56667V10.6667C15.1013 10.6667 14.8735 10.6861 14.6513 10.725C14.4291 10.7639 14.2124 10.8222 14.0013 10.9V8.56667L11.3346 7.63333V16.35L7.56797 17.8ZM8.0013 16.2L10.0013 15.4333V7.63333L8.0013 8.3V16.2ZM15.3346 16C15.7124 16 16.0263 15.8889 16.2763 15.6667C16.5263 15.4444 16.6569 15.1111 16.668 14.6667C16.6791 14.2889 16.5541 13.9722 16.293 13.7167C16.0319 13.4611 15.7124 13.3333 15.3346 13.3333C14.9569 13.3333 14.6402 13.4611 14.3846 13.7167C14.1291 13.9722 14.0013 14.2889 14.0013 14.6667C14.0013 15.0444 14.1291 15.3611 14.3846 15.6167C14.6402 15.8722 14.9569 16 15.3346 16ZM15.3346 17.3333C14.6013 17.3333 13.9735 17.0722 13.4513 16.55C12.9291 16.0278 12.668 15.4 12.668 14.6667C12.668 13.9333 12.9291 13.3056 13.4513 12.7833C13.9735 12.2611 14.6013 12 15.3346 12C16.068 12 16.6957 12.2611 17.218 12.7833C17.7402 13.3056 18.0013 13.9333 18.0013 14.6667C18.0013 14.9222 17.9707 15.1639 17.9096 15.3917C17.8485 15.6194 17.7569 15.8333 17.6346 16.0333L19.3346 17.7333L18.4013 18.6667L16.7013 16.9667C16.5013 17.0889 16.2874 17.1806 16.0596 17.2417C15.8319 17.3028 15.5902 17.3333 15.3346 17.3333Z" fill="#DA281C"/>
</g>
</svg>
