<svg width="54" height="53" viewBox="0 0 54 53" fill="none" xmlns="http://www.w3.org/2000/svg">
<path d="M36.1721 4.96094H17.9582C10.0466 4.96094 5.33008 9.67745 5.33008 17.589V35.7813C5.33008 43.7146 10.0466 48.4311 17.9582 48.4311H36.1504C44.062 48.4311 48.7785 43.7146 48.7785 35.803V17.589C48.8002 9.67745 44.0837 4.96094 36.1721 4.96094ZM38.4978 22.2621L33.477 28.7391C32.8467 29.5433 31.9555 30.0649 30.934 30.1736C29.9124 30.304 28.9126 30.0215 28.1084 29.3912L24.1309 26.2613C23.9788 26.1309 23.8049 26.1309 23.718 26.1526C23.631 26.1526 23.4789 26.1961 23.3485 26.37L18.1755 33.0861C17.8495 33.4991 17.3713 33.7164 16.8931 33.7164C16.5454 33.7164 16.1976 33.6078 15.8933 33.3687C15.1761 32.8253 15.0457 31.8038 15.589 31.0865L20.762 24.3704C21.3923 23.5662 22.2834 23.0445 23.305 22.9141C24.3048 22.7837 25.3263 23.0663 26.1305 23.6966L30.1081 26.8264C30.2602 26.9568 30.4124 26.9568 30.521 26.9351C30.608 26.9351 30.7601 26.8916 30.8905 26.7177L35.9113 20.2407C36.4547 19.5234 37.498 19.393 38.1935 19.9581C38.9108 20.545 39.0412 21.5665 38.4978 22.2621Z" fill="#292D32"/>
</svg>
