<svg width="24" height="24" viewBox="0 0 24 24" fill="none" xmlns="http://www.w3.org/2000/svg">
<rect width="24" height="24" rx="4" fill="#FA0C00" fill-opacity="0.1"/>
<mask id="mask0_6415_1623" style="mask-type:alpha" maskUnits="userSpaceOnUse" x="4" y="4" width="16" height="16">
<rect x="4" y="4" width="16" height="16" fill="#D9D9D9"/>
</mask>
<g mask="url(#mask0_6415_1623)">
<path d="M7.33333 15.9C7.93333 15.3111 8.63056 14.8472 9.425 14.5083C10.2194 14.1694 11.0778 14 12 14C12.9222 14 13.7806 14.1694 14.575 14.5083C15.3694 14.8472 16.0667 15.3111 16.6667 15.9V7.33333H7.33333V15.9ZM12 12.6667C12.6444 12.6667 13.1944 12.4389 13.65 11.9833C14.1056 11.5278 14.3333 10.9778 14.3333 10.3333C14.3333 9.68889 14.1056 9.13889 13.65 8.68333C13.1944 8.22778 12.6444 8 12 8C11.3556 8 10.8056 8.22778 10.35 8.68333C9.89444 9.13889 9.66667 9.68889 9.66667 10.3333C9.66667 10.9778 9.89444 11.5278 10.35 11.9833C10.8056 12.4389 11.3556 12.6667 12 12.6667ZM7.33333 18C6.96667 18 6.65278 17.8694 6.39167 17.6083C6.13056 17.3472 6 17.0333 6 16.6667V7.33333C6 6.96667 6.13056 6.65278 6.39167 6.39167C6.65278 6.13056 6.96667 6 7.33333 6H16.6667C17.0333 6 17.3472 6.13056 17.6083 6.39167C17.8694 6.65278 18 6.96667 18 7.33333V16.6667C18 17.0333 17.8694 17.3472 17.6083 17.6083C17.3472 17.8694 17.0333 18 16.6667 18H7.33333ZM8.48333 16.6667H15.5167C15.0278 16.2333 14.475 15.9028 13.8583 15.675C13.2417 15.4472 12.6222 15.3333 12 15.3333C11.3778 15.3333 10.7528 15.4472 10.125 15.675C9.49722 15.9028 8.95 16.2333 8.48333 16.6667ZM12 11.3333C11.7222 11.3333 11.4861 11.2361 11.2917 11.0417C11.0972 10.8472 11 10.6111 11 10.3333C11 10.0556 11.0972 9.81944 11.2917 9.625C11.4861 9.43056 11.7222 9.33333 12 9.33333C12.2778 9.33333 12.5139 9.43056 12.7083 9.625C12.9028 9.81944 13 10.0556 13 10.3333C13 10.6111 12.9028 10.8472 12.7083 11.0417C12.5139 11.2361 12.2778 11.3333 12 11.3333Z" fill="#DA281C"/>
</g>
</svg>
