<svg width="25" height="24" viewBox="0 0 25 24" fill="none" xmlns="http://www.w3.org/2000/svg">
<rect x="0.667969" width="24" height="24" rx="4" fill="#FA0C00" fill-opacity="0.1"/>
<mask id="mask0_6409_1501" style="mask-type:alpha" maskUnits="userSpaceOnUse" x="4" y="4" width="17" height="16">
<rect x="4.66797" y="4" width="16" height="16" fill="#D9D9D9"/>
</mask>
<g mask="url(#mask0_6409_1501)">
<path d="M15.3333 11.3337L12.6667 14.0003L10 11.3337L10.9333 10.4003L12 11.4337V8.66699H13.3333V11.4337L14.4 10.4003L15.3333 11.3337ZM11.3333 17.3337H14V16.667H11.3333V17.3337ZM9.33333 19.3337C8.96667 19.3337 8.65278 19.2031 8.39167 18.942C8.13056 18.6809 8 18.367 8 18.0003V6.00033C8 5.63366 8.13056 5.31977 8.39167 5.05866C8.65278 4.79755 8.96667 4.66699 9.33333 4.66699H16C16.3667 4.66699 16.6806 4.79755 16.9417 5.05866C17.2028 5.31977 17.3333 5.63366 17.3333 6.00033V18.0003C17.3333 18.367 17.2028 18.6809 16.9417 18.942C16.6806 19.2031 16.3667 19.3337 16 19.3337H9.33333ZM9.33333 16.0003V18.0003H16V16.0003H9.33333ZM9.33333 14.667H16V8.00033H9.33333V14.667ZM9.33333 6.66699H16V6.00033H9.33333V6.66699Z" fill="#DA281C"/>
</g>
</svg>
