<svg width="25" height="24" viewBox="0 0 25 24" fill="none" xmlns="http://www.w3.org/2000/svg">
<rect x="0.332031" width="24" height="24" rx="4" fill="#FA0C00" fill-opacity="0.1"/>
<mask id="mask0_6409_1557" style="mask-type:alpha" maskUnits="userSpaceOnUse" x="4" y="4" width="17" height="16">
<rect x="4.33203" y="4" width="16" height="16" fill="#D9D9D9"/>
</mask>
<g mask="url(#mask0_6409_1557)">
<path d="M12.3307 18.667C11.4085 18.667 10.5418 18.492 9.73073 18.142C8.91962 17.792 8.21406 17.317 7.61406 16.717C7.01406 16.117 6.53906 15.4114 6.18906 14.6003C5.83906 13.7892 5.66406 12.9225 5.66406 12.0003C5.66406 11.0781 5.83906 10.2114 6.18906 9.40033C6.53906 8.58921 7.01406 7.88366 7.61406 7.28366C8.21406 6.68366 8.91962 6.20866 9.73073 5.85866C10.5418 5.50866 11.4085 5.33366 12.3307 5.33366C12.8085 5.33366 13.2696 5.38088 13.7141 5.47533C14.1585 5.56977 14.5863 5.70588 14.9974 5.88366V7.38366C14.6085 7.16144 14.1891 6.98644 13.7391 6.85866C13.2891 6.73088 12.8196 6.66699 12.3307 6.66699C10.853 6.66699 9.59462 7.18644 8.55573 8.22533C7.51684 9.26421 6.9974 10.5225 6.9974 12.0003C6.9974 13.4781 7.51684 14.7364 8.55573 15.7753C9.59462 16.8142 10.853 17.3337 12.3307 17.3337C13.8085 17.3337 15.0668 16.8142 16.1057 15.7753C17.1446 14.7364 17.6641 13.4781 17.6641 12.0003C17.6641 11.6448 17.628 11.3003 17.5557 10.967C17.4835 10.6337 17.3863 10.3114 17.2641 10.0003H18.6974C18.7974 10.3225 18.8724 10.6475 18.9224 10.9753C18.9724 11.3031 18.9974 11.6448 18.9974 12.0003C18.9974 12.9225 18.8224 13.7892 18.4724 14.6003C18.1224 15.4114 17.6474 16.117 17.0474 16.717C16.4474 17.317 15.7418 17.792 14.9307 18.142C14.1196 18.492 13.253 18.667 12.3307 18.667ZM17.6641 8.66699V7.33366H16.3307V6.00033H17.6641V4.66699H18.9974V6.00033H20.3307V7.33366H18.9974V8.66699H17.6641ZM14.6641 11.3337C14.9418 11.3337 15.178 11.2364 15.3724 11.042C15.5668 10.8475 15.6641 10.6114 15.6641 10.3337C15.6641 10.0559 15.5668 9.81977 15.3724 9.62533C15.178 9.43088 14.9418 9.33366 14.6641 9.33366C14.3863 9.33366 14.1502 9.43088 13.9557 9.62533C13.7613 9.81977 13.6641 10.0559 13.6641 10.3337C13.6641 10.6114 13.7613 10.8475 13.9557 11.042C14.1502 11.2364 14.3863 11.3337 14.6641 11.3337ZM9.9974 11.3337C10.2752 11.3337 10.5113 11.2364 10.7057 11.042C10.9002 10.8475 10.9974 10.6114 10.9974 10.3337C10.9974 10.0559 10.9002 9.81977 10.7057 9.62533C10.5113 9.43088 10.2752 9.33366 9.9974 9.33366C9.71962 9.33366 9.48351 9.43088 9.28906 9.62533C9.09462 9.81977 8.9974 10.0559 8.9974 10.3337C8.9974 10.6114 9.09462 10.8475 9.28906 11.042C9.48351 11.2364 9.71962 11.3337 9.9974 11.3337ZM12.3307 15.667C13.0863 15.667 13.7724 15.4531 14.3891 15.0253C15.0057 14.5975 15.453 14.0337 15.7307 13.3337H8.93073C9.20851 14.0337 9.65573 14.5975 10.2724 15.0253C10.8891 15.4531 11.5752 15.667 12.3307 15.667Z" fill="#DA281C"/>
</g>
</svg>
