<svg width="54" height="53" viewBox="0 0 54 53" fill="none" xmlns="http://www.w3.org/2000/svg">
<path d="M36.1096 4.96094H17.8957C9.98409 4.96094 5.26758 9.67745 5.26758 17.589V35.7813C5.26758 43.7146 9.98409 48.4311 17.8957 48.4311H36.0879C43.9995 48.4311 48.716 43.7146 48.716 35.803V17.589C48.7377 9.67745 44.0212 4.96094 36.1096 4.96094ZM19.3302 20.132L25.8507 13.6115C26.0028 13.4594 26.1767 13.3507 26.3723 13.2637C26.7636 13.0899 27.22 13.0899 27.6112 13.2637C27.8069 13.3507 27.9807 13.4594 28.1329 13.6115L34.6534 20.132C35.2837 20.7623 35.2837 21.8056 34.6534 22.4359C34.3274 22.762 33.9144 22.9141 33.5014 22.9141C33.0885 22.9141 32.6755 22.762 32.3495 22.4359L28.611 18.6975V32.1515C28.611 33.0427 27.8721 33.7816 26.9809 33.7816C26.0898 33.7816 25.3508 33.0427 25.3508 32.1515V18.6975L21.6124 22.4359C20.982 23.0663 19.9388 23.0663 19.3084 22.4359C18.6781 21.8056 18.6999 20.7841 19.3302 20.132ZM40.5653 38.0417C36.1966 39.498 31.6105 40.237 27.0027 40.237C22.3948 40.237 17.8087 39.498 13.44 38.0417C12.5923 37.7592 12.1359 36.8246 12.4184 35.9769C12.701 35.1292 13.6356 34.6511 14.4832 34.9553C22.5687 37.6505 31.4583 37.6505 39.5438 34.9553C40.3915 34.6728 41.3261 35.1292 41.6086 35.9769C41.8694 36.8463 41.413 37.7592 40.5653 38.0417Z" fill="#292D32"/>
</svg>
