<svg width="25" height="24" viewBox="0 0 25 24" fill="none" xmlns="http://www.w3.org/2000/svg">
<rect x="0.332031" width="24" height="24" rx="4" fill="#FA0C00" fill-opacity="0.1"/>
<mask id="mask0_6415_1579" style="mask-type:alpha" maskUnits="userSpaceOnUse" x="4" y="4" width="17" height="16">
<rect x="4.33203" y="4" width="16" height="16" fill="#D9D9D9"/>
</mask>
<g mask="url(#mask0_6415_1579)">
<path d="M13.6654 19.4671V18.1338C14.9654 18.1338 16.0681 17.681 16.9737 16.7755C17.8793 15.8699 18.332 14.7671 18.332 13.4671H19.6654C19.6654 14.3005 19.507 15.081 19.1904 15.8088C18.8737 16.5366 18.4459 17.1699 17.907 17.7088C17.3681 18.2477 16.7348 18.6755 16.007 18.9921C15.2793 19.3088 14.4987 19.4671 13.6654 19.4671ZM13.6654 16.8005V15.4671C14.2209 15.4671 14.6931 15.2727 15.082 14.8838C15.4709 14.4949 15.6654 14.0227 15.6654 13.4671H16.9987C16.9987 14.3893 16.6737 15.1755 16.0237 15.8255C15.3737 16.4755 14.5876 16.8005 13.6654 16.8005ZM8.03203 19.0505C7.86536 19.0505 7.6987 19.0171 7.53203 18.9505C7.36536 18.8838 7.21536 18.7893 7.08203 18.6671L4.71536 16.3005C4.59314 16.1671 4.4987 16.0171 4.43203 15.8505C4.36536 15.6838 4.33203 15.5171 4.33203 15.3505C4.33203 15.1727 4.36536 15.0032 4.43203 14.8421C4.4987 14.681 4.59314 14.5393 4.71536 14.4171L6.83203 12.3005C7.08759 12.0449 7.40425 11.9143 7.78203 11.9088C8.15981 11.9032 8.47648 12.0282 8.73203 12.2838L9.56536 13.1171L10.032 12.6505L9.1987 11.8171C8.94314 11.5616 8.81536 11.2505 8.81536 10.8838C8.81536 10.5171 8.94314 10.206 9.1987 9.95046L10.1487 9.00046C10.4043 8.7449 10.7181 8.61712 11.0904 8.61712C11.4626 8.61712 11.7765 8.7449 12.032 9.00046L12.8654 9.83379L13.332 9.36712L12.4987 8.53379C12.2431 8.27823 12.1154 7.96434 12.1154 7.59212C12.1154 7.2199 12.2431 6.90601 12.4987 6.65046L14.6154 4.53379C14.7487 4.40046 14.8987 4.30046 15.0654 4.23379C15.232 4.16712 15.3987 4.13379 15.5654 4.13379C15.732 4.13379 15.8959 4.16712 16.057 4.23379C16.2181 4.30046 16.3654 4.40046 16.4987 4.53379L18.8654 6.90046C18.9987 7.02268 19.0959 7.16434 19.157 7.32546C19.2181 7.48657 19.2487 7.65601 19.2487 7.83379C19.2487 8.00046 19.2181 8.16712 19.157 8.33379C19.0959 8.50046 18.9987 8.65046 18.8654 8.78379L16.7487 10.9005C16.4931 11.156 16.1793 11.2838 15.807 11.2838C15.4348 11.2838 15.1209 11.156 14.8654 10.9005L14.032 10.0671L13.5654 10.5338L14.3987 11.3671C14.6543 11.6227 14.7793 11.9366 14.7737 12.3088C14.7681 12.681 14.6376 12.9949 14.382 13.2505L13.4487 14.1838C13.1931 14.4393 12.8793 14.5671 12.507 14.5671C12.1348 14.5671 11.8209 14.4393 11.5654 14.1838L10.732 13.3505L10.2654 13.8171L11.0987 14.6505C11.3543 14.906 11.4793 15.2227 11.4737 15.6005C11.4681 15.9782 11.3376 16.2949 11.082 16.5505L8.96536 18.6671C8.84314 18.7893 8.70148 18.8838 8.54036 18.9505C8.37925 19.0171 8.20981 19.0505 8.03203 19.0505ZM8.03203 17.7338L8.73203 17.0338L6.36536 14.6671L5.66536 15.3671L8.03203 17.7338ZM9.4487 16.3171L10.1487 15.6171L7.78203 13.2505L7.08203 13.9505L9.4487 16.3171ZM12.5154 13.2505L13.4487 12.3171L11.082 9.95046L10.1487 10.8838L12.5154 13.2505ZM15.8154 9.95046L16.5154 9.25046L14.1487 6.88379L13.4487 7.58379L15.8154 9.95046ZM17.232 8.53379L17.932 7.83379L15.5654 5.46712L14.8654 6.16712L17.232 8.53379Z" fill="#DA281C"/>
</g>
</svg>
