<svg width="54" height="53" viewBox="0 0 54 53" fill="none" xmlns="http://www.w3.org/2000/svg">
<path d="M44.5436 20.1607C40.6096 20.1607 39.0012 17.3786 40.9573 13.9662C42.0875 11.9883 41.4138 9.46701 39.4359 8.33679L35.6757 6.18502C33.9586 5.16347 31.7416 5.77205 30.7201 7.48912L30.481 7.90209C28.5249 11.3145 25.3081 11.3145 23.3302 7.90209L23.0911 7.48912C22.113 5.77205 19.896 5.16347 18.179 6.18502L14.4188 8.33679C12.4409 9.46701 11.7671 12.01 12.8973 13.9879C14.8752 17.3786 13.2668 20.1607 9.33279 20.1607C7.07234 20.1607 5.20312 22.0082 5.20312 24.2903V28.1157C5.20312 30.3762 7.05061 32.2454 9.33279 32.2454C13.2668 32.2454 14.8752 35.0275 12.8973 38.4399C11.7671 40.4178 12.4409 42.939 14.4188 44.0693L18.179 46.221C19.896 47.2426 22.113 46.634 23.1346 44.9169L23.3736 44.504C25.3298 41.0915 28.5466 41.0915 30.5245 44.504L30.7636 44.9169C31.7851 46.634 34.0021 47.2426 35.7192 46.221L39.4793 44.0693C41.4572 42.939 42.131 40.396 41.0008 38.4399C39.0229 35.0275 40.6313 32.2454 44.5653 32.2454C46.8258 32.2454 48.695 30.3979 48.695 28.1157V24.2903C48.6733 22.0299 46.8258 20.1607 44.5436 20.1607ZM26.9382 33.2669C23.0476 33.2669 19.8743 30.0936 19.8743 26.203C19.8743 22.3124 23.0476 19.1391 26.9382 19.1391C30.8288 19.1391 34.0021 22.3124 34.0021 26.203C34.0021 30.0936 30.8288 33.2669 26.9382 33.2669Z" fill="#292D32"/>
</svg>
