<svg width="25" height="24" viewBox="0 0 25 24" fill="none" xmlns="http://www.w3.org/2000/svg">
<rect x="0.667969" width="24" height="24" rx="4" fill="#FA0C00" fill-opacity="0.1"/>
<mask id="mask0_6409_1540" style="mask-type:alpha" maskUnits="userSpaceOnUse" x="4" y="4" width="17" height="16">
<rect x="4.66797" y="4" width="16" height="16" fill="#D9D9D9"/>
</mask>
<g mask="url(#mask0_6409_1540)">
<path d="M12 18.6663V13.1497C11.8 13.0275 11.6389 12.8691 11.5167 12.6747C11.3944 12.4802 11.3333 12.2552 11.3333 11.9997C11.3333 11.633 11.4639 11.3191 11.725 11.058C11.9861 10.7969 12.3 10.6663 12.6667 10.6663C13.0333 10.6663 13.3472 10.7969 13.6083 11.058C13.8694 11.3191 14 11.633 14 11.9997C14 12.2552 13.9389 12.483 13.8167 12.683C13.6944 12.883 13.5333 13.0386 13.3333 13.1497V18.6663H12ZM8.06667 16.833C7.43333 16.2219 6.93056 15.5025 6.55833 14.6747C6.18611 13.8469 6 12.9552 6 11.9997C6 11.0775 6.175 10.2108 6.525 9.39967C6.875 8.58856 7.35 7.88301 7.95 7.28301C8.55 6.68301 9.25556 6.20801 10.0667 5.85801C10.8778 5.50801 11.7444 5.33301 12.6667 5.33301C13.5889 5.33301 14.4556 5.50801 15.2667 5.85801C16.0778 6.20801 16.7833 6.68301 17.3833 7.28301C17.9833 7.88301 18.4583 8.58856 18.8083 9.39967C19.1583 10.2108 19.3333 11.0775 19.3333 11.9997C19.3333 12.9552 19.1472 13.8497 18.775 14.683C18.4028 15.5163 17.9 16.233 17.2667 16.833L16.3333 15.8997C16.8444 15.4108 17.25 14.8302 17.55 14.158C17.85 13.4858 18 12.7663 18 11.9997C18 10.5108 17.4833 9.24967 16.45 8.21634C15.4167 7.18301 14.1556 6.66634 12.6667 6.66634C11.1778 6.66634 9.91667 7.18301 8.88333 8.21634C7.85 9.24967 7.33333 10.5108 7.33333 11.9997C7.33333 12.7663 7.48333 13.483 7.78333 14.1497C8.08333 14.8163 8.49444 15.3941 9.01667 15.883L8.06667 16.833ZM9.95 14.9497C9.56111 14.583 9.25 14.1469 9.01667 13.6413C8.78333 13.1358 8.66667 12.5886 8.66667 11.9997C8.66667 10.8886 9.05556 9.94412 9.83333 9.16634C10.6111 8.38856 11.5556 7.99967 12.6667 7.99967C13.7778 7.99967 14.7222 8.38856 15.5 9.16634C16.2778 9.94412 16.6667 10.8886 16.6667 11.9997C16.6667 12.5886 16.55 13.1386 16.3167 13.6497C16.0833 14.1608 15.7722 14.5941 15.3833 14.9497L14.4333 13.9997C14.7111 13.7441 14.9306 13.4441 15.0917 13.0997C15.2528 12.7552 15.3333 12.3886 15.3333 11.9997C15.3333 11.2663 15.0722 10.6386 14.55 10.1163C14.0278 9.59412 13.4 9.33301 12.6667 9.33301C11.9333 9.33301 11.3056 9.59412 10.7833 10.1163C10.2611 10.6386 10 11.2663 10 11.9997C10 12.3997 10.0806 12.7691 10.2417 13.108C10.4028 13.4469 10.6222 13.7441 10.9 13.9997L9.95 14.9497Z" fill="#DA281C"/>
</g>
</svg>
