<svg width="25" height="26" viewBox="0 0 25 26" fill="none" xmlns="http://www.w3.org/2000/svg">
<path d="M20.8958 17.7693C17.8653 16.3023 17.3823 14.0372 17.3608 13.8693C17.3348 13.6657 17.3053 13.5058 17.5298 13.2988C17.7463 13.0988 18.7068 12.5043 18.9733 12.3183C19.4138 12.0103 19.6078 11.7028 19.4648 11.3248C19.3648 11.0633 19.1213 10.9647 18.8648 10.9647C18.7839 10.965 18.7032 10.9741 18.6243 10.9918C18.1403 11.0968 17.6703 11.3393 17.3983 11.4048C17.3656 11.4132 17.332 11.4177 17.2983 11.4183C17.1533 11.4183 17.0983 11.3538 17.1123 11.1793C17.1463 10.6503 17.2183 9.61775 17.1348 8.65325C17.0203 7.32625 16.5923 6.66875 16.0848 6.08725C15.8393 5.80525 14.6993 4.59375 12.4993 4.59375C10.2993 4.59375 9.16076 5.80525 8.91676 6.08375C8.40776 6.66525 7.98026 7.32275 7.86676 8.64975C7.78326 9.61425 7.85826 10.6463 7.88926 11.1758C7.89926 11.3418 7.84826 11.4148 7.70326 11.4148C7.66951 11.4142 7.63595 11.4096 7.60326 11.4013C7.33176 11.3358 6.86176 11.0933 6.37776 10.9883C6.29881 10.9706 6.21817 10.9615 6.13726 10.9613C5.87976 10.9613 5.63726 11.0613 5.53726 11.3213C5.39426 11.6993 5.58726 12.0068 6.02926 12.3148C6.29576 12.5008 7.25626 13.0948 7.47276 13.2952C7.69676 13.5022 7.66776 13.6623 7.64176 13.8658C7.62026 14.0363 7.13676 16.3013 4.10676 17.7657C3.92926 17.8518 3.62726 18.0337 4.15976 18.3278C4.99576 18.7898 5.55226 18.7403 5.98476 19.0188C6.35176 19.2552 6.13476 19.7652 6.40176 19.9492C6.72976 20.1757 7.69926 19.9333 8.95176 20.3468C10.0018 20.6928 10.6398 21.6703 12.5018 21.6703C14.3638 21.6703 15.0203 20.6882 16.0518 20.3468C17.3018 19.9333 18.2733 20.1757 18.6018 19.9492C18.8683 19.7652 18.6518 19.2552 19.0188 19.0188C19.4513 18.7403 20.0073 18.7898 20.8438 18.3278C21.3753 18.0372 21.0733 17.8553 20.8958 17.7693Z" fill="white"/>
<path d="M22.2146 17.597C22.0786 17.227 21.8196 17.029 21.5246 16.865C21.4691 16.8325 21.4181 16.8065 21.3746 16.7865C21.2866 16.741 21.1966 16.697 21.1071 16.6505C20.1876 16.163 19.4696 15.548 18.9716 14.819C18.8302 14.6138 18.7075 14.3962 18.6051 14.169C18.5626 14.0475 18.5646 13.9785 18.5951 13.9155C18.6254 13.867 18.6654 13.8252 18.7126 13.793C18.8706 13.6885 19.0336 13.5825 19.1441 13.511C19.3411 13.3835 19.4971 13.2825 19.5976 13.211C19.9751 12.947 20.2391 12.6665 20.4041 12.353C20.5192 12.1364 20.5864 11.8976 20.6009 11.6527C20.6155 11.4079 20.5772 11.1627 20.4886 10.934C20.2386 10.276 19.6171 9.8675 18.8641 9.8675C18.7053 9.86735 18.5469 9.88411 18.3916 9.9175C18.3501 9.9265 18.3086 9.936 18.2681 9.9465C18.2751 9.4965 18.2651 9.0215 18.2251 8.554C18.0831 6.9105 17.5076 6.049 16.9076 5.362C16.5234 4.9315 16.0708 4.56728 15.5681 4.284C14.6576 3.764 13.6251 3.5 12.4996 3.5C11.3741 3.5 10.3466 3.764 9.43511 4.284C8.93117 4.56737 8.47769 4.93231 8.09311 5.364C7.49311 6.051 6.91761 6.914 6.77561 8.556C6.73561 9.0235 6.72561 9.501 6.73211 9.9485C6.69161 9.938 6.65061 9.9285 6.60911 9.9195C6.45383 9.88611 6.29544 9.86935 6.13661 9.8695C5.38311 9.8695 4.76061 10.278 4.51161 10.936C4.42261 11.1648 4.38391 11.4101 4.39814 11.6552C4.41238 11.9003 4.47922 12.1395 4.59411 12.3565C4.75961 12.67 5.02361 12.9505 5.40111 13.2145C5.50111 13.2845 5.65761 13.3855 5.85461 13.5145C5.96111 13.5835 6.11661 13.6845 6.26911 13.7855C6.32247 13.82 6.36782 13.8655 6.40211 13.919C6.43411 13.9845 6.43511 14.055 6.38761 14.185C6.28658 14.4074 6.16594 14.6205 6.02711 14.8215C5.54011 15.534 4.84311 16.138 3.95311 16.6215C3.48161 16.8715 2.99161 17.0385 2.78461 17.601C2.62861 18.0255 2.73061 18.5085 3.12711 18.9155C3.27263 19.0674 3.44141 19.1952 3.62711 19.294C4.01351 19.5063 4.42438 19.6707 4.85061 19.7835C4.93857 19.8062 5.02207 19.8435 5.09761 19.894C5.24211 20.0205 5.22161 20.211 5.41411 20.49C5.51074 20.6342 5.63353 20.759 5.77611 20.858C6.18011 21.137 6.63411 21.1545 7.11511 21.173C7.54961 21.1895 8.04211 21.2085 8.60461 21.394C8.83761 21.471 9.07961 21.62 9.36011 21.794C10.0336 22.208 10.9556 22.7745 12.4986 22.7745C14.0416 22.7745 14.9701 22.205 15.6486 21.7895C15.9271 21.6185 16.1676 21.471 16.3941 21.396C16.9566 21.21 17.4491 21.1915 17.8836 21.175C18.3646 21.1565 18.8186 21.139 19.2226 20.86C19.3915 20.7422 19.5322 20.5886 19.6346 20.41C19.7731 20.1745 19.7696 20.01 19.8996 19.895C19.9705 19.8469 20.0489 19.8111 20.1316 19.789C20.5637 19.6759 20.9801 19.51 21.3716 19.295C21.5689 19.1892 21.7465 19.0501 21.8966 18.884L21.9016 18.878C22.2736 18.48 22.3671 18.011 22.2146 17.597ZM20.8431 18.334C20.0066 18.796 19.4506 18.7465 19.0181 19.025C18.6506 19.2615 18.8681 19.7715 18.6011 19.9555C18.2731 20.182 17.3036 19.9395 16.0511 20.353C15.0181 20.6945 14.3591 21.6765 12.5011 21.6765C10.6431 21.6765 9.99961 20.6965 8.94961 20.3505C7.69961 19.937 6.72811 20.1795 6.39961 19.953C6.13311 19.769 6.34961 19.259 5.98261 19.0225C5.54961 18.744 4.99361 18.7935 4.15761 18.334C3.62511 18.04 3.92711 17.858 4.10461 17.772C7.13461 16.305 7.61811 14.04 7.63961 13.872C7.66561 13.6685 7.69461 13.5085 7.47061 13.3015C7.25411 13.1015 6.29361 12.507 6.02711 12.321C5.58611 12.013 5.39211 11.7055 5.53511 11.3275C5.63511 11.066 5.87911 10.9675 6.13511 10.9675C6.21602 10.9677 6.29666 10.9768 6.37561 10.9945C6.85961 11.0995 7.32961 11.342 7.60111 11.4075C7.6338 11.4159 7.66736 11.4204 7.70111 11.421C7.84611 11.421 7.89711 11.348 7.88711 11.182C7.85611 10.6525 7.78111 9.6205 7.86461 8.656C7.97911 7.329 8.40661 6.6715 8.91461 6.09C9.15861 5.8105 10.3051 4.599 12.4976 4.599C14.6901 4.599 15.8396 5.8055 16.0836 6.084C16.5921 6.6655 17.0201 7.323 17.1336 8.65C17.2171 9.6145 17.1451 10.647 17.1111 11.176C17.0996 11.3505 17.1521 11.415 17.2971 11.415C17.3309 11.4145 17.3644 11.4099 17.3971 11.4015C17.6691 11.336 18.1391 11.0935 18.6231 10.9885C18.7021 10.9708 18.7827 10.9617 18.8636 10.9615C19.1211 10.9615 19.3636 11.0615 19.4636 11.3215C19.6066 11.6995 19.4136 12.007 18.9721 12.315C18.7056 12.501 17.7451 13.095 17.5286 13.2955C17.3041 13.5025 17.3336 13.6625 17.3596 13.866C17.3811 14.0365 17.8641 16.3015 20.8946 17.766C21.0736 17.8555 21.3756 18.0375 20.8431 18.334Z" fill="white"/>
</svg>
