<svg width="25" height="30" viewBox="0 0 25 30" fill="none" xmlns="http://www.w3.org/2000/svg">
<g clip-path="url(#clip0_6465_2896)">
<path d="M21.2659 6.65873C19.7213 5.65348 18.6074 4.04436 18.2594 2.16956C18.1846 1.76459 18.1429 1.34741 18.1429 0.920898H13.2144L13.2065 20.6439C13.1238 22.8526 11.3031 24.6254 9.07182 24.6254C8.37792 24.6254 7.725 24.4524 7.14974 24.1501C5.83096 23.4572 4.92852 22.0771 4.92852 20.4888C4.92852 18.2076 6.78733 16.3515 9.0711 16.3515C9.49751 16.3515 9.90666 16.4219 10.2935 16.5425V11.5184C9.893 11.4638 9.48601 11.4301 9.0711 11.4301C4.06923 11.4301 0 15.4934 0 20.4888C0 23.5534 1.53306 26.2654 3.87293 27.9054C5.34631 28.9387 7.13895 29.5469 9.07182 29.5469C14.0737 29.5469 18.1429 25.4835 18.1429 20.4888V10.4873C20.0758 11.8724 22.4444 12.6888 25 12.6888V7.76737C23.6237 7.76737 22.3416 7.35881 21.2659 6.65873Z" fill="white"/>
</g>
<defs>
<clipPath id="clip0_6465_2896">
<rect width="25" height="28.626" fill="white" transform="translate(0 0.920898)"/>
</clipPath>
</defs>
</svg>
