<svg width="37" height="38" viewBox="0 0 37 38" fill="none" xmlns="http://www.w3.org/2000/svg">
<path d="M15.4154 24.0456L23.4166 19.4206L15.4154 14.7956V24.0456ZM33.237 11.9743C33.4374 12.6989 33.5762 13.6702 33.6687 14.9035C33.7766 16.1368 33.8229 17.2006 33.8229 18.1256L33.9154 19.4206C33.9154 22.7968 33.6687 25.2789 33.237 26.8668C32.8516 28.2543 31.9574 29.1485 30.5699 29.5339C29.8454 29.7343 28.5195 29.8731 26.4845 29.9656C24.4804 30.0735 22.6458 30.1197 20.9499 30.1197L18.4987 30.2122C12.0391 30.2122 8.01536 29.9656 6.42745 29.5339C5.03995 29.1485 4.14578 28.2543 3.76036 26.8668C3.55995 26.1422 3.4212 25.171 3.3287 23.9377C3.22078 22.7043 3.17453 21.6406 3.17453 20.7156L3.08203 19.4206C3.08203 16.0443 3.3287 13.5622 3.76036 11.9743C4.14578 10.5868 5.03995 9.69266 6.42745 9.30724C7.15203 9.10682 8.47787 8.96807 10.5129 8.87557C12.517 8.76766 14.3516 8.72141 16.0474 8.72141L18.4987 8.62891C24.9583 8.62891 28.982 8.87557 30.5699 9.30724C31.9574 9.69266 32.8516 10.5868 33.237 11.9743Z" fill="white"/>
</svg>
