<svg width="213" height="77" viewBox="0 0 213 77" fill="none" xmlns="http://www.w3.org/2000/svg">
<g filter="url(#filter0_d_8071_35307)">
<g clip-path="url(#clip0_8071_35307)">
<rect x="15" y="10" width="183" height="47" rx="23.5" fill="white"/>
<path d="M65.379 29.853C65.307 29.979 65.229 30.072 65.145 30.132C65.067 30.186 64.968 30.213 64.848 30.213C64.722 30.213 64.584 30.168 64.434 30.078C64.29 29.982 64.116 29.877 63.912 29.763C63.708 29.649 63.468 29.547 63.192 29.457C62.922 29.361 62.601 29.313 62.229 29.313C61.893 29.313 61.599 29.355 61.347 29.439C61.095 29.517 60.882 29.628 60.708 29.772C60.54 29.916 60.414 30.09 60.33 30.294C60.246 30.492 60.204 30.711 60.204 30.951C60.204 31.257 60.288 31.512 60.456 31.716C60.63 31.92 60.858 32.094 61.14 32.238C61.422 32.382 61.743 32.511 62.103 32.625C62.463 32.739 62.832 32.862 63.21 32.994C63.588 33.12 63.957 33.27 64.317 33.444C64.677 33.612 64.998 33.828 65.28 34.092C65.562 34.35 65.787 34.668 65.955 35.046C66.129 35.424 66.216 35.883 66.216 36.423C66.216 37.011 66.114 37.563 65.91 38.079C65.712 38.589 65.418 39.036 65.028 39.42C64.644 39.798 64.173 40.098 63.615 40.32C63.057 40.536 62.418 40.644 61.698 40.644C61.284 40.644 60.876 40.602 60.474 40.518C60.072 40.44 59.685 40.326 59.313 40.176C58.947 40.026 58.602 39.846 58.278 39.636C57.954 39.426 57.666 39.192 57.414 38.934L58.125 37.773C58.185 37.689 58.263 37.62 58.359 37.566C58.455 37.506 58.557 37.476 58.665 37.476C58.815 37.476 58.977 37.539 59.151 37.665C59.325 37.785 59.532 37.92 59.772 38.07C60.012 38.22 60.291 38.358 60.609 38.484C60.933 38.604 61.32 38.664 61.77 38.664C62.46 38.664 62.994 38.502 63.372 38.178C63.75 37.848 63.939 37.377 63.939 36.765C63.939 36.423 63.852 36.144 63.678 35.928C63.51 35.712 63.285 35.532 63.003 35.388C62.721 35.238 62.4 35.112 62.04 35.01C61.68 34.908 61.314 34.797 60.942 34.677C60.57 34.557 60.204 34.413 59.844 34.245C59.484 34.077 59.163 33.858 58.881 33.588C58.599 33.318 58.371 32.982 58.197 32.58C58.029 32.172 57.945 31.671 57.945 31.077C57.945 30.603 58.038 30.141 58.224 29.691C58.416 29.241 58.692 28.842 59.052 28.494C59.412 28.146 59.856 27.867 60.384 27.657C60.912 27.447 61.518 27.342 62.202 27.342C62.97 27.342 63.678 27.462 64.326 27.702C64.974 27.942 65.526 28.278 65.982 28.71L65.379 29.853ZM74.5568 33.219C74.4908 33.303 74.4248 33.369 74.3588 33.417C74.2988 33.465 74.2088 33.489 74.0888 33.489C73.9748 33.489 73.8638 33.456 73.7558 33.39C73.6478 33.318 73.5188 33.24 73.3688 33.156C73.2188 33.066 73.0388 32.988 72.8288 32.922C72.6248 32.85 72.3698 32.814 72.0638 32.814C71.6738 32.814 71.3318 32.886 71.0378 33.03C70.7438 33.168 70.4978 33.369 70.2998 33.633C70.1078 33.897 69.9638 34.218 69.8678 34.596C69.7718 34.968 69.7238 35.391 69.7238 35.865C69.7238 36.357 69.7748 36.795 69.8768 37.179C69.9848 37.563 70.1378 37.887 70.3358 38.151C70.5338 38.409 70.7738 38.607 71.0558 38.745C71.3378 38.877 71.6558 38.943 72.0098 38.943C72.3638 38.943 72.6488 38.901 72.8648 38.817C73.0868 38.727 73.2728 38.631 73.4228 38.529C73.5728 38.421 73.7018 38.325 73.8098 38.241C73.9238 38.151 74.0498 38.106 74.1878 38.106C74.3678 38.106 74.5028 38.175 74.5928 38.313L75.2318 39.123C74.9858 39.411 74.7188 39.654 74.4308 39.852C74.1428 40.044 73.8428 40.2 73.5308 40.32C73.2248 40.434 72.9068 40.515 72.5768 40.563C72.2528 40.611 71.9288 40.635 71.6048 40.635C71.0348 40.635 70.4978 40.53 69.9938 40.32C69.4898 40.104 69.0488 39.792 68.6708 39.384C68.2928 38.976 67.9928 38.478 67.7708 37.89C67.5548 37.296 67.4468 36.621 67.4468 35.865C67.4468 35.187 67.5428 34.56 67.7348 33.984C67.9328 33.402 68.2208 32.901 68.5988 32.481C68.9768 32.055 69.4448 31.722 70.0028 31.482C70.5608 31.242 71.2028 31.122 71.9287 31.122C72.6188 31.122 73.2218 31.233 73.7378 31.455C74.2598 31.677 74.7278 31.995 75.1418 32.409L74.5568 33.219ZM78.7223 32.868C79.0103 32.316 79.3523 31.884 79.7483 31.572C80.1443 31.254 80.6123 31.095 81.1523 31.095C81.5783 31.095 81.9203 31.188 82.1783 31.374L82.0343 33.039C82.0043 33.147 81.9593 33.225 81.8993 33.273C81.8453 33.315 81.7703 33.336 81.6743 33.336C81.5843 33.336 81.4493 33.321 81.2693 33.291C81.0953 33.261 80.9243 33.246 80.7563 33.246C80.5103 33.246 80.2913 33.282 80.0993 33.354C79.9073 33.426 79.7333 33.531 79.5773 33.669C79.4273 33.801 79.2923 33.963 79.1723 34.155C79.0583 34.347 78.9503 34.566 78.8483 34.812V40.5H76.6253V31.266H77.9303C78.1583 31.266 78.3173 31.308 78.4073 31.392C78.4973 31.47 78.5573 31.614 78.5873 31.824L78.7223 32.868ZM87.1625 31.122C87.8465 31.122 88.4675 31.233 89.0255 31.455C89.5895 31.677 90.0695 31.992 90.4655 32.4C90.8675 32.808 91.1765 33.306 91.3925 33.894C91.6085 34.482 91.7165 35.139 91.7165 35.865C91.7165 36.597 91.6085 37.257 91.3925 37.845C91.1765 38.433 90.8675 38.934 90.4655 39.348C90.0695 39.762 89.5895 40.08 89.0255 40.302C88.4675 40.524 87.8465 40.635 87.1625 40.635C86.4725 40.635 85.8455 40.524 85.2815 40.302C84.7175 40.08 84.2345 39.762 83.8325 39.348C83.4365 38.934 83.1275 38.433 82.9055 37.845C82.6895 37.257 82.5815 36.597 82.5815 35.865C82.5815 35.139 82.6895 34.482 82.9055 33.894C83.1275 33.306 83.4365 32.808 83.8325 32.4C84.2345 31.992 84.7175 31.677 85.2815 31.455C85.8455 31.233 86.4725 31.122 87.1625 31.122ZM87.1625 38.925C87.9305 38.925 88.4975 38.667 88.8635 38.151C89.2355 37.635 89.4215 36.879 89.4215 35.883C89.4215 34.887 89.2355 34.128 88.8635 33.606C88.4975 33.084 87.9305 32.823 87.1625 32.823C86.3825 32.823 85.8035 33.087 85.4255 33.615C85.0535 34.137 84.8675 34.893 84.8675 35.883C84.8675 36.873 85.0535 37.629 85.4255 38.151C85.8035 38.667 86.3825 38.925 87.1625 38.925ZM95.6625 27.126V40.5H93.4395V27.126H95.6625ZM100.127 27.126V40.5H97.9043V27.126H100.127ZM109.797 40.644C108.993 40.644 108.375 40.419 107.943 39.969C107.517 39.513 107.304 38.886 107.304 38.088V32.931H106.359C106.239 32.931 106.137 32.892 106.053 32.814C105.969 32.736 105.927 32.619 105.927 32.463V31.581L107.412 31.338L107.88 28.818C107.91 28.698 107.967 28.605 108.051 28.539C108.135 28.473 108.243 28.44 108.375 28.44H109.527V31.347H111.993V32.931H109.527V37.935C109.527 38.223 109.596 38.448 109.734 38.61C109.878 38.772 110.073 38.853 110.319 38.853C110.457 38.853 110.571 38.838 110.661 38.808C110.757 38.772 110.838 38.736 110.904 38.7C110.976 38.664 111.039 38.631 111.093 38.601C111.147 38.565 111.201 38.547 111.255 38.547C111.321 38.547 111.375 38.565 111.417 38.601C111.459 38.631 111.504 38.679 111.552 38.745L112.218 39.825C111.894 40.095 111.522 40.299 111.102 40.437C110.682 40.575 110.247 40.644 109.797 40.644ZM117.432 31.122C118.116 31.122 118.737 31.233 119.295 31.455C119.859 31.677 120.339 31.992 120.735 32.4C121.137 32.808 121.446 33.306 121.662 33.894C121.878 34.482 121.986 35.139 121.986 35.865C121.986 36.597 121.878 37.257 121.662 37.845C121.446 38.433 121.137 38.934 120.735 39.348C120.339 39.762 119.859 40.08 119.295 40.302C118.737 40.524 118.116 40.635 117.432 40.635C116.742 40.635 116.115 40.524 115.551 40.302C114.987 40.08 114.504 39.762 114.102 39.348C113.706 38.934 113.397 38.433 113.175 37.845C112.959 37.257 112.851 36.597 112.851 35.865C112.851 35.139 112.959 34.482 113.175 33.894C113.397 33.306 113.706 32.808 114.102 32.4C114.504 31.992 114.987 31.677 115.551 31.455C116.115 31.233 116.742 31.122 117.432 31.122ZM117.432 38.925C118.2 38.925 118.767 38.667 119.133 38.151C119.505 37.635 119.691 36.879 119.691 35.883C119.691 34.887 119.505 34.128 119.133 33.606C118.767 33.084 118.2 32.823 117.432 32.823C116.652 32.823 116.073 33.087 115.695 33.615C115.323 34.137 115.137 34.893 115.137 35.883C115.137 36.873 115.323 37.629 115.695 38.151C116.073 38.667 116.652 38.925 117.432 38.925ZM131.137 40.644C130.333 40.644 129.715 40.419 129.283 39.969C128.857 39.513 128.644 38.886 128.644 38.088V32.931H127.699C127.579 32.931 127.477 32.892 127.393 32.814C127.309 32.736 127.267 32.619 127.267 32.463V31.581L128.752 31.338L129.22 28.818C129.25 28.698 129.307 28.605 129.391 28.539C129.475 28.473 129.583 28.44 129.715 28.44H130.867V31.347H133.333V32.931H130.867V37.935C130.867 38.223 130.936 38.448 131.074 38.61C131.218 38.772 131.413 38.853 131.659 38.853C131.797 38.853 131.911 38.838 132.001 38.808C132.097 38.772 132.178 38.736 132.244 38.7C132.316 38.664 132.379 38.631 132.433 38.601C132.487 38.565 132.541 38.547 132.595 38.547C132.661 38.547 132.715 38.565 132.757 38.601C132.799 38.631 132.844 38.679 132.892 38.745L133.558 39.825C133.234 40.095 132.862 40.299 132.442 40.437C132.022 40.575 131.587 40.644 131.137 40.644ZM138.772 31.122C139.456 31.122 140.077 31.233 140.635 31.455C141.199 31.677 141.679 31.992 142.075 32.4C142.477 32.808 142.786 33.306 143.002 33.894C143.218 34.482 143.326 35.139 143.326 35.865C143.326 36.597 143.218 37.257 143.002 37.845C142.786 38.433 142.477 38.934 142.075 39.348C141.679 39.762 141.199 40.08 140.635 40.302C140.077 40.524 139.456 40.635 138.772 40.635C138.082 40.635 137.455 40.524 136.891 40.302C136.327 40.08 135.844 39.762 135.442 39.348C135.046 38.934 134.737 38.433 134.515 37.845C134.299 37.257 134.191 36.597 134.191 35.865C134.191 35.139 134.299 34.482 134.515 33.894C134.737 33.306 135.046 32.808 135.442 32.4C135.844 31.992 136.327 31.677 136.891 31.455C137.455 31.233 138.082 31.122 138.772 31.122ZM138.772 38.925C139.54 38.925 140.107 38.667 140.473 38.151C140.845 37.635 141.031 36.879 141.031 35.883C141.031 34.887 140.845 34.128 140.473 33.606C140.107 33.084 139.54 32.823 138.772 32.823C137.992 32.823 137.413 33.087 137.035 33.615C136.663 34.137 136.477 34.893 136.477 35.883C136.477 36.873 136.663 37.629 137.035 38.151C137.413 38.667 137.992 38.925 138.772 38.925ZM147.245 38.106C147.497 38.412 147.77 38.628 148.064 38.754C148.364 38.88 148.688 38.943 149.036 38.943C149.372 38.943 149.675 38.88 149.945 38.754C150.215 38.628 150.443 38.436 150.629 38.178C150.821 37.92 150.968 37.596 151.07 37.206C151.172 36.81 151.223 36.345 151.223 35.811C151.223 35.271 151.178 34.815 151.088 34.443C151.004 34.065 150.881 33.759 150.719 33.525C150.557 33.291 150.359 33.12 150.125 33.012C149.897 32.904 149.636 32.85 149.342 32.85C148.88 32.85 148.487 32.949 148.163 33.147C147.839 33.339 147.533 33.612 147.245 33.966V38.106ZM147.128 32.526C147.506 32.1 147.935 31.755 148.415 31.491C148.895 31.227 149.459 31.095 150.107 31.095C150.611 31.095 151.07 31.2 151.484 31.41C151.904 31.62 152.264 31.926 152.564 32.328C152.87 32.724 153.104 33.216 153.266 33.804C153.434 34.386 153.518 35.055 153.518 35.811C153.518 36.501 153.425 37.14 153.239 37.728C153.053 38.316 152.786 38.826 152.438 39.258C152.096 39.69 151.679 40.029 151.187 40.275C150.701 40.515 150.155 40.635 149.549 40.635C149.033 40.635 148.592 40.557 148.226 40.401C147.86 40.239 147.533 40.017 147.245 39.735V43.515H145.022V31.266H146.381C146.669 31.266 146.858 31.401 146.948 31.671L147.128 32.526Z" fill="#FFC72C"/>
<path d="M65.379 58.853C65.307 58.979 65.229 59.072 65.145 59.132C65.067 59.186 64.968 59.213 64.848 59.213C64.722 59.213 64.584 59.168 64.434 59.078C64.29 58.982 64.116 58.877 63.912 58.763C63.708 58.649 63.468 58.547 63.192 58.457C62.922 58.361 62.601 58.313 62.229 58.313C61.893 58.313 61.599 58.355 61.347 58.439C61.095 58.517 60.882 58.628 60.708 58.772C60.54 58.916 60.414 59.09 60.33 59.294C60.246 59.492 60.204 59.711 60.204 59.951C60.204 60.257 60.288 60.512 60.456 60.716C60.63 60.92 60.858 61.094 61.14 61.238C61.422 61.382 61.743 61.511 62.103 61.625C62.463 61.739 62.832 61.862 63.21 61.994C63.588 62.12 63.957 62.27 64.317 62.444C64.677 62.612 64.998 62.828 65.28 63.092C65.562 63.35 65.787 63.668 65.955 64.046C66.129 64.424 66.216 64.883 66.216 65.423C66.216 66.011 66.114 66.563 65.91 67.079C65.712 67.589 65.418 68.036 65.028 68.42C64.644 68.798 64.173 69.098 63.615 69.32C63.057 69.536 62.418 69.644 61.698 69.644C61.284 69.644 60.876 69.602 60.474 69.518C60.072 69.44 59.685 69.326 59.313 69.176C58.947 69.026 58.602 68.846 58.278 68.636C57.954 68.426 57.666 68.192 57.414 67.934L58.125 66.773C58.185 66.689 58.263 66.62 58.359 66.566C58.455 66.506 58.557 66.476 58.665 66.476C58.815 66.476 58.977 66.539 59.151 66.665C59.325 66.785 59.532 66.92 59.772 67.07C60.012 67.22 60.291 67.358 60.609 67.484C60.933 67.604 61.32 67.664 61.77 67.664C62.46 67.664 62.994 67.502 63.372 67.178C63.75 66.848 63.939 66.377 63.939 65.765C63.939 65.423 63.852 65.144 63.678 64.928C63.51 64.712 63.285 64.532 63.003 64.388C62.721 64.238 62.4 64.112 62.04 64.01C61.68 63.908 61.314 63.797 60.942 63.677C60.57 63.557 60.204 63.413 59.844 63.245C59.484 63.077 59.163 62.858 58.881 62.588C58.599 62.318 58.371 61.982 58.197 61.58C58.029 61.172 57.945 60.671 57.945 60.077C57.945 59.603 58.038 59.141 58.224 58.691C58.416 58.241 58.692 57.842 59.052 57.494C59.412 57.146 59.856 56.867 60.384 56.657C60.912 56.447 61.518 56.342 62.202 56.342C62.97 56.342 63.678 56.462 64.326 56.702C64.974 56.942 65.526 57.278 65.982 57.71L65.379 58.853ZM74.5568 62.219C74.4908 62.303 74.4248 62.369 74.3588 62.417C74.2988 62.465 74.2088 62.489 74.0888 62.489C73.9748 62.489 73.8638 62.456 73.7558 62.39C73.6478 62.318 73.5188 62.24 73.3688 62.156C73.2188 62.066 73.0388 61.988 72.8288 61.922C72.6248 61.85 72.3698 61.814 72.0638 61.814C71.6738 61.814 71.3318 61.886 71.0378 62.03C70.7438 62.168 70.4978 62.369 70.2998 62.633C70.1078 62.897 69.9638 63.218 69.8678 63.596C69.7718 63.968 69.7238 64.391 69.7238 64.865C69.7238 65.357 69.7748 65.795 69.8768 66.179C69.9848 66.563 70.1378 66.887 70.3358 67.151C70.5338 67.409 70.7738 67.607 71.0558 67.745C71.3378 67.877 71.6558 67.943 72.0098 67.943C72.3638 67.943 72.6488 67.901 72.8648 67.817C73.0868 67.727 73.2728 67.631 73.4228 67.529C73.5728 67.421 73.7018 67.325 73.8098 67.241C73.9238 67.151 74.0498 67.106 74.1878 67.106C74.3678 67.106 74.5028 67.175 74.5928 67.313L75.2318 68.123C74.9858 68.411 74.7188 68.654 74.4308 68.852C74.1428 69.044 73.8428 69.2 73.5308 69.32C73.2248 69.434 72.9068 69.515 72.5768 69.563C72.2528 69.611 71.9288 69.635 71.6048 69.635C71.0348 69.635 70.4978 69.53 69.9938 69.32C69.4898 69.104 69.0488 68.792 68.6708 68.384C68.2928 67.976 67.9928 67.478 67.7708 66.89C67.5548 66.296 67.4468 65.621 67.4468 64.865C67.4468 64.187 67.5428 63.56 67.7348 62.984C67.9328 62.402 68.2208 61.901 68.5988 61.481C68.9768 61.055 69.4448 60.722 70.0028 60.482C70.5608 60.242 71.2028 60.122 71.9287 60.122C72.6188 60.122 73.2218 60.233 73.7378 60.455C74.2598 60.677 74.7278 60.995 75.1418 61.409L74.5568 62.219ZM78.7223 61.868C79.0103 61.316 79.3523 60.884 79.7483 60.572C80.1443 60.254 80.6123 60.095 81.1523 60.095C81.5783 60.095 81.9203 60.188 82.1783 60.374L82.0343 62.039C82.0043 62.147 81.9593 62.225 81.8993 62.273C81.8453 62.315 81.7703 62.336 81.6743 62.336C81.5843 62.336 81.4493 62.321 81.2693 62.291C81.0953 62.261 80.9243 62.246 80.7563 62.246C80.5103 62.246 80.2913 62.282 80.0993 62.354C79.9073 62.426 79.7333 62.531 79.5773 62.669C79.4273 62.801 79.2923 62.963 79.1723 63.155C79.0583 63.347 78.9503 63.566 78.8483 63.812V69.5H76.6253V60.266H77.9303C78.1583 60.266 78.3173 60.308 78.4073 60.392C78.4973 60.47 78.5573 60.614 78.5873 60.824L78.7223 61.868ZM87.1625 60.122C87.8465 60.122 88.4675 60.233 89.0255 60.455C89.5895 60.677 90.0695 60.992 90.4655 61.4C90.8675 61.808 91.1765 62.306 91.3925 62.894C91.6085 63.482 91.7165 64.139 91.7165 64.865C91.7165 65.597 91.6085 66.257 91.3925 66.845C91.1765 67.433 90.8675 67.934 90.4655 68.348C90.0695 68.762 89.5895 69.08 89.0255 69.302C88.4675 69.524 87.8465 69.635 87.1625 69.635C86.4725 69.635 85.8455 69.524 85.2815 69.302C84.7175 69.08 84.2345 68.762 83.8325 68.348C83.4365 67.934 83.1275 67.433 82.9055 66.845C82.6895 66.257 82.5815 65.597 82.5815 64.865C82.5815 64.139 82.6895 63.482 82.9055 62.894C83.1275 62.306 83.4365 61.808 83.8325 61.4C84.2345 60.992 84.7175 60.677 85.2815 60.455C85.8455 60.233 86.4725 60.122 87.1625 60.122ZM87.1625 67.925C87.9305 67.925 88.4975 67.667 88.8635 67.151C89.2355 66.635 89.4215 65.879 89.4215 64.883C89.4215 63.887 89.2355 63.128 88.8635 62.606C88.4975 62.084 87.9305 61.823 87.1625 61.823C86.3825 61.823 85.8035 62.087 85.4255 62.615C85.0535 63.137 84.8675 63.893 84.8675 64.883C84.8675 65.873 85.0535 66.629 85.4255 67.151C85.8035 67.667 86.3825 67.925 87.1625 67.925ZM95.6625 56.126V69.5H93.4395V56.126H95.6625ZM100.127 56.126V69.5H97.9043V56.126H100.127ZM109.797 69.644C108.993 69.644 108.375 69.419 107.943 68.969C107.517 68.513 107.304 67.886 107.304 67.088V61.931H106.359C106.239 61.931 106.137 61.892 106.053 61.814C105.969 61.736 105.927 61.619 105.927 61.463V60.581L107.412 60.338L107.88 57.818C107.91 57.698 107.967 57.605 108.051 57.539C108.135 57.473 108.243 57.44 108.375 57.44H109.527V60.347H111.993V61.931H109.527V66.935C109.527 67.223 109.596 67.448 109.734 67.61C109.878 67.772 110.073 67.853 110.319 67.853C110.457 67.853 110.571 67.838 110.661 67.808C110.757 67.772 110.838 67.736 110.904 67.7C110.976 67.664 111.039 67.631 111.093 67.601C111.147 67.565 111.201 67.547 111.255 67.547C111.321 67.547 111.375 67.565 111.417 67.601C111.459 67.631 111.504 67.679 111.552 67.745L112.218 68.825C111.894 69.095 111.522 69.299 111.102 69.437C110.682 69.575 110.247 69.644 109.797 69.644ZM117.432 60.122C118.116 60.122 118.737 60.233 119.295 60.455C119.859 60.677 120.339 60.992 120.735 61.4C121.137 61.808 121.446 62.306 121.662 62.894C121.878 63.482 121.986 64.139 121.986 64.865C121.986 65.597 121.878 66.257 121.662 66.845C121.446 67.433 121.137 67.934 120.735 68.348C120.339 68.762 119.859 69.08 119.295 69.302C118.737 69.524 118.116 69.635 117.432 69.635C116.742 69.635 116.115 69.524 115.551 69.302C114.987 69.08 114.504 68.762 114.102 68.348C113.706 67.934 113.397 67.433 113.175 66.845C112.959 66.257 112.851 65.597 112.851 64.865C112.851 64.139 112.959 63.482 113.175 62.894C113.397 62.306 113.706 61.808 114.102 61.4C114.504 60.992 114.987 60.677 115.551 60.455C116.115 60.233 116.742 60.122 117.432 60.122ZM117.432 67.925C118.2 67.925 118.767 67.667 119.133 67.151C119.505 66.635 119.691 65.879 119.691 64.883C119.691 63.887 119.505 63.128 119.133 62.606C118.767 62.084 118.2 61.823 117.432 61.823C116.652 61.823 116.073 62.087 115.695 62.615C115.323 63.137 115.137 63.893 115.137 64.883C115.137 65.873 115.323 66.629 115.695 67.151C116.073 67.667 116.652 67.925 117.432 67.925ZM136.955 58.475H133.031V69.5H130.61V58.475H126.686V56.486H136.955V58.475ZM140.231 60.122C140.915 60.122 141.536 60.233 142.094 60.455C142.658 60.677 143.138 60.992 143.534 61.4C143.936 61.808 144.245 62.306 144.461 62.894C144.677 63.482 144.785 64.139 144.785 64.865C144.785 65.597 144.677 66.257 144.461 66.845C144.245 67.433 143.936 67.934 143.534 68.348C143.138 68.762 142.658 69.08 142.094 69.302C141.536 69.524 140.915 69.635 140.231 69.635C139.541 69.635 138.914 69.524 138.35 69.302C137.786 69.08 137.303 68.762 136.901 68.348C136.505 67.934 136.196 67.433 135.974 66.845C135.758 66.257 135.65 65.597 135.65 64.865C135.65 64.139 135.758 63.482 135.974 62.894C136.196 62.306 136.505 61.808 136.901 61.4C137.303 60.992 137.786 60.677 138.35 60.455C138.914 60.233 139.541 60.122 140.231 60.122ZM140.231 67.925C140.999 67.925 141.566 67.667 141.932 67.151C142.304 66.635 142.49 65.879 142.49 64.883C142.49 63.887 142.304 63.128 141.932 62.606C141.566 62.084 140.999 61.823 140.231 61.823C139.451 61.823 138.872 62.087 138.494 62.615C138.122 63.137 137.936 63.893 137.936 64.883C137.936 65.873 138.122 66.629 138.494 67.151C138.872 67.667 139.451 67.925 140.231 67.925ZM148.704 67.106C148.956 67.412 149.229 67.628 149.523 67.754C149.823 67.88 150.147 67.943 150.495 67.943C150.831 67.943 151.134 67.88 151.404 67.754C151.674 67.628 151.902 67.436 152.088 67.178C152.28 66.92 152.427 66.596 152.529 66.206C152.631 65.81 152.682 65.345 152.682 64.811C152.682 64.271 152.637 63.815 152.547 63.443C152.463 63.065 152.34 62.759 152.178 62.525C152.016 62.291 151.818 62.12 151.584 62.012C151.356 61.904 151.095 61.85 150.801 61.85C150.339 61.85 149.946 61.949 149.622 62.147C149.298 62.339 148.992 62.612 148.704 62.966V67.106ZM148.587 61.526C148.965 61.1 149.394 60.755 149.874 60.491C150.354 60.227 150.918 60.095 151.566 60.095C152.07 60.095 152.529 60.2 152.943 60.41C153.363 60.62 153.723 60.926 154.023 61.328C154.329 61.724 154.563 62.216 154.725 62.804C154.893 63.386 154.977 64.055 154.977 64.811C154.977 65.501 154.884 66.14 154.698 66.728C154.512 67.316 154.245 67.826 153.897 68.258C153.555 68.69 153.138 69.029 152.646 69.275C152.16 69.515 151.614 69.635 151.008 69.635C150.492 69.635 150.051 69.557 149.685 69.401C149.319 69.239 148.992 69.017 148.704 68.735V72.515H146.481V60.266H147.84C148.128 60.266 148.317 60.401 148.407 60.671L148.587 61.526Z" fill="#FFC72C"/>
</g>
<rect x="16" y="11" width="181" height="45" rx="22.5" stroke="url(#paint0_linear_8071_35307)" stroke-width="2"/>
</g>
<defs>
<filter id="filter0_d_8071_35307" x="0" y="0" width="213" height="77" filterUnits="userSpaceOnUse" color-interpolation-filters="sRGB">
<feFlood flood-opacity="0" result="BackgroundImageFix"/>
<feColorMatrix in="SourceAlpha" type="matrix" values="0 0 0 0 0 0 0 0 0 0 0 0 0 0 0 0 0 0 127 0" result="hardAlpha"/>
<feMorphology radius="10" operator="erode" in="SourceAlpha" result="effect1_dropShadow_8071_35307"/>
<feOffset dy="5"/>
<feGaussianBlur stdDeviation="12.5"/>
<feComposite in2="hardAlpha" operator="out"/>
<feColorMatrix type="matrix" values="0 0 0 0 1 0 0 0 0 0.780392 0 0 0 0 0.172549 0 0 0 1 0"/>
<feBlend mode="normal" in2="BackgroundImageFix" result="effect1_dropShadow_8071_35307"/>
<feBlend mode="normal" in="SourceGraphic" in2="effect1_dropShadow_8071_35307" result="shape"/>
</filter>
<linearGradient id="paint0_linear_8071_35307" x1="98.4932" y1="-30.6125" x2="140.045" y2="106.509" gradientUnits="userSpaceOnUse">
<stop stop-color="#DA291C"/>
<stop offset="0.404801" stop-color="#FFC72C"/>
</linearGradient>
<clipPath id="clip0_8071_35307">
<rect x="15" y="10" width="183" height="47" rx="23.5" fill="white"/>
</clipPath>
</defs>
</svg>
