<svg width="333" height="214" viewBox="0 0 333 214" fill="none" xmlns="http://www.w3.org/2000/svg">
<g filter="url(#filter0_i_6007_1128)">
<rect x="70" y="74" width="202.414" height="64" rx="16" fill="#FFF500"/>
<rect x="70" y="74" width="202.414" height="64" rx="16" fill="url(#paint0_radial_6007_1128)"/>
<rect x="70" y="74" width="202.414" height="64" rx="16" fill="url(#paint1_radial_6007_1128)"/>
<rect x="70" y="74" width="202.414" height="64" rx="16" fill="url(#paint2_radial_6007_1128)" fill-opacity="0.4"/>
</g>
<g filter="url(#filter1_dddi_6007_1128)">
<rect x="70" y="70" width="202.414" height="64" rx="16" fill="#FFF500"/>
<rect x="70" y="70" width="202.414" height="64" rx="16" fill="url(#paint3_radial_6007_1128)"/>
<rect x="70" y="70" width="202.414" height="64" rx="16" fill="url(#paint4_radial_6007_1128)"/>
<rect x="70" y="70" width="202.414" height="64" rx="16" fill="url(#paint5_radial_6007_1128)"/>
<rect x="70" y="70" width="202.414" height="64" rx="16" fill="url(#paint6_radial_6007_1128)" fill-opacity="0.3"/>
</g>
<path d="M121.574 100.172C121.465 99.7917 121.311 99.4557 121.113 99.1641C120.915 98.8672 120.673 98.6172 120.387 98.4141C120.106 98.2057 119.783 98.0469 119.418 97.9375C119.059 97.8281 118.66 97.7734 118.223 97.7734C117.405 97.7734 116.686 97.9766 116.067 98.3828C115.452 98.7891 114.973 99.3802 114.629 100.156C114.285 100.927 114.113 101.87 114.113 102.984C114.113 104.099 114.283 105.047 114.621 105.828C114.96 106.609 115.439 107.206 116.059 107.617C116.678 108.023 117.41 108.227 118.254 108.227C119.02 108.227 119.673 108.091 120.215 107.82C120.762 107.544 121.179 107.156 121.465 106.656C121.757 106.156 121.902 105.565 121.902 104.883L122.59 104.984H118.465V102.437H125.16V104.453C125.16 105.859 124.863 107.068 124.27 108.078C123.676 109.083 122.858 109.859 121.817 110.406C120.775 110.948 119.582 111.219 118.238 111.219C116.738 111.219 115.421 110.888 114.285 110.227C113.15 109.56 112.264 108.615 111.629 107.391C110.999 106.161 110.684 104.703 110.684 103.016C110.684 101.719 110.871 100.562 111.246 99.5469C111.626 98.526 112.158 97.6615 112.84 96.9531C113.522 96.2448 114.317 95.7057 115.223 95.3359C116.129 94.9661 117.111 94.7812 118.168 94.7812C119.074 94.7812 119.918 94.9141 120.699 95.1797C121.481 95.4401 122.173 95.8099 122.777 96.2891C123.387 96.7682 123.884 97.3385 124.27 98C124.655 98.6562 124.902 99.3802 125.012 100.172H121.574ZM133.108 111.234C131.873 111.234 130.811 110.984 129.92 110.484C129.035 109.979 128.352 109.266 127.873 108.344C127.394 107.417 127.154 106.32 127.154 105.055C127.154 103.82 127.394 102.737 127.873 101.805C128.352 100.872 129.027 100.146 129.897 99.625C130.772 99.1042 131.798 98.8438 132.975 98.8438C133.766 98.8438 134.503 98.9714 135.186 99.2266C135.873 99.4766 136.472 99.8542 136.983 100.359C137.498 100.865 137.899 101.5 138.186 102.266C138.472 103.026 138.615 103.917 138.615 104.937V105.852H128.483V103.789H135.483C135.483 103.31 135.378 102.885 135.17 102.516C134.962 102.146 134.673 101.857 134.303 101.648C133.938 101.435 133.514 101.328 133.029 101.328C132.524 101.328 132.076 101.445 131.686 101.68C131.3 101.909 130.998 102.219 130.779 102.609C130.561 102.995 130.449 103.424 130.443 103.898V105.859C130.443 106.453 130.553 106.966 130.772 107.398C130.996 107.831 131.311 108.164 131.717 108.398C132.123 108.633 132.605 108.75 133.162 108.75C133.532 108.75 133.871 108.698 134.178 108.594C134.485 108.49 134.748 108.333 134.967 108.125C135.186 107.917 135.352 107.661 135.467 107.359L138.545 107.562C138.389 108.302 138.068 108.948 137.584 109.5C137.105 110.047 136.485 110.474 135.725 110.781C134.97 111.083 134.097 111.234 133.108 111.234ZM147.17 99V101.5H139.943V99H147.17ZM141.584 96.125H144.912V107.312C144.912 107.62 144.959 107.859 145.053 108.031C145.147 108.198 145.277 108.315 145.443 108.383C145.615 108.451 145.813 108.484 146.037 108.484C146.193 108.484 146.35 108.471 146.506 108.445C146.662 108.414 146.782 108.391 146.865 108.375L147.389 110.852C147.222 110.904 146.988 110.964 146.686 111.031C146.384 111.104 146.016 111.148 145.584 111.164C144.782 111.195 144.079 111.089 143.475 110.844C142.876 110.599 142.41 110.219 142.076 109.703C141.743 109.187 141.579 108.536 141.584 107.75V96.125ZM163.172 99.6016C163.109 98.9714 162.841 98.4818 162.367 98.1328C161.893 97.7839 161.25 97.6094 160.438 97.6094C159.886 97.6094 159.419 97.6875 159.039 97.8437C158.659 97.9948 158.367 98.2057 158.164 98.4766C157.966 98.7474 157.867 99.0547 157.867 99.3984C157.857 99.6849 157.917 99.9349 158.047 100.148C158.182 100.362 158.367 100.547 158.602 100.703C158.836 100.854 159.107 100.987 159.414 101.102C159.721 101.211 160.05 101.305 160.399 101.383L161.836 101.727C162.534 101.883 163.175 102.091 163.758 102.352C164.341 102.612 164.846 102.932 165.274 103.312C165.701 103.693 166.031 104.141 166.266 104.656C166.505 105.172 166.628 105.763 166.633 106.43C166.628 107.409 166.378 108.258 165.883 108.977C165.393 109.69 164.685 110.245 163.758 110.641C162.836 111.031 161.724 111.227 160.422 111.227C159.13 111.227 158.005 111.029 157.047 110.633C156.094 110.237 155.349 109.651 154.813 108.875C154.281 108.094 154.003 107.128 153.977 105.977H157.25C157.287 106.513 157.44 106.961 157.711 107.32C157.987 107.674 158.354 107.943 158.813 108.125C159.276 108.302 159.8 108.391 160.383 108.391C160.956 108.391 161.453 108.307 161.875 108.141C162.302 107.974 162.633 107.742 162.867 107.445C163.102 107.148 163.219 106.807 163.219 106.422C163.219 106.062 163.112 105.76 162.899 105.516C162.69 105.271 162.383 105.062 161.977 104.891C161.576 104.719 161.083 104.562 160.5 104.422L158.758 103.984C157.409 103.656 156.344 103.143 155.563 102.445C154.781 101.747 154.393 100.807 154.399 99.625C154.393 98.6562 154.651 97.8099 155.172 97.0859C155.698 96.362 156.419 95.7969 157.336 95.3906C158.253 94.9844 159.294 94.7812 160.461 94.7812C161.649 94.7812 162.685 94.9844 163.57 95.3906C164.461 95.7969 165.154 96.362 165.649 97.0859C166.143 97.8099 166.399 98.6484 166.414 99.6016H163.172ZM175.229 99V101.5H168.002V99H175.229ZM169.643 96.125H172.971V107.312C172.971 107.62 173.018 107.859 173.111 108.031C173.205 108.198 173.335 108.315 173.502 108.383C173.674 108.451 173.872 108.484 174.096 108.484C174.252 108.484 174.408 108.471 174.565 108.445C174.721 108.414 174.841 108.391 174.924 108.375L175.447 110.852C175.281 110.904 175.046 110.964 174.744 111.031C174.442 111.104 174.075 111.148 173.643 111.164C172.841 111.195 172.137 111.089 171.533 110.844C170.934 110.599 170.468 110.219 170.135 109.703C169.802 109.187 169.637 108.536 169.643 107.75V96.125ZM180.818 111.227C180.053 111.227 179.371 111.094 178.772 110.828C178.173 110.557 177.699 110.159 177.35 109.633C177.006 109.102 176.834 108.44 176.834 107.648C176.834 106.982 176.956 106.422 177.201 105.969C177.446 105.516 177.779 105.151 178.201 104.875C178.623 104.599 179.102 104.391 179.639 104.25C180.18 104.109 180.748 104.01 181.342 103.953C182.04 103.88 182.602 103.812 183.029 103.75C183.456 103.682 183.766 103.583 183.959 103.453C184.152 103.323 184.248 103.13 184.248 102.875V102.828C184.248 102.333 184.092 101.951 183.779 101.68C183.472 101.409 183.035 101.273 182.467 101.273C181.868 101.273 181.391 101.406 181.037 101.672C180.683 101.932 180.449 102.26 180.334 102.656L177.256 102.406C177.412 101.677 177.72 101.047 178.178 100.516C178.636 99.9792 179.227 99.5677 179.951 99.2812C180.68 98.9896 181.524 98.8438 182.483 98.8438C183.149 98.8438 183.787 98.9219 184.397 99.0781C185.011 99.2344 185.555 99.4766 186.029 99.8047C186.509 100.133 186.886 100.555 187.162 101.07C187.438 101.581 187.576 102.193 187.576 102.906V111H184.42V109.336H184.326C184.134 109.711 183.876 110.042 183.553 110.328C183.23 110.609 182.842 110.831 182.389 110.992C181.936 111.148 181.412 111.227 180.818 111.227ZM181.772 108.93C182.261 108.93 182.693 108.833 183.068 108.641C183.443 108.443 183.738 108.177 183.951 107.844C184.165 107.51 184.272 107.133 184.272 106.711V105.438C184.167 105.505 184.024 105.568 183.842 105.625C183.665 105.677 183.464 105.727 183.24 105.773C183.016 105.815 182.792 105.854 182.568 105.891C182.345 105.922 182.141 105.951 181.959 105.977C181.568 106.034 181.227 106.125 180.936 106.25C180.644 106.375 180.417 106.544 180.256 106.758C180.095 106.966 180.014 107.227 180.014 107.539C180.014 107.992 180.178 108.339 180.506 108.578C180.839 108.812 181.261 108.93 181.772 108.93ZM190.158 111V99H193.385V101.094H193.51C193.729 100.349 194.096 99.7865 194.611 99.4063C195.127 99.0208 195.721 98.8281 196.393 98.8281C196.559 98.8281 196.739 98.8385 196.932 98.8594C197.124 98.8802 197.294 98.9089 197.44 98.9453V101.898C197.283 101.852 197.067 101.81 196.791 101.773C196.515 101.737 196.262 101.719 196.033 101.719C195.544 101.719 195.106 101.826 194.721 102.039C194.341 102.247 194.039 102.539 193.815 102.914C193.596 103.289 193.486 103.721 193.486 104.211V111H190.158ZM206.145 99V101.5H198.918V99H206.145ZM200.559 96.125H203.887V107.312C203.887 107.62 203.934 107.859 204.027 108.031C204.121 108.198 204.251 108.315 204.418 108.383C204.59 108.451 204.788 108.484 205.012 108.484C205.168 108.484 205.324 108.471 205.481 108.445C205.637 108.414 205.757 108.391 205.84 108.375L206.363 110.852C206.197 110.904 205.962 110.964 205.66 111.031C205.358 111.104 204.991 111.148 204.559 111.164C203.757 111.195 203.053 111.089 202.449 110.844C201.85 110.599 201.384 110.219 201.051 109.703C200.718 109.187 200.553 108.536 200.559 107.75V96.125ZM213.652 111.234C212.418 111.234 211.356 110.984 210.465 110.484C209.58 109.979 208.897 109.266 208.418 108.344C207.939 107.417 207.699 106.32 207.699 105.055C207.699 103.82 207.939 102.737 208.418 101.805C208.897 100.872 209.572 100.146 210.442 99.625C211.317 99.1042 212.343 98.8438 213.52 98.8438C214.311 98.8438 215.048 98.9714 215.731 99.2266C216.418 99.4766 217.017 99.8542 217.527 100.359C218.043 100.865 218.444 101.5 218.731 102.266C219.017 103.026 219.16 103.917 219.16 104.937V105.852H209.027V103.789H216.027C216.027 103.31 215.923 102.885 215.715 102.516C215.507 102.146 215.218 101.857 214.848 101.648C214.483 101.435 214.059 101.328 213.574 101.328C213.069 101.328 212.621 101.445 212.231 101.68C211.845 101.909 211.543 102.219 211.324 102.609C211.106 102.995 210.994 103.424 210.988 103.898V105.859C210.988 106.453 211.098 106.966 211.317 107.398C211.54 107.831 211.856 108.164 212.262 108.398C212.668 108.633 213.15 108.75 213.707 108.75C214.077 108.75 214.415 108.698 214.723 108.594C215.03 108.49 215.293 108.333 215.512 108.125C215.731 107.917 215.897 107.661 216.012 107.359L219.09 107.562C218.934 108.302 218.613 108.948 218.129 109.5C217.65 110.047 217.03 110.474 216.27 110.781C215.514 111.083 214.642 111.234 213.652 111.234ZM225.754 111.195C224.843 111.195 224.017 110.961 223.277 110.492C222.543 110.018 221.96 109.323 221.527 108.406C221.1 107.484 220.887 106.354 220.887 105.016C220.887 103.641 221.108 102.497 221.551 101.586C221.994 100.669 222.582 99.9844 223.317 99.5313C224.056 99.0729 224.866 98.8438 225.746 98.8438C226.418 98.8438 226.978 98.9583 227.426 99.1875C227.879 99.4115 228.244 99.6927 228.52 100.031C228.801 100.365 229.014 100.693 229.16 101.016H229.262V95H232.582V111H229.301V109.078H229.16C229.004 109.411 228.783 109.742 228.496 110.07C228.215 110.393 227.848 110.661 227.395 110.875C226.947 111.089 226.4 111.195 225.754 111.195ZM226.809 108.547C227.345 108.547 227.798 108.401 228.168 108.109C228.543 107.812 228.83 107.398 229.027 106.867C229.231 106.336 229.332 105.714 229.332 105C229.332 104.286 229.233 103.667 229.035 103.141C228.837 102.615 228.551 102.208 228.176 101.922C227.801 101.635 227.345 101.492 226.809 101.492C226.262 101.492 225.801 101.641 225.426 101.937C225.051 102.234 224.767 102.646 224.574 103.172C224.382 103.698 224.285 104.307 224.285 105C224.285 105.698 224.382 106.315 224.574 106.852C224.772 107.383 225.056 107.799 225.426 108.102C225.801 108.398 226.262 108.547 226.809 108.547Z" fill="white"/>
<defs>
<filter id="filter0_i_6007_1128" x="70" y="74" width="202.414" height="64" filterUnits="userSpaceOnUse" color-interpolation-filters="sRGB">
<feFlood flood-opacity="0" result="BackgroundImageFix"/>
<feBlend mode="normal" in="SourceGraphic" in2="BackgroundImageFix" result="shape"/>
<feColorMatrix in="SourceAlpha" type="matrix" values="0 0 0 0 0 0 0 0 0 0 0 0 0 0 0 0 0 0 127 0" result="hardAlpha"/>
<feOffset/>
<feGaussianBlur stdDeviation="2"/>
<feComposite in2="hardAlpha" operator="arithmetic" k2="-1" k3="1"/>
<feColorMatrix type="matrix" values="0 0 0 0 1 0 0 0 0 1 0 0 0 0 1 0 0 0 1 0"/>
<feBlend mode="normal" in2="shape" result="effect1_innerShadow_6007_1128"/>
</filter>
<filter id="filter1_dddi_6007_1128" x="0" y="0" width="332.414" height="214" filterUnits="userSpaceOnUse" color-interpolation-filters="sRGB">
<feFlood flood-opacity="0" result="BackgroundImageFix"/>
<feColorMatrix in="SourceAlpha" type="matrix" values="0 0 0 0 0 0 0 0 0 0 0 0 0 0 0 0 0 0 127 0" result="hardAlpha"/>
<feOffset dy="10"/>
<feGaussianBlur stdDeviation="30"/>
<feComposite in2="hardAlpha" operator="out"/>
<feColorMatrix type="matrix" values="0 0 0 0 0.683333 0 0 0 0 0.442344 0 0 0 0 0.159444 0 0 0 0.8 0"/>
<feBlend mode="normal" in2="BackgroundImageFix" result="effect1_dropShadow_6007_1128"/>
<feColorMatrix in="SourceAlpha" type="matrix" values="0 0 0 0 0 0 0 0 0 0 0 0 0 0 0 0 0 0 127 0" result="hardAlpha"/>
<feOffset dy="20"/>
<feGaussianBlur stdDeviation="30"/>
<feComposite in2="hardAlpha" operator="out"/>
<feColorMatrix type="matrix" values="0 0 0 0 0.908333 0 0 0 0 0.803421 0 0 0 0 0.431458 0 0 0 0.2 0"/>
<feBlend mode="normal" in2="effect1_dropShadow_6007_1128" result="effect2_dropShadow_6007_1128"/>
<feColorMatrix in="SourceAlpha" type="matrix" values="0 0 0 0 0 0 0 0 0 0 0 0 0 0 0 0 0 0 127 0" result="hardAlpha"/>
<feOffset dx="-20" dy="-20"/>
<feGaussianBlur stdDeviation="25"/>
<feComposite in2="hardAlpha" operator="out"/>
<feColorMatrix type="matrix" values="0 0 0 0 0.829167 0 0 0 0 0.272934 0 0 0 0 0.606673 0 0 0 0.4 0"/>
<feBlend mode="normal" in2="effect2_dropShadow_6007_1128" result="effect3_dropShadow_6007_1128"/>
<feBlend mode="normal" in="SourceGraphic" in2="effect3_dropShadow_6007_1128" result="shape"/>
<feColorMatrix in="SourceAlpha" type="matrix" values="0 0 0 0 0 0 0 0 0 0 0 0 0 0 0 0 0 0 127 0" result="hardAlpha"/>
<feOffset/>
<feGaussianBlur stdDeviation="10"/>
<feComposite in2="hardAlpha" operator="arithmetic" k2="-1" k3="1"/>
<feColorMatrix type="matrix" values="0 0 0 0 1 0 0 0 0 1 0 0 0 0 1 0 0 0 0.6 0"/>
<feBlend mode="normal" in2="shape" result="effect4_innerShadow_6007_1128"/>
</filter>
<radialGradient id="paint0_radial_6007_1128" cx="0" cy="0" r="1" gradientUnits="userSpaceOnUse" gradientTransform="translate(262.063 -11) rotate(145.51) scale(226.045 146.662)">
<stop offset="0.67589" stop-color="#FF7A00"/>
<stop offset="1" stop-color="#DBFF00" stop-opacity="0.38"/>
</radialGradient>
<radialGradient id="paint1_radial_6007_1128" cx="0" cy="0" r="1" gradientUnits="userSpaceOnUse" gradientTransform="translate(158.556 54) rotate(72.9926) scale(98.2989 188.88)">
<stop offset="0.212469" stop-color="#FF8989" stop-opacity="0.92"/>
<stop offset="0.886241" stop-color="#FFA96A" stop-opacity="0.57"/>
</radialGradient>
<radialGradient id="paint2_radial_6007_1128" cx="0" cy="0" r="1" gradientUnits="userSpaceOnUse" gradientTransform="translate(145.905 138) rotate(-59.4347) scale(85.9416 71.6203)">
<stop stop-color="white" stop-opacity="0.73"/>
<stop offset="1" stop-color="white" stop-opacity="0.12"/>
</radialGradient>
<radialGradient id="paint3_radial_6007_1128" cx="0" cy="0" r="1" gradientUnits="userSpaceOnUse" gradientTransform="translate(262.063 -15) rotate(145.51) scale(226.045 146.662)">
<stop offset="0.67589" stop-color="#FF7A00"/>
<stop offset="1" stop-color="#FFC700" stop-opacity="0.38"/>
</radialGradient>
<radialGradient id="paint4_radial_6007_1128" cx="0" cy="0" r="1" gradientUnits="userSpaceOnUse" gradientTransform="translate(136.705 70) rotate(55.6345) scale(89.6477 162.254)">
<stop offset="0.212469" stop-color="#FF8989" stop-opacity="0.92"/>
<stop offset="0.886241" stop-color="#FFA96A" stop-opacity="0.57"/>
</radialGradient>
<radialGradient id="paint5_radial_6007_1128" cx="0" cy="0" r="1" gradientUnits="userSpaceOnUse" gradientTransform="translate(81.5008 134) rotate(-17.4864) scale(83.2003 124.988)">
<stop stop-color="#F6FB22" stop-opacity="0.51"/>
<stop offset="1" stop-color="#FF9E45" stop-opacity="0"/>
</radialGradient>
<radialGradient id="paint6_radial_6007_1128" cx="0" cy="0" r="1" gradientUnits="userSpaceOnUse" gradientTransform="translate(265.514 90) rotate(162.454) scale(66.3409 163.283)">
<stop stop-color="white"/>
<stop offset="1" stop-color="white" stop-opacity="0"/>
</radialGradient>
</defs>
</svg>
