<svg width="1728" height="1716" viewBox="0 0 1728 1716" fill="none" xmlns="http://www.w3.org/2000/svg">
<g clip-path="url(#clip0_7116_11315)">
<rect width="1728" height="1716" fill="#0C0C1B"/>
<g opacity="0.15">
<g opacity="0.7">
<path d="M271.844 1496.42V1801.04" stroke="#F0F0F0" stroke-opacity="0.5" stroke-width="1.23116"/>
<path d="M374.824 1496.42V1801.04" stroke="#F0F0F0" stroke-opacity="0.5" stroke-width="1.23116"/>
<path d="M476.727 1496.42V1801.04" stroke="#F0F0F0" stroke-opacity="0.5" stroke-width="1.23116"/>
<path d="M579.715 1496.42V1801.04" stroke="#F0F0F0" stroke-opacity="0.5" stroke-width="1.23116"/>
<path d="M681.613 1496.42V1801.04" stroke="#F0F0F0" stroke-opacity="0.5" stroke-width="1.23116"/>
<path d="M785.688 1496.42V1801.04" stroke="#F0F0F0" stroke-opacity="0.5" stroke-width="1.23116"/>
<path d="M272.379 1680.17H785.14" stroke="#F0F0F0" stroke-opacity="0.5" stroke-width="1.23116"/>
<path d="M272.379 1618.38H785.14" stroke="#F0F0F0" stroke-opacity="0.5" stroke-width="1.23116"/>
<path d="M272.379 1557.67H785.14" stroke="#F0F0F0" stroke-opacity="0.5" stroke-width="1.23116"/>
<path d="M272.379 1495.88H785.14" stroke="#F0F0F0" stroke-opacity="0.5" stroke-width="1.23116"/>
<path d="M271.844 1496.42V1801.04" stroke="white" stroke-width="1.23116"/>
<path d="M253.057 1686V1687.01H246.755V1686.13L249.91 1682.62C250.298 1682.19 250.597 1681.82 250.809 1681.52C251.025 1681.22 251.175 1680.94 251.259 1680.71C251.347 1680.46 251.391 1680.22 251.391 1679.97C251.391 1679.65 251.325 1679.36 251.192 1679.11C251.065 1678.85 250.875 1678.64 250.624 1678.49C250.373 1678.33 250.068 1678.25 249.711 1678.25C249.284 1678.25 248.927 1678.34 248.64 1678.5C248.358 1678.67 248.146 1678.9 248.005 1679.19C247.864 1679.49 247.794 1679.83 247.794 1680.21H246.57C246.57 1679.67 246.689 1679.17 246.927 1678.72C247.165 1678.27 247.518 1677.92 247.985 1677.65C248.453 1677.38 249.028 1677.25 249.711 1677.25C250.32 1677.25 250.84 1677.36 251.272 1677.57C251.704 1677.78 252.035 1678.08 252.264 1678.47C252.497 1678.86 252.614 1679.31 252.614 1679.82C252.614 1680.1 252.566 1680.39 252.469 1680.68C252.376 1680.97 252.246 1681.25 252.079 1681.54C251.915 1681.83 251.724 1682.11 251.503 1682.39C251.287 1682.66 251.056 1682.94 250.809 1683.21L248.23 1686H253.057ZM260.411 1681.43V1682.9C260.411 1683.68 260.34 1684.35 260.199 1684.89C260.058 1685.43 259.855 1685.87 259.591 1686.2C259.326 1686.53 259.006 1686.77 258.632 1686.92C258.261 1687.07 257.843 1687.14 257.375 1687.14C257.005 1687.14 256.663 1687.09 256.35 1687C256.037 1686.91 255.755 1686.76 255.504 1686.56C255.257 1686.35 255.045 1686.08 254.869 1685.75C254.693 1685.42 254.558 1685.02 254.466 1684.55C254.373 1684.08 254.327 1683.53 254.327 1682.9V1681.43C254.327 1680.64 254.397 1679.98 254.538 1679.44C254.684 1678.91 254.889 1678.48 255.153 1678.16C255.418 1677.83 255.735 1677.6 256.106 1677.46C256.48 1677.32 256.899 1677.25 257.362 1677.25C257.737 1677.25 258.081 1677.29 258.394 1677.39C258.711 1677.48 258.993 1677.62 259.24 1677.82C259.487 1678.01 259.696 1678.27 259.868 1678.6C260.045 1678.92 260.179 1679.31 260.272 1679.78C260.364 1680.25 260.411 1680.8 260.411 1681.43ZM259.181 1683.09V1681.22C259.181 1680.79 259.154 1680.41 259.101 1680.09C259.053 1679.75 258.98 1679.47 258.883 1679.24C258.786 1679.01 258.663 1678.82 258.513 1678.67C258.367 1678.52 258.197 1678.42 258.004 1678.35C257.814 1678.28 257.6 1678.25 257.362 1678.25C257.071 1678.25 256.813 1678.3 256.588 1678.41C256.364 1678.52 256.174 1678.69 256.02 1678.92C255.87 1679.16 255.755 1679.46 255.676 1679.84C255.597 1680.22 255.557 1680.68 255.557 1681.22V1683.09C255.557 1683.53 255.581 1683.91 255.63 1684.24C255.682 1684.57 255.76 1684.86 255.861 1685.1C255.962 1685.34 256.086 1685.53 256.231 1685.69C256.377 1685.84 256.544 1685.96 256.734 1686.03C256.928 1686.1 257.142 1686.14 257.375 1686.14C257.675 1686.14 257.937 1686.08 258.162 1685.96C258.387 1685.85 258.574 1685.67 258.724 1685.43C258.879 1685.18 258.993 1684.87 259.068 1684.48C259.143 1684.09 259.181 1683.63 259.181 1683.09Z" fill="white"/>
<path d="M248.534 1620.59H249.407C249.835 1620.59 250.187 1620.52 250.465 1620.38C250.747 1620.23 250.957 1620.04 251.093 1619.79C251.234 1619.54 251.305 1619.26 251.305 1618.94C251.305 1618.57 251.243 1618.26 251.12 1618.01C250.996 1617.76 250.811 1617.57 250.564 1617.44C250.317 1617.31 250.004 1617.25 249.625 1617.25C249.281 1617.25 248.977 1617.32 248.713 1617.46C248.453 1617.59 248.248 1617.78 248.098 1618.02C247.952 1618.27 247.88 1618.56 247.88 1618.9H246.656C246.656 1618.41 246.78 1617.96 247.027 1617.56C247.273 1617.16 247.619 1616.84 248.065 1616.6C248.514 1616.36 249.035 1616.25 249.625 1616.25C250.207 1616.25 250.716 1616.35 251.153 1616.56C251.589 1616.76 251.929 1617.06 252.171 1617.47C252.414 1617.87 252.535 1618.37 252.535 1618.97C252.535 1619.21 252.478 1619.47 252.363 1619.75C252.253 1620.02 252.079 1620.28 251.841 1620.52C251.607 1620.76 251.303 1620.95 250.928 1621.11C250.553 1621.26 250.104 1621.33 249.579 1621.33H248.534V1620.59ZM248.534 1621.6V1620.86H249.579C250.192 1620.86 250.699 1620.93 251.1 1621.08C251.501 1621.22 251.816 1621.42 252.046 1621.66C252.279 1621.9 252.442 1622.17 252.535 1622.46C252.632 1622.75 252.68 1623.03 252.68 1623.32C252.68 1623.77 252.603 1624.17 252.449 1624.52C252.299 1624.87 252.085 1625.16 251.807 1625.4C251.534 1625.65 251.212 1625.83 250.842 1625.95C250.472 1626.08 250.068 1626.14 249.632 1626.14C249.213 1626.14 248.819 1626.08 248.448 1625.96C248.082 1625.84 247.758 1625.67 247.476 1625.44C247.194 1625.21 246.974 1624.93 246.815 1624.6C246.656 1624.27 246.577 1623.89 246.577 1623.46H247.8C247.8 1623.8 247.873 1624.09 248.018 1624.34C248.168 1624.59 248.38 1624.79 248.653 1624.93C248.931 1625.06 249.257 1625.13 249.632 1625.13C250.007 1625.13 250.328 1625.07 250.597 1624.94C250.871 1624.81 251.08 1624.61 251.226 1624.35C251.375 1624.08 251.45 1623.75 251.45 1623.35C251.45 1622.95 251.367 1622.62 251.199 1622.36C251.032 1622.1 250.794 1621.91 250.485 1621.79C250.181 1621.66 249.821 1621.6 249.407 1621.6H248.534ZM260.411 1620.42V1621.89C260.411 1622.68 260.34 1623.35 260.199 1623.89C260.058 1624.43 259.855 1624.87 259.591 1625.2C259.326 1625.53 259.006 1625.77 258.632 1625.92C258.261 1626.07 257.843 1626.14 257.375 1626.14C257.005 1626.14 256.663 1626.09 256.35 1626C256.037 1625.91 255.755 1625.76 255.504 1625.56C255.257 1625.35 255.045 1625.08 254.869 1624.75C254.693 1624.42 254.558 1624.02 254.466 1623.55C254.373 1623.07 254.327 1622.52 254.327 1621.89V1620.42C254.327 1619.64 254.397 1618.97 254.538 1618.44C254.684 1617.91 254.889 1617.48 255.153 1617.16C255.418 1616.83 255.735 1616.6 256.106 1616.46C256.48 1616.32 256.899 1616.25 257.362 1616.25C257.737 1616.25 258.081 1616.29 258.394 1616.38C258.711 1616.47 258.993 1616.62 259.24 1616.81C259.487 1617.01 259.696 1617.27 259.868 1617.59C260.045 1617.92 260.179 1618.31 260.272 1618.78C260.364 1619.25 260.411 1619.79 260.411 1620.42ZM259.181 1622.09V1620.22C259.181 1619.79 259.154 1619.41 259.101 1619.08C259.053 1618.75 258.98 1618.47 258.883 1618.24C258.786 1618 258.663 1617.81 258.513 1617.67C258.367 1617.52 258.197 1617.42 258.004 1617.35C257.814 1617.28 257.6 1617.24 257.362 1617.24C257.071 1617.24 256.813 1617.3 256.588 1617.41C256.364 1617.52 256.174 1617.68 256.02 1617.92C255.87 1618.15 255.755 1618.46 255.676 1618.84C255.597 1619.22 255.557 1619.68 255.557 1620.22V1622.09C255.557 1622.52 255.581 1622.9 255.63 1623.24C255.682 1623.57 255.76 1623.85 255.861 1624.09C255.962 1624.33 256.086 1624.53 256.231 1624.68C256.377 1624.84 256.544 1624.95 256.734 1625.03C256.928 1625.1 257.142 1625.13 257.375 1625.13C257.675 1625.13 257.937 1625.08 258.162 1624.96C258.387 1624.85 258.574 1624.67 258.724 1624.43C258.879 1624.18 258.993 1623.86 259.068 1623.48C259.143 1623.09 259.181 1622.63 259.181 1622.09Z" fill="white"/>
<path d="M253.256 1561.76V1562.77H246.299V1562.05L250.611 1555.37H251.609L250.538 1557.31L247.688 1561.76H253.256ZM251.913 1555.37V1565H250.69V1555.37H251.913ZM260.411 1559.42V1560.89C260.411 1561.68 260.34 1562.34 260.199 1562.89C260.058 1563.43 259.855 1563.87 259.591 1564.2C259.326 1564.53 259.006 1564.77 258.632 1564.92C258.261 1565.06 257.843 1565.14 257.375 1565.14C257.005 1565.14 256.663 1565.09 256.35 1565C256.037 1564.9 255.755 1564.76 255.504 1564.55C255.257 1564.35 255.045 1564.08 254.869 1563.75C254.693 1563.42 254.558 1563.01 254.466 1562.54C254.373 1562.07 254.327 1561.52 254.327 1560.89V1559.42C254.327 1558.63 254.397 1557.97 254.538 1557.44C254.684 1556.9 254.889 1556.48 255.153 1556.16C255.418 1555.83 255.735 1555.6 256.106 1555.45C256.48 1555.31 256.899 1555.24 257.362 1555.24C257.737 1555.24 258.081 1555.29 258.394 1555.38C258.711 1555.47 258.993 1555.61 259.24 1555.81C259.487 1556.01 259.696 1556.27 259.868 1556.59C260.045 1556.91 260.179 1557.31 260.272 1557.78C260.364 1558.24 260.411 1558.79 260.411 1559.42ZM259.181 1561.09V1559.22C259.181 1558.78 259.154 1558.41 259.101 1558.08C259.053 1557.75 258.98 1557.47 258.883 1557.23C258.786 1557 258.663 1556.81 258.513 1556.66C258.367 1556.52 258.197 1556.41 258.004 1556.35C257.814 1556.28 257.6 1556.24 257.362 1556.24C257.071 1556.24 256.813 1556.3 256.588 1556.41C256.364 1556.51 256.174 1556.68 256.02 1556.92C255.87 1557.15 255.755 1557.46 255.676 1557.83C255.597 1558.21 255.557 1558.67 255.557 1559.22V1561.09C255.557 1561.52 255.581 1561.9 255.63 1562.23C255.682 1562.56 255.76 1562.85 255.861 1563.09C255.962 1563.33 256.086 1563.53 256.231 1563.68C256.377 1563.83 256.544 1563.95 256.734 1564.02C256.928 1564.09 257.142 1564.13 257.375 1564.13C257.675 1564.13 257.937 1564.07 258.162 1563.96C258.387 1563.84 258.574 1563.66 258.724 1563.42C258.879 1563.18 258.993 1562.86 259.068 1562.48C259.143 1562.09 259.181 1561.63 259.181 1561.09Z" fill="white"/>
<path d="M248.299 1499.42L247.321 1499.17L247.803 1494.37H252.743V1495.5H248.841L248.551 1498.12C248.727 1498.02 248.95 1497.93 249.218 1497.84C249.492 1497.75 249.805 1497.7 250.157 1497.7C250.603 1497.7 251.002 1497.78 251.354 1497.94C251.707 1498.09 252.007 1498.3 252.254 1498.58C252.505 1498.87 252.697 1499.21 252.829 1499.6C252.961 1500 253.027 1500.44 253.027 1500.93C253.027 1501.39 252.963 1501.82 252.836 1502.21C252.712 1502.6 252.525 1502.94 252.273 1503.23C252.022 1503.51 251.705 1503.74 251.321 1503.89C250.942 1504.05 250.495 1504.13 249.979 1504.13C249.591 1504.13 249.223 1504.08 248.875 1503.97C248.531 1503.86 248.222 1503.7 247.949 1503.48C247.68 1503.25 247.459 1502.98 247.288 1502.64C247.12 1502.31 247.014 1501.92 246.97 1501.47H248.134C248.187 1501.83 248.293 1502.13 248.451 1502.38C248.61 1502.63 248.817 1502.81 249.073 1502.94C249.333 1503.07 249.635 1503.13 249.979 1503.13C250.27 1503.13 250.528 1503.08 250.753 1502.98C250.977 1502.87 251.167 1502.73 251.321 1502.54C251.476 1502.35 251.592 1502.12 251.672 1501.85C251.755 1501.58 251.797 1501.28 251.797 1500.94C251.797 1500.64 251.755 1500.36 251.672 1500.1C251.588 1499.84 251.462 1499.61 251.295 1499.42C251.132 1499.22 250.931 1499.07 250.693 1498.97C250.455 1498.86 250.182 1498.8 249.873 1498.8C249.463 1498.8 249.152 1498.86 248.941 1498.97C248.733 1499.08 248.52 1499.23 248.299 1499.42ZM260.414 1498.42V1499.89C260.414 1500.68 260.343 1501.34 260.202 1501.88C260.061 1502.43 259.858 1502.86 259.594 1503.19C259.329 1503.52 259.01 1503.76 258.635 1503.91C258.265 1504.06 257.846 1504.13 257.378 1504.13C257.008 1504.13 256.666 1504.09 256.353 1503.99C256.04 1503.9 255.758 1503.75 255.507 1503.55C255.26 1503.34 255.049 1503.07 254.872 1502.74C254.696 1502.41 254.561 1502.01 254.469 1501.54C254.376 1501.07 254.33 1500.52 254.33 1499.89V1498.42C254.33 1497.63 254.401 1496.97 254.542 1496.44C254.687 1495.9 254.892 1495.47 255.157 1495.15C255.421 1494.83 255.738 1494.59 256.109 1494.45C256.484 1494.31 256.902 1494.24 257.365 1494.24C257.74 1494.24 258.084 1494.29 258.397 1494.38C258.714 1494.47 258.996 1494.61 259.243 1494.81C259.49 1495 259.699 1495.26 259.871 1495.59C260.048 1495.91 260.182 1496.31 260.275 1496.77C260.367 1497.24 260.414 1497.79 260.414 1498.42ZM259.184 1500.09V1498.21C259.184 1497.78 259.157 1497.4 259.104 1497.08C259.056 1496.75 258.983 1496.46 258.886 1496.23C258.789 1496 258.666 1495.81 258.516 1495.66C258.37 1495.52 258.201 1495.41 258.007 1495.34C257.817 1495.27 257.603 1495.24 257.365 1495.24C257.074 1495.24 256.816 1495.29 256.592 1495.4C256.367 1495.51 256.177 1495.68 256.023 1495.91C255.873 1496.15 255.758 1496.45 255.679 1496.83C255.6 1497.21 255.56 1497.67 255.56 1498.21V1500.09C255.56 1500.52 255.584 1500.9 255.633 1501.23C255.686 1501.56 255.763 1501.85 255.864 1502.09C255.966 1502.33 256.089 1502.52 256.234 1502.68C256.38 1502.83 256.547 1502.95 256.737 1503.02C256.931 1503.09 257.145 1503.13 257.378 1503.13C257.678 1503.13 257.941 1503.07 258.165 1502.96C258.39 1502.84 258.578 1502.66 258.727 1502.42C258.882 1502.17 258.996 1501.86 259.071 1501.47C259.146 1501.09 259.184 1500.62 259.184 1500.09Z" fill="white"/>
<path d="M272.379 1737.07C272.379 1737.07 333.91 1715.14 374.931 1700.52C415.952 1685.89 435.933 1571.57 476.954 1558.78C517.975 1545.99 538.734 1596.34 579.755 1584.76C620.776 1573.18 641.567 1616.44 682.588 1606.08C723.609 1595.73 785.14 1584.76 785.14 1584.76" stroke="#A6CEE3" stroke-width="2.46231"/>
<path d="M272.379 1767.53C272.379 1767.53 333.91 1715.75 374.931 1715.75C415.952 1715.75 436.463 1734.02 477.484 1734.02C518.504 1734.02 539.015 1606.08 580.036 1606.08C621.057 1606.08 641.567 1622.53 682.588 1654.82C723.609 1687.11 785.14 1767.53 785.14 1767.53" stroke="#1F78B4" stroke-width="2.46231"/>
<path d="M272.379 1727.93C272.379 1727.93 333.131 1676.73 374.152 1662.71C415.173 1648.7 435.933 1631.54 476.954 1617.53C517.975 1603.51 539.015 1638.38 580.036 1627.41C621.057 1616.44 641.535 1692.97 682.556 1680.79C723.577 1668.6 785.14 1566.48 785.14 1566.48" stroke="#B2DF8A" stroke-width="2.46231"/>
<path d="M272.379 1755.35C272.379 1755.35 333.91 1738.29 374.931 1727.93C415.952 1717.57 434.803 1658.98 475.824 1655.93C516.845 1652.89 538.734 1739.53 579.755 1739.53C620.776 1739.53 641.567 1706.61 682.588 1706.61C723.609 1706.61 785.14 1630.45 785.14 1630.45" stroke="#33A02C" stroke-width="2.46231"/>
<path d="M374.289 1704.56C373.14 1704.56 372.037 1704.1 371.224 1703.29C370.41 1702.48 369.953 1701.37 369.953 1700.23C369.953 1699.08 370.409 1697.97 371.222 1697.16C372.035 1696.35 373.137 1695.89 374.287 1695.89C375.437 1695.89 376.54 1696.34 377.354 1697.16C378.167 1697.97 378.625 1699.07 378.626 1700.22C378.626 1701.37 378.171 1702.47 377.358 1703.29C376.546 1704.1 375.444 1704.56 374.294 1704.56H374.289Z" fill="#A6CEE3"/>
<path d="M475.637 1562.93C474.487 1562.93 473.384 1562.48 472.571 1561.67C471.758 1560.85 471.301 1559.75 471.301 1558.6C471.3 1557.45 471.757 1556.35 472.57 1555.53C473.382 1554.72 474.485 1554.26 475.635 1554.26C476.785 1554.26 477.888 1554.72 478.701 1555.53C479.515 1556.34 479.972 1557.45 479.973 1558.6C479.974 1559.75 479.518 1560.85 478.706 1561.66C477.894 1562.48 476.791 1562.93 475.641 1562.93H475.637Z" fill="#A6CEE3"/>
<path d="M579.571 1587.79C578.421 1587.79 577.318 1587.33 576.505 1586.52C575.692 1585.71 575.235 1584.6 575.234 1583.45C575.234 1582.3 575.691 1581.2 576.503 1580.39C577.316 1579.57 578.419 1579.12 579.568 1579.12C580.718 1579.11 581.821 1579.57 582.635 1580.38C583.448 1581.2 583.906 1582.3 583.907 1583.45C583.908 1584.6 583.452 1585.7 582.639 1586.51C581.827 1587.33 580.725 1587.79 579.575 1587.79H579.571Z" fill="#A6CEE3"/>
<path d="M682.157 1610.25C681.007 1610.25 679.904 1609.79 679.091 1608.98C678.278 1608.16 677.821 1607.06 677.82 1605.91C677.82 1604.76 678.276 1603.66 679.089 1602.85C679.902 1602.03 681.005 1601.57 682.154 1601.57C683.304 1601.57 684.407 1602.03 685.221 1602.84C686.034 1603.65 686.492 1604.76 686.493 1605.91C686.494 1607.06 686.038 1608.16 685.225 1608.97C684.413 1609.79 683.311 1610.25 682.161 1610.25H682.157Z" fill="#A6CEE3"/>
<path d="M785.141 1588.57C783.991 1588.57 782.888 1588.11 782.075 1587.3C781.262 1586.48 780.805 1585.38 780.805 1584.23C780.804 1583.08 781.261 1581.98 782.074 1581.16C782.886 1580.35 783.989 1579.89 785.139 1579.89C786.289 1579.89 787.392 1580.35 788.205 1581.16C789.019 1581.97 789.476 1583.08 789.477 1584.23C789.478 1585.38 789.022 1586.48 788.21 1587.29C787.397 1588.11 786.295 1588.56 785.145 1588.57H785.141Z" fill="#A6CEE3"/>
<path d="M374.289 1719.74C373.14 1719.74 372.037 1719.28 371.224 1718.47C370.41 1717.65 369.953 1716.55 369.953 1715.4C369.953 1714.25 370.409 1713.15 371.222 1712.34C372.035 1711.52 373.137 1711.07 374.287 1711.06C375.437 1711.06 376.54 1711.52 377.354 1712.33C378.167 1713.15 378.625 1714.25 378.626 1715.4C378.626 1716.55 378.171 1717.65 377.358 1718.46C376.546 1719.28 375.444 1719.74 374.294 1719.74H374.289Z" fill="#1F78B4"/>
<path d="M579.164 1610.25C578.015 1610.25 576.912 1609.79 576.099 1608.98C575.285 1608.16 574.828 1607.06 574.828 1605.91C574.828 1604.76 575.284 1603.66 576.097 1602.85C576.91 1602.03 578.012 1601.57 579.162 1601.57C580.312 1601.57 581.415 1602.03 582.229 1602.84C583.042 1603.65 583.5 1604.76 583.501 1605.91C583.501 1607.06 583.046 1608.16 582.233 1608.97C581.421 1609.79 580.319 1610.25 579.169 1610.25H579.164Z" fill="#1F78B4"/>
<path d="M682.157 1659.03C681.007 1659.03 679.904 1658.57 679.091 1657.76C678.278 1656.95 677.821 1655.84 677.82 1654.69C677.82 1653.54 678.276 1652.44 679.089 1651.63C679.902 1650.81 681.005 1650.36 682.154 1650.36C683.304 1650.36 684.407 1650.81 685.221 1651.63C686.034 1652.44 686.492 1653.54 686.493 1654.69C686.494 1655.84 686.038 1656.94 685.225 1657.76C684.413 1658.57 683.311 1659.03 682.161 1659.03H682.157Z" fill="#1F78B4"/>
<path d="M373.973 1666.87C372.823 1666.87 371.72 1666.41 370.907 1665.6C370.094 1664.78 369.637 1663.68 369.637 1662.53C369.636 1661.38 370.093 1660.28 370.906 1659.46C371.718 1658.65 372.821 1658.19 373.971 1658.19C375.121 1658.19 376.224 1658.65 377.037 1659.46C377.851 1660.27 378.308 1661.38 378.309 1662.53C378.31 1663.68 377.854 1664.78 377.042 1665.59C376.229 1666.41 375.127 1666.86 373.977 1666.87H373.973Z" fill="#B2DF8A"/>
<path d="M475.637 1621.68C474.487 1621.68 473.384 1621.22 472.571 1620.41C471.758 1619.6 471.301 1618.49 471.301 1617.34C471.3 1616.19 471.757 1615.09 472.57 1614.28C473.382 1613.46 474.485 1613.01 475.635 1613.01C476.785 1613.01 477.888 1613.46 478.701 1614.27C479.515 1615.09 479.972 1616.19 479.973 1617.34C479.974 1618.49 479.518 1619.59 478.706 1620.41C477.894 1621.22 476.791 1621.68 475.641 1621.68H475.637Z" fill="#B2DF8A"/>
<path d="M579.164 1631.93C578.015 1631.93 576.912 1631.47 576.099 1630.66C575.285 1629.84 574.828 1628.74 574.828 1627.59C574.828 1626.44 575.284 1625.34 576.097 1624.53C576.91 1623.71 578.012 1623.26 579.162 1623.25C580.312 1623.25 581.415 1623.71 582.229 1624.52C583.042 1625.34 583.5 1626.44 583.501 1627.59C583.501 1628.74 583.046 1629.84 582.233 1630.65C581.421 1631.47 580.319 1631.93 579.169 1631.93H579.164Z" fill="#B2DF8A"/>
<path d="M681.246 1684.94C680.097 1684.94 678.994 1684.48 678.181 1683.67C677.367 1682.86 676.91 1681.75 676.91 1680.6C676.91 1679.45 677.366 1678.35 678.179 1677.54C678.992 1676.72 680.094 1676.27 681.244 1676.27C682.394 1676.27 683.497 1676.72 684.311 1677.53C685.124 1678.35 685.582 1679.45 685.583 1680.6C685.584 1681.75 685.128 1682.85 684.315 1683.67C683.503 1684.48 682.401 1684.94 681.251 1684.94H681.246Z" fill="#B2DF8A"/>
<path d="M785.141 1571.22C783.991 1571.22 782.888 1570.76 782.075 1569.95C781.262 1569.14 780.805 1568.04 780.805 1566.89C780.804 1565.74 781.261 1564.63 782.074 1563.82C782.886 1563.01 783.989 1562.55 785.139 1562.55C786.289 1562.55 787.392 1563 788.205 1563.82C789.019 1564.63 789.476 1565.73 789.477 1566.88C789.478 1568.03 789.022 1569.13 788.21 1569.95C787.397 1570.76 786.295 1571.22 785.145 1571.22H785.141Z" fill="#B2DF8A"/>
<path d="M475.637 1660.09C474.487 1660.09 473.384 1659.63 472.571 1658.82C471.758 1658 471.301 1656.9 471.301 1655.75C471.3 1654.6 471.757 1653.5 472.57 1652.69C473.382 1651.87 474.485 1651.42 475.635 1651.42C476.785 1651.41 477.888 1651.87 478.701 1652.68C479.515 1653.5 479.972 1654.6 479.973 1655.75C479.974 1656.9 479.518 1658 478.706 1658.81C477.894 1659.63 476.791 1660.09 475.641 1660.09H475.637Z" fill="#33A02C"/>
<path d="M681.246 1709.79C680.097 1709.79 678.994 1709.34 678.181 1708.52C677.367 1707.71 676.91 1706.61 676.91 1705.46C676.91 1704.31 677.366 1703.21 678.179 1702.39C678.992 1701.58 680.094 1701.12 681.244 1701.12C682.394 1701.12 683.497 1701.58 684.311 1702.39C685.124 1703.2 685.582 1704.3 685.583 1705.45C685.584 1706.6 685.128 1707.71 684.315 1708.52C683.503 1709.33 682.401 1709.79 681.251 1709.79H681.246Z" fill="#33A02C"/>
<path d="M785.141 1635.18C783.991 1635.18 782.888 1634.72 782.075 1633.91C781.262 1633.1 780.805 1632 780.805 1630.85C780.804 1629.7 781.261 1628.59 782.074 1627.78C782.886 1626.97 783.989 1626.51 785.139 1626.51C786.289 1626.51 787.392 1626.96 788.205 1627.78C789.019 1628.59 789.476 1629.69 789.477 1630.84C789.478 1631.99 789.022 1633.09 788.21 1633.91C787.397 1634.72 786.295 1635.18 785.145 1635.18H785.141Z" fill="#33A02C"/>
</g>
<g opacity="0.7">
<path d="M952.012 1578.98V1890.93" stroke="#F0F0F0" stroke-opacity="0.5" stroke-width="1.23116"/>
<path d="M1057.47 1578.98V1890.93" stroke="#F0F0F0" stroke-opacity="0.5" stroke-width="1.23116"/>
<path d="M1161.83 1578.98V1890.93" stroke="#F0F0F0" stroke-opacity="0.5" stroke-width="1.23116"/>
<path d="M1267.29 1578.98V1890.93" stroke="#F0F0F0" stroke-opacity="0.5" stroke-width="1.23116"/>
<path d="M1371.64 1578.98V1890.93" stroke="#F0F0F0" stroke-opacity="0.5" stroke-width="1.23116"/>
<path d="M1478.22 1578.98V1890.93" stroke="#F0F0F0" stroke-opacity="0.5" stroke-width="1.23116"/>
<path d="M952.562 1703.87H1477.66" stroke="#F0F0F0" stroke-opacity="0.5" stroke-width="1.23116"/>
<path d="M952.562 1641.71H1477.66" stroke="#F0F0F0" stroke-opacity="0.5" stroke-width="1.23116"/>
<path d="M952.562 1578.43H1477.66" stroke="#F0F0F0" stroke-opacity="0.5" stroke-width="1.23116"/>
<path d="M952.012 1578.98V1890.93" stroke="white" stroke-width="1.23116"/>
<path d="M933.168 1708.13V1709.14H926.211V1708.42L930.523 1701.74H931.521L930.45 1703.68L927.6 1708.13H933.168ZM931.825 1701.74V1711.37H930.602V1701.74H931.825ZM935.826 1706.79L934.847 1706.54L935.33 1701.74H940.27V1702.88H936.368L936.077 1705.49C936.254 1705.39 936.476 1705.3 936.745 1705.21C937.018 1705.12 937.331 1705.08 937.684 1705.08C938.129 1705.08 938.528 1705.15 938.881 1705.31C939.234 1705.46 939.533 1705.67 939.78 1705.96C940.032 1706.24 940.223 1706.58 940.356 1706.98C940.488 1707.37 940.554 1707.81 940.554 1708.3C940.554 1708.77 940.49 1709.19 940.362 1709.58C940.239 1709.97 940.051 1710.31 939.8 1710.6C939.549 1710.89 939.232 1711.11 938.848 1711.27C938.469 1711.43 938.021 1711.5 937.506 1711.5C937.118 1711.5 936.75 1711.45 936.401 1711.35C936.057 1711.24 935.749 1711.07 935.476 1710.85C935.207 1710.63 934.986 1710.35 934.814 1710.02C934.647 1709.68 934.541 1709.29 934.497 1708.84H935.661C935.714 1709.2 935.819 1709.51 935.978 1709.75C936.137 1710 936.344 1710.19 936.6 1710.31C936.86 1710.44 937.162 1710.5 937.506 1710.5C937.797 1710.5 938.054 1710.45 938.279 1710.35C938.504 1710.25 938.694 1710.1 938.848 1709.91C939.002 1709.72 939.119 1709.49 939.198 1709.22C939.282 1708.95 939.324 1708.65 939.324 1708.32C939.324 1708.01 939.282 1707.73 939.198 1707.47C939.115 1707.21 938.989 1706.98 938.822 1706.79C938.658 1706.6 938.458 1706.45 938.22 1706.34C937.982 1706.23 937.708 1706.18 937.4 1706.18C936.99 1706.18 936.679 1706.23 936.467 1706.34C936.26 1706.45 936.046 1706.6 935.826 1706.79Z" fill="white"/>
<path d="M931.356 1639.26H931.462V1640.3H931.356C930.708 1640.3 930.166 1640.41 929.729 1640.62C929.293 1640.82 928.947 1641.1 928.691 1641.46C928.435 1641.8 928.25 1642.2 928.135 1642.63C928.025 1643.07 927.97 1643.51 927.97 1643.96V1645.38C927.97 1645.81 928.021 1646.18 928.122 1646.52C928.224 1646.84 928.363 1647.12 928.539 1647.34C928.715 1647.57 928.914 1647.74 929.134 1647.85C929.359 1647.97 929.592 1648.02 929.835 1648.02C930.117 1648.02 930.368 1647.97 930.589 1647.86C930.809 1647.75 930.994 1647.6 931.144 1647.41C931.299 1647.21 931.415 1646.98 931.495 1646.71C931.574 1646.44 931.614 1646.14 931.614 1645.82C931.614 1645.53 931.578 1645.26 931.508 1644.99C931.437 1644.73 931.329 1644.49 931.184 1644.28C931.038 1644.07 930.855 1643.9 930.635 1643.78C930.419 1643.66 930.161 1643.6 929.861 1643.6C929.522 1643.6 929.205 1643.68 928.909 1643.85C928.618 1644.01 928.378 1644.23 928.188 1644.5C928.003 1644.76 927.897 1645.05 927.871 1645.36L927.223 1645.36C927.285 1644.86 927.399 1644.44 927.567 1644.09C927.739 1643.74 927.95 1643.46 928.202 1643.24C928.457 1643.01 928.742 1642.85 929.055 1642.75C929.372 1642.64 929.707 1642.59 930.06 1642.59C930.54 1642.59 930.955 1642.68 931.303 1642.86C931.651 1643.04 931.938 1643.28 932.163 1643.59C932.387 1643.89 932.553 1644.22 932.659 1644.6C932.769 1644.98 932.824 1645.36 932.824 1645.76C932.824 1646.22 932.76 1646.64 932.632 1647.04C932.504 1647.43 932.312 1647.78 932.057 1648.08C931.805 1648.38 931.495 1648.62 931.124 1648.78C930.754 1648.95 930.324 1649.03 929.835 1649.03C929.315 1649.03 928.861 1648.93 928.473 1648.72C928.085 1648.5 927.763 1648.21 927.507 1647.86C927.252 1647.5 927.06 1647.1 926.932 1646.67C926.804 1646.23 926.74 1645.79 926.74 1645.34V1644.76C926.74 1644.08 926.809 1643.42 926.945 1642.77C927.082 1642.11 927.318 1641.52 927.653 1640.99C927.992 1640.46 928.462 1640.04 929.061 1639.73C929.661 1639.42 930.426 1639.26 931.356 1639.26ZM940.323 1643.32V1644.79C940.323 1645.58 940.252 1646.24 940.111 1646.79C939.97 1647.33 939.767 1647.76 939.503 1648.1C939.238 1648.43 938.919 1648.67 938.544 1648.82C938.173 1648.96 937.755 1649.03 937.287 1649.03C936.917 1649.03 936.575 1648.99 936.262 1648.9C935.949 1648.8 935.667 1648.66 935.416 1648.45C935.169 1648.25 934.958 1647.98 934.781 1647.65C934.605 1647.32 934.47 1646.91 934.378 1646.44C934.285 1645.97 934.239 1645.42 934.239 1644.79V1643.32C934.239 1642.53 934.309 1641.87 934.451 1641.34C934.596 1640.8 934.801 1640.38 935.066 1640.05C935.33 1639.73 935.647 1639.49 936.018 1639.35C936.392 1639.21 936.811 1639.14 937.274 1639.14C937.649 1639.14 937.993 1639.19 938.306 1639.28C938.623 1639.37 938.905 1639.51 939.152 1639.71C939.399 1639.9 939.608 1640.16 939.78 1640.49C939.957 1640.81 940.091 1641.21 940.184 1641.67C940.276 1642.14 940.323 1642.69 940.323 1643.32ZM939.093 1644.99V1643.12C939.093 1642.68 939.066 1642.31 939.013 1641.98C938.965 1641.65 938.892 1641.37 938.795 1641.13C938.698 1640.9 938.575 1640.71 938.425 1640.56C938.279 1640.42 938.11 1640.31 937.916 1640.25C937.726 1640.18 937.512 1640.14 937.274 1640.14C936.983 1640.14 936.725 1640.2 936.5 1640.31C936.276 1640.41 936.086 1640.58 935.932 1640.82C935.782 1641.05 935.667 1641.36 935.588 1641.73C935.509 1642.11 935.469 1642.57 935.469 1643.12V1644.99C935.469 1645.42 935.493 1645.8 935.542 1646.13C935.595 1646.46 935.672 1646.75 935.773 1646.99C935.874 1647.23 935.998 1647.43 936.143 1647.58C936.289 1647.73 936.456 1647.85 936.646 1647.92C936.84 1647.99 937.054 1648.03 937.287 1648.03C937.587 1648.03 937.849 1647.97 938.074 1647.86C938.299 1647.74 938.486 1647.56 938.636 1647.32C938.791 1647.08 938.905 1646.76 938.98 1646.38C939.055 1645.99 939.093 1645.53 939.093 1644.99Z" fill="white"/>
<path d="M932.886 1576.8V1577.49L928.898 1586.43H927.609L931.59 1577.81H926.379V1576.8H932.886ZM935.828 1581.85L934.85 1581.6L935.332 1576.8H940.272V1577.93H936.371L936.08 1580.55C936.256 1580.45 936.479 1580.36 936.748 1580.27C937.021 1580.18 937.334 1580.14 937.687 1580.14C938.132 1580.14 938.531 1580.21 938.883 1580.37C939.236 1580.52 939.536 1580.73 939.783 1581.02C940.034 1581.3 940.226 1581.64 940.358 1582.03C940.49 1582.43 940.556 1582.87 940.556 1583.36C940.556 1583.83 940.493 1584.25 940.365 1584.64C940.241 1585.03 940.054 1585.37 939.803 1585.66C939.551 1585.94 939.234 1586.17 938.85 1586.33C938.471 1586.48 938.024 1586.56 937.508 1586.56C937.12 1586.56 936.752 1586.51 936.404 1586.41C936.06 1586.29 935.751 1586.13 935.478 1585.91C935.209 1585.68 934.989 1585.41 934.817 1585.08C934.649 1584.74 934.543 1584.35 934.499 1583.9H935.663C935.716 1584.26 935.822 1584.56 935.981 1584.81C936.139 1585.06 936.346 1585.25 936.602 1585.37C936.862 1585.5 937.164 1585.56 937.508 1585.56C937.799 1585.56 938.057 1585.51 938.282 1585.41C938.507 1585.31 938.696 1585.16 938.85 1584.97C939.005 1584.78 939.122 1584.55 939.201 1584.28C939.285 1584.01 939.327 1583.71 939.327 1583.38C939.327 1583.07 939.285 1582.79 939.201 1582.53C939.117 1582.27 938.991 1582.04 938.824 1581.85C938.661 1581.66 938.46 1581.51 938.222 1581.4C937.984 1581.29 937.711 1581.23 937.402 1581.23C936.992 1581.23 936.681 1581.29 936.47 1581.4C936.263 1581.51 936.049 1581.66 935.828 1581.85Z" fill="white"/>
<path d="M952.562 1825.42C952.562 1825.42 1014.78 1870.68 1056.78 1855.71C1098.79 1840.73 1121.21 1820.22 1163.22 1807.12C1205.22 1794.02 1225.33 1823.6 1267.33 1811.75C1309.34 1799.89 1329.44 1766.82 1371.45 1756.22C1413.46 1745.61 1477.66 1669.45 1477.66 1669.45" stroke="#A6CEE3" stroke-width="2.46231"/>
<path d="M952.562 1856.62C952.562 1856.62 1014.78 1830.25 1056.78 1830.25C1098.79 1830.25 1121.21 1793.23 1163.22 1793.23C1205.22 1793.23 1225.33 1633.59 1267.33 1633.59C1309.34 1633.59 1329.44 1672.25 1371.45 1705.31C1413.46 1738.38 1477.66 1856.62 1477.66 1856.62" stroke="#1F78B4" stroke-width="2.46231"/>
<path d="M952.562 1816.06C952.562 1816.06 1014.78 1718.51 1056.78 1704.16C1098.79 1689.81 1121.21 1658.35 1163.22 1644C1205.22 1629.65 1226.48 1679.52 1268.49 1668.29C1310.5 1657.06 1329.44 1656.48 1371.45 1644C1413.46 1631.52 1477.66 1650.73 1477.66 1650.73" stroke="#B2DF8A" stroke-width="2.46231"/>
<path d="M952.562 1844.14C952.562 1844.14 1014.78 1778.39 1056.78 1767.79C1099.59 1767.79 1120.41 1767.79 1163.22 1767.79C1205.22 1764.67 1225.33 1742.33 1267.33 1742.33C1309.34 1742.33 1329.44 1767.79 1371.45 1767.79C1413.46 1767.79 1477.66 1716.24 1477.66 1716.24" stroke="#33A02C" stroke-width="2.46231"/>
<path d="M1477.66 1673.34C1476.48 1673.34 1475.35 1672.88 1474.52 1672.04C1473.69 1671.21 1473.22 1670.08 1473.22 1668.91C1473.22 1667.73 1473.69 1666.6 1474.52 1665.77C1475.35 1664.93 1476.48 1664.46 1477.66 1664.46C1478.83 1664.46 1479.96 1664.93 1480.8 1665.76C1481.63 1666.59 1482.1 1667.72 1482.1 1668.9C1482.1 1670.08 1481.63 1671.21 1480.8 1672.04C1479.97 1672.87 1478.84 1673.34 1477.66 1673.34H1477.66Z" fill="#A6CEE3"/>
<path d="M1267.15 1637.84C1265.97 1637.84 1264.84 1637.37 1264.01 1636.54C1263.18 1635.71 1262.71 1634.58 1262.71 1633.4C1262.71 1632.22 1263.17 1631.1 1264.01 1630.26C1264.84 1629.43 1265.97 1628.96 1267.15 1628.96C1268.32 1628.96 1269.45 1629.43 1270.29 1630.26C1271.12 1631.09 1271.59 1632.22 1271.59 1633.4C1271.59 1634.58 1271.12 1635.7 1270.29 1636.54C1269.46 1637.37 1268.33 1637.84 1267.15 1637.84H1267.15Z" fill="#1F78B4"/>
<path d="M1371.26 1709.57C1370.09 1709.57 1368.96 1709.1 1368.13 1708.27C1367.29 1707.43 1366.82 1706.31 1366.82 1705.13C1366.82 1703.95 1367.29 1702.82 1368.12 1701.99C1368.96 1701.16 1370.09 1700.69 1371.26 1700.69C1372.44 1700.69 1373.57 1701.15 1374.4 1701.99C1375.24 1702.82 1375.7 1703.95 1375.71 1705.12C1375.71 1706.3 1375.24 1707.43 1374.41 1708.26C1373.58 1709.1 1372.45 1709.57 1371.27 1709.57H1371.26Z" fill="#1F78B4"/>
<path d="M1056.6 1709.57C1055.42 1709.57 1054.29 1709.1 1053.46 1708.27C1052.63 1707.43 1052.16 1706.31 1052.16 1705.13C1052.16 1703.95 1052.63 1702.82 1053.46 1701.99C1054.29 1701.16 1055.42 1700.69 1056.6 1700.69C1057.78 1700.69 1058.91 1701.15 1059.74 1701.99C1060.57 1702.82 1061.04 1703.95 1061.04 1705.12C1061.04 1706.3 1060.58 1707.43 1059.74 1708.26C1058.91 1709.1 1057.78 1709.57 1056.61 1709.57H1056.6Z" fill="#B2DF8A"/>
<path d="M1163.03 1649.41C1161.85 1649.41 1160.72 1648.94 1159.89 1648.11C1159.06 1647.28 1158.59 1646.15 1158.59 1644.97C1158.59 1643.79 1159.06 1642.66 1159.89 1641.83C1160.72 1641 1161.85 1640.53 1163.03 1640.53C1164.21 1640.53 1165.34 1641 1166.17 1641.83C1167 1642.66 1167.47 1643.79 1167.47 1644.97C1167.47 1646.14 1167.01 1647.27 1166.17 1648.11C1165.34 1648.94 1164.21 1649.41 1163.03 1649.41H1163.03Z" fill="#B2DF8A"/>
<path d="M1267.15 1672.55C1265.97 1672.55 1264.84 1672.08 1264.01 1671.25C1263.18 1670.42 1262.71 1669.29 1262.71 1668.11C1262.71 1666.93 1263.17 1665.8 1264.01 1664.97C1264.84 1664.14 1265.97 1663.67 1267.15 1663.67C1268.32 1663.67 1269.45 1664.13 1270.29 1664.97C1271.12 1665.8 1271.59 1666.93 1271.59 1668.1C1271.59 1669.28 1271.12 1670.41 1270.29 1671.25C1269.46 1672.08 1268.33 1672.55 1267.15 1672.55H1267.15Z" fill="#B2DF8A"/>
<path d="M1371.26 1647.1C1370.09 1647.1 1368.96 1646.63 1368.13 1645.8C1367.29 1644.96 1366.82 1643.84 1366.82 1642.66C1366.82 1641.48 1367.29 1640.35 1368.12 1639.52C1368.96 1638.68 1370.09 1638.22 1371.26 1638.22C1372.44 1638.22 1373.57 1638.68 1374.4 1639.51C1375.24 1640.35 1375.7 1641.48 1375.71 1642.65C1375.71 1643.83 1375.24 1644.96 1374.41 1645.79C1373.58 1646.63 1372.45 1647.1 1371.27 1647.1H1371.26Z" fill="#B2DF8A"/>
<path d="M1477.66 1655.58C1476.48 1655.58 1475.35 1655.12 1474.52 1654.28C1473.69 1653.45 1473.22 1652.32 1473.22 1651.14C1473.22 1649.97 1473.69 1648.84 1474.52 1648C1475.35 1647.17 1476.48 1646.7 1477.66 1646.7C1478.83 1646.7 1479.96 1647.17 1480.8 1648C1481.63 1648.83 1482.1 1649.96 1482.1 1651.14C1482.1 1652.32 1481.63 1653.45 1480.8 1654.28C1479.97 1655.11 1478.84 1655.58 1477.66 1655.58H1477.66Z" fill="#B2DF8A"/>
<path d="M1477.66 1721.08C1476.48 1721.08 1475.35 1720.61 1474.52 1719.78C1473.69 1718.95 1473.22 1717.82 1473.22 1716.64C1473.22 1715.46 1473.69 1714.33 1474.52 1713.5C1475.35 1712.67 1476.48 1712.2 1477.66 1712.2C1478.83 1712.2 1479.96 1712.67 1480.8 1713.5C1481.63 1714.33 1482.1 1715.46 1482.1 1716.64C1482.1 1717.81 1481.63 1718.94 1480.8 1719.78C1479.97 1720.61 1478.84 1721.08 1477.66 1721.08H1477.66Z" fill="#33A02C"/>
</g>
</g>
<path opacity="0.3" d="M-284.205 464.733C-278.612 454.775 -275.447 422.417 -307.532 372.653C-347.638 310.447 -366.463 226.143 -277.248 235.146C-188.032 244.149 71.8394 419.716 140.184 325.18C208.528 230.644 -81.2187 -50.9171 -97.9978 -224.847C-113.958 -328.386 11.6803 -334.525 31.7333 -329.205" stroke="url(#paint0_linear_7116_11315)" stroke-opacity="0.7" stroke-width="5"/>
<path opacity="0.3" d="M1437.8 1951.73C1443.39 1941.77 1446.55 1909.42 1414.47 1859.65C1374.36 1797.45 1355.54 1713.14 1444.75 1722.15C1533.97 1731.15 1793.84 1906.72 1862.18 1812.18C1930.53 1717.64 1640.78 1436.08 1624 1262.15C1608.04 1158.61 1733.68 1152.48 1753.73 1157.8" stroke="url(#paint1_linear_7116_11315)" stroke-opacity="0.7" stroke-width="5"/>
</g>
<defs>
<linearGradient id="paint0_linear_7116_11315" x1="-463.477" y1="180.986" x2="408.816" y2="25.3139" gradientUnits="userSpaceOnUse">
<stop stop-color="#15BFFD"/>
<stop offset="1" stop-color="#9C37FD"/>
</linearGradient>
<linearGradient id="paint1_linear_7116_11315" x1="1258.52" y1="1667.99" x2="2130.82" y2="1512.31" gradientUnits="userSpaceOnUse">
<stop stop-color="#15BFFD"/>
<stop offset="1" stop-color="#9C37FD"/>
</linearGradient>
<clipPath id="clip0_7116_11315">
<rect width="1728" height="1716" fill="white"/>
</clipPath>
</defs>
</svg>
