<svg width="64" height="64" viewBox="0 0 64 64" fill="none" xmlns="http://www.w3.org/2000/svg">
<mask id="mask0_2506_742" style="mask-type:alpha" maskUnits="userSpaceOnUse" x="0" y="0" width="64" height="64">
<rect width="64" height="64" fill="#D9D9D9"/>
</mask>
<g mask="url(#mask0_2506_742)">
<path d="M32 58.6665C27.2889 58.6665 23.4444 57.922 20.4667 56.4331C17.4889 54.9442 16 53.022 16 50.6665C16 49.1109 16.6444 47.7554 17.9333 46.5998C19.2222 45.4442 21 44.5331 23.2667 43.8665L24.8 48.9331C24.0444 49.1553 23.3556 49.4331 22.7333 49.7665C22.1111 50.0998 21.6889 50.3998 21.4667 50.6665C22.0444 51.3776 23.3778 51.9998 25.4667 52.5331C27.5556 53.0665 29.7333 53.3331 32 53.3331C34.2667 53.3331 36.4556 53.0665 38.5667 52.5331C40.6778 51.9998 42.0222 51.3776 42.6 50.6665C42.3778 50.3998 41.9556 50.0998 41.3333 49.7665C40.7111 49.4331 40.0222 49.1553 39.2667 48.9331L40.8 43.8665C43.0667 44.5331 44.8333 45.4442 46.1 46.5998C47.3667 47.7554 48 49.1109 48 50.6665C48 53.022 46.5111 54.9442 43.5333 56.4331C40.5556 57.922 36.7111 58.6665 32 58.6665ZM32 50.6665C31.5111 50.6665 31.0667 50.522 30.6667 50.2331C30.2667 49.9442 29.9778 49.5553 29.8 49.0665C28.7778 45.9109 27.4889 43.2665 25.9333 41.1331C24.3778 38.9998 22.8667 36.9554 21.4 34.9998C19.9778 33.0442 18.7444 31.022 17.7 28.9331C16.6556 26.8442 16.1333 24.2665 16.1333 21.1998C16.1333 16.7554 17.6667 12.9998 20.7333 9.93313C23.8 6.86646 27.5556 5.33313 32 5.33313C36.4444 5.33313 40.2 6.86646 43.2667 9.93313C46.3333 12.9998 47.8667 16.7554 47.8667 21.1998C47.8667 24.2665 47.3556 26.8442 46.3333 28.9331C45.3111 31.022 44.0667 33.0442 42.6 34.9998C41.1778 36.9554 39.6778 38.9998 38.1 41.1331C36.5222 43.2665 35.2222 45.9109 34.2 49.0665C34.0222 49.5553 33.7333 49.9442 33.3333 50.2331C32.9333 50.522 32.4889 50.6665 32 50.6665ZM32 26.8665C33.5556 26.8665 34.8889 26.3109 36 25.1998C37.1111 24.0887 37.6667 22.7554 37.6667 21.1998C37.6667 19.6442 37.1111 18.3109 36 17.1998C34.8889 16.0887 33.5556 15.5331 32 15.5331C30.4444 15.5331 29.1111 16.0887 28 17.1998C26.8889 18.3109 26.3333 19.6442 26.3333 21.1998C26.3333 22.7554 26.8889 24.0887 28 25.1998C29.1111 26.3109 30.4444 26.8665 32 26.8665Z" fill="#DA281C"/>
</g>
</svg>
