<svg width="32" height="33" viewBox="0 0 32 33" fill="none" xmlns="http://www.w3.org/2000/svg">
<g clip-path="url(#clip0_2409_272)">
<path d="M9.37347 0.232017C7.67107 0.312337 6.50851 0.584017 5.49219 0.983377C4.44035 1.3933 3.54883 1.94338 2.66179 2.83362C1.77475 3.72386 1.22851 4.61602 0.821466 5.66946C0.427546 6.68802 0.160666 7.85154 0.0854659 9.5549C0.010266 11.2583 -0.00637406 11.8058 0.00194594 16.1507C0.0102659 20.4957 0.0294659 21.0403 0.112026 22.7472C0.193306 24.4493 0.464026 25.6115 0.863386 26.6282C1.27395 27.68 1.82339 28.5712 2.71395 29.4586C3.60451 30.3459 4.49603 30.8909 5.55203 31.2986C6.56963 31.6919 7.73347 31.96 9.43651 32.0346C11.1395 32.1091 11.6877 32.1264 16.0314 32.1181C20.3751 32.1098 20.9219 32.0906 22.6285 32.0096C24.3351 31.9287 25.4912 31.656 26.5082 31.2586C27.56 30.8471 28.4519 30.2986 29.3386 29.4077C30.2253 28.5168 30.7712 27.624 31.1779 26.5699C31.5722 25.5523 31.84 24.3885 31.9139 22.6867C31.9885 20.9789 32.0061 20.4336 31.9978 16.0893C31.9895 11.745 31.9699 11.2003 31.889 9.4941C31.808 7.78786 31.537 6.62914 31.1379 5.61186C30.7267 4.56002 30.1779 3.66946 29.2877 2.78146C28.3975 1.89346 27.504 1.34786 26.4503 0.942097C25.432 0.548177 24.2688 0.279697 22.5658 0.206097C20.8627 0.132497 20.3146 0.113617 15.9693 0.121937C11.624 0.130257 11.08 0.148817 9.37347 0.232017ZM9.56035 29.1562C8.00035 29.0883 7.15331 28.8291 6.58883 28.6122C5.84131 28.3242 5.30883 27.976 4.74627 27.4189C4.18371 26.8618 3.83811 26.3274 3.54627 25.5815C3.32707 25.017 3.06307 24.1709 2.99011 22.6109C2.91075 20.9248 2.89411 20.4186 2.88483 16.1469C2.87555 11.8752 2.89187 11.3696 2.96579 9.6829C3.03235 8.12418 3.29315 7.27618 3.50979 6.71202C3.79779 5.96354 4.14467 5.43202 4.70307 4.86978C5.26147 4.30754 5.79427 3.9613 6.54083 3.66946C7.10467 3.4493 7.95075 3.18754 9.51011 3.1133C11.1975 3.0333 11.7031 3.0173 15.9741 3.00802C20.2451 2.99874 20.752 3.01474 22.44 3.08898C23.9987 3.15682 24.8471 3.41506 25.4106 3.63298C26.1584 3.92098 26.6906 4.2669 27.2528 4.82626C27.8151 5.38562 28.1616 5.9165 28.4535 6.66466C28.6739 7.2269 28.9357 8.07266 29.0093 9.63298C29.0896 11.3203 29.1079 11.8263 29.1155 16.097C29.1232 20.3677 29.1082 20.8749 29.0343 22.561C28.9661 24.121 28.7075 24.9683 28.4903 25.5335C28.2023 26.2807 27.8551 26.8135 27.2963 27.3754C26.7376 27.9373 26.2055 28.2835 25.4586 28.5754C24.8954 28.7952 24.0483 29.0576 22.4903 29.1319C20.8029 29.2112 20.2973 29.2279 16.0247 29.2371C11.752 29.2464 11.248 29.2291 9.56067 29.1562M22.6039 7.56866C22.6045 7.94842 22.7177 8.31947 22.9293 8.63488C23.1408 8.95028 23.4411 9.19587 23.7922 9.34059C24.1433 9.4853 24.5295 9.52264 24.9018 9.44789C25.2741 9.37313 25.6159 9.18964 25.884 8.92061C26.152 8.65158 26.3343 8.3091 26.4077 7.9365C26.4811 7.56389 26.4423 7.17788 26.2963 6.8273C26.1503 6.47672 25.9036 6.17732 25.5874 5.96695C25.2713 5.75658 24.8998 5.6447 24.52 5.64546C24.0109 5.64648 23.5231 5.84965 23.1637 6.2103C22.8044 6.57095 22.603 7.05955 22.6039 7.56866ZM7.78467 16.136C7.79363 20.6736 11.4787 24.3437 16.0154 24.3351C20.552 24.3264 24.2247 20.6416 24.216 16.104C24.2074 11.5664 20.5213 7.89538 15.984 7.90434C11.4467 7.9133 7.77603 11.5991 7.78467 16.136ZM10.6666 16.1303C10.6645 15.0754 10.9753 14.0436 11.5596 13.1654C12.1439 12.2872 12.9755 11.6019 13.9492 11.1963C14.923 10.7907 15.9952 10.683 17.0302 10.8867C18.0651 11.0904 19.0165 11.5965 19.7638 12.3409C20.5112 13.0854 21.0211 14.0347 21.2289 15.0688C21.4367 16.103 21.3332 17.1756 20.9315 18.151C20.5298 19.1263 19.8478 19.9606 18.9719 20.5484C18.096 21.1362 17.0654 21.451 16.0106 21.4531C15.3102 21.4546 14.6163 21.3181 13.9687 21.0514C13.321 20.7847 12.7322 20.393 12.236 19.8987C11.7397 19.4044 11.3457 18.8172 11.0764 18.1706C10.8072 17.524 10.6679 16.8307 10.6666 16.1303Z" fill="white"/>
</g>
<defs>
<clipPath id="clip0_2409_272">
<rect width="32" height="32" fill="white" transform="translate(0 0.120117)"/>
</clipPath>
</defs>
</svg>
