<svg width="39" height="33" viewBox="0 0 39 33" fill="none" xmlns="http://www.w3.org/2000/svg">
<g clip-path="url(#clip0_2409_277)">
<path d="M36.4603 30.0549C36.5416 30.0557 36.6222 30.0399 36.6972 30.0086C36.7721 29.9773 36.8397 29.931 36.8959 29.8727C36.952 29.8144 36.9954 29.7453 37.0235 29.6697C37.0515 29.5941 37.0635 29.5137 37.0588 29.4332C37.0588 28.9924 36.7902 28.7817 36.2391 28.7817H35.3486V31.0899H35.6836V30.0838H36.0951L36.1045 30.096L36.7432 31.0899H37.1014L36.4142 30.0612L36.4603 30.0549ZM36.0729 29.8237H35.6845V29.0433H36.1768C36.4311 29.0433 36.721 29.0845 36.721 29.4141C36.721 29.7933 36.4276 29.8237 36.0709 29.8237" fill="white"/>
<path d="M27.7243 27.162H22.9749V19.7976C22.9749 18.0415 22.9433 15.7809 20.5048 15.7809C18.0312 15.7809 17.6527 17.6942 17.6527 19.6698V27.1616H12.9033V12.0173H17.4627V14.0869H17.5265C17.9828 13.3145 18.6422 12.679 19.4344 12.2482C20.2265 11.8174 21.1219 11.6074 22.0251 11.6406C26.8387 11.6406 27.7263 14.7757 27.7263 18.8542L27.7243 27.162ZM7.54451 9.94722C6.99941 9.94732 6.4665 9.78736 6.01321 9.48758C5.55991 9.1878 5.20661 8.76165 4.99791 8.26304C4.78922 7.76442 4.73453 7.21573 4.84078 6.68635C4.94703 6.15696 5.20944 5.67066 5.59482 5.28894C5.9802 4.90722 6.47124 4.64722 7.00586 4.54183C7.54047 4.43644 8.09463 4.49038 8.59828 4.69684C9.10193 4.9033 9.53243 5.253 9.83536 5.70172C10.1383 6.15044 10.3 6.67803 10.3001 7.21777C10.3002 7.57614 10.229 7.93102 10.0905 8.26213C9.95206 8.59325 9.74912 8.89412 9.49324 9.14758C9.23736 9.40103 8.93354 9.6021 8.59918 9.7393C8.26482 9.8765 7.90645 9.94715 7.54451 9.94722ZM9.91918 27.162H5.1649V12.0173H9.91918V27.162ZM30.092 0.122279H2.77836C2.15842 0.115352 1.56103 0.352409 1.11752 0.781358C0.674005 1.21031 0.420652 1.79605 0.413086 2.40988V29.5667C0.420393 30.1809 0.673597 30.767 1.11709 31.1964C1.56059 31.6258 2.15811 31.8633 2.77836 31.8568H30.092C30.7135 31.8645 31.3127 31.6277 31.7579 31.1983C32.2032 30.7689 32.4581 30.1821 32.4667 29.5667V2.40792C32.4578 1.79288 32.2028 1.20646 31.7575 0.777525C31.3122 0.348587 30.7132 0.112208 30.092 0.120319" fill="white"/>
<path d="M36.1139 27.7534C35.5361 27.7589 34.9839 27.9908 34.5783 28.3983C34.1726 28.8058 33.9465 29.3557 33.9492 29.9279C33.952 30.5001 34.1835 31.0478 34.5931 31.4514C35.0027 31.8551 35.5571 32.0816 36.1349 32.0816C36.7128 32.0816 37.2671 31.8551 37.6767 31.4514C38.0863 31.0478 38.3178 30.5001 38.3206 29.9279C38.3234 29.3557 38.0972 28.8058 37.6916 28.3983C37.2859 27.9908 36.7338 27.7589 36.1559 27.7534H36.1139ZM36.1139 31.8339C35.7349 31.8401 35.3625 31.7349 35.0439 31.5316C34.7253 31.3283 34.4747 31.0361 34.3238 30.6917C34.1729 30.3474 34.1286 29.9665 34.1963 29.5973C34.2641 29.228 34.4409 28.8869 34.7044 28.6171C34.968 28.3473 35.3064 28.161 35.6769 28.0817C36.0473 28.0023 36.4333 28.0335 36.7859 28.1714C37.1384 28.3092 37.4418 28.5475 37.6576 28.856C37.8734 29.1646 37.992 29.5296 37.9983 29.9048C37.9983 29.9156 37.9983 29.9259 37.9983 29.9367C38.0089 30.429 37.8216 30.9053 37.4776 31.2609C37.1336 31.6165 36.661 31.8222 36.1638 31.8329H36.1144" fill="white"/>
</g>
<defs>
<clipPath id="clip0_2409_277">
<rect width="37.9077" height="32" fill="white" transform="translate(0.413086 0.120117)"/>
</clipPath>
</defs>
</svg>
