<svg width="56" height="48" viewBox="0 0 56 48" fill="none" xmlns="http://www.w3.org/2000/svg">
<g clip-path="url(#clip0_2441_6017)">
<path d="M53.2554 44.2218C53.3756 44.223 53.4947 44.1998 53.6054 44.1535C53.7161 44.1072 53.816 44.0388 53.8989 43.9527C53.9819 43.8666 54.046 43.7646 54.0875 43.6529C54.1289 43.5412 54.1466 43.4223 54.1397 43.3035C54.1397 42.6522 53.7429 42.3411 52.9287 42.3411H51.6133V45.7509H52.1081V44.2645H52.7161L52.73 44.2826L53.6735 45.7509H54.2026L53.1875 44.2312L53.2554 44.2218ZM52.6832 43.8803H52.1095V42.7275H52.8367C53.2123 42.7275 53.6406 42.7883 53.6406 43.2753C53.6406 43.8354 53.2072 43.8803 52.6803 43.8803" fill="#DA281C"/>
<path d="M40.3461 39.9483H33.33V29.0691C33.33 26.4748 33.2832 23.1352 29.6809 23.1352C26.0267 23.1352 25.4676 25.9617 25.4676 28.8802V39.9476H18.4515V17.5754H25.187V20.6328H25.2813C25.9553 19.4917 26.9293 18.5529 28.0996 17.9165C29.2699 17.2801 30.5926 16.9699 31.9268 17.0189C39.0379 17.0189 40.349 21.6503 40.349 27.6753L40.3461 39.9483ZM10.5351 14.5173C9.72979 14.5175 8.94254 14.2812 8.27291 13.8383C7.60327 13.3954 7.08134 12.7659 6.77304 12.0293C6.46474 11.2927 6.38395 10.4822 6.54091 9.70011C6.69786 8.91806 7.08552 8.19967 7.65483 7.63576C8.22414 7.07186 8.94955 6.68777 9.73932 6.53208C10.5291 6.37638 11.3477 6.45608 12.0918 6.76107C12.8358 7.06607 13.4718 7.58267 13.9193 8.24555C14.3668 8.90844 14.6057 9.68783 14.6059 10.4852C14.606 11.0146 14.5007 11.5388 14.2962 12.028C14.0917 12.5171 13.7919 12.9616 13.4139 13.336C13.0359 13.7104 12.587 14.0075 12.0931 14.2102C11.5992 14.4128 11.0697 14.5172 10.5351 14.5173ZM14.0431 39.9483H7.01972V17.5754H14.0431V39.9483ZM43.8439 0.00319428H3.49416C2.57833 -0.00703902 1.69583 0.343158 1.04064 0.976832C0.385449 1.61051 0.0111771 2.47581 0 3.38261V43.5007C0.0107946 44.4079 0.384847 45.2738 1.04001 45.9081C1.69518 46.5425 2.57788 46.8934 3.49416 46.8837H43.8439C44.762 46.8951 45.6471 46.5452 46.3049 45.9109C46.9627 45.2766 47.3392 44.4097 47.3519 43.5007V3.37971C47.3388 2.47112 46.962 1.60483 46.3042 0.971171C45.6465 0.337512 44.7615 -0.0116847 43.8439 0.000298537" fill="#DA281C"/>
<path d="M52.7408 40.822C51.8872 40.8302 51.0715 41.1727 50.4723 41.7746C49.873 42.3766 49.5389 43.1891 49.543 44.0343C49.5471 44.8796 49.8891 45.6888 50.4942 46.285C51.0993 46.8813 51.9182 47.216 52.7718 47.216C53.6255 47.216 54.4444 46.8813 55.0495 46.285C55.6546 45.6888 55.9966 44.8796 56.0007 44.0343C56.0048 43.1891 55.6707 42.3766 55.0714 41.7746C54.4722 41.1727 53.6565 40.8302 52.8029 40.822H52.7408ZM52.7408 46.85C52.1809 46.8592 51.6308 46.7038 51.1601 46.4035C50.6894 46.1032 50.3192 45.6714 50.0963 45.1627C49.8734 44.6541 49.8079 44.0914 49.908 43.5459C50.0081 43.0004 50.2693 42.4965 50.6586 42.0979C51.0479 41.6994 51.5478 41.4241 52.0952 41.3069C52.6425 41.1897 53.2126 41.2358 53.7335 41.4395C54.2543 41.6431 54.7025 41.9951 55.0213 42.4509C55.3401 42.9067 55.5152 43.4459 55.5245 44.0003C55.5245 44.0162 55.5245 44.0314 55.5245 44.0473C55.5402 44.7746 55.2635 45.4782 54.7553 46.0035C54.2471 46.5288 53.5491 46.8328 52.8146 46.8485H52.7415" fill="#DA281C"/>
</g>
<defs>
<clipPath id="clip0_2441_6017">
<rect width="56" height="47.2727" fill="white"/>
</clipPath>
</defs>
</svg>
