<svg width="120" height="120" viewBox="0 0 120 120" fill="none" xmlns="http://www.w3.org/2000/svg">
<rect width="120" height="120" rx="60" fill="#FBE9E8"/>
<mask id="mask0_2441_6034" style="mask-type:alpha" maskUnits="userSpaceOnUse" x="32" y="32" width="56" height="56">
<rect x="32" y="32" width="56" height="56" fill="#D9D9D9"/>
</mask>
<g mask="url(#mask0_2441_6034)">
<path d="M41.3346 78.6668C40.0513 78.6668 38.9527 78.2099 38.0388 77.296C37.1249 76.3821 36.668 75.2835 36.668 74.0002V46.0002C36.668 44.7168 37.1249 43.6182 38.0388 42.7043C38.9527 41.7904 40.0513 41.3335 41.3346 41.3335H78.668C79.9513 41.3335 81.0499 41.7904 81.9638 42.7043C82.8777 43.6182 83.3346 44.7168 83.3346 46.0002V74.0002C83.3346 75.2835 82.8777 76.3821 81.9638 77.296C81.0499 78.2099 79.9513 78.6668 78.668 78.6668H41.3346ZM60.0013 62.3335L41.3346 50.6668V74.0002H78.668V50.6668L60.0013 62.3335ZM60.0013 57.6668L78.668 46.0002H41.3346L60.0013 57.6668ZM41.3346 50.6668V46.0002V74.0002V50.6668Z" fill="#DA281C"/>
</g>
</svg>
