<svg width="121" height="120" viewBox="0 0 121 120" fill="none" xmlns="http://www.w3.org/2000/svg">
<rect x="0.5" width="120" height="120" rx="60" fill="#FBE9E8"/>
<mask id="mask0_2441_6028" style="mask-type:alpha" maskUnits="userSpaceOnUse" x="33" y="32" width="56" height="56">
<rect x="33" y="32" width="56" height="56" fill="#D9D9D9"/>
</mask>
<g mask="url(#mask0_2441_6028)">
<path d="M46.9974 64.667H65.6641V60.0003H46.9974V64.667ZM46.9974 57.667H74.9974V53.0003H46.9974V57.667ZM46.9974 50.667H74.9974V46.0003H46.9974V50.667ZM37.6641 83.3337V41.3337C37.6641 40.0503 38.121 38.9517 39.0349 38.0378C39.9488 37.1239 41.0474 36.667 42.3307 36.667H79.6641C80.9474 36.667 82.046 37.1239 82.9599 38.0378C83.8738 38.9517 84.3307 40.0503 84.3307 41.3337V69.3337C84.3307 70.617 83.8738 71.7156 82.9599 72.6295C82.046 73.5434 80.9474 74.0003 79.6641 74.0003H46.9974L37.6641 83.3337ZM45.0141 69.3337H79.6641V41.3337H42.3307V71.9587L45.0141 69.3337Z" fill="#DA281C"/>
</g>
</svg>
