<svg width="347" height="271" viewBox="0 0 347 271" fill="none" xmlns="http://www.w3.org/2000/svg">
<path d="M225 3H328C336.837 3 344 10.1634 344 19V252C344 260.837 336.837 268 328 268H225" stroke="url(#paint0_linear_6039_1122)" stroke-opacity="0.7" stroke-width="6"/>
<rect y="16" width="336" height="239" rx="8" fill="white" fill-opacity="0.05"/>
<rect x="0.5" y="16.5" width="335" height="238" rx="7.5" stroke="url(#paint1_linear_6039_1122)" stroke-opacity="0.7"/>
<path d="M33.4171 65L33.6586 63.6364C33.7296 63.2339 33.874 62.8101 34.0918 62.3651C34.3143 61.92 34.5937 61.4938 34.9299 61.0866C35.2708 60.6795 35.6496 60.3314 36.0662 60.0426L36.9753 60.7955C36.6297 61.2169 36.3148 61.6572 36.0307 62.1165C35.7466 62.5758 35.562 63.0753 35.4767 63.6151L35.2353 65H33.4171ZM37.0392 65L37.2807 63.6364C37.3517 63.2339 37.4962 62.8101 37.714 62.3651C37.9365 61.92 38.2159 61.4938 38.552 61.0866C38.8929 60.6795 39.2717 60.3314 39.6884 60.0426L40.5975 60.7955C40.2518 61.2169 39.937 61.6572 39.6529 62.1165C39.3688 62.5758 39.1841 63.0753 39.0989 63.6151L38.8574 65H37.0392ZM44.8588 60.4545L42.4441 75H40.2495L42.6642 60.4545H44.8588ZM52.3801 64.0909L52.1032 65.7955H46.1444L46.4213 64.0909H52.3801ZM48.4455 61.4773H50.5691L48.8503 71.7969C48.784 72.2088 48.7959 72.5189 48.8858 72.7273C48.9758 72.9309 49.1131 73.0705 49.2978 73.1463C49.4872 73.2173 49.6979 73.2528 49.9299 73.2528C50.1003 73.2528 50.2495 73.241 50.3773 73.2173C50.5051 73.1937 50.6069 73.1747 50.6827 73.1605L50.7963 74.9148C50.6543 74.9621 50.4625 75.0095 50.2211 75.0568C49.9843 75.1089 49.6955 75.1373 49.3546 75.142C48.7959 75.1515 48.2916 75.0521 47.8418 74.8438C47.392 74.6307 47.0558 74.3087 46.8333 73.8778C46.6107 73.4422 46.5563 72.8954 46.6699 72.2372L48.4455 61.4773ZM57.698 60.4545L57.4849 61.8182C57.4186 62.2206 57.2718 62.6444 57.0446 63.0895C56.822 63.5298 56.5403 63.9536 56.1994 64.3608C55.8632 64.768 55.4915 65.1184 55.0843 65.4119L54.1468 64.6591C54.4925 64.2519 54.805 63.8187 55.0843 63.3594C55.3637 62.9001 55.5507 62.3935 55.6454 61.8395L55.8798 60.4545H57.698ZM65.5105 66.7543L63.5289 67.0952C63.4863 66.8442 63.3987 66.6075 63.2662 66.3849C63.1383 66.1624 62.9418 65.9825 62.6767 65.8452C62.4115 65.7031 62.0588 65.6321 61.6184 65.6321C61.0076 65.6321 60.4726 65.7718 60.0133 66.0511C59.5588 66.3305 59.2984 66.6856 59.2321 67.1165C59.1705 67.4669 59.2534 67.7509 59.4806 67.9688C59.7079 68.1818 60.108 68.3594 60.6809 68.5014L62.3571 68.8991C63.323 69.1312 64.0143 69.4934 64.4309 69.9858C64.8523 70.4735 64.9991 71.108 64.8713 71.8892C64.7624 72.5379 64.4783 73.1132 64.019 73.6151C63.5645 74.117 62.9821 74.5099 62.2718 74.794C61.5616 75.0781 60.7709 75.2202 59.8997 75.2202C58.6592 75.2202 57.6932 74.9574 57.002 74.4318C56.3107 73.9063 55.9556 73.1629 55.9366 72.2017L58.0389 71.8892C58.0768 72.4242 58.2685 72.8291 58.6142 73.1037C58.9645 73.3736 59.4499 73.5085 60.0701 73.5085C60.7804 73.5133 61.3746 73.3641 61.8528 73.0611C62.331 72.758 62.6033 72.3911 62.6696 71.9602C62.7264 71.6241 62.6506 71.3447 62.4423 71.1222C62.2387 70.8996 61.8788 70.7292 61.3627 70.6108L59.6014 70.206C58.6165 69.974 57.9205 69.5999 57.5133 69.0838C57.1061 68.5677 56.9688 67.919 57.1014 67.1378C57.2056 66.4986 57.4754 65.9422 57.911 65.4688C58.3514 64.9905 58.9077 64.6188 59.5801 64.3537C60.2524 64.0838 60.9958 63.9489 61.8102 63.9489C62.9986 63.9489 63.8912 64.2045 64.4877 64.7159C65.0843 65.2225 65.4252 65.902 65.5105 66.7543ZM76.7534 60.4545L74.3386 75H72.144L74.5588 60.4545H76.7534ZM77.3713 75L79.1895 64.0909H81.2278L80.9295 65.8665H81.0645C81.3959 65.2652 81.8457 64.7964 82.4139 64.4602C82.9868 64.1193 83.6355 63.9489 84.3599 63.9489C85.0796 63.9489 85.6596 64.1193 86.1 64.4602C86.545 64.8011 86.8362 65.2699 86.9735 65.8665H87.0872C87.4376 65.2794 87.9276 64.813 88.5574 64.4673C89.1871 64.1217 89.8949 63.9489 90.6809 63.9489C91.661 63.9489 92.4139 64.2614 92.9395 64.8864C93.4698 65.5066 93.6307 66.4394 93.4224 67.6847L92.2008 75H90.0701L91.2633 67.8835C91.3817 67.1402 91.2681 66.6051 90.9224 66.2784C90.5768 65.947 90.1246 65.7812 89.5659 65.7812C88.8746 65.7812 88.3017 65.9943 87.8471 66.4205C87.3926 66.8419 87.1132 67.384 87.0091 68.0469L85.8372 75H83.7278L84.9423 67.7486C85.037 67.152 84.9281 66.6761 84.6156 66.321C84.3078 65.9612 83.858 65.7812 83.2662 65.7812C82.8637 65.7812 82.4731 65.8878 82.0943 66.1009C81.7202 66.3139 81.4006 66.6075 81.1355 66.9815C80.8703 67.3556 80.6975 67.7865 80.617 68.2741L79.4949 75H77.3713ZM94.3652 79.0909L96.8794 64.0909H98.9533L98.6621 65.8594H98.8397C99.0007 65.6321 99.2185 65.3693 99.4931 65.071C99.7724 64.7727 100.139 64.5123 100.594 64.2898C101.048 64.0625 101.614 63.9489 102.291 63.9489C103.172 63.9489 103.918 64.1714 104.529 64.6165C105.139 65.0616 105.575 65.7031 105.835 66.5412C106.096 67.3793 106.129 68.3878 105.935 69.5668C105.741 70.7457 105.376 71.7566 104.841 72.5994C104.306 73.4375 103.657 74.0838 102.895 74.5384C102.137 74.9882 101.316 75.2131 100.431 75.2131C99.7677 75.2131 99.2445 75.1018 98.861 74.8793C98.4822 74.6567 98.2005 74.3963 98.0158 74.098C97.8311 73.7997 97.6915 73.5346 97.5968 73.3026H97.4689L96.503 79.0909H94.3652ZM98.0513 69.5455C97.9282 70.3125 97.9282 70.9848 98.0513 71.5625C98.1744 72.1402 98.4206 72.5923 98.79 72.919C99.164 73.241 99.6564 73.402 100.267 73.402C100.902 73.402 101.458 73.2339 101.936 72.8977C102.414 72.5568 102.81 72.0952 103.122 71.5128C103.44 70.9304 103.66 70.2746 103.783 69.5455C103.901 68.8258 103.899 68.1795 103.776 67.6065C103.657 67.0336 103.414 66.5814 103.044 66.25C102.675 65.9186 102.171 65.7528 101.531 65.7528C100.911 65.7528 100.362 65.9115 99.8837 66.2287C99.4102 66.5459 99.0172 66.9886 98.7047 67.5568C98.3922 68.125 98.1744 68.7879 98.0513 69.5455ZM112.048 75.2202C111.011 75.2202 110.145 74.9834 109.449 74.5099C108.753 74.0317 108.263 73.3641 107.979 72.5071C107.699 71.6454 107.652 70.6439 107.836 69.5028C108.016 68.3854 108.379 67.41 108.923 66.5767C109.472 65.7434 110.159 65.0971 110.983 64.6378C111.811 64.1785 112.732 63.9489 113.746 63.9489C114.782 63.9489 115.647 64.188 116.338 64.6662C117.034 65.1444 117.524 65.8144 117.808 66.6761C118.092 67.5379 118.142 68.5417 117.957 69.6875C117.777 70.7955 117.41 71.7661 116.856 72.5994C116.307 73.428 115.621 74.072 114.797 74.5312C113.973 74.9905 113.057 75.2202 112.048 75.2202ZM112.169 73.4375C112.851 73.4375 113.445 73.2576 113.952 72.8977C114.463 72.5379 114.88 72.0597 115.202 71.4631C115.523 70.8665 115.744 70.2131 115.862 69.5028C115.971 68.8163 115.969 68.1889 115.855 67.6207C115.746 67.0478 115.509 66.5885 115.145 66.2429C114.78 65.8973 114.273 65.7244 113.625 65.7244C112.943 65.7244 112.344 65.9067 111.828 66.2713C111.317 66.6312 110.9 67.1117 110.578 67.7131C110.261 68.3144 110.045 68.9702 109.932 69.6804C109.823 70.3622 109.823 70.9896 109.932 71.5625C110.041 72.1307 110.277 72.5852 110.642 72.9261C111.006 73.267 111.515 73.4375 112.169 73.4375ZM119.454 75L121.272 64.0909H123.325L123.034 65.8239H123.147C123.441 65.2367 123.869 64.7751 124.433 64.4389C124.996 64.098 125.597 63.9276 126.237 63.9276C126.374 63.9276 126.53 63.9323 126.705 63.9418C126.881 63.9465 127.023 63.9583 127.132 63.9773L126.791 66.0085C126.71 65.9848 126.563 65.9588 126.35 65.9304C126.137 65.8973 125.917 65.8807 125.69 65.8807C125.193 65.8807 124.731 65.9872 124.305 66.2003C123.879 66.4086 123.521 66.6998 123.232 67.0739C122.944 67.4432 122.757 67.8646 122.671 68.3381L121.578 75H119.454ZM134.724 64.0909L134.447 65.7955H128.488L128.765 64.0909H134.724ZM130.789 61.4773H132.913L131.194 71.7969C131.128 72.2088 131.14 72.5189 131.23 72.7273C131.32 72.9309 131.457 73.0705 131.642 73.1463C131.831 73.2173 132.042 73.2528 132.274 73.2528C132.444 73.2528 132.593 73.241 132.721 73.2173C132.849 73.1937 132.951 73.1747 133.026 73.1605L133.14 74.9148C132.998 74.9621 132.806 75.0095 132.565 75.0568C132.328 75.1089 132.039 75.1373 131.698 75.142C131.14 75.1515 130.635 75.0521 130.186 74.8438C129.736 74.6307 129.4 74.3087 129.177 73.8778C128.954 73.4422 128.9 72.8954 129.014 72.2372L130.789 61.4773ZM138.401 75.2415C137.71 75.2415 137.106 75.1136 136.59 74.858C136.074 74.5975 135.693 74.2211 135.447 73.7287C135.2 73.2363 135.136 72.6326 135.255 71.9176C135.359 71.3021 135.563 70.7955 135.866 70.3977C136.173 70 136.547 69.6851 136.988 69.4531C137.428 69.2164 137.906 69.0388 138.422 68.9205C138.939 68.8021 139.459 68.7145 139.985 68.6577C140.648 68.5819 141.185 68.518 141.597 68.4659C142.014 68.4138 142.326 68.3333 142.535 68.2244C142.743 68.1108 142.868 67.9261 142.911 67.6705V67.6207C143.01 67.0052 142.921 66.527 142.641 66.1861C142.367 65.8404 141.888 65.6676 141.206 65.6676C140.496 65.6676 139.9 65.8239 139.417 66.1364C138.939 66.4489 138.586 66.7992 138.358 67.1875L136.455 66.733C136.796 66.0701 137.229 65.535 137.755 65.1278C138.285 64.7159 138.865 64.4176 139.495 64.233C140.125 64.0436 140.769 63.9489 141.427 63.9489C141.862 63.9489 142.314 64.0009 142.783 64.1051C143.252 64.2045 143.678 64.3892 144.062 64.6591C144.45 64.929 144.739 65.3149 144.928 65.8168C145.117 66.3139 145.146 66.9602 145.013 67.7557L143.813 75H141.739L141.995 73.5085H141.91C141.73 73.7831 141.479 74.053 141.157 74.3182C140.84 74.5833 140.451 74.8035 139.992 74.9787C139.533 75.1539 139.002 75.2415 138.401 75.2415ZM139.126 73.5369C139.717 73.5369 140.241 73.4209 140.695 73.1889C141.154 72.9569 141.526 72.6539 141.81 72.2798C142.094 71.901 142.272 71.4962 142.343 71.0653L142.577 69.6591C142.487 69.7348 142.329 69.8035 142.101 69.8651C141.879 69.9266 141.628 69.9811 141.349 70.0284C141.069 70.0758 140.795 70.116 140.525 70.1491C140.26 70.1823 140.039 70.2131 139.864 70.2415C139.448 70.2936 139.057 70.3812 138.692 70.5043C138.332 70.6274 138.032 70.8049 137.79 71.0369C137.549 71.2642 137.397 71.5672 137.336 71.946C137.251 72.4716 137.376 72.8693 137.712 73.1392C138.053 73.4044 138.524 73.5369 139.126 73.5369ZM149.838 68.5227L148.772 75H146.649L148.467 64.0909H150.505L150.207 65.8665H150.342C150.687 65.2841 151.159 64.8201 151.755 64.4744C152.356 64.1241 153.067 63.9489 153.886 63.9489C154.624 63.9489 155.245 64.1051 155.747 64.4176C156.253 64.7254 156.611 65.1847 156.819 65.7955C157.032 66.4062 157.065 67.1615 156.919 68.0611L155.754 75H153.63L154.745 68.3168C154.873 67.526 154.769 66.9081 154.433 66.4631C154.101 66.0133 153.573 65.7884 152.849 65.7884C152.356 65.7884 151.9 65.8949 151.478 66.108C151.061 66.321 150.709 66.6335 150.42 67.0455C150.136 67.4527 149.942 67.9451 149.838 68.5227ZM165.505 64.0909L165.228 65.7955H159.269L159.546 64.0909H165.505ZM161.57 61.4773H163.694L161.975 71.7969C161.909 72.2088 161.921 72.5189 162.011 72.7273C162.101 72.9309 162.238 73.0705 162.423 73.1463C162.612 73.2173 162.823 73.2528 163.055 73.2528C163.225 73.2528 163.374 73.241 163.502 73.2173C163.63 73.1937 163.732 73.1747 163.808 73.1605L163.921 74.9148C163.779 74.9621 163.588 75.0095 163.346 75.0568C163.109 75.1089 162.82 75.1373 162.48 75.142C161.921 75.1515 161.417 75.0521 160.967 74.8438C160.517 74.6307 160.181 74.3087 159.958 73.8778C159.736 73.4422 159.681 72.8954 159.795 72.2372L161.57 61.4773ZM172.884 62.3438L173.197 60.4545H184.454L184.142 62.3438H179.603L177.501 75H175.313L177.416 62.3438H172.884ZM187.419 75.2202C186.382 75.2202 185.516 74.9834 184.82 74.5099C184.124 74.0317 183.634 73.3641 183.35 72.5071C183.07 71.6454 183.023 70.6439 183.208 69.5028C183.387 68.3854 183.75 67.41 184.294 66.5767C184.843 65.7434 185.53 65.0971 186.354 64.6378C187.182 64.1785 188.103 63.9489 189.117 63.9489C190.154 63.9489 191.018 64.188 191.709 64.6662C192.405 65.1444 192.895 65.8144 193.179 66.6761C193.463 67.5379 193.513 68.5417 193.328 69.6875C193.148 70.7955 192.781 71.7661 192.227 72.5994C191.678 73.428 190.992 74.072 190.168 74.5312C189.344 74.9905 188.428 75.2202 187.419 75.2202ZM187.54 73.4375C188.222 73.4375 188.816 73.2576 189.323 72.8977C189.834 72.5379 190.251 72.0597 190.573 71.4631C190.895 70.8665 191.115 70.2131 191.233 69.5028C191.342 68.8163 191.34 68.1889 191.226 67.6207C191.117 67.0478 190.88 66.5885 190.516 66.2429C190.151 65.8973 189.645 65.7244 188.996 65.7244C188.314 65.7244 187.715 65.9067 187.199 66.2713C186.688 66.6312 186.271 67.1117 185.949 67.7131C185.632 68.3144 185.416 68.9702 185.303 69.6804C185.194 70.3622 185.194 70.9896 185.303 71.5625C185.412 72.1307 185.648 72.5852 186.013 72.9261C186.378 73.267 186.887 73.4375 187.54 73.4375ZM200.289 75L202.703 60.4545H207.888C209.015 60.4545 209.917 60.6487 210.594 61.0369C211.276 61.4205 211.744 61.9555 212 62.642C212.261 63.3239 212.317 64.1146 212.171 65.0142C212.019 65.9044 211.7 66.6856 211.212 67.358C210.729 68.0303 210.083 68.5559 209.273 68.9347C208.468 69.3087 207.502 69.4957 206.375 69.4957H202.448L202.774 67.6065H206.503C207.218 67.6065 207.815 67.5047 208.293 67.3011C208.771 67.0975 209.145 66.8016 209.415 66.4134C209.69 66.0251 209.869 65.5587 209.955 65.0142C210.045 64.4602 210.019 63.9844 209.877 63.5866C209.735 63.1842 209.458 62.8764 209.046 62.6634C208.634 62.4455 208.068 62.3366 207.348 62.3366H204.593L202.483 75H200.289ZM208.556 68.4375L211.063 75H208.563L206.119 68.4375H208.556ZM217.604 75.2202C216.534 75.2202 215.648 74.9905 214.948 74.5312C214.252 74.0672 213.764 73.4162 213.485 72.5781C213.205 71.7353 213.16 70.7481 213.35 69.6165C213.534 68.4991 213.906 67.5142 214.465 66.6619C215.023 65.8097 215.719 65.1444 216.553 64.6662C217.391 64.188 218.316 63.9489 219.33 63.9489C219.945 63.9489 220.525 64.0507 221.07 64.2543C221.619 64.4579 222.085 64.7775 222.469 65.2131C222.852 65.6487 223.118 66.2145 223.264 66.9105C223.416 67.6018 223.411 68.4422 223.25 69.4318L223.129 70.1847H214.45L214.699 68.5938H221.29C221.389 68.035 221.363 67.5402 221.212 67.1094C221.06 66.6738 220.8 66.3305 220.431 66.0795C220.066 65.8286 219.607 65.7031 219.053 65.7031C218.485 65.7031 217.954 65.8523 217.462 66.1506C216.969 66.4489 216.557 66.83 216.226 67.294C215.899 67.7533 215.693 68.2268 215.608 68.7145L215.36 70.1705C215.236 70.9659 215.258 71.6051 215.423 72.0881C215.594 72.571 215.892 72.9214 216.318 73.1392C216.744 73.357 217.277 73.4659 217.916 73.4659C218.328 73.4659 218.709 73.4091 219.06 73.2955C219.415 73.1771 219.73 73.0043 220.004 72.777C220.279 72.545 220.509 72.2562 220.693 71.9105L222.639 72.2727C222.379 72.8646 222.005 73.383 221.517 73.8281C221.03 74.2685 220.454 74.6117 219.791 74.858C219.133 75.0994 218.404 75.2202 217.604 75.2202ZM224.715 75L226.533 64.0909H228.572L228.273 65.8665H228.408C228.74 65.2652 229.189 64.7964 229.758 64.4602C230.331 64.1193 230.979 63.9489 231.704 63.9489C232.423 63.9489 233.003 64.1193 233.444 64.4602C233.889 64.8011 234.18 65.2699 234.317 65.8665H234.431C234.781 65.2794 235.271 64.813 235.901 64.4673C236.531 64.1217 237.239 63.9489 238.025 63.9489C239.005 63.9489 239.758 64.2614 240.283 64.8864C240.814 65.5066 240.974 66.4394 240.766 67.6847L239.545 75H237.414L238.607 67.8835C238.725 67.1402 238.612 66.6051 238.266 66.2784C237.921 65.947 237.468 65.7812 236.91 65.7812C236.218 65.7812 235.645 65.9943 235.191 66.4205C234.736 66.8419 234.457 67.384 234.353 68.0469L233.181 75H231.072L232.286 67.7486C232.381 67.152 232.272 66.6761 231.959 66.321C231.652 65.9612 231.202 65.7812 230.61 65.7812C230.207 65.7812 229.817 65.8878 229.438 66.1009C229.064 66.3139 228.744 66.6075 228.479 66.9815C228.214 67.3556 228.041 67.7865 227.961 68.2741L226.839 75H224.715ZM247.057 75.2202C245.987 75.2202 245.102 74.9905 244.401 74.5312C243.705 74.0672 243.217 73.4162 242.938 72.5781C242.658 71.7353 242.613 70.7481 242.803 69.6165C242.987 68.4991 243.359 67.5142 243.918 66.6619C244.477 65.8097 245.173 65.1444 246.006 64.6662C246.844 64.188 247.77 63.9489 248.783 63.9489C249.398 63.9489 249.978 64.0507 250.523 64.2543C251.072 64.4579 251.539 64.7775 251.922 65.2131C252.306 65.6487 252.571 66.2145 252.718 66.9105C252.869 67.6018 252.864 68.4422 252.703 69.4318L252.583 70.1847H243.904L244.152 68.5938H250.743C250.843 68.035 250.816 67.5402 250.665 67.1094C250.513 66.6738 250.253 66.3305 249.884 66.0795C249.519 65.8286 249.06 65.7031 248.506 65.7031C247.938 65.7031 247.407 65.8523 246.915 66.1506C246.423 66.4489 246.011 66.83 245.679 67.294C245.352 67.7533 245.146 68.2268 245.061 68.7145L244.813 70.1705C244.69 70.9659 244.711 71.6051 244.877 72.0881C245.047 72.571 245.345 72.9214 245.771 73.1392C246.198 73.357 246.73 73.4659 247.369 73.4659C247.781 73.4659 248.163 73.4091 248.513 73.2955C248.868 73.1771 249.183 73.0043 249.458 72.777C249.732 72.545 249.962 72.2562 250.146 71.9105L252.093 72.2727C251.832 72.8646 251.458 73.383 250.97 73.8281C250.483 74.2685 249.907 74.6117 249.244 74.858C248.586 75.0994 247.857 75.2202 247.057 75.2202ZM254.168 75L255.986 64.0909H258.025L257.726 65.8665H257.861C258.193 65.2652 258.643 64.7964 259.211 64.4602C259.784 64.1193 260.432 63.9489 261.157 63.9489C261.876 63.9489 262.456 64.1193 262.897 64.4602C263.342 64.8011 263.633 65.2699 263.77 65.8665H263.884C264.234 65.2794 264.724 64.813 265.354 64.4673C265.984 64.1217 266.692 63.9489 267.478 63.9489C268.458 63.9489 269.211 64.2614 269.736 64.8864C270.267 65.5066 270.428 66.4394 270.219 67.6847L268.998 75H266.867L268.06 67.8835C268.179 67.1402 268.065 66.6051 267.719 66.2784C267.374 65.947 266.921 65.7812 266.363 65.7812C265.671 65.7812 265.099 65.9943 264.644 66.4205C264.189 66.8419 263.91 67.384 263.806 68.0469L262.634 75H260.525L261.739 67.7486C261.834 67.152 261.725 66.6761 261.412 66.321C261.105 65.9612 260.655 65.7812 260.063 65.7812C259.661 65.7812 259.27 65.8878 258.891 66.1009C258.517 66.3139 258.198 66.6075 257.932 66.9815C257.667 67.3556 257.494 67.7865 257.414 68.2741L256.292 75H254.168ZM272.007 75L274.422 60.4545H276.546L275.658 65.8594H275.786C275.947 65.6321 276.167 65.3693 276.446 65.071C276.73 64.7727 277.097 64.5123 277.547 64.2898C277.997 64.0625 278.56 63.9489 279.237 63.9489C280.118 63.9489 280.866 64.1714 281.482 64.6165C282.097 65.0616 282.533 65.7031 282.789 66.5412C283.044 67.3793 283.075 68.3878 282.881 69.5668C282.687 70.7457 282.322 71.7566 281.787 72.5994C281.257 73.4375 280.61 74.0838 279.848 74.5384C279.086 74.9882 278.264 75.2131 277.384 75.2131C276.721 75.2131 276.198 75.1018 275.814 74.8793C275.435 74.6567 275.151 74.3963 274.962 74.098C274.777 73.7997 274.637 73.5346 274.543 73.3026H274.365L274.081 75H272.007ZM274.997 69.5455C274.874 70.3125 274.874 70.9848 274.997 71.5625C275.125 72.1402 275.374 72.5923 275.743 72.919C276.117 73.241 276.607 73.402 277.213 73.402C277.848 73.402 278.406 73.2339 278.889 72.8977C279.372 72.5568 279.77 72.0952 280.083 71.5128C280.395 70.9304 280.613 70.2746 280.736 69.5455C280.85 68.8258 280.847 68.1795 280.729 67.6065C280.61 67.0336 280.364 66.5814 279.99 66.25C279.621 65.9186 279.117 65.7528 278.477 65.7528C277.862 65.7528 277.315 65.9115 276.837 66.2287C276.359 66.5459 275.963 66.9886 275.651 67.5568C275.338 68.125 275.12 68.7879 274.997 69.5455ZM289.03 75.2202C287.96 75.2202 287.074 74.9905 286.373 74.5312C285.677 74.0672 285.19 73.4162 284.91 72.5781C284.631 71.7353 284.586 70.7481 284.775 69.6165C284.96 68.4991 285.332 67.5142 285.89 66.6619C286.449 65.8097 287.145 65.1444 287.979 64.6662C288.817 64.188 289.742 63.9489 290.756 63.9489C291.371 63.9489 291.951 64.0507 292.496 64.2543C293.045 64.4579 293.511 64.7775 293.895 65.2131C294.278 65.6487 294.543 66.2145 294.69 66.9105C294.842 67.6018 294.837 68.4422 294.676 69.4318L294.555 70.1847H285.876L286.125 68.5938H292.716C292.815 68.035 292.789 67.5402 292.638 67.1094C292.486 66.6738 292.226 66.3305 291.856 66.0795C291.492 65.8286 291.032 65.7031 290.479 65.7031C289.91 65.7031 289.38 65.8523 288.888 66.1506C288.395 66.4489 287.983 66.83 287.652 67.294C287.325 67.7533 287.119 68.2268 287.034 68.7145L286.785 70.1705C286.662 70.9659 286.684 71.6051 286.849 72.0881C287.02 72.571 287.318 72.9214 287.744 73.1392C288.17 73.357 288.703 73.4659 289.342 73.4659C289.754 73.4659 290.135 73.4091 290.486 73.2955C290.841 73.1771 291.156 73.0043 291.43 72.777C291.705 72.545 291.934 72.2562 292.119 71.9105L294.065 72.2727C293.805 72.8646 293.431 73.383 292.943 73.8281C292.455 74.2685 291.88 74.6117 291.217 74.858C290.559 75.0994 289.83 75.2202 289.03 75.2202ZM296.134 75L297.952 64.0909H300.004L299.713 65.8239H299.827C300.12 65.2367 300.549 64.7751 301.112 64.4389C301.676 64.098 302.277 63.9276 302.916 63.9276C303.054 63.9276 303.21 63.9323 303.385 63.9418C303.56 63.9465 303.702 63.9583 303.811 63.9773L303.47 66.0085C303.39 65.9848 303.243 65.9588 303.03 65.9304C302.817 65.8973 302.597 65.8807 302.369 65.8807C301.872 65.8807 301.411 65.9872 300.985 66.2003C300.558 66.4086 300.201 66.6998 299.912 67.0739C299.623 67.4432 299.436 67.8646 299.351 68.3381L298.257 75H296.134ZM33.6515 94.4545H36.1444L38.8574 101.067H39.0208L43.9 94.4545H46.3929L39.6529 103.29L38.7012 109H36.5137L37.4583 103.29L33.6515 94.4545ZM48.7278 109.22C47.6909 109.22 46.8244 108.983 46.1284 108.51C45.4324 108.032 44.9423 107.364 44.6582 106.507C44.3788 105.645 44.3315 104.644 44.5162 103.503C44.6961 102.385 45.0583 101.41 45.6028 100.577C46.152 99.7434 46.8386 99.0971 47.6625 98.6378C48.4911 98.1785 49.412 97.9489 50.4252 97.9489C51.4622 97.9489 52.3263 98.188 53.0176 98.6662C53.7136 99.1444 54.2037 99.8144 54.4877 100.676C54.7718 101.538 54.8216 102.542 54.6369 103.688C54.457 104.795 54.09 105.766 53.536 106.599C52.9868 107.428 52.3002 108.072 51.4764 108.531C50.6525 108.991 49.7363 109.22 48.7278 109.22ZM48.8485 107.438C49.5304 107.438 50.1246 107.258 50.6312 106.898C51.1426 106.538 51.5592 106.06 51.8812 105.463C52.2032 104.866 52.4234 104.213 52.5417 103.503C52.6506 102.816 52.6483 102.189 52.5346 101.621C52.4257 101.048 52.189 100.589 51.8244 100.243C51.4598 99.8973 50.9532 99.7244 50.3045 99.7244C49.6227 99.7244 49.0237 99.9067 48.5076 100.271C47.9963 100.631 47.5796 101.112 47.2576 101.713C46.9404 102.314 46.725 102.97 46.6113 103.68C46.5024 104.362 46.5024 104.99 46.6113 105.562C46.7202 106.131 46.957 106.585 47.3216 106.926C47.6861 107.267 48.1951 107.438 48.8485 107.438ZM63.7971 104.476L64.8624 98.0909H66.9931L65.1749 109H63.0868L63.4064 107.111H63.2928C62.9519 107.693 62.4689 108.179 61.8439 108.567C61.2237 108.95 60.504 109.142 59.6848 109.142C58.9841 109.142 58.3899 108.988 57.9022 108.68C57.4192 108.368 57.0759 107.906 56.8723 107.295C56.6687 106.685 56.6403 105.929 56.7871 105.03L57.9519 98.0909H60.0755L58.9604 104.774C58.842 105.518 58.9533 106.109 59.2942 106.55C59.6351 106.99 60.1323 107.21 60.7857 107.21C61.1834 107.21 61.5953 107.111 62.0215 106.912C62.4476 106.713 62.824 106.412 63.1507 106.01C63.4822 105.607 63.6976 105.096 63.7971 104.476ZM68.0282 109L69.8464 98.0909H71.899L71.6078 99.8239H71.7214C72.015 99.2367 72.4435 98.7751 73.0069 98.4389C73.5704 98.098 74.1717 97.9276 74.8109 97.9276C74.9482 97.9276 75.1045 97.9323 75.2797 97.9418C75.4548 97.9465 75.5969 97.9583 75.7058 97.9773L75.3649 100.009C75.2844 99.9848 75.1376 99.9588 74.9245 99.9304C74.7115 99.8973 74.4913 99.8807 74.264 99.8807C73.7669 99.8807 73.3052 99.9872 72.8791 100.2C72.4529 100.409 72.0955 100.7 71.8066 101.074C71.5178 101.443 71.3308 101.865 71.2456 102.338L70.1518 109H68.0282ZM94.8997 99.1847H92.7264C92.7169 98.7112 92.6293 98.2945 92.4636 97.9347C92.2979 97.5701 92.0706 97.2647 91.7818 97.0185C91.4977 96.7675 91.1639 96.5781 90.7804 96.4503C90.3968 96.3224 89.9825 96.2585 89.5375 96.2585C88.6805 96.2585 87.8755 96.4763 87.1227 96.9119C86.3699 97.3475 85.7283 97.982 85.198 98.8153C84.6677 99.6487 84.3031 100.664 84.1042 101.862C83.9101 103.027 83.9338 104.005 84.1752 104.795C84.4167 105.586 84.8239 106.185 85.3968 106.592C85.9745 106.995 86.6681 107.196 87.4778 107.196C87.9513 107.196 88.4129 107.134 88.8627 107.011C89.3173 106.884 89.7387 106.696 90.127 106.45C90.5152 106.204 90.8585 105.903 91.1568 105.548C91.4598 105.188 91.6966 104.777 91.867 104.312H94.0687C93.832 105.032 93.4982 105.69 93.0673 106.287C92.6364 106.884 92.1274 107.4 91.5403 107.835C90.9532 108.271 90.3092 108.607 89.6085 108.844C88.9077 109.08 88.1667 109.199 87.3855 109.199C86.1023 109.199 85.0086 108.893 84.1042 108.283C83.2046 107.667 82.5583 106.791 82.1653 105.655C81.777 104.518 81.7108 103.164 81.9664 101.592C82.2269 100.063 82.724 98.7514 83.4579 97.6577C84.1966 96.5592 85.0962 95.7187 86.1568 95.1364C87.2221 94.5492 88.3727 94.2557 89.6085 94.2557C90.3897 94.2557 91.1047 94.367 91.7534 94.5895C92.402 94.8073 92.9608 95.1293 93.4295 95.5554C93.903 95.9768 94.2676 96.4929 94.5233 97.1037C94.7789 97.7098 94.9044 98.4034 94.8997 99.1847ZM100.388 109.22C99.351 109.22 98.4846 108.983 97.7885 108.51C97.0925 108.032 96.6025 107.364 96.3184 106.507C96.039 105.645 95.9917 104.644 96.1763 103.503C96.3562 102.385 96.7185 101.41 97.263 100.577C97.8122 99.7434 98.4988 99.0971 99.3226 98.6378C100.151 98.1785 101.072 97.9489 102.085 97.9489C103.122 97.9489 103.986 98.188 104.678 98.6662C105.374 99.1444 105.864 99.8144 106.148 100.676C106.432 101.538 106.482 102.542 106.297 103.688C106.117 104.795 105.75 105.766 105.196 106.599C104.647 107.428 103.96 108.072 103.137 108.531C102.313 108.991 101.396 109.22 100.388 109.22ZM100.509 107.438C101.191 107.438 101.785 107.258 102.291 106.898C102.803 106.538 103.219 106.06 103.541 105.463C103.863 104.866 104.084 104.213 104.202 103.503C104.311 102.816 104.308 102.189 104.195 101.621C104.086 101.048 103.849 100.589 103.485 100.243C103.12 99.8973 102.613 99.7244 101.965 99.7244C101.283 99.7244 100.684 99.9067 100.168 100.271C99.6564 100.631 99.2398 101.112 98.9178 101.713C98.6006 102.314 98.3851 102.97 98.2715 103.68C98.1626 104.362 98.1626 104.99 98.2715 105.562C98.3804 106.131 98.6171 106.585 98.9817 106.926C99.3463 107.267 99.8553 107.438 100.509 107.438ZM107.801 109L109.619 98.0909H111.657L111.359 99.8665H111.494C111.826 99.2652 112.275 98.7964 112.844 98.4602C113.416 98.1193 114.065 97.9489 114.79 97.9489C115.509 97.9489 116.089 98.1193 116.53 98.4602C116.975 98.8011 117.266 99.2699 117.403 99.8665H117.517C117.867 99.2794 118.357 98.813 118.987 98.4673C119.617 98.1217 120.325 97.9489 121.111 97.9489C122.091 97.9489 122.844 98.2614 123.369 98.8864C123.899 99.5066 124.06 100.439 123.852 101.685L122.631 109H120.5L121.693 101.884C121.811 101.14 121.698 100.605 121.352 100.278C121.006 99.947 120.554 99.7812 119.996 99.7812C119.304 99.7812 118.731 99.9943 118.277 100.42C117.822 100.842 117.543 101.384 117.439 102.047L116.267 109H114.157L115.372 101.749C115.467 101.152 115.358 100.676 115.045 100.321C114.738 99.9612 114.288 99.7812 113.696 99.7812C113.293 99.7812 112.903 99.8878 112.524 100.101C112.15 100.314 111.83 100.607 111.565 100.982C111.3 101.356 111.127 101.786 111.047 102.274L109.925 109H107.801ZM124.795 113.091L127.309 98.0909H129.383L129.092 99.8594H129.269C129.43 99.6321 129.648 99.3693 129.923 99.071C130.202 98.7727 130.569 98.5123 131.024 98.2898C131.478 98.0625 132.044 97.9489 132.721 97.9489C133.602 97.9489 134.347 98.1714 134.958 98.6165C135.569 99.0616 136.005 99.7031 136.265 100.541C136.526 101.379 136.559 102.388 136.365 103.567C136.17 104.746 135.806 105.757 135.271 106.599C134.736 107.437 134.087 108.084 133.325 108.538C132.567 108.988 131.746 109.213 130.86 109.213C130.197 109.213 129.674 109.102 129.291 108.879C128.912 108.657 128.63 108.396 128.445 108.098C128.261 107.8 128.121 107.535 128.026 107.303H127.899L126.933 113.091H124.795ZM128.481 103.545C128.358 104.312 128.358 104.985 128.481 105.562C128.604 106.14 128.85 106.592 129.22 106.919C129.594 107.241 130.086 107.402 130.697 107.402C131.331 107.402 131.888 107.234 132.366 106.898C132.844 106.557 133.24 106.095 133.552 105.513C133.869 104.93 134.089 104.275 134.213 103.545C134.331 102.826 134.329 102.179 134.205 101.607C134.087 101.034 133.843 100.581 133.474 100.25C133.105 99.9186 132.6 99.7528 131.961 99.7528C131.341 99.7528 130.792 99.9115 130.313 100.229C129.84 100.546 129.447 100.989 129.134 101.557C128.822 102.125 128.604 102.788 128.481 103.545ZM142.506 109.22C141.436 109.22 140.551 108.991 139.85 108.531C139.154 108.067 138.666 107.416 138.387 106.578C138.108 105.735 138.063 104.748 138.252 103.616C138.437 102.499 138.808 101.514 139.367 100.662C139.926 99.8097 140.622 99.1444 141.455 98.6662C142.293 98.188 143.219 97.9489 144.232 97.9489C144.848 97.9489 145.428 98.0507 145.972 98.2543C146.521 98.4579 146.988 98.7775 147.371 99.2131C147.755 99.6487 148.02 100.214 148.167 100.911C148.318 101.602 148.314 102.442 148.153 103.432L148.032 104.185H139.353L139.601 102.594H146.192C146.292 102.035 146.266 101.54 146.114 101.109C145.963 100.674 145.702 100.33 145.333 100.08C144.968 99.8286 144.509 99.7031 143.955 99.7031C143.387 99.7031 142.857 99.8523 142.364 100.151C141.872 100.449 141.46 100.83 141.128 101.294C140.802 101.753 140.596 102.227 140.51 102.714L140.262 104.17C140.139 104.966 140.16 105.605 140.326 106.088C140.496 106.571 140.795 106.921 141.221 107.139C141.647 107.357 142.18 107.466 142.819 107.466C143.231 107.466 143.612 107.409 143.962 107.295C144.317 107.177 144.632 107.004 144.907 106.777C145.181 106.545 145.411 106.256 145.596 105.911L147.542 106.273C147.281 106.865 146.907 107.383 146.42 107.828C145.932 108.268 145.357 108.612 144.694 108.858C144.036 109.099 143.306 109.22 142.506 109.22ZM156.521 98.0909L156.244 99.7955H150.285L150.562 98.0909H156.521ZM152.586 95.4773H154.71L152.991 105.797C152.925 106.209 152.936 106.519 153.026 106.727C153.116 106.931 153.254 107.071 153.438 107.146C153.628 107.217 153.838 107.253 154.07 107.253C154.241 107.253 154.39 107.241 154.518 107.217C154.646 107.194 154.748 107.175 154.823 107.161L154.937 108.915C154.795 108.962 154.603 109.009 154.362 109.057C154.125 109.109 153.836 109.137 153.495 109.142C152.936 109.152 152.432 109.052 151.982 108.844C151.533 108.631 151.196 108.309 150.974 107.878C150.751 107.442 150.697 106.895 150.811 106.237L152.586 95.4773ZM157.052 109L158.87 98.0909H160.993L159.175 109H157.052ZM160.376 96.3864C160.006 96.3864 159.694 96.2633 159.438 96.017C159.187 95.7661 159.071 95.4678 159.09 95.1222C159.109 94.7718 159.256 94.4735 159.53 94.2273C159.805 93.9763 160.125 93.8509 160.489 93.8509C160.858 93.8509 161.169 93.9763 161.42 94.2273C161.671 94.4735 161.789 94.7718 161.775 95.1222C161.756 95.4678 161.609 95.7661 161.334 96.017C161.064 96.2633 160.745 96.3864 160.376 96.3864ZM168.943 98.0909L168.666 99.7955H162.707L162.984 98.0909H168.943ZM165.008 95.4773H167.132L165.413 105.797C165.347 106.209 165.358 106.519 165.448 106.727C165.538 106.931 165.676 107.071 165.86 107.146C166.05 107.217 166.26 107.253 166.492 107.253C166.663 107.253 166.812 107.241 166.94 107.217C167.068 107.194 167.169 107.175 167.245 107.161L167.359 108.915C167.217 108.962 167.025 109.009 166.784 109.057C166.547 109.109 166.258 109.137 165.917 109.142C165.358 109.152 164.854 109.052 164.404 108.844C163.954 108.631 163.618 108.309 163.396 107.878C163.173 107.442 163.119 106.895 163.232 106.237L165.008 95.4773ZM174.001 109.22C172.964 109.22 172.098 108.983 171.402 108.51C170.706 108.032 170.216 107.364 169.932 106.507C169.652 105.645 169.605 104.644 169.79 103.503C169.97 102.385 170.332 101.41 170.876 100.577C171.425 99.7434 172.112 99.0971 172.936 98.6378C173.765 98.1785 174.685 97.9489 175.699 97.9489C176.736 97.9489 177.6 98.188 178.291 98.6662C178.987 99.1444 179.477 99.8144 179.761 100.676C180.045 101.538 180.095 102.542 179.91 103.688C179.73 104.795 179.363 105.766 178.809 106.599C178.26 107.428 177.574 108.072 176.75 108.531C175.926 108.991 175.01 109.22 174.001 109.22ZM174.122 107.438C174.804 107.438 175.398 107.258 175.905 106.898C176.416 106.538 176.833 106.06 177.155 105.463C177.477 104.866 177.697 104.213 177.815 103.503C177.924 102.816 177.922 102.189 177.808 101.621C177.699 101.048 177.462 100.589 177.098 100.243C176.733 99.8973 176.227 99.7244 175.578 99.7244C174.896 99.7244 174.297 99.9067 173.781 100.271C173.27 100.631 172.853 101.112 172.531 101.713C172.214 102.314 171.998 102.97 171.885 103.68C171.776 104.362 171.776 104.99 171.885 105.562C171.994 106.131 172.23 106.585 172.595 106.926C172.96 107.267 173.469 107.438 174.122 107.438ZM181.407 109L183.225 98.0909H185.278L184.987 99.8239H185.1C185.394 99.2367 185.822 98.7751 186.386 98.4389C186.949 98.098 187.551 97.9276 188.19 97.9276C188.327 97.9276 188.483 97.9323 188.659 97.9418C188.834 97.9465 188.976 97.9583 189.085 97.9773L188.744 100.009C188.663 99.9848 188.517 99.9588 188.303 99.9304C188.09 99.8973 187.87 99.8807 187.643 99.8807C187.146 99.8807 186.684 99.9872 186.258 100.2C185.832 100.409 185.474 100.7 185.186 101.074C184.897 101.443 184.71 101.865 184.624 102.338L183.531 109H181.407ZM199.195 94.4545L196.78 109H194.585L197 94.4545H199.195ZM209.358 100.754L207.377 101.095C207.334 100.844 207.246 100.607 207.114 100.385C206.986 100.162 206.789 99.9825 206.524 99.8452C206.259 99.7031 205.906 99.6321 205.466 99.6321C204.855 99.6321 204.32 99.7718 203.861 100.051C203.406 100.33 203.146 100.686 203.08 101.116C203.018 101.467 203.101 101.751 203.328 101.969C203.556 102.182 203.956 102.359 204.529 102.501L206.205 102.899C207.171 103.131 207.862 103.493 208.279 103.986C208.7 104.473 208.847 105.108 208.719 105.889C208.61 106.538 208.326 107.113 207.867 107.615C207.412 108.117 206.83 108.51 206.119 108.794C205.409 109.078 204.619 109.22 203.747 109.22C202.507 109.22 201.541 108.957 200.85 108.432C200.158 107.906 199.803 107.163 199.784 106.202L201.887 105.889C201.924 106.424 202.116 106.829 202.462 107.104C202.812 107.374 203.298 107.509 203.918 107.509C204.628 107.513 205.222 107.364 205.7 107.061C206.179 106.758 206.451 106.391 206.517 105.96C206.574 105.624 206.498 105.345 206.29 105.122C206.086 104.9 205.727 104.729 205.21 104.611L203.449 104.206C202.464 103.974 201.768 103.6 201.361 103.084C200.954 102.568 200.816 101.919 200.949 101.138C201.053 100.499 201.323 99.9422 201.759 99.4688C202.199 98.9905 202.755 98.6188 203.428 98.3537C204.1 98.0838 204.843 97.9489 205.658 97.9489C206.846 97.9489 207.739 98.2045 208.335 98.7159C208.932 99.2225 209.273 99.902 209.358 100.754ZM229.813 101.869C229.557 103.399 229.06 104.71 228.321 105.804C227.587 106.898 226.688 107.738 225.622 108.325C224.562 108.908 223.416 109.199 222.185 109.199C220.902 109.199 219.806 108.893 218.896 108.283C217.992 107.667 217.343 106.794 216.95 105.662C216.557 104.526 216.491 103.171 216.752 101.599C217.007 100.07 217.502 98.7585 218.236 97.6648C218.975 96.5663 219.877 95.7235 220.942 95.1364C222.012 94.5492 223.167 94.2557 224.408 94.2557C225.682 94.2557 226.768 94.5634 227.668 95.179C228.572 95.7898 229.221 96.6657 229.614 97.8068C230.007 98.9432 230.073 100.297 229.813 101.869ZM227.675 101.599C227.869 100.439 227.845 99.464 227.604 98.6733C227.367 97.8778 226.962 97.2765 226.389 96.8693C225.816 96.4621 225.125 96.2585 224.316 96.2585C223.454 96.2585 222.646 96.4763 221.894 96.9119C221.146 97.3475 220.506 97.982 219.976 98.8153C219.446 99.6487 219.084 100.667 218.889 101.869C218.691 103.029 218.712 104.005 218.953 104.795C219.195 105.586 219.602 106.185 220.175 106.592C220.753 106.995 221.446 107.196 222.256 107.196C223.113 107.196 223.915 106.981 224.664 106.55C225.416 106.114 226.058 105.482 226.588 104.653C227.119 103.82 227.481 102.802 227.675 101.599ZM234.388 102.523L233.323 109H231.199L233.018 98.0909H235.056L234.758 99.8665H234.893C235.238 99.2841 235.709 98.8201 236.306 98.4744C236.907 98.1241 237.617 97.9489 238.437 97.9489C239.175 97.9489 239.796 98.1051 240.297 98.4176C240.804 98.7254 241.162 99.1847 241.37 99.7955C241.583 100.406 241.616 101.161 241.469 102.061L240.305 109H238.181L239.296 102.317C239.424 101.526 239.32 100.908 238.983 100.463C238.652 100.013 238.124 99.7884 237.4 99.7884C236.907 99.7884 236.45 99.8949 236.029 100.108C235.612 100.321 235.26 100.634 234.971 101.045C234.687 101.453 234.492 101.945 234.388 102.523ZM247.684 94.4545L245.269 109H243.145L245.56 94.4545H247.684ZM248.801 113.091C248.479 113.091 248.192 113.065 247.941 113.013C247.69 112.965 247.503 112.913 247.38 112.857L248.19 111.116C248.564 111.221 248.898 111.261 249.191 111.237C249.49 111.214 249.769 111.09 250.029 110.868C250.29 110.645 250.555 110.295 250.825 109.817L251.222 109.099L249.085 98.0909H251.272L252.622 106.578H252.735L256.911 98.0909H259.276L252.735 110.442C252.427 111.029 252.077 111.517 251.684 111.905C251.296 112.298 250.86 112.594 250.377 112.793C249.899 112.991 249.374 113.091 248.801 113.091ZM278.738 101.869C278.483 103.399 277.986 104.71 277.247 105.804C276.513 106.898 275.613 107.738 274.548 108.325C273.488 108.908 272.342 109.199 271.111 109.199C269.827 109.199 268.731 108.893 267.822 108.283C266.918 107.667 266.269 106.794 265.876 105.662C265.483 104.526 265.417 103.171 265.677 101.599C265.933 100.07 266.428 98.7585 267.162 97.6648C267.9 96.5663 268.802 95.7235 269.868 95.1364C270.938 94.5492 272.093 94.2557 273.334 94.2557C274.607 94.2557 275.694 94.5634 276.594 95.179C277.498 95.7898 278.147 96.6657 278.54 97.8068C278.933 98.9432 278.999 100.297 278.738 101.869ZM276.601 101.599C276.795 100.439 276.771 99.464 276.53 98.6733C276.293 97.8778 275.888 97.2765 275.315 96.8693C274.742 96.4621 274.051 96.2585 273.241 96.2585C272.38 96.2585 271.572 96.4763 270.819 96.9119C270.071 97.3475 269.432 97.982 268.902 98.8153C268.372 99.6487 268.009 100.667 267.815 101.869C267.616 103.029 267.638 104.005 267.879 104.795C268.121 105.586 268.528 106.185 269.101 106.592C269.678 106.995 270.372 107.196 271.182 107.196C272.039 107.196 272.841 106.981 273.589 106.55C274.342 106.114 274.984 105.482 275.514 104.653C276.044 103.82 276.407 102.802 276.601 101.599ZM283.314 102.523L282.249 109H280.125L281.943 98.0909H283.982L283.683 99.8665H283.818C284.164 99.2841 284.635 98.8201 285.232 98.4744C285.833 98.1241 286.543 97.9489 287.362 97.9489C288.101 97.9489 288.721 98.1051 289.223 98.4176C289.73 98.7254 290.087 99.1847 290.296 99.7955C290.509 100.406 290.542 101.161 290.395 102.061L289.23 109H287.107L288.222 102.317C288.35 101.526 288.245 100.908 287.909 100.463C287.578 100.013 287.05 99.7884 286.325 99.7884C285.833 99.7884 285.376 99.8949 284.955 100.108C284.538 100.321 284.185 100.634 283.896 101.045C283.612 101.453 283.418 101.945 283.314 102.523ZM296.744 109.22C295.674 109.22 294.789 108.991 294.088 108.531C293.392 108.067 292.905 107.416 292.625 106.578C292.346 105.735 292.301 104.748 292.49 103.616C292.675 102.499 293.047 101.514 293.605 100.662C294.164 99.8097 294.86 99.1444 295.693 98.6662C296.531 98.188 297.457 97.9489 298.47 97.9489C299.086 97.9489 299.666 98.0507 300.21 98.2543C300.76 98.4579 301.226 98.7775 301.61 99.2131C301.993 99.6487 302.258 100.214 302.405 100.911C302.557 101.602 302.552 102.442 302.391 103.432L302.27 104.185H293.591L293.84 102.594H300.431C300.53 102.035 300.504 101.54 300.352 101.109C300.201 100.674 299.941 100.33 299.571 100.08C299.207 99.8286 298.747 99.7031 298.193 99.7031C297.625 99.7031 297.095 99.8523 296.602 100.151C296.11 100.449 295.698 100.83 295.367 101.294C295.04 101.753 294.834 102.227 294.749 102.714L294.5 104.17C294.377 104.966 294.398 105.605 294.564 106.088C294.735 106.571 295.033 106.921 295.459 107.139C295.885 107.357 296.418 107.466 297.057 107.466C297.469 107.466 297.85 107.409 298.2 107.295C298.556 107.177 298.87 107.004 299.145 106.777C299.42 106.545 299.649 106.256 299.834 105.911L301.78 106.273C301.52 106.865 301.146 107.383 300.658 107.828C300.17 108.268 299.595 108.612 298.932 108.858C298.274 109.099 297.545 109.22 296.744 109.22ZM78.0842 128.455H80.7475L83.5174 139.761H83.6879L90.1793 128.455H92.8427L90.4279 143H88.3398L90.0941 132.474H89.9592L83.9222 142.979H82.1822L79.6538 132.467H79.5188L77.7575 143H75.6694L78.0842 128.455ZM98.093 143.22C97.0561 143.22 96.1896 142.983 95.4936 142.51C94.7976 142.032 94.3075 141.364 94.0234 140.507C93.7441 139.645 93.6967 138.644 93.8814 137.503C94.0613 136.385 94.4235 135.41 94.968 134.577C95.5173 133.743 96.2038 133.097 97.0277 132.638C97.8563 132.179 98.7772 131.949 99.7905 131.949C100.827 131.949 101.692 132.188 102.383 132.666C103.079 133.144 103.569 133.814 103.853 134.676C104.137 135.538 104.187 136.542 104.002 137.688C103.822 138.795 103.455 139.766 102.901 140.599C102.352 141.428 101.665 142.072 100.842 142.531C100.018 142.991 99.1016 143.22 98.093 143.22ZM98.2138 141.438C98.8956 141.438 99.4898 141.258 99.9964 140.898C100.508 140.538 100.924 140.06 101.246 139.463C101.568 138.866 101.789 138.213 101.907 137.503C102.016 136.816 102.013 136.189 101.9 135.621C101.791 135.048 101.554 134.589 101.19 134.243C100.825 133.897 100.318 133.724 99.6697 133.724C98.9879 133.724 98.389 133.907 97.8729 134.271C97.3615 134.631 96.9448 135.112 96.6229 135.713C96.3056 136.314 96.0902 136.97 95.9766 137.68C95.8677 138.362 95.8677 138.99 95.9766 139.562C96.0855 140.131 96.3222 140.585 96.6868 140.926C97.0514 141.267 97.5604 141.438 98.2138 141.438ZM113.162 138.476L114.228 132.091H116.358L114.54 143H112.452L112.772 141.111H112.658C112.317 141.693 111.834 142.179 111.209 142.567C110.589 142.95 109.869 143.142 109.05 143.142C108.349 143.142 107.755 142.988 107.267 142.68C106.784 142.368 106.441 141.906 106.238 141.295C106.034 140.685 106.006 139.929 106.152 139.03L107.317 132.091H109.441L108.326 138.774C108.207 139.518 108.319 140.109 108.659 140.55C109 140.99 109.498 141.21 110.151 141.21C110.549 141.21 110.961 141.111 111.387 140.912C111.813 140.713 112.189 140.412 112.516 140.01C112.847 139.607 113.063 139.096 113.162 138.476ZM126.946 134.754L124.964 135.095C124.922 134.844 124.834 134.607 124.702 134.385C124.574 134.162 124.377 133.982 124.112 133.845C123.847 133.703 123.494 133.632 123.054 133.632C122.443 133.632 121.908 133.772 121.449 134.051C120.994 134.33 120.734 134.686 120.668 135.116C120.606 135.467 120.689 135.751 120.916 135.969C121.143 136.182 121.544 136.359 122.116 136.501L123.793 136.899C124.759 137.131 125.45 137.493 125.866 137.986C126.288 138.473 126.435 139.108 126.307 139.889C126.198 140.538 125.914 141.113 125.455 141.615C125 142.117 124.418 142.51 123.707 142.794C122.997 143.078 122.206 143.22 121.335 143.22C120.095 143.22 119.129 142.957 118.438 142.432C117.746 141.906 117.391 141.163 117.372 140.202L119.474 139.889C119.512 140.424 119.704 140.829 120.05 141.104C120.4 141.374 120.885 141.509 121.506 141.509C122.216 141.513 122.81 141.364 123.288 141.061C123.767 140.758 124.039 140.391 124.105 139.96C124.162 139.624 124.086 139.345 123.878 139.122C123.674 138.9 123.314 138.729 122.798 138.611L121.037 138.206C120.052 137.974 119.356 137.6 118.949 137.084C118.542 136.568 118.404 135.919 118.537 135.138C118.641 134.499 118.911 133.942 119.347 133.469C119.787 132.991 120.343 132.619 121.016 132.354C121.688 132.084 122.431 131.949 123.246 131.949C124.434 131.949 125.327 132.205 125.923 132.716C126.52 133.223 126.861 133.902 126.946 134.754ZM132.789 143.22C131.719 143.22 130.834 142.991 130.133 142.531C129.437 142.067 128.949 141.416 128.67 140.578C128.391 139.735 128.346 138.748 128.535 137.616C128.72 136.499 129.092 135.514 129.65 134.662C130.209 133.81 130.905 133.144 131.738 132.666C132.576 132.188 133.502 131.949 134.515 131.949C135.131 131.949 135.711 132.051 136.255 132.254C136.805 132.458 137.271 132.777 137.654 133.213C138.038 133.649 138.303 134.214 138.45 134.911C138.601 135.602 138.597 136.442 138.436 137.432L138.315 138.185H129.636L129.885 136.594H136.475C136.575 136.035 136.549 135.54 136.397 135.109C136.246 134.674 135.985 134.33 135.616 134.08C135.252 133.829 134.792 133.703 134.238 133.703C133.67 133.703 133.14 133.852 132.647 134.151C132.155 134.449 131.743 134.83 131.412 135.294C131.085 135.753 130.879 136.227 130.794 136.714L130.545 138.17C130.422 138.966 130.443 139.605 130.609 140.088C130.779 140.571 131.078 140.921 131.504 141.139C131.93 141.357 132.463 141.466 133.102 141.466C133.514 141.466 133.895 141.409 134.245 141.295C134.6 141.177 134.915 141.004 135.19 140.777C135.465 140.545 135.694 140.256 135.879 139.911L137.825 140.273C137.565 140.865 137.19 141.383 136.703 141.828C136.215 142.268 135.64 142.612 134.977 142.858C134.319 143.099 133.59 143.22 132.789 143.22ZM159.05 133.185H156.877C156.867 132.711 156.78 132.295 156.614 131.935C156.448 131.57 156.221 131.265 155.932 131.018C155.648 130.768 155.314 130.578 154.931 130.45C154.547 130.322 154.133 130.259 153.688 130.259C152.831 130.259 152.026 130.476 151.273 130.912C150.52 131.348 149.879 131.982 149.348 132.815C148.818 133.649 148.453 134.664 148.255 135.862C148.06 137.027 148.084 138.005 148.326 138.795C148.567 139.586 148.974 140.185 149.547 140.592C150.125 140.995 150.819 141.196 151.628 141.196C152.102 141.196 152.563 141.134 153.013 141.011C153.468 140.884 153.889 140.696 154.277 140.45C154.666 140.204 155.009 139.903 155.307 139.548C155.61 139.188 155.847 138.777 156.017 138.312H158.219C157.982 139.032 157.649 139.69 157.218 140.287C156.787 140.884 156.278 141.4 155.691 141.835C155.104 142.271 154.46 142.607 153.759 142.844C153.058 143.08 152.317 143.199 151.536 143.199C150.253 143.199 149.159 142.893 148.255 142.283C147.355 141.667 146.709 140.791 146.316 139.655C145.927 138.518 145.861 137.164 146.117 135.592C146.377 134.063 146.874 132.751 147.608 131.658C148.347 130.559 149.247 129.719 150.307 129.136C151.373 128.549 152.523 128.256 153.759 128.256C154.54 128.256 155.255 128.367 155.904 128.589C156.552 128.807 157.111 129.129 157.58 129.555C158.053 129.977 158.418 130.493 158.674 131.104C158.929 131.71 159.055 132.403 159.05 133.185ZM164.432 128.455L162.017 143H159.893L162.308 128.455H164.432ZM164.874 143L166.692 132.091H168.816L166.998 143H164.874ZM168.198 130.386C167.828 130.386 167.516 130.263 167.26 130.017C167.009 129.766 166.893 129.468 166.912 129.122C166.931 128.772 167.078 128.473 167.353 128.227C167.627 127.976 167.947 127.851 168.311 127.851C168.681 127.851 168.991 127.976 169.242 128.227C169.493 128.473 169.611 128.772 169.597 129.122C169.578 129.468 169.431 129.766 169.157 130.017C168.887 130.263 168.567 130.386 168.198 130.386ZM174.421 143.22C173.361 143.22 172.492 142.981 171.815 142.503C171.138 142.02 170.666 141.355 170.401 140.507C170.136 139.66 170.094 138.689 170.273 137.595C170.453 136.487 170.82 135.509 171.374 134.662C171.933 133.81 172.631 133.144 173.469 132.666C174.312 132.188 175.247 131.949 176.275 131.949C177.103 131.949 177.816 132.103 178.413 132.411C179.009 132.714 179.461 133.14 179.769 133.689C180.077 134.238 180.21 134.88 180.167 135.614H178.1C178.067 135.102 177.878 134.662 177.532 134.293C177.186 133.923 176.677 133.739 176.005 133.739C175.413 133.739 174.869 133.895 174.371 134.207C173.874 134.515 173.455 134.955 173.114 135.528C172.773 136.097 172.541 136.769 172.418 137.545C172.286 138.341 172.293 139.027 172.44 139.605C172.586 140.183 172.856 140.63 173.249 140.947C173.642 141.265 174.137 141.423 174.734 141.423C175.141 141.423 175.52 141.35 175.87 141.203C176.225 141.052 176.538 140.836 176.808 140.557C177.082 140.277 177.295 139.941 177.447 139.548H179.521C179.317 140.254 178.976 140.884 178.498 141.438C178.024 141.991 177.442 142.427 176.751 142.744C176.059 143.062 175.283 143.22 174.421 143.22ZM183.766 139.3L184.171 136.707H184.547L189.675 132.091H192.218L186.394 137.347H186.06L183.766 139.3ZM181.202 143L183.617 128.455H185.74L183.326 143H181.202ZM188.091 143L185.051 137.815L186.749 136.331L190.698 143H188.091ZM199.027 143H196.697L204.347 128.455H206.882L209.702 143H207.372L205.249 131.097H205.135L199.027 143ZM200.362 137.304H207.919L207.607 139.151H200.05L200.362 137.304ZM212.63 143L211.238 132.091H213.432L214.235 140.102H214.341L217.821 132.091H220.016L220.811 140.067H220.918L224.377 132.091H226.571L221.55 143H219.384L218.475 135.124H218.311L214.789 143H212.63ZM229.915 143.241C229.223 143.241 228.62 143.114 228.104 142.858C227.588 142.598 227.206 142.221 226.96 141.729C226.714 141.236 226.65 140.633 226.768 139.918C226.873 139.302 227.076 138.795 227.379 138.398C227.687 138 228.061 137.685 228.501 137.453C228.942 137.216 229.42 137.039 229.936 136.92C230.452 136.802 230.973 136.714 231.499 136.658C232.161 136.582 232.699 136.518 233.111 136.466C233.527 136.414 233.84 136.333 234.048 136.224C234.257 136.111 234.382 135.926 234.425 135.67V135.621C234.524 135.005 234.434 134.527 234.155 134.186C233.88 133.84 233.402 133.668 232.72 133.668C232.01 133.668 231.413 133.824 230.93 134.136C230.452 134.449 230.099 134.799 229.872 135.188L227.969 134.733C228.31 134.07 228.743 133.535 229.268 133.128C229.799 132.716 230.379 132.418 231.009 132.233C231.638 132.044 232.282 131.949 232.94 131.949C233.376 131.949 233.828 132.001 234.297 132.105C234.766 132.205 235.192 132.389 235.575 132.659C235.964 132.929 236.252 133.315 236.442 133.817C236.631 134.314 236.66 134.96 236.527 135.756L235.327 143H233.253L233.509 141.509H233.423C233.243 141.783 232.992 142.053 232.67 142.318C232.353 142.583 231.965 142.804 231.506 142.979C231.046 143.154 230.516 143.241 229.915 143.241ZM230.639 141.537C231.231 141.537 231.754 141.421 232.209 141.189C232.668 140.957 233.04 140.654 233.324 140.28C233.608 139.901 233.786 139.496 233.857 139.065L234.091 137.659C234.001 137.735 233.842 137.804 233.615 137.865C233.393 137.927 233.142 137.981 232.862 138.028C232.583 138.076 232.308 138.116 232.038 138.149C231.773 138.182 231.553 138.213 231.378 138.241C230.961 138.294 230.571 138.381 230.206 138.504C229.846 138.627 229.545 138.805 229.304 139.037C229.063 139.264 228.911 139.567 228.849 139.946C228.764 140.472 228.89 140.869 229.226 141.139C229.567 141.404 230.038 141.537 230.639 141.537ZM238.439 147.091C238.117 147.091 237.831 147.065 237.58 147.013C237.329 146.965 237.142 146.913 237.019 146.857L237.828 145.116C238.203 145.221 238.536 145.261 238.83 145.237C239.128 145.214 239.408 145.09 239.668 144.868C239.928 144.645 240.194 144.295 240.463 143.817L240.861 143.099L238.723 132.091H240.911L242.26 140.578H242.374L246.55 132.091H248.915L242.374 144.442C242.066 145.029 241.716 145.517 241.323 145.905C240.935 146.298 240.499 146.594 240.016 146.793C239.538 146.991 239.012 147.091 238.439 147.091ZM249.986 143.135C249.588 143.135 249.257 142.998 248.991 142.723C248.731 142.448 248.603 142.112 248.608 141.714C248.613 141.321 248.759 140.992 249.048 140.727C249.342 140.457 249.683 140.322 250.071 140.322C250.459 140.322 250.791 140.46 251.065 140.734C251.34 141.009 251.468 141.336 251.449 141.714C251.435 141.98 251.359 142.221 251.222 142.439C251.089 142.652 250.914 142.822 250.696 142.95C250.478 143.073 250.241 143.135 249.986 143.135ZM256.887 128.455L256.674 129.818C256.608 130.221 256.461 130.644 256.234 131.089C256.011 131.53 255.73 131.954 255.389 132.361C255.053 132.768 254.681 133.118 254.274 133.412L253.336 132.659C253.682 132.252 253.994 131.819 254.274 131.359C254.553 130.9 254.74 130.393 254.835 129.839L255.069 128.455H256.887ZM260.502 128.455L260.289 129.818C260.223 130.221 260.076 130.644 259.849 131.089C259.627 131.53 259.345 131.954 259.004 132.361C258.668 132.768 258.294 133.118 257.882 133.412L256.944 132.659C257.29 132.252 257.602 131.819 257.882 131.359C258.166 130.9 258.355 130.393 258.45 129.839L258.684 128.455H260.502Z" fill="black"/>
<path d="M96.07 192H91.945V180.364H96.104C97.2745 180.364 98.2821 180.597 99.1268 181.062C99.9715 181.525 100.621 182.189 101.076 183.057C101.534 183.924 101.763 184.962 101.763 186.17C101.763 187.383 101.534 188.424 101.076 189.295C100.621 190.167 99.9677 190.835 99.1154 191.301C98.2669 191.767 97.2518 192 96.07 192ZM94.4052 189.892H95.9677C96.695 189.892 97.3067 189.763 97.8029 189.506C98.3029 189.244 98.6779 188.841 98.9279 188.295C99.1817 187.746 99.3086 187.038 99.3086 186.17C99.3086 185.311 99.1817 184.608 98.9279 184.062C98.6779 183.517 98.3048 183.116 97.8086 182.858C97.3124 182.6 96.7006 182.472 95.9734 182.472H94.4052V189.892ZM107.483 192.17C106.601 192.17 105.837 191.983 105.194 191.608C104.553 191.229 104.059 190.703 103.711 190.028C103.362 189.35 103.188 188.564 103.188 187.67C103.188 186.769 103.362 185.981 103.711 185.307C104.059 184.629 104.553 184.102 105.194 183.727C105.837 183.348 106.601 183.159 107.483 183.159C108.366 183.159 109.127 183.348 109.767 183.727C110.411 184.102 110.908 184.629 111.256 185.307C111.605 185.981 111.779 186.769 111.779 187.67C111.779 188.564 111.605 189.35 111.256 190.028C110.908 190.703 110.411 191.229 109.767 191.608C109.127 191.983 108.366 192.17 107.483 192.17ZM107.495 190.295C107.896 190.295 108.231 190.182 108.5 189.955C108.769 189.723 108.972 189.409 109.108 189.011C109.248 188.614 109.319 188.161 109.319 187.653C109.319 187.146 109.248 186.693 109.108 186.295C108.972 185.898 108.769 185.583 108.5 185.352C108.231 185.121 107.896 185.006 107.495 185.006C107.089 185.006 106.748 185.121 106.472 185.352C106.199 185.583 105.993 185.898 105.853 186.295C105.716 186.693 105.648 187.146 105.648 187.653C105.648 188.161 105.716 188.614 105.853 189.011C105.993 189.409 106.199 189.723 106.472 189.955C106.748 190.182 107.089 190.295 107.495 190.295ZM118.949 188.284V183.273H121.37V192H119.046V190.415H118.955C118.758 190.926 118.43 191.337 117.972 191.648C117.517 191.958 116.962 192.114 116.307 192.114C115.724 192.114 115.211 191.981 114.767 191.716C114.324 191.451 113.978 191.074 113.728 190.585C113.481 190.097 113.356 189.511 113.353 188.83V183.273H115.773V188.398C115.777 188.913 115.915 189.32 116.188 189.619C116.461 189.919 116.826 190.068 117.284 190.068C117.576 190.068 117.849 190.002 118.103 189.869C118.356 189.733 118.561 189.532 118.716 189.267C118.875 189.002 118.953 188.674 118.949 188.284ZM127.238 195.455C126.453 195.455 125.781 195.347 125.221 195.131C124.664 194.919 124.221 194.629 123.891 194.261C123.561 193.894 123.347 193.481 123.249 193.023L125.488 192.722C125.556 192.896 125.664 193.059 125.811 193.21C125.959 193.362 126.154 193.483 126.397 193.574C126.643 193.669 126.942 193.716 127.294 193.716C127.821 193.716 128.255 193.587 128.596 193.33C128.94 193.076 129.113 192.65 129.113 192.051V190.455H129.01C128.904 190.697 128.745 190.926 128.533 191.142C128.321 191.358 128.048 191.534 127.715 191.67C127.382 191.807 126.984 191.875 126.522 191.875C125.866 191.875 125.27 191.723 124.732 191.42C124.198 191.114 123.772 190.646 123.453 190.017C123.139 189.384 122.982 188.585 122.982 187.619C122.982 186.631 123.143 185.805 123.465 185.142C123.787 184.479 124.215 183.983 124.749 183.653C125.287 183.324 125.876 183.159 126.516 183.159C127.005 183.159 127.414 183.242 127.743 183.409C128.073 183.572 128.338 183.777 128.539 184.023C128.743 184.265 128.9 184.504 129.01 184.739H129.101V183.273H131.505V192.085C131.505 192.828 131.323 193.449 130.959 193.949C130.596 194.449 130.092 194.824 129.448 195.074C128.808 195.328 128.071 195.455 127.238 195.455ZM127.289 190.057C127.679 190.057 128.008 189.96 128.277 189.767C128.55 189.57 128.758 189.29 128.902 188.926C129.05 188.559 129.124 188.119 129.124 187.608C129.124 187.097 129.052 186.653 128.908 186.278C128.764 185.9 128.556 185.606 128.283 185.398C128.01 185.189 127.679 185.085 127.289 185.085C126.891 185.085 126.556 185.193 126.283 185.409C126.01 185.621 125.804 185.917 125.664 186.295C125.524 186.674 125.453 187.112 125.453 187.608C125.453 188.112 125.524 188.547 125.664 188.915C125.808 189.278 126.014 189.561 126.283 189.761C126.556 189.958 126.891 190.057 127.289 190.057ZM135.851 180.364V192H133.431V180.364H135.851ZM140.279 192.165C139.722 192.165 139.226 192.068 138.79 191.875C138.355 191.678 138.01 191.388 137.756 191.006C137.506 190.619 137.381 190.138 137.381 189.562C137.381 189.078 137.47 188.67 137.648 188.341C137.826 188.011 138.069 187.746 138.375 187.545C138.682 187.345 139.031 187.193 139.421 187.091C139.815 186.989 140.228 186.917 140.659 186.875C141.167 186.822 141.576 186.773 141.887 186.727C142.197 186.678 142.423 186.606 142.563 186.511C142.703 186.417 142.773 186.277 142.773 186.091V186.057C142.773 185.697 142.659 185.419 142.432 185.222C142.209 185.025 141.891 184.926 141.478 184.926C141.042 184.926 140.695 185.023 140.438 185.216C140.18 185.405 140.01 185.644 139.926 185.932L137.688 185.75C137.801 185.22 138.025 184.761 138.358 184.375C138.692 183.985 139.122 183.686 139.648 183.477C140.178 183.265 140.792 183.159 141.489 183.159C141.974 183.159 142.438 183.216 142.881 183.33C143.328 183.443 143.724 183.619 144.069 183.858C144.417 184.097 144.692 184.403 144.892 184.778C145.093 185.15 145.194 185.595 145.194 186.114V192H142.898V190.79H142.83C142.69 191.062 142.502 191.303 142.267 191.511C142.033 191.716 141.75 191.877 141.421 191.994C141.091 192.108 140.711 192.165 140.279 192.165ZM140.972 190.494C141.328 190.494 141.642 190.424 141.915 190.284C142.188 190.14 142.402 189.947 142.557 189.705C142.712 189.462 142.79 189.187 142.79 188.881V187.955C142.714 188.004 142.61 188.049 142.478 188.091C142.349 188.129 142.203 188.165 142.04 188.199C141.877 188.229 141.714 188.258 141.551 188.284C141.389 188.307 141.241 188.328 141.108 188.347C140.824 188.388 140.576 188.455 140.364 188.545C140.152 188.636 139.987 188.759 139.87 188.915C139.752 189.066 139.694 189.256 139.694 189.483C139.694 189.812 139.813 190.064 140.051 190.239C140.294 190.409 140.601 190.494 140.972 190.494ZM154.333 185.761L152.117 185.898C152.079 185.708 151.998 185.538 151.873 185.386C151.748 185.231 151.583 185.108 151.378 185.017C151.177 184.922 150.937 184.875 150.657 184.875C150.282 184.875 149.965 184.955 149.708 185.114C149.45 185.269 149.321 185.477 149.321 185.739C149.321 185.947 149.405 186.123 149.571 186.267C149.738 186.411 150.024 186.527 150.429 186.614L152.009 186.932C152.857 187.106 153.49 187.386 153.907 187.773C154.323 188.159 154.532 188.667 154.532 189.295C154.532 189.867 154.363 190.369 154.026 190.801C153.693 191.233 153.234 191.57 152.651 191.812C152.071 192.051 151.403 192.17 150.645 192.17C149.49 192.17 148.569 191.93 147.884 191.449C147.202 190.964 146.802 190.305 146.685 189.472L149.066 189.347C149.138 189.699 149.312 189.968 149.588 190.153C149.865 190.335 150.219 190.426 150.651 190.426C151.075 190.426 151.416 190.345 151.674 190.182C151.935 190.015 152.068 189.801 152.071 189.54C152.068 189.32 151.975 189.14 151.793 189C151.611 188.856 151.331 188.746 150.952 188.67L149.441 188.369C148.588 188.199 147.954 187.903 147.537 187.483C147.124 187.062 146.918 186.527 146.918 185.875C146.918 185.314 147.069 184.831 147.373 184.426C147.679 184.021 148.109 183.708 148.662 183.489C149.219 183.269 149.871 183.159 150.617 183.159C151.719 183.159 152.587 183.392 153.219 183.858C153.855 184.324 154.227 184.958 154.333 185.761ZM162.424 192L159.094 180.364H161.782L163.708 188.449H163.804L165.929 180.364H168.23L170.35 188.466H170.452L172.378 180.364H175.066L171.736 192H169.338L167.123 184.392H167.032L164.821 192H162.424ZM177.888 192.165C177.331 192.165 176.835 192.068 176.4 191.875C175.964 191.678 175.619 191.388 175.365 191.006C175.115 190.619 174.99 190.138 174.99 189.562C174.99 189.078 175.079 188.67 175.257 188.341C175.435 188.011 175.678 187.746 175.985 187.545C176.292 187.345 176.64 187.193 177.03 187.091C177.424 186.989 177.837 186.917 178.269 186.875C178.776 186.822 179.185 186.773 179.496 186.727C179.807 186.678 180.032 186.606 180.172 186.511C180.312 186.417 180.382 186.277 180.382 186.091V186.057C180.382 185.697 180.269 185.419 180.042 185.222C179.818 185.025 179.5 184.926 179.087 184.926C178.651 184.926 178.305 185.023 178.047 185.216C177.79 185.405 177.619 185.644 177.536 185.932L175.297 185.75C175.411 185.22 175.634 184.761 175.968 184.375C176.301 183.985 176.731 183.686 177.257 183.477C177.788 183.265 178.401 183.159 179.098 183.159C179.583 183.159 180.047 183.216 180.49 183.33C180.937 183.443 181.333 183.619 181.678 183.858C182.026 184.097 182.301 184.403 182.502 184.778C182.703 185.15 182.803 185.595 182.803 186.114V192H180.507V190.79H180.439C180.299 191.062 180.112 191.303 179.877 191.511C179.642 191.716 179.36 191.877 179.03 191.994C178.701 192.108 178.32 192.165 177.888 192.165ZM178.581 190.494C178.937 190.494 179.252 190.424 179.525 190.284C179.797 190.14 180.011 189.947 180.167 189.705C180.322 189.462 180.4 189.187 180.4 188.881V187.955C180.324 188.004 180.22 188.049 180.087 188.091C179.958 188.129 179.812 188.165 179.65 188.199C179.487 188.229 179.324 188.258 179.161 188.284C178.998 188.307 178.85 188.328 178.718 188.347C178.434 188.388 178.185 188.455 177.973 188.545C177.761 188.636 177.596 188.759 177.479 188.915C177.362 189.066 177.303 189.256 177.303 189.483C177.303 189.812 177.422 190.064 177.661 190.239C177.903 190.409 178.21 190.494 178.581 190.494ZM184.681 192V183.273H187.027V184.795H187.118C187.277 184.254 187.544 183.845 187.919 183.568C188.294 183.288 188.726 183.148 189.215 183.148C189.336 183.148 189.467 183.155 189.607 183.17C189.747 183.186 189.87 183.206 189.976 183.233V185.381C189.863 185.347 189.705 185.316 189.505 185.29C189.304 185.263 189.12 185.25 188.953 185.25C188.597 185.25 188.279 185.328 187.999 185.483C187.722 185.634 187.503 185.847 187.34 186.119C187.181 186.392 187.101 186.706 187.101 187.062V192H184.681ZM193.648 186.955V192H191.228V183.273H193.534V184.812H193.637C193.83 184.305 194.154 183.903 194.608 183.608C195.063 183.309 195.614 183.159 196.262 183.159C196.868 183.159 197.396 183.292 197.847 183.557C198.298 183.822 198.648 184.201 198.898 184.693C199.148 185.182 199.273 185.765 199.273 186.443V192H196.853V186.875C196.856 186.341 196.72 185.924 196.444 185.625C196.167 185.322 195.786 185.17 195.301 185.17C194.976 185.17 194.688 185.241 194.438 185.381C194.192 185.521 193.998 185.725 193.858 185.994C193.722 186.259 193.652 186.58 193.648 186.955ZM205.158 192.17C204.26 192.17 203.488 191.989 202.84 191.625C202.196 191.258 201.7 190.739 201.351 190.068C201.003 189.394 200.828 188.597 200.828 187.676C200.828 186.778 201.003 185.991 201.351 185.312C201.7 184.634 202.19 184.106 202.823 183.727C203.459 183.348 204.205 183.159 205.061 183.159C205.637 183.159 206.173 183.252 206.669 183.438C207.169 183.619 207.605 183.894 207.976 184.261C208.351 184.629 208.643 185.091 208.851 185.648C209.06 186.201 209.164 186.848 209.164 187.591V188.256H201.794V186.756H206.885C206.885 186.407 206.81 186.098 206.658 185.83C206.507 185.561 206.296 185.35 206.027 185.199C205.762 185.044 205.453 184.966 205.101 184.966C204.734 184.966 204.408 185.051 204.124 185.222C203.844 185.388 203.624 185.614 203.465 185.898C203.306 186.178 203.224 186.491 203.221 186.835V188.261C203.221 188.693 203.3 189.066 203.459 189.381C203.622 189.695 203.851 189.938 204.147 190.108C204.442 190.278 204.792 190.364 205.198 190.364C205.467 190.364 205.713 190.326 205.936 190.25C206.16 190.174 206.351 190.061 206.51 189.909C206.669 189.758 206.791 189.572 206.874 189.352L209.113 189.5C208.999 190.038 208.766 190.508 208.414 190.909C208.065 191.307 207.614 191.617 207.061 191.841C206.512 192.061 205.878 192.17 205.158 192.17ZM210.743 192V183.273H213.09V184.795H213.181C213.34 184.254 213.607 183.845 213.982 183.568C214.357 183.288 214.789 183.148 215.277 183.148C215.399 183.148 215.529 183.155 215.669 183.17C215.81 183.186 215.933 183.206 216.039 183.233V185.381C215.925 185.347 215.768 185.316 215.567 185.29C215.366 185.263 215.183 185.25 215.016 185.25C214.66 185.25 214.342 185.328 214.061 185.483C213.785 185.634 213.565 185.847 213.402 186.119C213.243 186.392 213.164 186.706 213.164 187.062V192H210.743ZM223.499 180.364V192H221.039V180.364H223.499ZM227.983 180.364V192H225.523V180.364H227.983ZM232.468 180.364V192H230.007V180.364H232.468Z" fill="black"/>
<path d="M85.7124 209V198.818H92.0263V200.141H87.2486V203.243H91.5739V204.56H87.2486V209H85.7124ZM96.4522 209.154C95.7363 209.154 95.1116 208.99 94.5779 208.662C94.0443 208.334 93.63 207.875 93.335 207.285C93.0401 206.695 92.8926 206.005 92.8926 205.217C92.8926 204.424 93.0401 203.732 93.335 203.138C93.63 202.545 94.0443 202.085 94.5779 201.756C95.1116 201.428 95.7363 201.264 96.4522 201.264C97.1681 201.264 97.7929 201.428 98.3265 201.756C98.8601 202.085 99.2744 202.545 99.5694 203.138C99.8644 203.732 100.012 204.424 100.012 205.217C100.012 206.005 99.8644 206.695 99.5694 207.285C99.2744 207.875 98.8601 208.334 98.3265 208.662C97.7929 208.99 97.1681 209.154 96.4522 209.154ZM96.4572 207.906C96.9212 207.906 97.3057 207.784 97.6106 207.538C97.9155 207.293 98.1409 206.967 98.2868 206.559C98.4359 206.151 98.5105 205.702 98.5105 205.212C98.5105 204.724 98.4359 204.277 98.2868 203.869C98.1409 203.458 97.9155 203.129 97.6106 202.88C97.3057 202.631 96.9212 202.507 96.4572 202.507C95.9899 202.507 95.6021 202.631 95.2939 202.88C94.9889 203.129 94.7619 203.458 94.6127 203.869C94.4669 204.277 94.394 204.724 94.394 205.212C94.394 205.702 94.4669 206.151 94.6127 206.559C94.7619 206.967 94.9889 207.293 95.2939 207.538C95.6021 207.784 95.9899 207.906 96.4572 207.906ZM101.671 209V201.364H103.108V202.577H103.188C103.327 202.166 103.572 201.843 103.923 201.607C104.278 201.369 104.679 201.249 105.126 201.249C105.219 201.249 105.329 201.253 105.455 201.259C105.584 201.266 105.685 201.274 105.758 201.284V202.706C105.698 202.689 105.592 202.671 105.44 202.651C105.287 202.628 105.135 202.616 104.982 202.616C104.631 202.616 104.318 202.691 104.043 202.84C103.771 202.986 103.555 203.19 103.396 203.452C103.237 203.71 103.158 204.005 103.158 204.337V209H101.671ZM107.044 209V201.364H108.471V202.607H108.566C108.725 202.186 108.985 201.857 109.346 201.622C109.707 201.384 110.14 201.264 110.644 201.264C111.154 201.264 111.582 201.384 111.926 201.622C112.274 201.861 112.531 202.189 112.697 202.607H112.776C112.959 202.199 113.249 201.874 113.646 201.632C114.044 201.387 114.518 201.264 115.068 201.264C115.761 201.264 116.326 201.481 116.764 201.915C117.204 202.35 117.425 203.004 117.425 203.879V209H115.938V204.018C115.938 203.501 115.798 203.127 115.516 202.895C115.234 202.663 114.898 202.547 114.507 202.547C114.023 202.547 113.646 202.696 113.378 202.994C113.11 203.289 112.975 203.669 112.975 204.133V209H111.494V203.924C111.494 203.51 111.365 203.177 111.106 202.925C110.847 202.673 110.511 202.547 110.097 202.547C109.815 202.547 109.555 202.621 109.316 202.771C109.081 202.916 108.89 203.12 108.744 203.382C108.602 203.644 108.531 203.947 108.531 204.292V209H107.044ZM122.708 209.154C121.956 209.154 121.308 208.993 120.765 208.672C120.224 208.347 119.807 207.891 119.512 207.305C119.22 206.715 119.074 206.024 119.074 205.232C119.074 204.449 119.22 203.76 119.512 203.163C119.807 202.567 120.218 202.101 120.745 201.766C121.275 201.432 121.895 201.264 122.604 201.264C123.035 201.264 123.453 201.335 123.857 201.478C124.261 201.621 124.624 201.844 124.946 202.149C125.267 202.454 125.521 202.85 125.706 203.337C125.892 203.821 125.985 204.41 125.985 205.102V205.629H119.914V204.516H124.528C124.528 204.125 124.449 203.778 124.289 203.477C124.13 203.172 123.907 202.931 123.618 202.756C123.333 202.58 122.998 202.492 122.614 202.492C122.196 202.492 121.832 202.595 121.52 202.8C121.212 203.003 120.973 203.268 120.804 203.596C120.639 203.921 120.556 204.274 120.556 204.655V205.525C120.556 206.035 120.645 206.469 120.824 206.827C121.007 207.185 121.26 207.459 121.585 207.648C121.91 207.833 122.289 207.926 122.723 207.926C123.005 207.926 123.262 207.886 123.494 207.807C123.726 207.724 123.926 207.601 124.096 207.439C124.265 207.277 124.394 207.076 124.483 206.837L125.89 207.091C125.778 207.505 125.575 207.868 125.284 208.18C124.995 208.488 124.632 208.728 124.195 208.901C123.761 209.07 123.265 209.154 122.708 209.154ZM127.634 209V201.364H129.071V202.577H129.15C129.29 202.166 129.535 201.843 129.886 201.607C130.241 201.369 130.642 201.249 131.089 201.249C131.182 201.249 131.291 201.253 131.417 201.259C131.547 201.266 131.648 201.274 131.721 201.284V202.706C131.661 202.689 131.555 202.671 131.403 202.651C131.25 202.628 131.098 202.616 130.945 202.616C130.594 202.616 130.281 202.691 130.006 202.84C129.734 202.986 129.518 203.19 129.359 203.452C129.2 203.71 129.121 204.005 129.121 204.337V209H127.634ZM145.288 202.129H143.737C143.677 201.798 143.566 201.506 143.404 201.254C143.242 201.002 143.043 200.789 142.807 200.613C142.572 200.437 142.309 200.305 142.017 200.215C141.729 200.126 141.422 200.081 141.097 200.081C140.51 200.081 139.985 200.228 139.521 200.523C139.06 200.818 138.696 201.251 138.427 201.821C138.162 202.391 138.03 203.087 138.03 203.909C138.03 204.738 138.162 205.437 138.427 206.007C138.696 206.577 139.062 207.008 139.526 207.3C139.99 207.591 140.512 207.737 141.092 207.737C141.414 207.737 141.719 207.694 142.007 207.608C142.299 207.518 142.562 207.388 142.797 207.215C143.033 207.043 143.232 206.832 143.394 206.584C143.56 206.332 143.674 206.044 143.737 205.719L145.288 205.724C145.205 206.224 145.045 206.685 144.806 207.106C144.571 207.523 144.267 207.885 143.896 208.19C143.528 208.491 143.107 208.725 142.633 208.891C142.159 209.056 141.642 209.139 141.082 209.139C140.201 209.139 139.415 208.93 138.726 208.513C138.036 208.092 137.493 207.49 137.095 206.708C136.701 205.926 136.503 204.993 136.503 203.909C136.503 202.822 136.702 201.889 137.1 201.11C137.498 200.328 138.041 199.728 138.731 199.31C139.42 198.889 140.204 198.679 141.082 198.679C141.622 198.679 142.126 198.757 142.594 198.913C143.064 199.065 143.487 199.29 143.861 199.589C144.236 199.884 144.546 200.245 144.791 200.673C145.036 201.097 145.202 201.582 145.288 202.129ZM147.126 209V198.818H153.51V200.141H148.663V203.243H153.177V204.56H148.663V207.678H153.57V209H147.126ZM164.406 203.909C164.406 204.996 164.208 205.931 163.81 206.713C163.412 207.492 162.867 208.092 162.174 208.513C161.485 208.93 160.701 209.139 159.823 209.139C158.941 209.139 158.154 208.93 157.461 208.513C156.772 208.092 156.228 207.49 155.83 206.708C155.433 205.926 155.234 204.993 155.234 203.909C155.234 202.822 155.433 201.889 155.83 201.11C156.228 200.328 156.772 199.728 157.461 199.31C158.154 198.889 158.941 198.679 159.823 198.679C160.701 198.679 161.485 198.889 162.174 199.31C162.867 199.728 163.412 200.328 163.81 201.11C164.208 201.889 164.406 202.822 164.406 203.909ZM162.885 203.909C162.885 203.08 162.751 202.383 162.482 201.816C162.217 201.246 161.853 200.815 161.389 200.523C160.928 200.228 160.406 200.081 159.823 200.081C159.236 200.081 158.712 200.228 158.252 200.523C157.791 200.815 157.426 201.246 157.158 201.816C156.893 202.383 156.76 203.08 156.76 203.909C156.76 204.738 156.893 205.437 157.158 206.007C157.426 206.574 157.791 207.005 158.252 207.3C158.712 207.591 159.236 207.737 159.823 207.737C160.406 207.737 160.928 207.591 161.389 207.3C161.853 207.005 162.217 206.574 162.482 206.007C162.751 205.437 162.885 204.738 162.885 203.909ZM167.494 207.608L167.419 208.15C167.369 208.548 167.285 208.962 167.166 209.393C167.05 209.827 166.929 210.23 166.803 210.601C166.68 210.972 166.579 211.267 166.499 211.486H165.445C165.489 211.28 165.548 211.002 165.624 210.651C165.701 210.303 165.775 209.913 165.848 209.482C165.921 209.051 165.976 208.612 166.012 208.165L166.062 207.608H167.494ZM177.211 198.818H178.742V206.037C178.742 206.69 178.613 207.248 178.354 207.712C178.099 208.176 177.739 208.531 177.275 208.776C176.811 209.018 176.268 209.139 175.645 209.139C175.071 209.139 174.556 209.035 174.099 208.826C173.644 208.617 173.285 208.314 173.02 207.916C172.758 207.515 172.627 207.028 172.627 206.455H174.153C174.153 206.736 174.218 206.98 174.347 207.185C174.48 207.391 174.66 207.552 174.889 207.668C175.121 207.78 175.386 207.837 175.684 207.837C176.009 207.837 176.284 207.769 176.51 207.633C176.738 207.494 176.912 207.29 177.032 207.021C177.151 206.753 177.211 206.425 177.211 206.037V198.818ZM181.36 209.094C181.088 209.094 180.854 208.998 180.659 208.806C180.463 208.611 180.365 208.375 180.365 208.1C180.365 207.828 180.463 207.596 180.659 207.404C180.854 207.209 181.088 207.111 181.36 207.111C181.631 207.111 181.865 207.209 182.061 207.404C182.256 207.596 182.354 207.828 182.354 208.1C182.354 208.282 182.307 208.45 182.215 208.602C182.125 208.751 182.006 208.871 181.857 208.96C181.708 209.05 181.542 209.094 181.36 209.094ZM184.464 209V198.818H188.094C188.886 198.818 189.542 198.962 190.062 199.251C190.583 199.539 190.972 199.933 191.231 200.434C191.489 200.931 191.618 201.491 191.618 202.114C191.618 202.741 191.488 203.304 191.226 203.805C190.967 204.302 190.576 204.696 190.052 204.988C189.532 205.276 188.877 205.42 188.089 205.42H185.593V204.118H187.949C188.45 204.118 188.856 204.032 189.167 203.859C189.479 203.684 189.708 203.445 189.854 203.143C189.999 202.842 190.072 202.499 190.072 202.114C190.072 201.73 189.999 201.388 189.854 201.09C189.708 200.792 189.477 200.558 189.162 200.389C188.851 200.22 188.44 200.136 187.93 200.136H186.001V209H184.464ZM193.801 209.094C193.529 209.094 193.296 208.998 193.1 208.806C192.904 208.611 192.807 208.375 192.807 208.1C192.807 207.828 192.904 207.596 193.1 207.404C193.296 207.209 193.529 207.111 193.801 207.111C194.073 207.111 194.306 207.209 194.502 207.404C194.698 207.596 194.795 207.828 194.795 208.1C194.795 208.282 194.749 208.45 194.656 208.602C194.567 208.751 194.447 208.871 194.298 208.96C194.149 209.05 193.983 209.094 193.801 209.094ZM200.447 198.818H202.311L205.553 206.733H205.672L208.913 198.818H210.778V209H209.316V201.632H209.222L206.219 208.985H205.006L202.003 201.627H201.908V209H200.447V198.818ZM216.108 209.154C215.393 209.154 214.768 208.99 214.234 208.662C213.701 208.334 213.286 207.875 212.991 207.285C212.696 206.695 212.549 206.005 212.549 205.217C212.549 204.424 212.696 203.732 212.991 203.138C213.286 202.545 213.701 202.085 214.234 201.756C214.768 201.428 215.393 201.264 216.108 201.264C216.824 201.264 217.449 201.428 217.983 201.756C218.516 202.085 218.931 202.545 219.226 203.138C219.521 203.732 219.668 204.424 219.668 205.217C219.668 206.005 219.521 206.695 219.226 207.285C218.931 207.875 218.516 208.334 217.983 208.662C217.449 208.99 216.824 209.154 216.108 209.154ZM216.113 207.906C216.577 207.906 216.962 207.784 217.267 207.538C217.572 207.293 217.797 206.967 217.943 206.559C218.092 206.151 218.167 205.702 218.167 205.212C218.167 204.724 218.092 204.277 217.943 203.869C217.797 203.458 217.572 203.129 217.267 202.88C216.962 202.631 216.577 202.507 216.113 202.507C215.646 202.507 215.258 202.631 214.95 202.88C214.645 203.129 214.418 203.458 214.269 203.869C214.123 204.277 214.05 204.724 214.05 205.212C214.05 205.702 214.123 206.151 214.269 206.559C214.418 206.967 214.645 207.293 214.95 207.538C215.258 207.784 215.646 207.906 216.113 207.906ZM221.327 209V201.364H222.764V202.577H222.844C222.983 202.166 223.228 201.843 223.58 201.607C223.934 201.369 224.335 201.249 224.783 201.249C224.875 201.249 224.985 201.253 225.111 201.259C225.24 201.266 225.341 201.274 225.414 201.284V202.706C225.354 202.689 225.248 202.671 225.096 202.651C224.943 202.628 224.791 202.616 224.638 202.616C224.287 202.616 223.974 202.691 223.699 202.84C223.427 202.986 223.212 203.19 223.053 203.452C222.893 203.71 222.814 204.005 222.814 204.337V209H221.327ZM229.629 212.023C229.022 212.023 228.5 211.943 228.063 211.784C227.628 211.625 227.274 211.415 226.999 211.153C226.724 210.891 226.518 210.604 226.382 210.293L227.66 209.766C227.749 209.911 227.869 210.066 228.018 210.228C228.17 210.394 228.376 210.535 228.634 210.651C228.896 210.767 229.233 210.825 229.644 210.825C230.207 210.825 230.673 210.687 231.041 210.412C231.409 210.14 231.593 209.706 231.593 209.109V207.608H231.498C231.409 207.77 231.279 207.951 231.11 208.15C230.945 208.349 230.716 208.521 230.424 208.667C230.133 208.813 229.753 208.886 229.286 208.886C228.682 208.886 228.139 208.745 227.655 208.463C227.174 208.178 226.793 207.759 226.512 207.205C226.233 206.648 226.094 205.964 226.094 205.152C226.094 204.34 226.231 203.644 226.507 203.064C226.785 202.484 227.166 202.04 227.65 201.732C228.134 201.42 228.682 201.264 229.296 201.264C229.77 201.264 230.152 201.344 230.444 201.503C230.736 201.659 230.963 201.841 231.125 202.05C231.291 202.259 231.419 202.442 231.508 202.602H231.617V201.364H233.074V209.169C233.074 209.825 232.922 210.364 232.617 210.785C232.312 211.206 231.899 211.517 231.379 211.719C230.862 211.922 230.278 212.023 229.629 212.023ZM229.614 207.653C230.041 207.653 230.403 207.553 230.698 207.354C230.996 207.152 231.221 206.864 231.374 206.489C231.53 206.112 231.607 205.659 231.607 205.132C231.607 204.618 231.531 204.166 231.379 203.775C231.226 203.384 231.003 203.079 230.708 202.86C230.413 202.638 230.048 202.527 229.614 202.527C229.166 202.527 228.794 202.643 228.495 202.875C228.197 203.104 227.972 203.415 227.819 203.81C227.67 204.204 227.595 204.645 227.595 205.132C227.595 205.633 227.672 206.072 227.824 206.45C227.977 206.827 228.202 207.122 228.5 207.335C228.802 207.547 229.173 207.653 229.614 207.653ZM237.29 209.169C236.806 209.169 236.369 209.08 235.977 208.901C235.586 208.718 235.276 208.455 235.048 208.11C234.822 207.765 234.71 207.343 234.71 206.842C234.71 206.411 234.793 206.057 234.958 205.778C235.124 205.5 235.348 205.28 235.629 205.117C235.911 204.955 236.226 204.832 236.574 204.749C236.922 204.666 237.277 204.603 237.638 204.56C238.095 204.507 238.467 204.464 238.752 204.431C239.037 204.395 239.244 204.337 239.373 204.257C239.502 204.178 239.567 204.048 239.567 203.869V203.835C239.567 203.4 239.444 203.064 239.199 202.825C238.957 202.587 238.596 202.467 238.115 202.467C237.615 202.467 237.22 202.578 236.932 202.8C236.647 203.019 236.45 203.263 236.34 203.531L234.943 203.213C235.109 202.749 235.351 202.375 235.669 202.089C235.991 201.801 236.36 201.592 236.778 201.463C237.195 201.33 237.635 201.264 238.095 201.264C238.4 201.264 238.723 201.301 239.065 201.374C239.41 201.443 239.731 201.572 240.029 201.761C240.331 201.95 240.578 202.22 240.77 202.572C240.962 202.92 241.058 203.372 241.058 203.929V209H239.607V207.956H239.547C239.451 208.148 239.307 208.337 239.115 208.523C238.922 208.708 238.675 208.862 238.374 208.985C238.072 209.108 237.711 209.169 237.29 209.169ZM237.613 207.976C238.024 207.976 238.375 207.895 238.667 207.732C238.962 207.57 239.186 207.358 239.338 207.096C239.494 206.831 239.572 206.547 239.572 206.246V205.261C239.519 205.314 239.416 205.364 239.264 205.411C239.115 205.454 238.944 205.492 238.752 205.525C238.559 205.555 238.372 205.583 238.19 205.609C238.008 205.633 237.855 205.652 237.732 205.669C237.444 205.705 237.181 205.767 236.942 205.853C236.707 205.939 236.518 206.063 236.375 206.226C236.236 206.385 236.166 206.597 236.166 206.862C236.166 207.23 236.302 207.509 236.574 207.697C236.846 207.883 237.192 207.976 237.613 207.976ZM244.525 204.466V209H243.038V201.364H244.465V202.607H244.56C244.735 202.202 245.01 201.877 245.385 201.632C245.763 201.387 246.238 201.264 246.812 201.264C247.332 201.264 247.788 201.374 248.179 201.592C248.57 201.808 248.873 202.129 249.089 202.557C249.304 202.984 249.412 203.513 249.412 204.143V209H247.925V204.322C247.925 203.768 247.781 203.336 247.493 203.024C247.205 202.709 246.808 202.552 246.305 202.552C245.96 202.552 245.653 202.626 245.385 202.776C245.12 202.925 244.909 203.143 244.754 203.432C244.601 203.717 244.525 204.062 244.525 204.466ZM138.24 219.129H136.689C136.63 218.798 136.518 218.506 136.356 218.254C136.194 218.002 135.995 217.789 135.759 217.613C135.524 217.437 135.261 217.305 134.969 217.215C134.681 217.126 134.374 217.081 134.049 217.081C133.463 217.081 132.937 217.228 132.473 217.523C132.013 217.818 131.648 218.251 131.38 218.821C131.114 219.391 130.982 220.087 130.982 220.909C130.982 221.738 131.114 222.437 131.38 223.007C131.648 223.577 132.014 224.008 132.478 224.3C132.942 224.591 133.464 224.737 134.044 224.737C134.366 224.737 134.671 224.694 134.959 224.608C135.251 224.518 135.514 224.388 135.75 224.215C135.985 224.043 136.184 223.832 136.346 223.584C136.512 223.332 136.626 223.044 136.689 222.719L138.24 222.724C138.157 223.224 137.997 223.685 137.758 224.106C137.523 224.523 137.219 224.885 136.848 225.19C136.48 225.491 136.059 225.725 135.585 225.891C135.112 226.056 134.594 226.139 134.034 226.139C133.153 226.139 132.367 225.93 131.678 225.513C130.988 225.092 130.445 224.49 130.047 223.708C129.653 222.926 129.456 221.993 129.456 220.909C129.456 219.822 129.654 218.889 130.052 218.11C130.45 217.328 130.993 216.728 131.683 216.31C132.372 215.889 133.156 215.679 134.034 215.679C134.575 215.679 135.078 215.757 135.546 215.913C136.016 216.065 136.439 216.29 136.813 216.589C137.188 216.884 137.498 217.245 137.743 217.673C137.988 218.097 138.154 218.582 138.24 219.129ZM141.446 221.466V226H139.959V215.818H141.426V219.607H141.52C141.699 219.196 141.973 218.869 142.341 218.627C142.709 218.385 143.189 218.264 143.782 218.264C144.306 218.264 144.763 218.372 145.155 218.587C145.549 218.803 145.854 219.124 146.069 219.552C146.288 219.976 146.397 220.506 146.397 221.143V226H144.911V221.322C144.911 220.762 144.767 220.327 144.478 220.019C144.19 219.708 143.789 219.552 143.275 219.552C142.924 219.552 142.609 219.626 142.331 219.776C142.056 219.925 141.839 220.143 141.679 220.432C141.524 220.717 141.446 221.062 141.446 221.466ZM150.603 226.169C150.12 226.169 149.682 226.08 149.291 225.901C148.9 225.718 148.59 225.455 148.361 225.11C148.136 224.765 148.023 224.343 148.023 223.842C148.023 223.411 148.106 223.057 148.272 222.778C148.437 222.5 148.661 222.28 148.943 222.117C149.225 221.955 149.54 221.832 149.888 221.749C150.236 221.666 150.59 221.603 150.951 221.56C151.409 221.507 151.78 221.464 152.065 221.431C152.35 221.395 152.557 221.337 152.687 221.257C152.816 221.178 152.88 221.048 152.88 220.869V220.835C152.88 220.4 152.758 220.064 152.513 219.825C152.271 219.587 151.909 219.467 151.429 219.467C150.928 219.467 150.534 219.578 150.245 219.8C149.96 220.019 149.763 220.263 149.654 220.531L148.257 220.213C148.423 219.749 148.665 219.375 148.983 219.089C149.304 218.801 149.674 218.592 150.091 218.463C150.509 218.33 150.948 218.264 151.409 218.264C151.714 218.264 152.037 218.301 152.378 218.374C152.723 218.443 153.044 218.572 153.343 218.761C153.644 218.95 153.891 219.22 154.084 219.572C154.276 219.92 154.372 220.372 154.372 220.929V226H152.92V224.956H152.861C152.764 225.148 152.62 225.337 152.428 225.523C152.236 225.708 151.989 225.862 151.687 225.985C151.386 226.108 151.024 226.169 150.603 226.169ZM150.927 224.976C151.338 224.976 151.689 224.895 151.981 224.732C152.276 224.57 152.499 224.358 152.652 224.096C152.807 223.831 152.885 223.547 152.885 223.246V222.261C152.832 222.314 152.73 222.364 152.577 222.411C152.428 222.454 152.257 222.492 152.065 222.525C151.873 222.555 151.686 222.583 151.503 222.609C151.321 222.633 151.169 222.652 151.046 222.669C150.758 222.705 150.494 222.767 150.255 222.853C150.02 222.939 149.831 223.063 149.689 223.226C149.549 223.385 149.48 223.597 149.48 223.862C149.48 224.23 149.616 224.509 149.888 224.697C150.159 224.883 150.506 224.976 150.927 224.976ZM162.074 220.228L160.727 220.467C160.67 220.294 160.581 220.13 160.458 219.974C160.339 219.819 160.177 219.691 159.971 219.592C159.766 219.492 159.509 219.442 159.201 219.442C158.78 219.442 158.428 219.537 158.147 219.726C157.865 219.911 157.724 220.152 157.724 220.447C157.724 220.702 157.818 220.907 158.007 221.063C158.196 221.219 158.501 221.347 158.922 221.446L160.135 221.724C160.838 221.887 161.362 222.137 161.706 222.475C162.051 222.813 162.223 223.252 162.223 223.793C162.223 224.25 162.091 224.658 161.826 225.016C161.564 225.37 161.197 225.649 160.727 225.851C160.259 226.053 159.718 226.154 159.101 226.154C158.246 226.154 157.548 225.972 157.008 225.607C156.468 225.239 156.136 224.717 156.014 224.041L157.451 223.822C157.54 224.197 157.724 224.48 158.002 224.673C158.281 224.862 158.644 224.956 159.091 224.956C159.578 224.956 159.968 224.855 160.259 224.653C160.551 224.447 160.697 224.197 160.697 223.902C160.697 223.663 160.608 223.463 160.429 223.3C160.253 223.138 159.983 223.015 159.618 222.933L158.326 222.649C157.613 222.487 157.086 222.228 156.745 221.874C156.407 221.519 156.237 221.07 156.237 220.526C156.237 220.076 156.363 219.681 156.615 219.343C156.867 219.005 157.215 218.741 157.659 218.553C158.103 218.36 158.612 218.264 159.186 218.264C160.011 218.264 160.661 218.443 161.134 218.801C161.608 219.156 161.922 219.631 162.074 220.228ZM167.149 226.154C166.397 226.154 165.749 225.993 165.205 225.672C164.665 225.347 164.247 224.891 163.952 224.305C163.66 223.715 163.515 223.024 163.515 222.232C163.515 221.449 163.66 220.76 163.952 220.163C164.247 219.567 164.658 219.101 165.185 218.766C165.715 218.432 166.335 218.264 167.044 218.264C167.475 218.264 167.893 218.335 168.297 218.478C168.702 218.621 169.065 218.844 169.386 219.149C169.708 219.454 169.961 219.85 170.147 220.337C170.332 220.821 170.425 221.41 170.425 222.102V222.629H164.355V221.516H168.968C168.968 221.125 168.889 220.778 168.73 220.477C168.571 220.172 168.347 219.931 168.059 219.756C167.774 219.58 167.439 219.492 167.054 219.492C166.637 219.492 166.272 219.595 165.961 219.8C165.652 220.003 165.414 220.268 165.245 220.596C165.079 220.921 164.996 221.274 164.996 221.655V222.525C164.996 223.035 165.086 223.469 165.265 223.827C165.447 224.185 165.7 224.459 166.025 224.648C166.35 224.833 166.73 224.926 167.164 224.926C167.446 224.926 167.702 224.886 167.934 224.807C168.166 224.724 168.367 224.601 168.536 224.439C168.705 224.277 168.834 224.076 168.924 223.837L170.331 224.091C170.218 224.505 170.016 224.868 169.724 225.18C169.436 225.488 169.073 225.728 168.635 225.901C168.201 226.07 167.706 226.154 167.149 226.154ZM178.743 226.144C178.06 226.144 177.472 226.02 176.978 225.771C176.487 225.523 176.109 225.185 175.844 224.757C175.579 224.326 175.446 223.839 175.446 223.295C175.446 222.881 175.533 222.513 175.705 222.192C175.877 221.867 176.118 221.567 176.426 221.292C176.734 221.017 177.09 220.74 177.495 220.462L179.135 219.303C179.414 219.121 179.631 218.929 179.787 218.727C179.942 218.521 180.02 218.268 180.02 217.966C180.02 217.727 179.918 217.499 179.712 217.28C179.507 217.061 179.232 216.952 178.887 216.952C178.648 216.952 178.438 217.01 178.255 217.126C178.076 217.242 177.936 217.391 177.833 217.573C177.733 217.752 177.684 217.941 177.684 218.14C177.684 218.372 177.747 218.606 177.873 218.841C178.002 219.076 178.168 219.32 178.37 219.572C178.572 219.82 178.784 220.079 179.006 220.347L183.734 226H182.054L178.141 221.401C177.813 221.013 177.508 220.649 177.226 220.308C176.945 219.963 176.716 219.615 176.54 219.263C176.368 218.909 176.282 218.526 176.282 218.115C176.282 217.648 176.388 217.233 176.6 216.872C176.815 216.508 177.115 216.223 177.5 216.017C177.884 215.812 178.335 215.709 178.852 215.709C179.376 215.709 179.825 215.812 180.199 216.017C180.577 216.219 180.867 216.489 181.069 216.827C181.275 217.162 181.378 217.528 181.378 217.926C181.378 218.41 181.257 218.838 181.015 219.209C180.776 219.577 180.446 219.915 180.025 220.223L177.982 221.729C177.584 222.021 177.307 222.309 177.152 222.594C176.999 222.876 176.923 223.097 176.923 223.256C176.923 223.547 176.998 223.817 177.147 224.066C177.299 224.315 177.511 224.513 177.783 224.663C178.058 224.812 178.38 224.886 178.748 224.886C179.125 224.886 179.493 224.805 179.851 224.643C180.213 224.477 180.539 224.24 180.831 223.932C181.126 223.624 181.359 223.254 181.532 222.823C181.704 222.392 181.79 221.91 181.79 221.376H183.133C183.133 222.033 183.058 222.588 182.909 223.042C182.76 223.493 182.579 223.861 182.367 224.146C182.158 224.427 181.961 224.648 181.775 224.807C181.716 224.86 181.659 224.913 181.606 224.966C181.553 225.019 181.497 225.072 181.437 225.125C181.093 225.473 180.675 225.73 180.184 225.896C179.697 226.061 179.217 226.144 178.743 226.144ZM197.18 219.129H195.629C195.569 218.798 195.458 218.506 195.296 218.254C195.133 218.002 194.934 217.789 194.699 217.613C194.464 217.437 194.2 217.305 193.908 217.215C193.62 217.126 193.314 217.081 192.989 217.081C192.402 217.081 191.877 217.228 191.413 217.523C190.952 217.818 190.587 218.251 190.319 218.821C190.054 219.391 189.921 220.087 189.921 220.909C189.921 221.738 190.054 222.437 190.319 223.007C190.587 223.577 190.954 224.008 191.418 224.3C191.882 224.591 192.404 224.737 192.984 224.737C193.305 224.737 193.61 224.694 193.899 224.608C194.19 224.518 194.454 224.388 194.689 224.215C194.924 224.043 195.123 223.832 195.286 223.584C195.451 223.332 195.566 223.044 195.629 222.719L197.18 222.724C197.097 223.224 196.936 223.685 196.698 224.106C196.462 224.523 196.159 224.885 195.788 225.19C195.42 225.491 194.999 225.725 194.525 225.891C194.051 226.056 193.534 226.139 192.974 226.139C192.092 226.139 191.307 225.93 190.617 225.513C189.928 225.092 189.384 224.49 188.987 223.708C188.592 222.926 188.395 221.993 188.395 220.909C188.395 219.822 188.594 218.889 188.992 218.11C189.389 217.328 189.933 216.728 190.622 216.31C191.312 215.889 192.095 215.679 192.974 215.679C193.514 215.679 194.018 215.757 194.485 215.913C194.956 216.065 195.378 216.29 195.753 216.589C196.127 216.884 196.437 217.245 196.683 217.673C196.928 218.097 197.094 218.582 197.18 219.129ZM202.115 226.154C201.399 226.154 200.775 225.99 200.241 225.662C199.707 225.334 199.293 224.875 198.998 224.285C198.703 223.695 198.556 223.005 198.556 222.217C198.556 221.424 198.703 220.732 198.998 220.138C199.293 219.545 199.707 219.085 200.241 218.756C200.775 218.428 201.399 218.264 202.115 218.264C202.831 218.264 203.456 218.428 203.99 218.756C204.523 219.085 204.938 219.545 205.233 220.138C205.527 220.732 205.675 221.424 205.675 222.217C205.675 223.005 205.527 223.695 205.233 224.285C204.938 224.875 204.523 225.334 203.99 225.662C203.456 225.99 202.831 226.154 202.115 226.154ZM202.12 224.906C202.584 224.906 202.969 224.784 203.274 224.538C203.579 224.293 203.804 223.967 203.95 223.559C204.099 223.151 204.174 222.702 204.174 222.212C204.174 221.724 204.099 221.277 203.95 220.869C203.804 220.458 203.579 220.129 203.274 219.88C202.969 219.631 202.584 219.507 202.12 219.507C201.653 219.507 201.265 219.631 200.957 219.88C200.652 220.129 200.425 220.458 200.276 220.869C200.13 221.277 200.057 221.724 200.057 222.212C200.057 222.702 200.13 223.151 200.276 223.559C200.425 223.967 200.652 224.293 200.957 224.538C201.265 224.784 201.653 224.906 202.12 224.906Z" fill="#0C212C"/>
<defs>
<linearGradient id="paint0_linear_6039_1122" x1="225" y1="135.5" x2="344" y2="135.5" gradientUnits="userSpaceOnUse">
<stop offset="0.081934" stop-color="#15BFFD" stop-opacity="0"/>
<stop offset="0.706057" stop-color="#15BFFD"/>
<stop offset="1" stop-color="#9C37FD"/>
</linearGradient>
<linearGradient id="paint1_linear_6039_1122" x1="36.96" y1="38.4976" x2="145.32" y2="326.694" gradientUnits="userSpaceOnUse">
<stop stop-color="#15BFFD"/>
<stop offset="1" stop-color="#9C37FD"/>
</linearGradient>
</defs>
</svg>
