<svg width="32" height="32" viewBox="0 0 32 32" fill="none" xmlns="http://www.w3.org/2000/svg">
<path d="M25.3155 9.21352C25.3869 5.50352 22.3255 2.65552 18.1162 2.65552H9.41087C9.20794 2.65558 9.01171 2.72807 8.85747 2.85994C8.70324 2.99181 8.60113 3.1744 8.56953 3.37485L5.08087 25.1722C5.06526 25.2709 5.07125 25.3719 5.09841 25.4682C5.12557 25.5644 5.17327 25.6536 5.23821 25.7296C5.30315 25.8057 5.3838 25.8667 5.47461 25.9086C5.56541 25.9505 5.66421 25.9722 5.7642 25.9722H10.9222L10.1155 31.0202C10.0999 31.119 10.1059 31.22 10.1331 31.3163C10.1603 31.4126 10.2081 31.5018 10.2731 31.5779C10.3381 31.6539 10.4188 31.715 10.5097 31.7568C10.6006 31.7986 10.6995 31.8202 10.7995 31.8202H15.0009C15.2042 31.8202 15.3849 31.7468 15.5389 31.6155C15.6929 31.4835 15.7182 31.3015 15.7495 31.1008L16.9829 23.8442C17.0142 23.6442 17.1162 23.3842 17.2709 23.2522C17.4249 23.1202 17.5595 23.0482 17.7622 23.0475H20.3342C24.4562 23.0475 27.9542 20.1182 28.5935 16.0428C29.0455 13.1495 27.8049 10.5182 25.3155 9.21352Z" fill="#001C64"/>
<path d="M12.0373 17.9334L10.7526 26.08L9.94598 31.1894C9.93037 31.2882 9.93637 31.3892 9.96357 31.4855C9.99077 31.5818 10.0385 31.671 10.1035 31.7471C10.1686 31.8231 10.2493 31.8842 10.3402 31.926C10.4311 31.9678 10.5299 31.9894 10.63 31.9894H15.0766C15.2795 31.9892 15.4755 31.9166 15.6296 31.7847C15.7837 31.6529 15.8857 31.4704 15.9173 31.27L17.0893 23.8434C17.1209 23.6431 17.2229 23.4607 17.3771 23.3289C17.5312 23.1972 17.7272 23.1248 17.93 23.1247H20.548C24.67 23.1247 28.1673 20.118 28.8066 16.0427C29.26 13.15 27.804 10.5187 25.3146 9.21338C25.308 9.52138 25.2813 9.82871 25.234 10.1334C24.5946 14.208 21.0966 17.2154 16.9746 17.2154H12.878C12.6753 17.2154 12.4793 17.2877 12.3252 17.4194C12.1711 17.551 12.0691 17.7332 12.0373 17.9334Z" fill="#0070E0"/>
<path d="M10.7534 26.0799H5.58011C5.48008 26.08 5.38123 26.0584 5.29037 26.0166C5.19951 25.9747 5.11881 25.9137 5.05385 25.8376C4.98888 25.7616 4.94119 25.6723 4.91407 25.576C4.88696 25.4797 4.88105 25.3787 4.89678 25.2799L8.38478 3.15861C8.41639 2.95822 8.51852 2.77571 8.67277 2.64395C8.82702 2.51219 9.02325 2.43985 9.22611 2.43994H18.1174C22.3261 2.43994 25.3874 5.50327 25.3161 9.21327C24.2688 8.66394 23.0381 8.34994 21.6894 8.34994H14.2768C14.0741 8.35014 13.8781 8.42261 13.724 8.55433C13.5699 8.68605 13.4678 8.86839 13.4361 9.06861L12.0394 17.9333L10.7534 26.0799Z" fill="#003087"/>
</svg>
