<svg width="1600" height="472" viewBox="0 0 1600 472" fill="none" xmlns="http://www.w3.org/2000/svg">
<g clip-path="url(#clip0_8071_36695)">
<rect width="1600" height="472" rx="32" fill="#DA281C"/>
<ellipse cx="270.323" cy="235.846" rx="231.846" ry="230.36" transform="rotate(90 270.323 235.846)" fill="url(#paint0_linear_8071_36695)"/>
<ellipse cx="514.933" cy="235.846" rx="231.846" ry="230.36" transform="rotate(90 514.933 235.846)" fill="url(#paint1_linear_8071_36695)"/>
<ellipse cx="50.5733" cy="235.846" rx="231.846" ry="230.36" transform="rotate(90 50.5733 235.846)" fill="url(#paint2_linear_8071_36695)"/>
<ellipse cx="-169.181" cy="235.846" rx="231.846" ry="230.36" transform="rotate(90 -169.181 235.846)" fill="url(#paint3_linear_8071_36695)"/>
<rect x="-21" width="1621" height="472" rx="33.5969" fill="url(#paint4_linear_8071_36695)"/>
<path d="M322 42H1552C1560.84 42 1568 49.1634 1568 58V415C1568 423.837 1560.84 431 1552 431H322" stroke="url(#paint5_linear_8071_36695)" stroke-opacity="0.7" stroke-width="6"/>
</g>
<defs>
<linearGradient id="paint0_linear_8071_36695" x1="272.484" y1="46.0245" x2="293.819" y2="494.795" gradientUnits="userSpaceOnUse">
<stop stop-color="#E67068"/>
<stop offset="1" stop-color="#B62117"/>
</linearGradient>
<linearGradient id="paint1_linear_8071_36695" x1="517.094" y1="46.0245" x2="538.429" y2="494.795" gradientUnits="userSpaceOnUse">
<stop stop-color="#F32E21"/>
<stop offset="1" stop-color="#E67068"/>
</linearGradient>
<linearGradient id="paint2_linear_8071_36695" x1="52.7342" y1="46.0245" x2="74.0692" y2="494.795" gradientUnits="userSpaceOnUse">
<stop stop-color="#E67068"/>
<stop offset="1" stop-color="#FF2819"/>
</linearGradient>
<linearGradient id="paint3_linear_8071_36695" x1="-167.02" y1="46.0245" x2="-145.685" y2="494.795" gradientUnits="userSpaceOnUse">
<stop stop-color="#B62117"/>
<stop offset="1" stop-color="#E67068"/>
</linearGradient>
<linearGradient id="paint4_linear_8071_36695" x1="1600" y1="5.40042e-05" x2="465.014" y2="1015.3" gradientUnits="userSpaceOnUse">
<stop stop-color="#E9BB47"/>
<stop offset="1" stop-color="#DA291C"/>
</linearGradient>
<linearGradient id="paint5_linear_8071_36695" x1="322" y1="236.5" x2="1568" y2="236.5" gradientUnits="userSpaceOnUse">
<stop offset="0.081934" stop-color="#DA291C" stop-opacity="0"/>
<stop offset="0.706057" stop-color="#DA291C"/>
<stop offset="1" stop-color="#FFC72C"/>
</linearGradient>
<clipPath id="clip0_8071_36695">
<rect width="1600" height="472" rx="32" fill="white"/>
</clipPath>
</defs>
</svg>
