<svg width="1486" height="350" viewBox="0 0 1486 350" fill="none" xmlns="http://www.w3.org/2000/svg">
<path d="M971.5 3.25977H1466.5C1475.34 3.25977 1482.5 10.4232 1482.5 19.2598V330.26C1482.5 339.096 1475.34 346.26 1466.5 346.26H971.5" stroke="url(#paint0_linear_6017_8798)" stroke-opacity="0.7" stroke-width="6"/>
<rect x="0.5" y="21.0957" width="1447.93" height="307.328" rx="8" fill="white" fill-opacity="0.05"/>
<rect x="1" y="21.5957" width="1446.93" height="306.328" rx="7.5" stroke="url(#paint1_linear_6017_8798)" stroke-opacity="0.7"/>
<path d="M109.694 97.2598L110.176 94.5325C110.319 93.7276 110.607 92.88 111.043 91.9899C111.488 91.0997 112.047 90.2475 112.719 89.4331C113.401 88.6187 114.158 87.9226 114.992 87.345L116.81 88.8507C116.119 89.6935 115.489 90.5742 114.921 91.4927C114.353 92.4113 113.983 93.4103 113.813 94.4899L113.33 97.2598H109.694ZM116.938 97.2598L117.421 94.5325C117.563 93.7276 117.852 92.88 118.287 91.9899C118.732 91.0997 119.291 90.2475 119.963 89.4331C120.645 88.6187 121.403 87.9226 122.236 87.345L124.054 88.8507C123.363 89.6935 122.733 90.5742 122.165 91.4927C121.597 92.4113 121.228 93.4103 121.057 94.4899L120.574 97.2598H116.938ZM132.577 88.1689L127.748 117.26H123.358L128.188 88.1689H132.577ZM147.62 95.4416L147.066 98.8507H135.148L135.702 95.4416H147.62ZM139.75 90.2143H143.998L140.56 110.854C140.427 111.677 140.451 112.298 140.631 112.714C140.811 113.122 141.086 113.401 141.455 113.552C141.834 113.694 142.255 113.765 142.719 113.765C143.06 113.765 143.358 113.742 143.614 113.694C143.87 113.647 144.073 113.609 144.225 113.581L144.452 117.089C144.168 117.184 143.784 117.279 143.301 117.373C142.828 117.478 142.25 117.534 141.569 117.544C140.451 117.563 139.443 117.364 138.543 116.947C137.643 116.521 136.971 115.877 136.526 115.015C136.081 114.144 135.972 113.05 136.199 111.734L139.75 90.2143ZM158.255 88.1689L157.829 90.8961C157.697 91.7011 157.403 92.5486 156.949 93.4387C156.503 94.3194 155.94 95.167 155.258 95.9814C154.586 96.7957 153.842 97.4965 153.028 98.0836L151.153 96.5779C151.844 95.7636 152.469 94.8971 153.028 93.9785C153.587 93.06 153.961 92.0467 154.15 90.9387L154.619 88.1689H158.255ZM173.88 100.768L169.917 101.45C169.832 100.948 169.657 100.475 169.392 100.03C169.136 99.5846 168.743 99.2247 168.213 98.9501C167.682 98.666 166.977 98.524 166.096 98.524C164.875 98.524 163.805 98.8033 162.886 99.362C161.977 99.9207 161.456 100.631 161.324 101.493C161.2 102.193 161.366 102.762 161.821 103.197C162.275 103.623 163.075 103.979 164.221 104.263L167.574 105.058C169.505 105.522 170.888 106.247 171.721 107.231C172.564 108.207 172.858 109.476 172.602 111.038C172.384 112.336 171.816 113.486 170.897 114.49C169.988 115.494 168.824 116.28 167.403 116.848C165.983 117.416 164.401 117.7 162.659 117.7C160.178 117.7 158.246 117.175 156.863 116.123C155.481 115.072 154.77 113.586 154.733 111.663L158.937 111.038C159.013 112.108 159.396 112.918 160.088 113.467C160.788 114.007 161.759 114.277 163 114.277C164.42 114.286 165.609 113.988 166.565 113.382C167.521 112.776 168.066 112.042 168.199 111.18C168.312 110.508 168.161 109.949 167.744 109.504C167.337 109.059 166.617 108.718 165.585 108.481L162.062 107.672C160.092 107.208 158.7 106.46 157.886 105.427C157.072 104.395 156.797 103.098 157.062 101.535C157.27 100.257 157.81 99.1442 158.681 98.1973C159.562 97.2408 160.675 96.4975 162.02 95.9672C163.364 95.4274 164.851 95.1575 166.48 95.1575C168.857 95.1575 170.642 95.6689 171.835 96.6916C173.028 97.7048 173.71 99.0637 173.88 100.768ZM196.366 88.1689L191.537 117.26H187.147L191.977 88.1689H196.366ZM197.602 117.26L201.238 95.4416H205.315L204.718 98.9927H204.988C205.651 97.7901 206.551 96.8526 207.687 96.1802C208.833 95.4984 210.13 95.1575 211.579 95.1575C213.019 95.1575 214.179 95.4984 215.059 96.1802C215.949 96.862 216.532 97.7995 216.806 98.9927H217.034C217.734 97.8185 218.715 96.8857 219.974 96.1944C221.234 95.5031 222.649 95.1575 224.221 95.1575C226.181 95.1575 227.687 95.7825 228.738 97.0325C229.799 98.273 230.121 100.139 229.704 102.629L227.261 117.26H223L225.386 103.027C225.623 101.54 225.395 100.47 224.704 99.8166C224.013 99.1537 223.109 98.8223 221.991 98.8223C220.609 98.8223 219.463 99.2484 218.554 100.101C217.645 100.943 217.086 102.028 216.877 103.354L214.534 117.26H210.315L212.744 102.757C212.933 101.564 212.716 100.612 212.091 99.9018C211.475 99.1821 210.575 98.8223 209.392 98.8223C208.587 98.8223 207.806 99.0353 207.048 99.4615C206.3 99.8876 205.661 100.475 205.13 101.223C204.6 101.971 204.254 102.833 204.093 103.808L201.849 117.26H197.602ZM231.59 125.442L236.618 95.4416H240.766L240.184 98.9785H240.539C240.861 98.524 241.296 97.9984 241.846 97.4018C242.404 96.8052 243.138 96.2844 244.047 95.8393C244.956 95.3848 246.088 95.1575 247.442 95.1575C249.203 95.1575 250.695 95.6026 251.917 96.4927C253.138 97.3829 254.009 98.666 254.53 100.342C255.051 102.018 255.117 104.035 254.729 106.393C254.341 108.751 253.612 110.773 252.542 112.459C251.471 114.135 250.174 115.427 248.65 116.336C247.134 117.236 245.491 117.686 243.721 117.686C242.395 117.686 241.348 117.463 240.581 117.018C239.824 116.573 239.26 116.052 238.891 115.456C238.522 114.859 238.242 114.329 238.053 113.865H237.797L235.865 125.442H231.59ZM238.962 106.351C238.716 107.885 238.716 109.229 238.962 110.385C239.208 111.54 239.701 112.444 240.439 113.098C241.187 113.742 242.172 114.064 243.394 114.064C244.663 114.064 245.775 113.728 246.732 113.055C247.688 112.373 248.479 111.45 249.104 110.285C249.739 109.121 250.179 107.809 250.425 106.351C250.662 104.911 250.657 103.619 250.411 102.473C250.174 101.327 249.686 100.423 248.948 99.7598C248.209 99.0969 247.201 98.7654 245.922 98.7654C244.682 98.7654 243.583 99.0827 242.627 99.7172C241.68 100.352 240.894 101.237 240.269 102.373C239.644 103.51 239.208 104.836 238.962 106.351ZM266.956 117.7C264.882 117.7 263.149 117.227 261.757 116.28C260.365 115.323 259.385 113.988 258.816 112.274C258.258 110.55 258.163 108.548 258.532 106.265C258.892 104.031 259.617 102.08 260.706 100.413C261.804 98.7465 263.177 97.4539 264.825 96.5353C266.482 95.6168 268.324 95.1575 270.35 95.1575C272.424 95.1575 274.153 95.6357 275.535 96.5922C276.927 97.5486 277.907 98.8886 278.475 100.612C279.044 102.336 279.143 104.343 278.774 106.635C278.414 108.851 277.68 110.792 276.572 112.459C275.474 114.116 274.1 115.404 272.453 116.322C270.805 117.241 268.973 117.7 266.956 117.7ZM267.197 114.135C268.561 114.135 269.749 113.775 270.762 113.055C271.785 112.336 272.618 111.379 273.262 110.186C273.906 108.993 274.347 107.686 274.583 106.265C274.801 104.892 274.797 103.638 274.569 102.501C274.351 101.355 273.878 100.437 273.149 99.7456C272.42 99.0543 271.406 98.7086 270.109 98.7086C268.745 98.7086 267.547 99.0732 266.515 99.8024C265.493 100.522 264.659 101.483 264.015 102.686C263.381 103.889 262.95 105.2 262.723 106.621C262.505 107.984 262.505 109.239 262.723 110.385C262.94 111.521 263.414 112.43 264.143 113.112C264.872 113.794 265.89 114.135 267.197 114.135ZM281.767 117.26L285.404 95.4416H289.509L288.926 98.9075H289.154C289.741 97.7332 290.598 96.81 291.725 96.1376C292.852 95.4558 294.054 95.1149 295.333 95.1149C295.607 95.1149 295.92 95.1243 296.27 95.1433C296.621 95.1528 296.905 95.1764 297.123 95.2143L296.441 99.2768C296.28 99.2295 295.986 99.1774 295.56 99.1206C295.134 99.0543 294.694 99.0211 294.239 99.0211C293.245 99.0211 292.321 99.2342 291.469 99.6603C290.617 100.077 289.902 100.659 289.324 101.407C288.747 102.146 288.373 102.989 288.202 103.936L286.015 117.26H281.767ZM312.307 95.4416L311.753 98.8507H299.836L300.39 95.4416H312.307ZM304.438 90.2143H308.685L305.248 110.854C305.115 111.677 305.139 112.298 305.319 112.714C305.498 113.122 305.773 113.401 306.142 113.552C306.521 113.694 306.943 113.765 307.407 113.765C307.748 113.765 308.046 113.742 308.301 113.694C308.557 113.647 308.761 113.609 308.912 113.581L309.14 117.089C308.855 117.184 308.472 117.279 307.989 117.373C307.516 117.478 306.938 117.534 306.256 117.544C305.139 117.563 304.13 117.364 303.23 116.947C302.331 116.521 301.658 115.877 301.213 115.015C300.768 114.144 300.659 113.05 300.887 111.734L304.438 90.2143ZM319.662 117.743C318.279 117.743 317.072 117.487 316.039 116.976C315.007 116.455 314.245 115.702 313.752 114.717C313.26 113.732 313.132 112.525 313.369 111.095C313.577 109.864 313.984 108.851 314.591 108.055C315.206 107.26 315.954 106.63 316.835 106.166C317.716 105.693 318.672 105.337 319.704 105.101C320.736 104.864 321.778 104.689 322.829 104.575C324.155 104.424 325.23 104.296 326.054 104.192C326.887 104.087 327.512 103.926 327.929 103.709C328.345 103.481 328.596 103.112 328.681 102.601V102.501C328.88 101.27 328.7 100.314 328.142 99.6319C327.592 98.9406 326.636 98.595 325.272 98.595C323.852 98.595 322.659 98.9075 321.693 99.5325C320.736 100.157 320.031 100.858 319.576 101.635L315.77 100.726C316.451 99.3999 317.318 98.3298 318.369 97.5154C319.43 96.6916 320.59 96.095 321.849 95.7257C323.109 95.3469 324.396 95.1575 325.713 95.1575C326.584 95.1575 327.488 95.2617 328.426 95.47C329.363 95.6689 330.216 96.0382 330.983 96.5779C331.759 97.1177 332.337 97.8895 332.716 98.8933C333.094 99.8876 333.151 101.18 332.886 102.771L330.485 117.26H326.338L326.849 114.277H326.679C326.319 114.826 325.817 115.366 325.173 115.896C324.538 116.426 323.762 116.867 322.843 117.217C321.925 117.568 320.864 117.743 319.662 117.743ZM321.11 114.334C322.294 114.334 323.341 114.102 324.25 113.638C325.168 113.174 325.912 112.568 326.48 111.819C327.048 111.062 327.403 110.252 327.545 109.39L328.014 106.578C327.834 106.729 327.517 106.867 327.062 106.99C326.617 107.113 326.115 107.222 325.556 107.317C324.998 107.411 324.449 107.492 323.909 107.558C323.378 107.624 322.938 107.686 322.588 107.743C321.754 107.847 320.973 108.022 320.244 108.268C319.524 108.515 318.923 108.87 318.44 109.334C317.957 109.788 317.654 110.394 317.531 111.152C317.36 112.203 317.611 112.998 318.284 113.538C318.966 114.068 319.908 114.334 321.11 114.334ZM342.534 104.305L340.404 117.26H336.157L339.793 95.4416H343.87L343.273 98.9927H343.543C344.234 97.8279 345.176 96.8999 346.37 96.2086C347.572 95.5079 348.993 95.1575 350.631 95.1575C352.108 95.1575 353.349 95.47 354.353 96.095C355.366 96.7105 356.081 97.6291 356.498 98.8507C356.924 100.072 356.99 101.583 356.696 103.382L354.367 117.26H350.12L352.35 103.893C352.605 102.312 352.397 101.076 351.725 100.186C351.062 99.2863 350.006 98.8365 348.557 98.8365C347.572 98.8365 346.658 99.0495 345.816 99.4757C344.982 99.9018 344.277 100.527 343.699 101.351C343.131 102.165 342.743 103.15 342.534 104.305ZM373.87 95.4416L373.316 98.8507H361.398L361.952 95.4416H373.87ZM366 90.2143H370.248L366.81 110.854C366.677 111.677 366.701 112.298 366.881 112.714C367.061 113.122 367.336 113.401 367.705 113.552C368.084 113.694 368.505 113.765 368.969 113.765C369.31 113.765 369.608 113.742 369.864 113.694C370.12 113.647 370.323 113.609 370.475 113.581L370.702 117.089C370.418 117.184 370.034 117.279 369.551 117.373C369.078 117.478 368.5 117.534 367.819 117.544C366.701 117.563 365.693 117.364 364.793 116.947C363.893 116.521 363.221 115.877 362.776 115.015C362.331 114.144 362.222 113.05 362.449 111.734L366 90.2143ZM388.628 91.9473L389.253 88.1689H411.767L411.142 91.9473H402.066L397.861 117.26H393.486L397.691 91.9473H388.628ZM417.698 117.7C415.624 117.7 413.891 117.227 412.499 116.28C411.107 115.323 410.127 113.988 409.559 112.274C409 110.55 408.905 108.548 409.275 106.265C409.634 104.031 410.359 102.08 411.448 100.413C412.546 98.7465 413.919 97.4539 415.567 96.5353C417.224 95.6168 419.066 95.1575 421.093 95.1575C423.167 95.1575 424.895 95.6357 426.277 96.5922C427.669 97.5486 428.65 98.8886 429.218 100.612C429.786 102.336 429.885 104.343 429.516 106.635C429.156 108.851 428.422 110.792 427.314 112.459C426.216 114.116 424.843 115.404 423.195 116.322C421.547 117.241 419.715 117.7 417.698 117.7ZM417.939 114.135C419.303 114.135 420.491 113.775 421.505 113.055C422.527 112.336 423.361 111.379 424.005 110.186C424.649 108.993 425.089 107.686 425.326 106.265C425.543 104.892 425.539 103.638 425.311 102.501C425.094 101.355 424.62 100.437 423.891 99.7456C423.162 99.0543 422.149 98.7086 420.851 98.7086C419.488 98.7086 418.29 99.0732 417.257 99.8024C416.235 100.522 415.401 101.483 414.757 102.686C414.123 103.889 413.692 105.2 413.465 106.621C413.247 107.984 413.247 109.239 413.465 110.385C413.683 111.521 414.156 112.43 414.885 113.112C415.614 113.794 416.632 114.135 417.939 114.135ZM443.436 117.26L448.266 88.1689H458.635C460.889 88.1689 462.693 88.5571 464.047 89.3336C465.411 90.1007 466.348 91.1707 466.86 92.5439C467.381 93.9075 467.494 95.4889 467.201 97.2882C466.898 99.0685 466.258 100.631 465.283 101.976C464.317 103.32 463.025 104.372 461.405 105.129C459.795 105.877 457.864 106.251 455.61 106.251H447.755L448.408 102.473H455.865C457.295 102.473 458.489 102.269 459.445 101.862C460.401 101.455 461.15 100.863 461.689 100.086C462.239 99.31 462.598 98.3772 462.769 97.2882C462.949 96.1802 462.897 95.2285 462.613 94.4331C462.328 93.6281 461.775 93.0126 460.951 92.5865C460.127 92.1509 458.995 91.9331 457.556 91.9331H452.044L447.826 117.26H443.436ZM459.971 104.135L464.985 117.26H459.985L455.098 104.135H459.971ZM478.067 117.7C475.927 117.7 474.156 117.241 472.755 116.322C471.363 115.394 470.387 114.092 469.828 112.416C469.27 110.73 469.18 108.756 469.559 106.493C469.928 104.258 470.671 102.288 471.789 100.584C472.906 98.8791 474.298 97.5486 475.965 96.5922C477.641 95.6357 479.492 95.1575 481.519 95.1575C482.75 95.1575 483.91 95.3611 484.999 95.7683C486.097 96.1755 487.03 96.8147 487.797 97.6859C488.564 98.5571 489.095 99.6887 489.388 101.081C489.691 102.463 489.682 104.144 489.36 106.123L489.118 107.629H471.76L472.257 104.447H485.439C485.638 103.33 485.586 102.34 485.283 101.479C484.98 100.607 484.459 99.9207 483.721 99.4189C482.991 98.917 482.073 98.666 480.965 98.666C479.828 98.666 478.768 98.9643 477.783 99.5609C476.798 100.157 475.974 100.92 475.311 101.848C474.658 102.766 474.246 103.713 474.076 104.689L473.578 107.601C473.332 109.192 473.375 110.47 473.706 111.436C474.047 112.402 474.644 113.103 475.496 113.538C476.348 113.974 477.414 114.192 478.692 114.192C479.516 114.192 480.278 114.078 480.979 113.851C481.689 113.614 482.319 113.268 482.868 112.814C483.417 112.35 483.877 111.772 484.246 111.081L488.138 111.805C487.617 112.989 486.869 114.026 485.894 114.916C484.918 115.797 483.768 116.483 482.442 116.976C481.126 117.459 479.667 117.7 478.067 117.7ZM492.289 117.26L495.926 95.4416H500.002L499.406 98.9927H499.676C500.339 97.7901 501.238 96.8526 502.375 96.1802C503.52 95.4984 504.818 95.1575 506.267 95.1575C507.706 95.1575 508.866 95.4984 509.747 96.1802C510.637 96.862 511.219 97.7995 511.494 98.9927H511.721C512.422 97.8185 513.402 96.8857 514.662 96.1944C515.921 95.5031 517.337 95.1575 518.909 95.1575C520.869 95.1575 522.375 95.7825 523.426 97.0325C524.486 98.273 524.808 100.139 524.392 102.629L521.949 117.26H517.687L520.074 103.027C520.31 101.54 520.083 100.47 519.392 99.8166C518.7 99.1537 517.796 98.8223 516.679 98.8223C515.296 98.8223 514.15 99.2484 513.241 100.101C512.332 100.943 511.773 102.028 511.565 103.354L509.221 117.26H505.002L507.431 102.757C507.621 101.564 507.403 100.612 506.778 99.9018C506.163 99.1821 505.263 98.8223 504.079 98.8223C503.274 98.8223 502.493 99.0353 501.735 99.4615C500.987 99.8876 500.348 100.475 499.818 101.223C499.288 101.971 498.942 102.833 498.781 103.808L496.537 117.26H492.289ZM536.973 117.7C534.833 117.7 533.062 117.241 531.661 116.322C530.269 115.394 529.293 114.092 528.735 112.416C528.176 110.73 528.086 108.756 528.465 106.493C528.834 104.258 529.578 102.288 530.695 100.584C531.812 98.8791 533.204 97.5486 534.871 96.5922C536.547 95.6357 538.399 95.1575 540.425 95.1575C541.656 95.1575 542.816 95.3611 543.905 95.7683C545.004 96.1755 545.936 96.8147 546.703 97.6859C547.471 98.5571 548.001 99.6887 548.294 101.081C548.597 102.463 548.588 104.144 548.266 106.123L548.025 107.629H530.667L531.164 104.447H544.346C544.544 103.33 544.492 102.34 544.189 101.479C543.886 100.607 543.365 99.9207 542.627 99.4189C541.898 98.917 540.979 98.666 539.871 98.666C538.735 98.666 537.674 98.9643 536.689 99.5609C535.704 100.157 534.881 100.92 534.218 101.848C533.564 102.766 533.152 103.713 532.982 104.689L532.485 107.601C532.239 109.192 532.281 110.47 532.613 111.436C532.953 112.402 533.55 113.103 534.402 113.538C535.255 113.974 536.32 114.192 537.598 114.192C538.422 114.192 539.185 114.078 539.885 113.851C540.596 113.614 541.225 113.268 541.775 112.814C542.324 112.35 542.783 111.772 543.152 111.081L547.044 111.805C546.524 112.989 545.775 114.026 544.8 114.916C543.825 115.797 542.674 116.483 541.348 116.976C540.032 117.459 538.574 117.7 536.973 117.7ZM551.196 117.26L554.832 95.4416H558.909L558.312 98.9927H558.582C559.245 97.7901 560.145 96.8526 561.281 96.1802C562.427 95.4984 563.724 95.1575 565.173 95.1575C566.612 95.1575 567.772 95.4984 568.653 96.1802C569.543 96.862 570.126 97.7995 570.4 98.9927H570.627C571.328 97.8185 572.308 96.8857 573.568 96.1944C574.827 95.5031 576.243 95.1575 577.815 95.1575C579.775 95.1575 581.281 95.7825 582.332 97.0325C583.393 98.273 583.715 100.139 583.298 102.629L580.855 117.26H576.593L578.98 103.027C579.217 101.54 578.989 100.47 578.298 99.8166C577.607 99.1537 576.702 98.8223 575.585 98.8223C574.202 98.8223 573.056 99.2484 572.147 100.101C571.238 100.943 570.68 102.028 570.471 103.354L568.127 117.26H563.909L566.338 102.757C566.527 101.564 566.309 100.612 565.684 99.9018C565.069 99.1821 564.169 98.8223 562.985 98.8223C562.181 98.8223 561.399 99.0353 560.642 99.4615C559.894 99.8876 559.254 100.475 558.724 101.223C558.194 101.971 557.848 102.833 557.687 103.808L555.443 117.26H551.196ZM586.874 117.26L591.703 88.1689H595.951L594.175 98.9785H594.431C594.753 98.524 595.193 97.9984 595.752 97.4018C596.32 96.8052 597.054 96.2844 597.953 95.8393C598.853 95.3848 599.98 95.1575 601.334 95.1575C603.096 95.1575 604.592 95.6026 605.823 96.4927C607.054 97.3829 607.925 98.666 608.436 100.342C608.948 102.018 609.009 104.035 608.621 106.393C608.233 108.751 607.504 110.773 606.434 112.459C605.373 114.135 604.08 115.427 602.556 116.336C601.031 117.236 599.388 117.686 597.627 117.686C596.301 117.686 595.255 117.463 594.488 117.018C593.73 116.573 593.162 116.052 592.783 115.456C592.414 114.859 592.134 114.329 591.945 113.865H591.59L591.022 117.26H586.874ZM592.854 106.351C592.608 107.885 592.608 109.229 592.854 110.385C593.11 111.54 593.607 112.444 594.346 113.098C595.094 113.742 596.074 114.064 597.286 114.064C598.555 114.064 599.672 113.728 600.638 113.055C601.604 112.373 602.4 111.45 603.025 110.285C603.65 109.121 604.085 107.809 604.331 106.351C604.559 104.911 604.554 103.619 604.317 102.473C604.08 101.327 603.588 100.423 602.84 99.7598C602.101 99.0969 601.093 98.7654 599.814 98.7654C598.583 98.7654 597.489 99.0827 596.533 99.7172C595.577 100.352 594.786 101.237 594.161 102.373C593.536 103.51 593.1 104.836 592.854 106.351ZM620.919 117.7C618.779 117.7 617.008 117.241 615.606 116.322C614.214 115.394 613.239 114.092 612.68 112.416C612.121 110.73 612.031 108.756 612.41 106.493C612.779 104.258 613.523 102.288 614.64 100.584C615.758 98.8791 617.15 97.5486 618.816 96.5922C620.493 95.6357 622.344 95.1575 624.37 95.1575C625.601 95.1575 626.761 95.3611 627.85 95.7683C628.949 96.1755 629.882 96.8147 630.649 97.6859C631.416 98.5571 631.946 99.6887 632.24 101.081C632.543 102.463 632.533 104.144 632.211 106.123L631.97 107.629H614.612L615.109 104.447H628.291C628.49 103.33 628.438 102.34 628.135 101.479C627.832 100.607 627.311 99.9207 626.572 99.4189C625.843 98.917 624.924 98.666 623.816 98.666C622.68 98.666 621.619 98.9643 620.635 99.5609C619.65 100.157 618.826 100.92 618.163 101.848C617.51 102.766 617.098 103.713 616.927 104.689L616.43 107.601C616.184 109.192 616.226 110.47 616.558 111.436C616.899 112.402 617.495 113.103 618.348 113.538C619.2 113.974 620.265 114.192 621.544 114.192C622.368 114.192 623.13 114.078 623.831 113.851C624.541 113.614 625.171 113.268 625.72 112.814C626.269 112.35 626.728 111.772 627.098 111.081L630.99 111.805C630.469 112.989 629.721 114.026 628.745 114.916C627.77 115.797 626.619 116.483 625.294 116.976C623.977 117.459 622.519 117.7 620.919 117.7ZM635.127 117.26L638.763 95.4416H642.868L642.286 98.9075H642.513C643.1 97.7332 643.957 96.81 645.084 96.1376C646.211 95.4558 647.414 95.1149 648.692 95.1149C648.967 95.1149 649.279 95.1243 649.63 95.1433C649.98 95.1528 650.264 95.1764 650.482 95.2143L649.8 99.2768C649.639 99.2295 649.346 99.1774 648.919 99.1206C648.493 99.0543 648.053 99.0211 647.598 99.0211C646.604 99.0211 645.681 99.2342 644.828 99.6603C643.976 100.077 643.261 100.659 642.684 101.407C642.106 102.146 641.732 102.989 641.561 103.936L639.374 117.26H635.127ZM664.069 88.1689H669.054L674.48 101.393H674.807L684.566 88.1689H689.551L676.071 105.839L674.168 117.26H669.793L671.682 105.839L664.069 88.1689ZM694.221 117.7C692.147 117.7 690.414 117.227 689.022 116.28C687.63 115.323 686.65 113.988 686.082 112.274C685.523 110.55 685.429 108.548 685.798 106.265C686.158 104.031 686.882 102.08 687.971 100.413C689.07 98.7465 690.443 97.4539 692.091 96.5353C693.748 95.6168 695.59 95.1575 697.616 95.1575C699.69 95.1575 701.418 95.6357 702.801 96.5922C704.193 97.5486 705.173 98.8886 705.741 100.612C706.309 102.336 706.409 104.343 706.039 106.635C705.68 108.851 704.946 110.792 703.838 112.459C702.739 114.116 701.366 115.404 699.718 116.322C698.071 117.241 696.238 117.7 694.221 117.7ZM694.463 114.135C695.826 114.135 697.015 113.775 698.028 113.055C699.051 112.336 699.884 111.379 700.528 110.186C701.172 108.993 701.612 107.686 701.849 106.265C702.067 104.892 702.062 103.638 701.835 102.501C701.617 101.355 701.144 100.437 700.414 99.7456C699.685 99.0543 698.672 98.7086 697.375 98.7086C696.011 98.7086 694.813 99.0732 693.781 99.8024C692.758 100.522 691.925 101.483 691.281 102.686C690.646 103.889 690.216 105.2 689.988 106.621C689.77 107.984 689.77 109.239 689.988 110.385C690.206 111.521 690.68 112.43 691.409 113.112C692.138 113.794 693.156 114.135 694.463 114.135ZM724.36 108.211L726.49 95.4416H730.752L727.115 117.26H722.939L723.578 113.481H723.351C722.669 114.646 721.703 115.617 720.453 116.393C719.213 117.16 717.774 117.544 716.135 117.544C714.734 117.544 713.545 117.236 712.57 116.621C711.604 115.996 710.917 115.072 710.51 113.851C710.103 112.629 710.046 111.119 710.34 109.319L712.669 95.4416H716.917L714.686 108.808C714.45 110.295 714.672 111.479 715.354 112.359C716.036 113.24 717.03 113.68 718.337 113.68C719.132 113.68 719.956 113.481 720.809 113.084C721.661 112.686 722.414 112.085 723.067 111.28C723.73 110.475 724.161 109.452 724.36 108.211ZM732.822 117.26L736.458 95.4416H740.564L739.981 98.9075H740.208C740.796 97.7332 741.653 96.81 742.779 96.1376C743.906 95.4558 745.109 95.1149 746.387 95.1149C746.662 95.1149 746.975 95.1243 747.325 95.1433C747.675 95.1528 747.959 95.1764 748.177 95.2143L747.495 99.2768C747.334 99.2295 747.041 99.1774 746.615 99.1206C746.189 99.0543 745.748 99.0211 745.294 99.0211C744.299 99.0211 743.376 99.2342 742.524 99.6603C741.672 100.077 740.957 100.659 740.379 101.407C739.801 102.146 739.427 102.989 739.257 103.936L737.069 117.26H732.822ZM786.565 97.6291H782.218C782.199 96.6821 782.024 95.8488 781.693 95.1291C781.361 94.3999 780.907 93.7891 780.329 93.2967C779.761 92.7948 779.093 92.416 778.326 92.1603C777.559 91.9047 776.731 91.7768 775.841 91.7768C774.127 91.7768 772.517 92.2124 771.011 93.0836C769.505 93.9548 768.222 95.2238 767.162 96.8904C766.101 98.5571 765.372 100.588 764.974 102.984C764.586 105.314 764.633 107.269 765.116 108.851C765.599 110.432 766.413 111.63 767.559 112.444C768.715 113.249 770.102 113.652 771.721 113.652C772.668 113.652 773.592 113.529 774.491 113.282C775.4 113.027 776.243 112.653 777.02 112.16C777.796 111.668 778.483 111.067 779.079 110.356C779.685 109.637 780.159 108.813 780.5 107.885H784.903C784.43 109.324 783.762 110.64 782.9 111.834C782.038 113.027 781.02 114.059 779.846 114.93C778.672 115.801 777.384 116.474 775.983 116.947C774.581 117.421 773.099 117.657 771.537 117.657C768.97 117.657 766.783 117.047 764.974 115.825C763.175 114.594 761.882 112.842 761.096 110.569C760.32 108.297 760.187 105.588 760.699 102.444C761.219 99.3857 762.214 96.7626 763.681 94.5751C765.159 92.3781 766.958 90.6973 769.079 89.5325C771.21 88.3582 773.511 87.7711 775.983 87.7711C777.545 87.7711 778.975 87.9937 780.272 88.4387C781.57 88.8743 782.687 89.5183 783.625 90.3706C784.572 91.2134 785.301 92.2456 785.812 93.4672C786.324 94.6793 786.574 96.0666 786.565 97.6291ZM797.542 117.7C795.468 117.7 793.735 117.227 792.343 116.28C790.951 115.323 789.971 113.988 789.402 112.274C788.844 110.55 788.749 108.548 789.118 106.265C789.478 104.031 790.203 102.08 791.292 100.413C792.39 98.7465 793.763 97.4539 795.411 96.5353C797.068 95.6168 798.91 95.1575 800.936 95.1575C803.01 95.1575 804.739 95.6357 806.121 96.5922C807.513 97.5486 808.493 98.8886 809.061 100.612C809.63 102.336 809.729 104.343 809.36 106.635C809 108.851 808.266 110.792 807.158 112.459C806.06 114.116 804.686 115.404 803.039 116.322C801.391 117.241 799.559 117.7 797.542 117.7ZM797.783 114.135C799.147 114.135 800.335 113.775 801.348 113.055C802.371 112.336 803.204 111.379 803.848 110.186C804.492 108.993 804.933 107.686 805.169 106.265C805.387 104.892 805.382 103.638 805.155 102.501C804.937 101.355 804.464 100.437 803.735 99.7456C803.006 99.0543 801.992 98.7086 800.695 98.7086C799.331 98.7086 798.133 99.0732 797.101 99.8024C796.078 100.522 795.245 101.483 794.601 102.686C793.967 103.889 793.536 105.2 793.309 106.621C793.091 107.984 793.091 109.239 793.309 110.385C793.526 111.521 794 112.43 794.729 113.112C795.458 113.794 796.476 114.135 797.783 114.135ZM812.368 117.26L816.004 95.4416H820.081L819.484 98.9927H819.754C820.417 97.7901 821.316 96.8526 822.453 96.1802C823.599 95.4984 824.896 95.1575 826.345 95.1575C827.784 95.1575 828.944 95.4984 829.825 96.1802C830.715 96.862 831.297 97.7995 831.572 98.9927H831.799C832.5 97.8185 833.48 96.8857 834.74 96.1944C835.999 95.5031 837.415 95.1575 838.987 95.1575C840.947 95.1575 842.453 95.7825 843.504 97.0325C844.565 98.273 844.886 100.139 844.47 102.629L842.027 117.26H837.765L840.152 103.027C840.388 101.54 840.161 100.47 839.47 99.8166C838.779 99.1537 837.874 98.8223 836.757 98.8223C835.374 98.8223 834.228 99.2484 833.319 100.101C832.41 100.943 831.851 102.028 831.643 103.354L829.299 117.26H825.081L827.51 102.757C827.699 101.564 827.481 100.612 826.856 99.9018C826.241 99.1821 825.341 98.8223 824.157 98.8223C823.352 98.8223 822.571 99.0353 821.814 99.4615C821.065 99.8876 820.426 100.475 819.896 101.223C819.366 101.971 819.02 102.833 818.859 103.808L816.615 117.26H812.368ZM846.355 125.442L851.384 95.4416H855.532L854.949 98.9785H855.304C855.626 98.524 856.062 97.9984 856.611 97.4018C857.17 96.8052 857.904 96.2844 858.813 95.8393C859.722 95.3848 860.854 95.1575 862.208 95.1575C863.969 95.1575 865.461 95.6026 866.682 96.4927C867.904 97.3829 868.775 98.666 869.296 100.342C869.817 102.018 869.883 104.035 869.495 106.393C869.106 108.751 868.377 110.773 867.307 112.459C866.237 114.135 864.94 115.427 863.415 116.336C861.9 117.236 860.257 117.686 858.486 117.686C857.16 117.686 856.114 117.463 855.347 117.018C854.589 116.573 854.026 116.052 853.657 115.456C853.287 114.859 853.008 114.329 852.819 113.865H852.563L850.631 125.442H846.355ZM853.728 106.351C853.481 107.885 853.481 109.229 853.728 110.385C853.974 111.54 854.466 112.444 855.205 113.098C855.953 113.742 856.938 114.064 858.159 114.064C859.428 114.064 860.541 113.728 861.498 113.055C862.454 112.373 863.245 111.45 863.87 110.285C864.504 109.121 864.944 107.809 865.191 106.351C865.427 104.911 865.423 103.619 865.176 102.473C864.94 101.327 864.452 100.423 863.713 99.7598C862.975 99.0969 861.966 98.7654 860.688 98.7654C859.447 98.7654 858.349 99.0827 857.392 99.7172C856.445 100.352 855.659 101.237 855.034 102.373C854.409 103.51 853.974 104.836 853.728 106.351ZM881.778 117.7C879.638 117.7 877.867 117.241 876.466 116.322C875.074 115.394 874.098 114.092 873.539 112.416C872.981 110.73 872.891 108.756 873.27 106.493C873.639 104.258 874.382 102.288 875.5 100.584C876.617 98.8791 878.009 97.5486 879.676 96.5922C881.352 95.6357 883.203 95.1575 885.23 95.1575C886.461 95.1575 887.621 95.3611 888.71 95.7683C889.808 96.1755 890.741 96.8147 891.508 97.6859C892.275 98.5571 892.806 99.6887 893.099 101.081C893.402 102.463 893.393 104.144 893.071 106.123L892.829 107.629H875.471L875.968 104.447H889.15C889.349 103.33 889.297 102.34 888.994 101.479C888.691 100.607 888.17 99.9207 887.431 99.4189C886.702 98.917 885.784 98.666 884.676 98.666C883.539 98.666 882.479 98.9643 881.494 99.5609C880.509 100.157 879.685 100.92 879.022 101.848C878.369 102.766 877.957 103.713 877.787 104.689L877.289 107.601C877.043 109.192 877.086 110.47 877.417 111.436C877.758 112.402 878.355 113.103 879.207 113.538C880.059 113.974 881.125 114.192 882.403 114.192C883.227 114.192 883.989 114.078 884.69 113.851C885.4 113.614 886.03 113.268 886.579 112.814C887.128 112.35 887.588 111.772 887.957 111.081L891.849 111.805C891.328 112.989 890.58 114.026 889.605 114.916C888.629 115.797 887.479 116.483 886.153 116.976C884.837 117.459 883.378 117.7 881.778 117.7ZM909.807 95.4416L909.253 98.8507H897.336L897.89 95.4416H909.807ZM901.938 90.2143H906.185L902.748 110.854C902.615 111.677 902.639 112.298 902.819 112.714C902.998 113.122 903.273 113.401 903.642 113.552C904.021 113.694 904.443 113.765 904.907 113.765C905.248 113.765 905.546 113.742 905.801 113.694C906.057 113.647 906.261 113.609 906.412 113.581L906.64 117.089C906.355 117.184 905.972 117.279 905.489 117.373C905.016 117.478 904.438 117.534 903.756 117.544C902.639 117.563 901.63 117.364 900.73 116.947C899.831 116.521 899.158 115.877 898.713 115.015C898.268 114.144 898.159 113.05 898.387 111.734L901.938 90.2143ZM910.869 117.26L914.505 95.4416H918.752L915.116 117.26H910.869ZM917.517 92.0325C916.778 92.0325 916.153 91.7863 915.642 91.2939C915.14 90.792 914.908 90.1954 914.946 89.5041C914.984 88.8033 915.277 88.2067 915.826 87.7143C916.376 87.2124 917.015 86.9615 917.744 86.9615C918.483 86.9615 919.103 87.2124 919.605 87.7143C920.107 88.2067 920.343 88.8033 920.315 89.5041C920.277 90.1954 919.984 90.792 919.434 91.2939C918.895 91.7863 918.255 92.0325 917.517 92.0325ZM934.651 95.4416L934.097 98.8507H922.179L922.733 95.4416H934.651ZM926.782 90.2143H931.029L927.591 110.854C927.459 111.677 927.482 112.298 927.662 112.714C927.842 113.122 928.117 113.401 928.486 113.552C928.865 113.694 929.286 113.765 929.75 113.765C930.091 113.765 930.39 113.742 930.645 113.694C930.901 113.647 931.105 113.609 931.256 113.581L931.483 117.089C931.199 117.184 930.816 117.279 930.333 117.373C929.859 117.478 929.282 117.534 928.6 117.544C927.482 117.563 926.474 117.364 925.574 116.947C924.675 116.521 924.002 115.877 923.557 115.015C923.112 114.144 923.003 113.05 923.23 111.734L926.782 90.2143ZM944.768 117.7C942.694 117.7 940.961 117.227 939.569 116.28C938.177 115.323 937.197 113.988 936.629 112.274C936.07 110.55 935.975 108.548 936.345 106.265C936.705 104.031 937.429 102.08 938.518 100.413C939.617 98.7465 940.99 97.4539 942.637 96.5353C944.295 95.6168 946.136 95.1575 948.163 95.1575C950.237 95.1575 951.965 95.6357 953.348 96.5922C954.74 97.5486 955.72 98.8886 956.288 100.612C956.856 102.336 956.956 104.343 956.586 106.635C956.226 108.851 955.493 110.792 954.385 112.459C953.286 114.116 951.913 115.404 950.265 116.322C948.618 117.241 946.785 117.7 944.768 117.7ZM945.01 114.135C946.373 114.135 947.562 113.775 948.575 113.055C949.598 112.336 950.431 111.379 951.075 110.186C951.719 108.993 952.159 107.686 952.396 106.265C952.614 104.892 952.609 103.638 952.382 102.501C952.164 101.355 951.69 100.437 950.961 99.7456C950.232 99.0543 949.219 98.7086 947.922 98.7086C946.558 98.7086 945.36 99.0732 944.328 99.8024C943.305 100.522 942.472 101.483 941.828 102.686C941.193 103.889 940.762 105.2 940.535 106.621C940.317 107.984 940.317 109.239 940.535 110.385C940.753 111.521 941.226 112.43 941.956 113.112C942.685 113.794 943.703 114.135 945.01 114.135ZM959.58 117.26L963.216 95.4416H967.321L966.739 98.9075H966.966C967.553 97.7332 968.41 96.81 969.537 96.1376C970.664 95.4558 971.867 95.1149 973.145 95.1149C973.42 95.1149 973.732 95.1243 974.083 95.1433C974.433 95.1528 974.717 95.1764 974.935 95.2143L974.253 99.2768C974.092 99.2295 973.799 99.1774 973.373 99.1206C972.946 99.0543 972.506 99.0211 972.051 99.0211C971.057 99.0211 970.134 99.2342 969.282 99.6603C968.429 100.077 967.714 100.659 967.137 101.407C966.559 102.146 966.185 102.989 966.015 103.936L963.827 117.26H959.58ZM995.155 88.1689L990.326 117.26H985.936L990.766 88.1689H995.155ZM1015.48 100.768L1011.52 101.45C1011.43 100.948 1011.26 100.475 1010.99 100.03C1010.74 99.5846 1010.34 99.2247 1009.81 98.9501C1009.28 98.666 1008.58 98.524 1007.7 98.524C1006.48 98.524 1005.41 98.8033 1004.49 99.362C1003.58 99.9207 1003.06 100.631 1002.93 101.493C1002.8 102.193 1002.97 102.762 1003.42 103.197C1003.88 103.623 1004.68 103.979 1005.82 104.263L1009.18 105.058C1011.11 105.522 1012.49 106.247 1013.32 107.231C1014.17 108.207 1014.46 109.476 1014.2 111.038C1013.99 112.336 1013.42 113.486 1012.5 114.49C1011.59 115.494 1010.43 116.28 1009 116.848C1007.58 117.416 1006 117.7 1004.26 117.7C1001.78 117.7 999.847 117.175 998.465 116.123C997.082 115.072 996.372 113.586 996.334 111.663L1000.54 111.038C1000.61 112.108 1001 112.918 1001.69 113.467C1002.39 114.007 1003.36 114.277 1004.6 114.277C1006.02 114.286 1007.21 113.988 1008.17 113.382C1009.12 112.776 1009.67 112.042 1009.8 111.18C1009.91 110.508 1009.76 109.949 1009.35 109.504C1008.94 109.059 1008.22 108.718 1007.19 108.481L1003.66 107.672C1001.69 107.208 1000.3 106.46 999.488 105.427C998.673 104.395 998.399 103.098 998.664 101.535C998.872 100.257 999.412 99.1442 1000.28 98.1973C1001.16 97.2408 1002.28 96.4975 1003.62 95.9672C1004.97 95.4274 1006.45 95.1575 1008.08 95.1575C1010.46 95.1575 1012.24 95.6689 1013.44 96.6916C1014.63 97.7048 1015.31 99.0637 1015.48 100.768ZM1056.39 102.998C1055.88 106.057 1054.89 108.68 1053.41 110.868C1051.94 113.055 1050.14 114.736 1048.01 115.91C1045.89 117.075 1043.6 117.657 1041.14 117.657C1038.57 117.657 1036.38 117.047 1034.56 115.825C1032.75 114.594 1031.45 112.847 1030.67 110.584C1029.88 108.311 1029.75 105.603 1030.27 102.459C1030.78 99.3999 1031.77 96.7768 1033.24 94.5893C1034.71 92.3923 1036.52 90.7067 1038.65 89.5325C1040.79 88.3582 1043.1 87.7711 1045.58 87.7711C1048.13 87.7711 1050.3 88.3867 1052.1 89.6177C1053.91 90.8393 1055.21 92.5912 1055.99 94.8734C1056.78 97.1461 1056.91 99.8545 1056.39 102.998ZM1052.12 102.459C1052.5 100.139 1052.46 98.1878 1051.97 96.6064C1051.5 95.0154 1050.69 93.8128 1049.54 92.9984C1048.4 92.184 1047.02 91.7768 1045.4 91.7768C1043.67 91.7768 1042.06 92.2124 1040.55 93.0836C1039.06 93.9548 1037.78 95.2238 1036.72 96.8904C1035.66 98.5571 1034.93 100.593 1034.54 102.998C1034.15 105.318 1034.19 107.269 1034.67 108.851C1035.16 110.432 1035.97 111.63 1037.12 112.444C1038.27 113.249 1039.66 113.652 1041.28 113.652C1042.99 113.652 1044.6 113.221 1046.09 112.359C1047.6 111.488 1048.88 110.224 1049.94 108.567C1051 106.9 1051.73 104.864 1052.12 102.459ZM1065.54 104.305L1063.41 117.26H1059.16L1062.8 95.4416H1066.88L1066.28 98.9927H1066.55C1067.24 97.8279 1068.18 96.8999 1069.38 96.2086C1070.58 95.5079 1072 95.1575 1073.64 95.1575C1075.12 95.1575 1076.36 95.47 1077.36 96.095C1078.37 96.7105 1079.09 97.6291 1079.51 98.8507C1079.93 100.072 1080 101.583 1079.7 103.382L1077.37 117.26H1073.13L1075.36 103.893C1075.61 102.312 1075.4 101.076 1074.73 100.186C1074.07 99.2863 1073.01 98.8365 1071.56 98.8365C1070.58 98.8365 1069.67 99.0495 1068.82 99.4757C1067.99 99.9018 1067.28 100.527 1066.71 101.351C1066.14 102.165 1065.75 103.15 1065.54 104.305ZM1092.13 88.1689L1087.3 117.26H1083.06L1087.89 88.1689H1092.13ZM1094.37 125.442C1093.72 125.442 1093.15 125.39 1092.65 125.285C1092.15 125.191 1091.77 125.086 1091.53 124.973L1093.15 121.493C1093.89 121.701 1094.56 121.782 1095.15 121.734C1095.74 121.687 1096.3 121.441 1096.82 120.996C1097.35 120.55 1097.88 119.85 1098.42 118.893L1099.21 117.459L1094.94 95.4416H1099.31L1102.01 112.416H1102.24L1110.59 95.4416H1115.32L1102.24 120.143C1101.62 121.318 1100.92 122.293 1100.13 123.069C1099.36 123.855 1098.49 124.447 1097.52 124.845C1096.56 125.243 1095.51 125.442 1094.37 125.442ZM1154.24 102.998C1153.73 106.057 1152.74 108.68 1151.26 110.868C1149.79 113.055 1147.99 114.736 1145.86 115.91C1143.74 117.075 1141.45 117.657 1138.99 117.657C1136.42 117.657 1134.23 117.047 1132.41 115.825C1130.6 114.594 1129.3 112.847 1128.52 110.584C1127.73 108.311 1127.6 105.603 1128.12 102.459C1128.63 99.3999 1129.62 96.7768 1131.09 94.5893C1132.57 92.3923 1134.37 90.7067 1136.5 89.5325C1138.64 88.3582 1140.95 87.7711 1143.43 87.7711C1145.98 87.7711 1148.15 88.3867 1149.95 89.6177C1151.76 90.8393 1153.06 92.5912 1153.84 94.8734C1154.63 97.1461 1154.76 99.8545 1154.24 102.998ZM1149.97 102.459C1150.36 100.139 1150.31 98.1878 1149.82 96.6064C1149.35 95.0154 1148.54 93.8128 1147.4 92.9984C1146.25 92.184 1144.87 91.7768 1143.25 91.7768C1141.52 91.7768 1139.91 92.2124 1138.4 93.0836C1136.91 93.9548 1135.63 95.2238 1134.57 96.8904C1133.51 98.5571 1132.78 100.593 1132.4 102.998C1132 105.318 1132.04 107.269 1132.52 108.851C1133.01 110.432 1133.82 111.63 1134.97 112.444C1136.12 113.249 1137.51 113.652 1139.13 113.652C1140.84 113.652 1142.45 113.221 1143.94 112.359C1145.45 111.488 1146.73 110.224 1147.79 108.567C1148.85 106.9 1149.58 104.864 1149.97 102.459ZM1163.39 104.305L1161.26 117.26H1157.02L1160.65 95.4416H1164.73L1164.13 98.9927H1164.4C1165.09 97.8279 1166.04 96.8999 1167.23 96.2086C1168.43 95.5079 1169.85 95.1575 1171.49 95.1575C1172.97 95.1575 1174.21 95.47 1175.21 96.095C1176.23 96.7105 1176.94 97.6291 1177.36 98.8507C1177.78 100.072 1177.85 101.583 1177.56 103.382L1175.23 117.26H1170.98L1173.21 103.893C1173.46 102.312 1173.26 101.076 1172.58 100.186C1171.92 99.2863 1170.87 98.8365 1169.42 98.8365C1168.43 98.8365 1167.52 99.0495 1166.68 99.4757C1165.84 99.9018 1165.14 100.527 1164.56 101.351C1163.99 102.165 1163.6 103.15 1163.39 104.305ZM1190.25 117.7C1188.11 117.7 1186.34 117.241 1184.94 116.322C1183.55 115.394 1182.57 114.092 1182.02 112.416C1181.46 110.73 1181.37 108.756 1181.75 106.493C1182.12 104.258 1182.86 102.288 1183.98 100.584C1185.09 98.8791 1186.49 97.5486 1188.15 96.5922C1189.83 95.6357 1191.68 95.1575 1193.71 95.1575C1194.94 95.1575 1196.1 95.3611 1197.19 95.7683C1198.28 96.1755 1199.22 96.8147 1199.98 97.6859C1200.75 98.5571 1201.28 99.6887 1201.58 101.081C1201.88 102.463 1201.87 104.144 1201.55 106.123L1201.31 107.629H1183.95L1184.44 104.447H1197.63C1197.83 103.33 1197.77 102.34 1197.47 101.479C1197.17 100.607 1196.65 99.9207 1195.91 99.4189C1195.18 98.917 1194.26 98.666 1193.15 98.666C1192.02 98.666 1190.96 98.9643 1189.97 99.5609C1188.99 100.157 1188.16 100.92 1187.5 101.848C1186.85 102.766 1186.43 103.713 1186.26 104.689L1185.77 107.601C1185.52 109.192 1185.56 110.47 1185.89 111.436C1186.23 112.402 1186.83 113.103 1187.68 113.538C1188.54 113.974 1189.6 114.192 1190.88 114.192C1191.7 114.192 1192.47 114.078 1193.17 113.851C1193.88 113.614 1194.51 113.268 1195.06 112.814C1195.6 112.35 1196.06 111.772 1196.43 111.081L1200.33 111.805C1199.8 112.989 1199.06 114.026 1198.08 114.916C1197.11 115.797 1195.96 116.483 1194.63 116.976C1193.31 117.459 1191.85 117.7 1190.25 117.7ZM1220.22 88.1689H1225.55L1231.09 110.782H1231.43L1244.41 88.1689H1249.74L1244.91 117.26H1240.73L1244.24 96.2086H1243.97L1231.9 117.217H1228.42L1223.36 96.1944H1223.09L1219.57 117.26H1215.39L1220.22 88.1689ZM1260.24 117.7C1258.16 117.7 1256.43 117.227 1255.04 116.28C1253.65 115.323 1252.67 113.988 1252.1 112.274C1251.54 110.55 1251.44 108.548 1251.81 106.265C1252.17 104.031 1252.9 102.08 1253.99 100.413C1255.09 98.7465 1256.46 97.4539 1258.11 96.5353C1259.76 95.6168 1261.61 95.1575 1263.63 95.1575C1265.71 95.1575 1267.43 95.6357 1268.82 96.5922C1270.21 97.5486 1271.19 98.8886 1271.76 100.612C1272.32 102.336 1272.42 104.343 1272.06 106.635C1271.7 108.851 1270.96 110.792 1269.85 112.459C1268.75 114.116 1267.38 115.404 1265.73 116.322C1264.09 117.241 1262.25 117.7 1260.24 117.7ZM1260.48 114.135C1261.84 114.135 1263.03 113.775 1264.04 113.055C1265.07 112.336 1265.9 111.379 1266.54 110.186C1267.19 108.993 1267.63 107.686 1267.86 106.265C1268.08 104.892 1268.08 103.638 1267.85 102.501C1267.63 101.355 1267.16 100.437 1266.43 99.7456C1265.7 99.0543 1264.69 98.7086 1263.39 98.7086C1262.03 98.7086 1260.83 99.0732 1259.8 99.8024C1258.77 100.522 1257.94 101.483 1257.3 102.686C1256.66 103.889 1256.23 105.2 1256 106.621C1255.79 107.984 1255.79 109.239 1256 110.385C1256.22 111.521 1256.7 112.43 1257.42 113.112C1258.15 113.794 1259.17 114.135 1260.48 114.135ZM1290.38 108.211L1292.51 95.4416H1296.77L1293.13 117.26H1288.95L1289.59 113.481H1289.37C1288.69 114.646 1287.72 115.617 1286.47 116.393C1285.23 117.16 1283.79 117.544 1282.15 117.544C1280.75 117.544 1279.56 117.236 1278.59 116.621C1277.62 115.996 1276.93 115.072 1276.53 113.851C1276.12 112.629 1276.06 111.119 1276.36 109.319L1278.69 95.4416H1282.93L1280.7 108.808C1280.47 110.295 1280.69 111.479 1281.37 112.359C1282.05 113.24 1283.05 113.68 1284.35 113.68C1285.15 113.68 1285.97 113.481 1286.82 113.084C1287.68 112.686 1288.43 112.085 1289.08 111.28C1289.75 110.475 1290.18 109.452 1290.38 108.211ZM1317.94 100.768L1313.98 101.45C1313.89 100.948 1313.72 100.475 1313.45 100.03C1313.2 99.5846 1312.81 99.2247 1312.28 98.9501C1311.74 98.666 1311.04 98.524 1310.16 98.524C1308.94 98.524 1307.87 98.8033 1306.95 99.362C1306.04 99.9207 1305.52 100.631 1305.39 101.493C1305.26 102.193 1305.43 102.762 1305.88 103.197C1306.34 103.623 1307.14 103.979 1308.28 104.263L1311.64 105.058C1313.57 105.522 1314.95 106.247 1315.78 107.231C1316.63 108.207 1316.92 109.476 1316.66 111.038C1316.45 112.336 1315.88 113.486 1314.96 114.49C1314.05 115.494 1312.89 116.28 1311.47 116.848C1310.05 117.416 1308.46 117.7 1306.72 117.7C1304.24 117.7 1302.31 117.175 1300.93 116.123C1299.54 115.072 1298.83 113.586 1298.8 111.663L1303 111.038C1303.08 112.108 1303.46 112.918 1304.15 113.467C1304.85 114.007 1305.82 114.277 1307.06 114.277C1308.48 114.286 1309.67 113.988 1310.63 113.382C1311.58 112.776 1312.13 112.042 1312.26 111.18C1312.37 110.508 1312.22 109.949 1311.81 109.504C1311.4 109.059 1310.68 108.718 1309.65 108.481L1306.12 107.672C1304.15 107.208 1302.76 106.46 1301.95 105.427C1301.13 104.395 1300.86 103.098 1301.12 101.535C1301.33 100.257 1301.87 99.1442 1302.74 98.1973C1303.62 97.2408 1304.74 96.4975 1306.08 95.9672C1307.43 95.4274 1308.91 95.1575 1310.54 95.1575C1312.92 95.1575 1314.7 95.6689 1315.9 96.6916C1317.09 97.7048 1317.77 99.0637 1317.94 100.768ZM1329.63 117.7C1327.49 117.7 1325.72 117.241 1324.32 116.322C1322.93 115.394 1321.95 114.092 1321.39 112.416C1320.83 110.73 1320.74 108.756 1321.12 106.493C1321.49 104.258 1322.23 102.288 1323.35 100.584C1324.47 98.8791 1325.86 97.5486 1327.53 96.5922C1329.2 95.6357 1331.05 95.1575 1333.08 95.1575C1334.31 95.1575 1335.47 95.3611 1336.56 95.7683C1337.66 96.1755 1338.59 96.8147 1339.36 97.6859C1340.13 98.5571 1340.66 99.6887 1340.95 101.081C1341.25 102.463 1341.24 104.144 1340.92 106.123L1340.68 107.629H1323.32L1323.82 104.447H1337C1337.2 103.33 1337.15 102.34 1336.85 101.479C1336.54 100.607 1336.02 99.9207 1335.28 99.4189C1334.55 98.917 1333.64 98.666 1332.53 98.666C1331.39 98.666 1330.33 98.9643 1329.35 99.5609C1328.36 100.157 1327.54 100.92 1326.87 101.848C1326.22 102.766 1325.81 103.713 1325.64 104.689L1325.14 107.601C1324.89 109.192 1324.94 110.47 1325.27 111.436C1325.61 112.402 1326.21 113.103 1327.06 113.538C1327.91 113.974 1328.98 114.192 1330.25 114.192C1331.08 114.192 1331.84 114.078 1332.54 113.851C1333.25 113.614 1333.88 113.268 1334.43 112.814C1334.98 112.35 1335.44 111.772 1335.81 111.081L1339.7 111.805C1339.18 112.989 1338.43 114.026 1337.46 114.916C1336.48 115.797 1335.33 116.483 1334 116.976C1332.69 117.459 1331.23 117.7 1329.63 117.7ZM637.913 161.629H633.566C633.547 160.682 633.372 159.849 633.04 159.129C632.709 158.4 632.254 157.789 631.677 157.297C631.109 156.795 630.441 156.416 629.674 156.16C628.907 155.905 628.078 155.777 627.188 155.777C625.474 155.777 623.864 156.212 622.359 157.084C620.853 157.955 619.57 159.224 618.509 160.89C617.449 162.557 616.719 164.588 616.322 166.984C615.933 169.314 615.981 171.269 616.464 172.851C616.947 174.432 617.761 175.63 618.907 176.444C620.062 177.249 621.45 177.652 623.069 177.652C624.016 177.652 624.939 177.529 625.839 177.282C626.748 177.027 627.591 176.653 628.367 176.16C629.144 175.668 629.83 175.067 630.427 174.356C631.033 173.637 631.506 172.813 631.847 171.885H636.251C635.777 173.324 635.11 174.64 634.248 175.834C633.386 177.027 632.368 178.059 631.194 178.93C630.02 179.801 628.732 180.474 627.33 180.947C625.929 181.421 624.447 181.657 622.884 181.657C620.318 181.657 618.13 181.047 616.322 179.825C614.522 178.594 613.23 176.842 612.444 174.569C611.667 172.297 611.535 169.588 612.046 166.444C612.567 163.386 613.561 160.763 615.029 158.575C616.506 156.378 618.306 154.697 620.427 153.532C622.558 152.358 624.859 151.771 627.33 151.771C628.893 151.771 630.323 151.994 631.62 152.439C632.917 152.874 634.035 153.518 634.972 154.371C635.919 155.213 636.648 156.246 637.16 157.467C637.671 158.679 637.922 160.067 637.913 161.629ZM648.676 152.169L643.847 181.26H639.599L644.429 152.169H648.676ZM649.56 181.26L653.197 159.442H657.444L653.808 181.26H649.56ZM656.208 156.032C655.469 156.032 654.844 155.786 654.333 155.294C653.831 154.792 653.599 154.195 653.637 153.504C653.675 152.803 653.969 152.207 654.518 151.714C655.067 151.212 655.706 150.961 656.435 150.961C657.174 150.961 657.794 151.212 658.296 151.714C658.798 152.207 659.035 152.803 659.006 153.504C658.969 154.195 658.675 154.792 658.126 155.294C657.586 155.786 656.947 156.032 656.208 156.032ZM668.655 181.7C666.534 181.7 664.796 181.222 663.442 180.265C662.088 179.3 661.145 177.969 660.615 176.274C660.085 174.579 660 172.638 660.359 170.45C660.719 168.234 661.453 166.279 662.561 164.584C663.679 162.879 665.075 161.549 666.751 160.592C668.437 159.636 670.307 159.157 672.362 159.157C674.019 159.157 675.445 159.465 676.638 160.081C677.831 160.687 678.735 161.539 679.351 162.638C679.966 163.736 680.232 165.019 680.146 166.487H676.013C675.946 165.464 675.568 164.584 674.876 163.845C674.185 163.106 673.167 162.737 671.822 162.737C670.639 162.737 669.55 163.05 668.555 163.675C667.561 164.29 666.723 165.171 666.041 166.317C665.359 167.453 664.895 168.798 664.649 170.351C664.384 171.942 664.398 173.315 664.692 174.47C664.985 175.625 665.525 176.52 666.311 177.155C667.097 177.789 668.087 178.106 669.28 178.106C670.094 178.106 670.852 177.96 671.553 177.666C672.263 177.363 672.888 176.932 673.428 176.373C673.977 175.815 674.403 175.142 674.706 174.356H678.854C678.446 175.767 677.765 177.027 676.808 178.135C675.861 179.243 674.696 180.114 673.314 180.748C671.931 181.383 670.378 181.7 668.655 181.7ZM687.344 173.859L688.154 168.675H688.907L699.163 159.442H704.248L692.6 169.953H691.933L687.344 173.859ZM682.217 181.26L687.046 152.169H691.293L686.464 181.26H682.217ZM695.995 181.26L689.915 170.89L693.31 167.922L701.208 181.26H695.995ZM717.866 181.26H713.207L728.506 152.169H733.577L739.216 181.26H734.557L730.31 157.453H730.082L717.866 181.26ZM720.537 169.868H735.651L735.026 173.561H719.912L720.537 169.868ZM745.072 181.26L742.288 159.442H746.677L748.282 175.464H748.495L755.455 159.442H759.844L761.435 175.393H761.648L768.566 159.442H772.955L762.913 181.26H758.58L756.762 165.507H756.435L749.39 181.26H745.072ZM779.642 181.743C778.259 181.743 777.052 181.487 776.02 180.976C774.988 180.455 774.225 179.702 773.733 178.717C773.241 177.732 773.113 176.525 773.349 175.095C773.558 173.864 773.965 172.851 774.571 172.055C775.187 171.26 775.935 170.63 776.815 170.166C777.696 169.693 778.652 169.337 779.685 169.101C780.717 168.864 781.759 168.689 782.81 168.575C784.135 168.424 785.21 168.296 786.034 168.192C786.867 168.087 787.492 167.926 787.909 167.709C788.326 167.481 788.577 167.112 788.662 166.601V166.501C788.861 165.27 788.681 164.314 788.122 163.632C787.573 162.941 786.616 162.595 785.253 162.595C783.832 162.595 782.639 162.907 781.673 163.532C780.717 164.157 780.011 164.858 779.557 165.635L775.75 164.726C776.432 163.4 777.298 162.33 778.349 161.515C779.41 160.692 780.57 160.095 781.83 159.726C783.089 159.347 784.377 159.157 785.693 159.157C786.564 159.157 787.469 159.262 788.406 159.47C789.344 159.669 790.196 160.038 790.963 160.578C791.74 161.118 792.317 161.889 792.696 162.893C793.075 163.888 793.132 165.18 792.866 166.771L790.466 181.26H786.318L786.83 178.277H786.659C786.299 178.826 785.797 179.366 785.153 179.896C784.519 180.426 783.742 180.867 782.824 181.217C781.905 181.568 780.845 181.743 779.642 181.743ZM781.091 178.334C782.275 178.334 783.321 178.102 784.23 177.638C785.149 177.174 785.892 176.568 786.46 175.819C787.028 175.062 787.384 174.252 787.526 173.39L787.994 170.578C787.814 170.729 787.497 170.867 787.043 170.99C786.598 171.113 786.096 171.222 785.537 171.317C784.978 171.411 784.429 171.492 783.889 171.558C783.359 171.624 782.919 171.686 782.568 171.743C781.735 171.847 780.954 172.022 780.224 172.268C779.505 172.515 778.903 172.87 778.42 173.334C777.938 173.788 777.634 174.394 777.511 175.152C777.341 176.203 777.592 176.998 778.264 177.538C778.946 178.068 779.888 178.334 781.091 178.334ZM796.691 189.442C796.047 189.442 795.474 189.39 794.972 189.285C794.47 189.191 794.096 189.086 793.85 188.973L795.469 185.493C796.218 185.701 796.885 185.782 797.472 185.734C798.069 185.687 798.628 185.441 799.148 184.996C799.669 184.55 800.2 183.85 800.739 182.893L801.535 181.459L797.259 159.442H801.634L804.333 176.416H804.56L812.913 159.442H817.643L804.56 184.143C803.945 185.318 803.244 186.293 802.458 187.069C801.682 187.855 800.81 188.447 799.844 188.845C798.888 189.243 797.837 189.442 796.691 189.442ZM819.784 181.53C818.989 181.53 818.326 181.255 817.795 180.706C817.275 180.157 817.019 179.484 817.028 178.689C817.038 177.903 817.331 177.245 817.909 176.714C818.496 176.175 819.178 175.905 819.955 175.905C820.731 175.905 821.394 176.179 821.943 176.729C822.492 177.278 822.748 177.931 822.71 178.689C822.682 179.219 822.53 179.702 822.256 180.138C821.991 180.564 821.64 180.905 821.205 181.16C820.769 181.407 820.295 181.53 819.784 181.53ZM833.587 152.169L833.161 154.896C833.029 155.701 832.735 156.549 832.281 157.439C831.835 158.319 831.272 159.167 830.59 159.981C829.918 160.796 829.174 161.497 828.36 162.084L826.485 160.578C827.176 159.764 827.801 158.897 828.36 157.979C828.919 157.06 829.293 156.047 829.482 154.939L829.951 152.169H833.587ZM840.817 152.169L840.391 154.896C840.259 155.701 839.965 156.549 839.511 157.439C839.066 158.319 838.502 159.167 837.82 159.981C837.148 160.796 836.4 161.497 835.576 162.084L833.701 160.578C834.392 159.764 835.017 158.897 835.576 157.979C836.144 157.06 836.523 156.047 836.712 154.939L837.181 152.169H840.817Z" fill="black"/>
<path d="M443.439 269.26H437.251V251.805H443.49C445.246 251.805 446.757 252.155 448.024 252.854C449.291 253.547 450.266 254.544 450.947 255.845C451.635 257.146 451.979 258.703 451.979 260.515C451.979 262.334 451.635 263.896 450.947 265.203C450.266 266.51 449.286 267.513 448.007 268.211C446.734 268.91 445.212 269.26 443.439 269.26ZM440.942 266.098H443.286C444.376 266.098 445.294 265.905 446.038 265.518C446.788 265.126 447.351 264.521 447.726 263.703C448.107 262.879 448.297 261.817 448.297 260.515C448.297 259.226 448.107 258.172 447.726 257.354C447.351 256.535 446.791 255.933 446.047 255.547C445.303 255.16 444.385 254.967 443.294 254.967H440.942V266.098ZM460.559 269.515C459.235 269.515 458.09 269.234 457.124 268.672C456.164 268.104 455.423 267.314 454.9 266.302C454.377 265.285 454.116 264.106 454.116 262.765C454.116 261.413 454.377 260.231 454.9 259.22C455.423 258.203 456.164 257.413 457.124 256.851C458.09 256.282 459.235 255.998 460.559 255.998C461.883 255.998 463.025 256.282 463.985 256.851C464.951 257.413 465.695 258.203 466.218 259.22C466.741 260.231 467.002 261.413 467.002 262.765C467.002 264.106 466.741 265.285 466.218 266.302C465.695 267.314 464.951 268.104 463.985 268.672C463.025 269.234 461.883 269.515 460.559 269.515ZM460.576 266.703C461.178 266.703 461.681 266.532 462.085 266.192C462.488 265.845 462.792 265.373 462.996 264.777C463.207 264.18 463.312 263.501 463.312 262.74C463.312 261.979 463.207 261.3 462.996 260.703C462.792 260.106 462.488 259.635 462.085 259.288C461.681 258.942 461.178 258.768 460.576 258.768C459.968 258.768 459.457 258.942 459.042 259.288C458.633 259.635 458.323 260.106 458.113 260.703C457.908 261.3 457.806 261.979 457.806 262.74C457.806 263.501 457.908 264.18 458.113 264.777C458.323 265.373 458.633 265.845 459.042 266.192C459.457 266.532 459.968 266.703 460.576 266.703ZM477.758 263.686V256.169H481.388V269.26H477.903V266.882H477.766C477.471 267.649 476.979 268.265 476.292 268.731C475.61 269.197 474.778 269.43 473.795 269.43C472.92 269.43 472.15 269.231 471.485 268.834C470.82 268.436 470.3 267.871 469.925 267.138C469.556 266.405 469.369 265.527 469.363 264.504V256.169H472.994V263.856C472.999 264.629 473.207 265.24 473.616 265.689C474.025 266.138 474.573 266.362 475.261 266.362C475.698 266.362 476.107 266.263 476.488 266.064C476.869 265.859 477.175 265.558 477.408 265.16C477.647 264.763 477.763 264.271 477.758 263.686ZM490.19 274.442C489.014 274.442 488.006 274.28 487.165 273.956C486.33 273.638 485.665 273.203 485.17 272.652C484.676 272.101 484.355 271.481 484.207 270.794L487.565 270.342C487.668 270.604 487.83 270.848 488.051 271.075C488.273 271.302 488.565 271.484 488.929 271.621C489.298 271.763 489.747 271.834 490.276 271.834C491.065 271.834 491.716 271.64 492.227 271.254C492.744 270.873 493.003 270.234 493.003 269.336V266.942H492.849C492.69 267.305 492.452 267.649 492.134 267.973C491.815 268.297 491.406 268.561 490.906 268.765C490.406 268.97 489.81 269.072 489.116 269.072C488.134 269.072 487.239 268.845 486.432 268.39C485.631 267.93 484.991 267.229 484.514 266.285C484.043 265.336 483.807 264.138 483.807 262.689C483.807 261.206 484.048 259.967 484.531 258.973C485.014 257.979 485.656 257.234 486.457 256.74C487.264 256.246 488.148 255.998 489.108 255.998C489.841 255.998 490.455 256.123 490.949 256.373C491.443 256.618 491.841 256.925 492.142 257.294C492.449 257.657 492.685 258.015 492.849 258.368H492.986V256.169H496.591V269.388C496.591 270.501 496.318 271.433 495.773 272.183C495.227 272.933 494.472 273.496 493.506 273.871C492.545 274.251 491.44 274.442 490.19 274.442ZM490.267 266.345C490.852 266.345 491.347 266.2 491.75 265.91C492.159 265.615 492.472 265.194 492.688 264.649C492.909 264.098 493.02 263.439 493.02 262.672C493.02 261.905 492.912 261.24 492.696 260.677C492.48 260.109 492.168 259.669 491.759 259.356C491.349 259.044 490.852 258.888 490.267 258.888C489.67 258.888 489.168 259.05 488.759 259.373C488.349 259.692 488.04 260.135 487.83 260.703C487.619 261.271 487.514 261.927 487.514 262.672C487.514 263.427 487.619 264.081 487.83 264.632C488.045 265.177 488.355 265.601 488.759 265.902C489.168 266.197 489.67 266.345 490.267 266.345ZM503.111 251.805V269.26H499.48V251.805H503.111ZM509.752 269.507C508.917 269.507 508.173 269.362 507.519 269.072C506.866 268.777 506.349 268.342 505.968 267.768C505.593 267.189 505.406 266.467 505.406 265.604C505.406 264.876 505.539 264.265 505.806 263.771C506.073 263.277 506.437 262.879 506.897 262.578C507.357 262.277 507.88 262.05 508.465 261.896C509.056 261.743 509.675 261.635 510.323 261.572C511.085 261.493 511.698 261.419 512.164 261.351C512.63 261.277 512.968 261.169 513.178 261.027C513.388 260.885 513.494 260.675 513.494 260.396V260.345C513.494 259.805 513.323 259.388 512.982 259.092C512.647 258.797 512.17 258.649 511.55 258.649C510.897 258.649 510.377 258.794 509.991 259.084C509.604 259.368 509.349 259.726 509.224 260.157L505.866 259.885C506.036 259.089 506.371 258.402 506.871 257.822C507.371 257.237 508.016 256.788 508.806 256.476C509.602 256.157 510.522 255.998 511.567 255.998C512.295 255.998 512.991 256.084 513.656 256.254C514.326 256.425 514.92 256.689 515.437 257.047C515.96 257.405 516.371 257.865 516.673 258.427C516.974 258.984 517.124 259.652 517.124 260.43V269.26H513.681V267.444H513.579C513.369 267.854 513.087 268.214 512.735 268.527C512.383 268.834 511.96 269.075 511.465 269.251C510.971 269.422 510.4 269.507 509.752 269.507ZM510.792 267.001C511.326 267.001 511.798 266.896 512.207 266.686C512.616 266.47 512.937 266.18 513.17 265.817C513.403 265.453 513.519 265.041 513.519 264.581V263.192C513.406 263.265 513.249 263.334 513.05 263.396C512.857 263.453 512.638 263.507 512.394 263.558C512.15 263.604 511.906 263.646 511.661 263.686C511.417 263.72 511.195 263.751 510.996 263.78C510.57 263.842 510.198 263.942 509.88 264.078C509.562 264.214 509.315 264.399 509.138 264.632C508.962 264.859 508.874 265.143 508.874 265.484C508.874 265.979 509.053 266.356 509.411 266.618C509.775 266.873 510.235 267.001 510.792 267.001ZM530.833 259.902L527.509 260.106C527.452 259.822 527.33 259.567 527.143 259.339C526.955 259.106 526.708 258.922 526.401 258.785C526.1 258.643 525.739 258.572 525.319 258.572C524.756 258.572 524.282 258.692 523.896 258.93C523.509 259.163 523.316 259.476 523.316 259.868C523.316 260.18 523.441 260.444 523.691 260.66C523.941 260.876 524.37 261.05 524.978 261.18L527.347 261.657C528.62 261.919 529.569 262.339 530.194 262.919C530.819 263.498 531.131 264.26 531.131 265.203C531.131 266.061 530.879 266.814 530.373 267.461C529.873 268.109 529.185 268.615 528.31 268.979C527.441 269.336 526.438 269.515 525.302 269.515C523.569 269.515 522.188 269.155 521.16 268.433C520.137 267.706 519.538 266.717 519.362 265.467L522.933 265.28C523.04 265.808 523.302 266.211 523.717 266.49C524.131 266.763 524.663 266.899 525.31 266.899C525.947 266.899 526.458 266.777 526.844 266.532C527.237 266.282 527.435 265.961 527.441 265.569C527.435 265.24 527.296 264.97 527.023 264.76C526.751 264.544 526.33 264.379 525.762 264.265L523.495 263.814C522.217 263.558 521.265 263.115 520.64 262.484C520.021 261.854 519.711 261.05 519.711 260.072C519.711 259.231 519.938 258.507 520.393 257.899C520.853 257.291 521.498 256.822 522.327 256.493C523.163 256.163 524.14 255.998 525.259 255.998C526.913 255.998 528.214 256.348 529.163 257.047C530.117 257.746 530.674 258.697 530.833 259.902ZM542.969 269.26L537.975 251.805H542.006L544.896 263.933H545.04L548.228 251.805H551.68L554.859 263.959H555.012L557.901 251.805H561.933L556.938 269.26H553.342L550.018 257.848H549.881L546.566 269.26H542.969ZM566.166 269.507C565.331 269.507 564.587 269.362 563.933 269.072C563.28 268.777 562.763 268.342 562.382 267.768C562.007 267.189 561.82 266.467 561.82 265.604C561.82 264.876 561.953 264.265 562.22 263.771C562.487 263.277 562.851 262.879 563.311 262.578C563.771 262.277 564.294 262.05 564.879 261.896C565.47 261.743 566.089 261.635 566.737 261.572C567.499 261.493 568.112 261.419 568.578 261.351C569.044 261.277 569.382 261.169 569.592 261.027C569.803 260.885 569.908 260.675 569.908 260.396V260.345C569.908 259.805 569.737 259.388 569.396 259.092C569.061 258.797 568.584 258.649 567.964 258.649C567.311 258.649 566.791 258.794 566.405 259.084C566.018 259.368 565.763 259.726 565.638 260.157L562.28 259.885C562.45 259.089 562.786 258.402 563.286 257.822C563.786 257.237 564.43 256.788 565.22 256.476C566.016 256.157 566.936 255.998 567.982 255.998C568.709 255.998 569.405 256.084 570.07 256.254C570.74 256.425 571.334 256.689 571.851 257.047C572.374 257.405 572.786 257.865 573.087 258.427C573.388 258.984 573.538 259.652 573.538 260.43V269.26H570.095V267.444H569.993C569.783 267.854 569.501 268.214 569.149 268.527C568.797 268.834 568.374 269.075 567.879 269.251C567.385 269.422 566.814 269.507 566.166 269.507ZM567.206 267.001C567.74 267.001 568.212 266.896 568.621 266.686C569.03 266.47 569.351 266.18 569.584 265.817C569.817 265.453 569.933 265.041 569.933 264.581V263.192C569.82 263.265 569.663 263.334 569.464 263.396C569.271 263.453 569.053 263.507 568.808 263.558C568.564 263.604 568.32 263.646 568.075 263.686C567.831 263.72 567.609 263.751 567.411 263.78C566.984 263.842 566.612 263.942 566.294 264.078C565.976 264.214 565.729 264.399 565.553 264.632C565.376 264.859 565.288 265.143 565.288 265.484C565.288 265.979 565.467 266.356 565.825 266.618C566.189 266.873 566.649 267.001 567.206 267.001ZM576.355 269.26V256.169H579.875V258.453H580.011C580.25 257.64 580.651 257.027 581.213 256.612C581.776 256.192 582.423 255.981 583.156 255.981C583.338 255.981 583.534 255.993 583.744 256.015C583.955 256.038 584.139 256.069 584.298 256.109V259.331C584.128 259.28 583.892 259.234 583.591 259.194C583.29 259.155 583.014 259.135 582.764 259.135C582.23 259.135 581.753 259.251 581.332 259.484C580.918 259.711 580.588 260.03 580.344 260.439C580.105 260.848 579.986 261.319 579.986 261.854V269.26H576.355ZM589.806 261.692V269.26H586.175V256.169H589.636V258.479H589.789C590.079 257.717 590.565 257.115 591.246 256.672C591.928 256.223 592.755 255.998 593.727 255.998C594.636 255.998 595.428 256.197 596.104 256.595C596.781 256.993 597.306 257.561 597.681 258.3C598.056 259.032 598.244 259.907 598.244 260.925V269.26H594.613V261.572C594.619 260.771 594.414 260.146 593.999 259.697C593.585 259.243 593.013 259.015 592.286 259.015C591.798 259.015 591.366 259.121 590.991 259.331C590.621 259.541 590.332 259.848 590.121 260.251C589.917 260.649 589.812 261.129 589.806 261.692ZM607.071 269.515C605.724 269.515 604.565 269.243 603.594 268.697C602.628 268.146 601.884 267.368 601.361 266.362C600.838 265.351 600.577 264.155 600.577 262.774C600.577 261.427 600.838 260.246 601.361 259.229C601.884 258.211 602.619 257.419 603.568 256.851C604.523 256.282 605.642 255.998 606.926 255.998C607.79 255.998 608.594 256.138 609.338 256.416C610.088 256.689 610.741 257.101 611.298 257.652C611.861 258.203 612.298 258.896 612.611 259.731C612.923 260.561 613.08 261.532 613.08 262.646V263.643H602.026V261.393H609.662C609.662 260.871 609.548 260.407 609.321 260.004C609.094 259.601 608.778 259.285 608.375 259.058C607.977 258.825 607.514 258.709 606.986 258.709C606.435 258.709 605.946 258.836 605.52 259.092C605.099 259.342 604.77 259.68 604.531 260.106C604.293 260.527 604.17 260.996 604.165 261.513V263.652C604.165 264.3 604.284 264.859 604.523 265.331C604.767 265.802 605.111 266.166 605.554 266.422C605.997 266.677 606.523 266.805 607.131 266.805C607.534 266.805 607.903 266.748 608.239 266.635C608.574 266.521 608.861 266.351 609.099 266.123C609.338 265.896 609.52 265.618 609.645 265.288L613.003 265.51C612.832 266.317 612.483 267.021 611.955 267.623C611.432 268.22 610.756 268.686 609.926 269.021C609.102 269.351 608.151 269.515 607.071 269.515ZM615.449 269.26V256.169H618.969V258.453H619.105C619.344 257.64 619.744 257.027 620.307 256.612C620.869 256.192 621.517 255.981 622.25 255.981C622.432 255.981 622.628 255.993 622.838 256.015C623.048 256.038 623.233 256.069 623.392 256.109V259.331C623.222 259.28 622.986 259.234 622.685 259.194C622.384 259.155 622.108 259.135 621.858 259.135C621.324 259.135 620.847 259.251 620.426 259.484C620.011 259.711 619.682 260.03 619.438 260.439C619.199 260.848 619.08 261.319 619.08 261.854V269.26H615.449ZM634.582 251.805V269.26H630.892V251.805H634.582ZM641.309 251.805V269.26H637.619V251.805H641.309ZM648.036 251.805V269.26H644.345V251.805H648.036Z" fill="black"/>
<path d="M661.739 269.26V254.714H670.759V256.604H663.933V261.035H670.112V262.917H663.933V269.26H661.739ZM677.081 269.48C676.059 269.48 675.166 269.246 674.404 268.777C673.641 268.308 673.05 267.652 672.628 266.809C672.207 265.967 671.996 264.982 671.996 263.855C671.996 262.723 672.207 261.734 672.628 260.886C673.05 260.039 673.641 259.381 674.404 258.912C675.166 258.443 676.059 258.209 677.081 258.209C678.104 258.209 678.997 258.443 679.759 258.912C680.521 259.381 681.113 260.039 681.534 260.886C681.956 261.734 682.167 262.723 682.167 263.855C682.167 264.982 681.956 265.967 681.534 266.809C681.113 267.652 680.521 268.308 679.759 268.777C678.997 269.246 678.104 269.48 677.081 269.48ZM677.088 267.697C677.751 267.697 678.301 267.522 678.736 267.172C679.172 266.821 679.494 266.355 679.702 265.773C679.915 265.19 680.022 264.549 680.022 263.848C680.022 263.152 679.915 262.513 679.702 261.93C679.494 261.343 679.172 260.872 678.736 260.517C678.301 260.162 677.751 259.984 677.088 259.984C676.421 259.984 675.867 260.162 675.426 260.517C674.991 260.872 674.667 261.343 674.453 261.93C674.245 262.513 674.141 263.152 674.141 263.848C674.141 264.549 674.245 265.19 674.453 265.773C674.667 266.355 674.991 266.821 675.426 267.172C675.867 267.522 676.421 267.697 677.088 267.697ZM684.537 269.26V258.351H686.589V260.084H686.703C686.902 259.497 687.252 259.035 687.754 258.699C688.261 258.358 688.834 258.187 689.473 258.187C689.606 258.187 689.762 258.192 689.942 258.202C690.126 258.211 690.271 258.223 690.375 258.237V260.268C690.29 260.245 690.138 260.219 689.92 260.19C689.703 260.157 689.485 260.14 689.267 260.14C688.765 260.14 688.318 260.247 687.925 260.46C687.536 260.668 687.229 260.96 687.001 261.334C686.774 261.703 686.661 262.124 686.661 262.598V269.26H684.537ZM692.213 269.26V258.351H694.251V260.126H694.386C694.613 259.525 694.985 259.056 695.501 258.72C696.017 258.379 696.635 258.209 697.355 258.209C698.084 258.209 698.695 258.379 699.187 258.72C699.684 259.061 700.051 259.53 700.288 260.126H700.402C700.662 259.544 701.076 259.08 701.645 258.734C702.213 258.384 702.89 258.209 703.676 258.209C704.665 258.209 705.473 258.519 706.098 259.139C706.727 259.759 707.042 260.694 707.042 261.944V269.26H704.919V262.143C704.919 261.405 704.717 260.87 704.315 260.538C703.913 260.207 703.432 260.041 702.873 260.041C702.182 260.041 701.645 260.254 701.261 260.68C700.877 261.102 700.686 261.644 700.686 262.307V269.26H698.569V262.008C698.569 261.416 698.385 260.941 698.015 260.581C697.646 260.221 697.165 260.041 696.574 260.041C696.171 260.041 695.799 260.148 695.458 260.361C695.122 260.569 694.85 260.86 694.642 261.234C694.438 261.608 694.336 262.041 694.336 262.534V269.26H692.213ZM714.59 269.48C713.515 269.48 712.59 269.25 711.813 268.791C711.041 268.327 710.445 267.676 710.023 266.838C709.607 265.995 709.398 265.008 709.398 263.876C709.398 262.759 709.607 261.774 710.023 260.922C710.445 260.069 711.032 259.404 711.785 258.926C712.542 258.448 713.428 258.209 714.441 258.209C715.057 258.209 715.653 258.31 716.231 258.514C716.808 258.718 717.327 259.037 717.786 259.473C718.246 259.908 718.608 260.474 718.873 261.17C719.138 261.862 719.271 262.702 719.271 263.692V264.444H710.599V262.854H717.19C717.19 262.295 717.076 261.8 716.849 261.369C716.621 260.934 716.302 260.59 715.89 260.339C715.483 260.088 715.004 259.963 714.455 259.963C713.859 259.963 713.338 260.11 712.893 260.403C712.452 260.692 712.112 261.071 711.87 261.54C711.633 262.004 711.515 262.508 711.515 263.052V264.295C711.515 265.024 711.643 265.645 711.898 266.156C712.159 266.667 712.521 267.058 712.985 267.328C713.449 267.593 713.991 267.726 714.612 267.726C715.014 267.726 715.381 267.669 715.712 267.555C716.044 267.437 716.33 267.262 716.572 267.03C716.813 266.798 716.998 266.511 717.126 266.17L719.136 266.532C718.975 267.124 718.686 267.643 718.269 268.088C717.857 268.528 717.339 268.872 716.714 269.118C716.094 269.359 715.386 269.48 714.59 269.48ZM721.627 269.26V258.351H723.679V260.084H723.793C723.992 259.497 724.342 259.035 724.844 258.699C725.351 258.358 725.924 258.187 726.563 258.187C726.695 258.187 726.852 258.192 727.032 258.202C727.216 258.211 727.361 258.223 727.465 258.237V260.268C727.38 260.245 727.228 260.219 727.01 260.19C726.792 260.157 726.575 260.14 726.357 260.14C725.855 260.14 725.408 260.247 725.015 260.46C724.626 260.668 724.319 260.96 724.091 261.334C723.864 261.703 723.75 262.124 723.75 262.598V269.26H721.627ZM746.847 259.444H744.631C744.546 258.971 744.387 258.554 744.155 258.194C743.923 257.835 743.639 257.529 743.303 257.278C742.967 257.027 742.59 256.838 742.174 256.71C741.762 256.582 741.324 256.518 740.86 256.518C740.022 256.518 739.271 256.729 738.608 257.15C737.95 257.572 737.429 258.19 737.046 259.004C736.667 259.818 736.478 260.813 736.478 261.987C736.478 263.171 736.667 264.17 737.046 264.984C737.429 265.799 737.953 266.414 738.615 266.831C739.278 267.247 740.024 267.456 740.853 267.456C741.312 267.456 741.748 267.394 742.159 267.271C742.576 267.143 742.953 266.956 743.289 266.71C743.625 266.464 743.909 266.163 744.141 265.808C744.378 265.448 744.541 265.036 744.631 264.572L746.847 264.579C746.729 265.294 746.499 265.952 746.158 266.554C745.822 267.15 745.389 267.666 744.858 268.102C744.333 268.533 743.731 268.867 743.054 269.104C742.377 269.34 741.639 269.459 740.838 269.459C739.579 269.459 738.457 269.16 737.472 268.564C736.487 267.962 735.711 267.103 735.142 265.986C734.579 264.868 734.297 263.535 734.297 261.987C734.297 260.434 734.581 259.101 735.15 257.988C735.718 256.871 736.494 256.014 737.479 255.417C738.464 254.816 739.584 254.515 740.838 254.515C741.61 254.515 742.33 254.627 742.998 254.849C743.67 255.067 744.274 255.389 744.809 255.815C745.344 256.237 745.786 256.753 746.137 257.363C746.487 257.97 746.724 258.663 746.847 259.444ZM749.473 269.26V254.714H758.592V256.604H751.668V261.035H758.116V262.917H751.668V267.371H758.678V269.26H749.473ZM774.159 261.987C774.159 263.54 773.875 264.875 773.306 265.993C772.738 267.105 771.959 267.962 770.97 268.564C769.985 269.16 768.865 269.459 767.61 269.459C766.351 269.459 765.226 269.16 764.237 268.564C763.252 267.962 762.475 267.103 761.907 265.986C761.339 264.868 761.055 263.535 761.055 261.987C761.055 260.434 761.339 259.101 761.907 257.988C762.475 256.871 763.252 256.014 764.237 255.417C765.226 254.816 766.351 254.515 767.61 254.515C768.865 254.515 769.985 254.816 770.97 255.417C771.959 256.014 772.738 256.871 773.306 257.988C773.875 259.101 774.159 260.434 774.159 261.987ZM771.985 261.987C771.985 260.803 771.794 259.807 771.41 258.997C771.031 258.183 770.511 257.567 769.848 257.15C769.19 256.729 768.444 256.518 767.61 256.518C766.772 256.518 766.024 256.729 765.366 257.15C764.708 257.567 764.187 258.183 763.804 258.997C763.425 259.807 763.235 260.803 763.235 261.987C763.235 263.171 763.425 264.17 763.804 264.984C764.187 265.794 764.708 266.409 765.366 266.831C766.024 267.247 766.772 267.456 767.61 267.456C768.444 267.456 769.19 267.247 769.848 266.831C770.511 266.409 771.031 265.794 771.41 264.984C771.794 264.17 771.985 263.171 771.985 261.987ZM778.569 267.271L778.463 268.045C778.392 268.613 778.271 269.205 778.1 269.821C777.935 270.441 777.762 271.016 777.582 271.547C777.407 272.077 777.262 272.498 777.149 272.811H775.643C775.705 272.517 775.79 272.12 775.899 271.618C776.008 271.121 776.114 270.564 776.218 269.949C776.323 269.333 776.401 268.706 776.453 268.067L776.524 267.271H778.569ZM792.451 254.714H794.638V265.027C794.638 265.96 794.453 266.757 794.084 267.42C793.72 268.083 793.206 268.59 792.543 268.94C791.88 269.286 791.104 269.459 790.213 269.459C789.394 269.459 788.658 269.309 788.005 269.011C787.356 268.713 786.842 268.28 786.463 267.711C786.089 267.139 785.902 266.443 785.902 265.623H788.083C788.083 266.026 788.175 266.374 788.36 266.667C788.549 266.961 788.807 267.191 789.134 267.356C789.465 267.517 789.844 267.598 790.27 267.598C790.734 267.598 791.127 267.501 791.449 267.307C791.776 267.108 792.025 266.817 792.195 266.433C792.365 266.05 792.451 265.581 792.451 265.027V254.714ZM798.377 269.395C797.989 269.395 797.655 269.257 797.376 268.983C797.097 268.703 796.957 268.367 796.957 267.974C796.957 267.586 797.097 267.255 797.376 266.98C797.655 266.701 797.989 266.561 798.377 266.561C798.766 266.561 799.1 266.701 799.379 266.98C799.658 267.255 799.798 267.586 799.798 267.974C799.798 268.235 799.732 268.474 799.599 268.692C799.471 268.905 799.301 269.075 799.088 269.203C798.875 269.331 798.638 269.395 798.377 269.395ZM802.813 269.26V254.714H807.998C809.129 254.714 810.067 254.92 810.81 255.332C811.553 255.744 812.11 256.308 812.479 257.023C812.848 257.733 813.033 258.533 813.033 259.423C813.033 260.318 812.846 261.123 812.472 261.838C812.103 262.548 811.544 263.112 810.796 263.528C810.052 263.94 809.117 264.146 807.99 264.146H804.425V262.285H807.792C808.507 262.285 809.087 262.162 809.532 261.916C809.977 261.665 810.303 261.324 810.512 260.893C810.72 260.462 810.824 259.972 810.824 259.423C810.824 258.874 810.72 258.386 810.512 257.96C810.303 257.534 809.974 257.2 809.525 256.959C809.079 256.717 808.492 256.596 807.763 256.596H805.007V269.26H802.813ZM816.151 269.395C815.763 269.395 815.429 269.257 815.15 268.983C814.87 268.703 814.73 268.367 814.73 267.974C814.73 267.586 814.87 267.255 815.15 266.98C815.429 266.701 815.763 266.561 816.151 266.561C816.539 266.561 816.873 266.701 817.152 266.98C817.432 267.255 817.571 267.586 817.571 267.974C817.571 268.235 817.505 268.474 817.373 268.692C817.245 268.905 817.074 269.075 816.861 269.203C816.648 269.331 816.411 269.395 816.151 269.395ZM825.645 254.714H828.308L832.939 266.021H833.109L837.74 254.714H840.403V269.26H838.315V258.734H838.18L833.891 269.238H832.158L827.868 258.727H827.733V269.26H825.645V254.714ZM848.019 269.48C846.996 269.48 846.104 269.246 845.341 268.777C844.579 268.308 843.987 267.652 843.566 266.809C843.144 265.967 842.934 264.982 842.934 263.855C842.934 262.723 843.144 261.734 843.566 260.886C843.987 260.039 844.579 259.381 845.341 258.912C846.104 258.443 846.996 258.209 848.019 258.209C849.042 258.209 849.934 258.443 850.696 258.912C851.459 259.381 852.051 260.039 852.472 260.886C852.893 261.734 853.104 262.723 853.104 263.855C853.104 264.982 852.893 265.967 852.472 266.809C852.051 267.652 851.459 268.308 850.696 268.777C849.934 269.246 849.042 269.48 848.019 269.48ZM848.026 267.697C848.689 267.697 849.238 267.522 849.674 267.172C850.109 266.821 850.431 266.355 850.64 265.773C850.853 265.19 850.959 264.549 850.959 263.848C850.959 263.152 850.853 262.513 850.64 261.93C850.431 261.343 850.109 260.872 849.674 260.517C849.238 260.162 848.689 259.984 848.026 259.984C847.358 259.984 846.804 260.162 846.364 260.517C845.928 260.872 845.604 261.343 845.391 261.93C845.183 262.513 845.078 263.152 845.078 263.848C845.078 264.549 845.183 265.19 845.391 265.773C845.604 266.355 845.928 266.821 846.364 267.172C846.804 267.522 847.358 267.697 848.026 267.697ZM855.474 269.26V258.351H857.527V260.084H857.641C857.839 259.497 858.19 259.035 858.692 258.699C859.198 258.358 859.771 258.187 860.411 258.187C860.543 258.187 860.699 258.192 860.879 258.202C861.064 258.211 861.208 258.223 861.312 258.237V260.268C861.227 260.245 861.076 260.219 860.858 260.19C860.64 260.157 860.422 260.14 860.205 260.14C859.703 260.14 859.255 260.247 858.862 260.46C858.474 260.668 858.166 260.96 857.939 261.334C857.712 261.703 857.598 262.124 857.598 262.598V269.26H855.474ZM867.333 273.578C866.467 273.578 865.721 273.464 865.096 273.237C864.476 273.01 863.969 272.709 863.576 272.335C863.183 271.961 862.89 271.551 862.696 271.106L864.521 270.354C864.649 270.562 864.819 270.782 865.032 271.014C865.25 271.251 865.544 271.452 865.913 271.618C866.287 271.783 866.768 271.866 867.355 271.866C868.16 271.866 868.825 271.67 869.35 271.277C869.876 270.889 870.139 270.268 870.139 269.416V267.271H870.004C869.876 267.503 869.691 267.761 869.45 268.045C869.213 268.329 868.886 268.576 868.47 268.784C868.053 268.992 867.511 269.096 866.843 269.096C865.982 269.096 865.205 268.895 864.514 268.493C863.827 268.086 863.283 267.487 862.88 266.696C862.483 265.9 862.284 264.923 862.284 263.763C862.284 262.603 862.48 261.608 862.873 260.78C863.271 259.951 863.815 259.317 864.507 258.876C865.198 258.431 865.982 258.209 866.858 258.209C867.535 258.209 868.082 258.322 868.498 258.55C868.915 258.772 869.239 259.032 869.471 259.331C869.708 259.629 869.89 259.892 870.018 260.119H870.174V258.351H872.255V269.501C872.255 270.439 872.038 271.208 871.602 271.809C871.166 272.411 870.577 272.856 869.833 273.145C869.095 273.434 868.261 273.578 867.333 273.578ZM867.312 267.335C867.923 267.335 868.439 267.193 868.86 266.909C869.287 266.62 869.609 266.208 869.826 265.673C870.049 265.133 870.16 264.487 870.16 263.734C870.16 263 870.051 262.354 869.833 261.795C869.616 261.237 869.296 260.801 868.875 260.488C868.453 260.171 867.932 260.013 867.312 260.013C866.673 260.013 866.14 260.178 865.714 260.51C865.288 260.836 864.966 261.282 864.748 261.845C864.535 262.408 864.429 263.038 864.429 263.734C864.429 264.449 864.538 265.077 864.755 265.616C864.973 266.156 865.295 266.577 865.721 266.881C866.152 267.184 866.682 267.335 867.312 267.335ZM878.278 269.501C877.587 269.501 876.962 269.373 876.403 269.118C875.844 268.857 875.402 268.481 875.075 267.988C874.753 267.496 874.592 266.892 874.592 266.177C874.592 265.562 874.71 265.055 874.947 264.657C875.184 264.26 875.503 263.945 875.906 263.713C876.308 263.481 876.758 263.306 877.255 263.187C877.752 263.069 878.259 262.979 878.775 262.917C879.429 262.842 879.959 262.78 880.366 262.733C880.773 262.681 881.069 262.598 881.254 262.484C881.439 262.371 881.531 262.186 881.531 261.93V261.881C881.531 261.26 881.356 260.78 881.005 260.439C880.66 260.098 880.144 259.927 879.457 259.927C878.742 259.927 878.179 260.086 877.767 260.403C877.359 260.716 877.078 261.064 876.922 261.447L874.926 260.993C875.163 260.33 875.508 259.795 875.963 259.388C876.422 258.976 876.95 258.677 877.547 258.493C878.143 258.303 878.77 258.209 879.429 258.209C879.864 258.209 880.326 258.261 880.814 258.365C881.306 258.464 881.765 258.649 882.191 258.919C882.622 259.189 882.975 259.575 883.25 260.077C883.524 260.574 883.662 261.22 883.662 262.015V269.26H881.588V267.768H881.502C881.365 268.043 881.159 268.313 880.885 268.578C880.61 268.843 880.257 269.063 879.826 269.238C879.395 269.414 878.879 269.501 878.278 269.501ZM878.74 267.797C879.327 267.797 879.829 267.681 880.245 267.449C880.667 267.217 880.986 266.914 881.204 266.54C881.427 266.161 881.538 265.756 881.538 265.325V263.919C881.462 263.995 881.315 264.066 881.098 264.132C880.885 264.193 880.641 264.248 880.366 264.295C880.092 264.338 879.824 264.378 879.564 264.416C879.303 264.449 879.085 264.478 878.91 264.501C878.498 264.553 878.122 264.641 877.781 264.764C877.445 264.887 877.175 265.065 876.971 265.297C876.772 265.524 876.673 265.827 876.673 266.206C876.673 266.731 876.867 267.129 877.255 267.399C877.644 267.664 878.138 267.797 878.74 267.797ZM888.614 262.782V269.26H886.49V258.351H888.528V260.126H888.663C888.914 259.549 889.307 259.085 889.842 258.734C890.382 258.384 891.062 258.209 891.881 258.209C892.624 258.209 893.275 258.365 893.834 258.677C894.393 258.985 894.826 259.444 895.134 260.055C895.441 260.666 895.595 261.421 895.595 262.321V269.26H893.472V262.577C893.472 261.786 893.266 261.168 892.854 260.723C892.442 260.273 891.876 260.048 891.156 260.048C890.664 260.048 890.226 260.155 889.842 260.368C889.464 260.581 889.163 260.893 888.94 261.305C888.723 261.712 888.614 262.205 888.614 262.782ZM915.988 259.444H913.772C913.686 258.971 913.528 258.554 913.296 258.194C913.064 257.835 912.78 257.529 912.444 257.278C912.107 257.027 911.731 256.838 911.314 256.71C910.902 256.582 910.464 256.518 910 256.518C909.162 256.518 908.412 256.729 907.749 257.15C907.091 257.572 906.57 258.19 906.186 259.004C905.808 259.818 905.618 260.813 905.618 261.987C905.618 263.171 905.808 264.17 906.186 264.984C906.57 265.799 907.093 266.414 907.756 266.831C908.419 267.247 909.165 267.456 909.993 267.456C910.453 267.456 910.888 267.394 911.3 267.271C911.717 267.143 912.093 266.956 912.429 266.71C912.766 266.464 913.05 266.163 913.282 265.808C913.518 265.448 913.682 265.036 913.772 264.572L915.988 264.579C915.869 265.294 915.64 265.952 915.299 266.554C914.962 267.15 914.529 267.666 913.999 268.102C913.473 268.533 912.872 268.867 912.195 269.104C911.518 269.34 910.779 269.459 909.979 269.459C908.72 269.459 907.597 269.16 906.613 268.564C905.628 267.962 904.851 267.103 904.283 265.986C903.72 264.868 903.438 263.535 903.438 261.987C903.438 260.434 903.722 259.101 904.29 257.988C904.858 256.871 905.635 256.014 906.62 255.417C907.605 254.816 908.724 254.515 909.979 254.515C910.751 254.515 911.471 254.627 912.138 254.849C912.81 255.067 913.414 255.389 913.949 255.815C914.484 256.237 914.927 256.753 915.277 257.363C915.628 257.97 915.864 258.663 915.988 259.444ZM920.567 262.782V269.26H918.443V254.714H920.538V260.126H920.673C920.929 259.539 921.32 259.073 921.845 258.727C922.371 258.381 923.057 258.209 923.905 258.209C924.653 258.209 925.306 258.363 925.865 258.67C926.429 258.978 926.864 259.437 927.172 260.048C927.484 260.654 927.641 261.412 927.641 262.321V269.26H925.517V262.577C925.517 261.776 925.311 261.156 924.899 260.716C924.487 260.271 923.914 260.048 923.18 260.048C922.679 260.048 922.229 260.155 921.831 260.368C921.438 260.581 921.128 260.893 920.901 261.305C920.678 261.712 920.567 262.205 920.567 262.782ZM933.649 269.501C932.958 269.501 932.333 269.373 931.774 269.118C931.215 268.857 930.773 268.481 930.446 267.988C930.124 267.496 929.963 266.892 929.963 266.177C929.963 265.562 930.081 265.055 930.318 264.657C930.555 264.26 930.875 263.945 931.277 263.713C931.679 263.481 932.129 263.306 932.626 263.187C933.124 263.069 933.63 262.979 934.146 262.917C934.8 262.842 935.33 262.78 935.737 262.733C936.144 262.681 936.44 262.598 936.625 262.484C936.81 262.371 936.902 262.186 936.902 261.93V261.881C936.902 261.26 936.727 260.78 936.376 260.439C936.031 260.098 935.515 259.927 934.828 259.927C934.113 259.927 933.55 260.086 933.138 260.403C932.731 260.716 932.449 261.064 932.293 261.447L930.297 260.993C930.534 260.33 930.879 259.795 931.334 259.388C931.793 258.976 932.321 258.677 932.918 258.493C933.514 258.303 934.142 258.209 934.8 258.209C935.235 258.209 935.697 258.261 936.185 258.365C936.677 258.464 937.136 258.649 937.562 258.919C937.993 259.189 938.346 259.575 938.621 260.077C938.895 260.574 939.033 261.22 939.033 262.015V269.26H936.959V267.768H936.874C936.736 268.043 936.53 268.313 936.256 268.578C935.981 268.843 935.628 269.063 935.197 269.238C934.767 269.414 934.25 269.501 933.649 269.501ZM934.111 267.797C934.698 267.797 935.2 267.681 935.616 267.449C936.038 267.217 936.357 266.914 936.575 266.54C936.798 266.161 936.909 265.756 936.909 265.325V263.919C936.833 263.995 936.687 264.066 936.469 264.132C936.256 264.193 936.012 264.248 935.737 264.295C935.463 264.338 935.195 264.378 934.935 264.416C934.674 264.449 934.456 264.478 934.281 264.501C933.869 264.553 933.493 264.641 933.152 264.764C932.816 264.887 932.546 265.065 932.342 265.297C932.143 265.524 932.044 265.827 932.044 266.206C932.044 266.731 932.238 267.129 932.626 267.399C933.015 267.664 933.509 267.797 934.111 267.797ZM950.036 261.014L948.111 261.355C948.031 261.109 947.903 260.874 947.728 260.652C947.557 260.429 947.325 260.247 947.032 260.105C946.738 259.963 946.371 259.892 945.931 259.892C945.329 259.892 944.828 260.027 944.425 260.297C944.023 260.562 943.821 260.905 943.821 261.327C943.821 261.691 943.956 261.985 944.226 262.207C944.496 262.43 944.932 262.612 945.533 262.754L947.266 263.152C948.27 263.384 949.018 263.741 949.51 264.224C950.003 264.707 950.249 265.335 950.249 266.106C950.249 266.76 950.06 267.342 949.681 267.854C949.307 268.36 948.783 268.758 948.111 269.047C947.444 269.336 946.669 269.48 945.789 269.48C944.567 269.48 943.57 269.22 942.799 268.699C942.027 268.173 941.553 267.427 941.378 266.461L943.431 266.149C943.559 266.684 943.821 267.089 944.219 267.363C944.617 267.633 945.135 267.768 945.775 267.768C946.471 267.768 947.027 267.624 947.444 267.335C947.86 267.041 948.069 266.684 948.069 266.263C948.069 265.922 947.941 265.635 947.685 265.403C947.434 265.171 947.048 264.996 946.527 264.878L944.681 264.473C943.663 264.241 942.91 263.872 942.422 263.365C941.939 262.858 941.698 262.217 941.698 261.44C941.698 260.796 941.878 260.233 942.238 259.75C942.597 259.267 943.095 258.89 943.729 258.621C944.364 258.346 945.09 258.209 945.909 258.209C947.088 258.209 948.016 258.464 948.694 258.976C949.371 259.482 949.818 260.162 950.036 261.014ZM957.286 269.48C956.211 269.48 955.285 269.25 954.509 268.791C953.737 268.327 953.14 267.676 952.719 266.838C952.302 265.995 952.094 265.008 952.094 263.876C952.094 262.759 952.302 261.774 952.719 260.922C953.14 260.069 953.727 259.404 954.48 258.926C955.238 258.448 956.123 258.209 957.136 258.209C957.752 258.209 958.348 258.31 958.926 258.514C959.504 258.718 960.022 259.037 960.482 259.473C960.941 259.908 961.303 260.474 961.568 261.17C961.833 261.862 961.966 262.702 961.966 263.692V264.444H953.294V262.854H959.885C959.885 262.295 959.771 261.8 959.544 261.369C959.317 260.934 958.997 260.59 958.585 260.339C958.178 260.088 957.7 259.963 957.151 259.963C956.554 259.963 956.033 260.11 955.588 260.403C955.148 260.692 954.807 261.071 954.565 261.54C954.329 262.004 954.21 262.508 954.21 263.052V264.295C954.21 265.024 954.338 265.645 954.594 266.156C954.854 266.667 955.216 267.058 955.68 267.328C956.144 267.593 956.687 267.726 957.307 267.726C957.709 267.726 958.076 267.669 958.408 267.555C958.739 267.437 959.026 267.262 959.267 267.03C959.509 266.798 959.693 266.511 959.821 266.17L961.831 266.532C961.67 267.124 961.381 267.643 960.964 268.088C960.553 268.528 960.034 268.872 959.409 269.118C958.789 269.359 958.081 269.48 957.286 269.48ZM973.848 269.466C972.873 269.466 972.032 269.288 971.327 268.933C970.626 268.578 970.086 268.095 969.707 267.484C969.329 266.869 969.139 266.173 969.139 265.396C969.139 264.804 969.262 264.279 969.509 263.819C969.755 263.355 970.098 262.927 970.538 262.534C970.979 262.141 971.488 261.746 972.065 261.348L974.409 259.693C974.807 259.433 975.117 259.158 975.339 258.869C975.562 258.576 975.673 258.213 975.673 257.782C975.673 257.442 975.527 257.115 975.233 256.802C974.939 256.49 974.546 256.334 974.054 256.334C973.713 256.334 973.412 256.416 973.152 256.582C972.896 256.748 972.695 256.961 972.548 257.221C972.406 257.477 972.335 257.747 972.335 258.031C972.335 258.363 972.425 258.696 972.605 259.032C972.79 259.369 973.027 259.717 973.315 260.077C973.604 260.432 973.907 260.801 974.224 261.184L980.979 269.26H978.578L972.989 262.69C972.52 262.136 972.084 261.615 971.682 261.128C971.279 260.635 970.953 260.138 970.702 259.636C970.455 259.13 970.332 258.583 970.332 257.996C970.332 257.328 970.484 256.736 970.787 256.22C971.095 255.699 971.523 255.292 972.072 254.998C972.622 254.705 973.266 254.558 974.004 254.558C974.752 254.558 975.394 254.705 975.929 254.998C976.469 255.287 976.883 255.673 977.172 256.156C977.465 256.634 977.612 257.157 977.612 257.726C977.612 258.417 977.439 259.028 977.094 259.558C976.753 260.084 976.282 260.567 975.68 261.007L972.761 263.159C972.193 263.576 971.798 263.988 971.575 264.395C971.357 264.797 971.249 265.112 971.249 265.339C971.249 265.756 971.355 266.142 971.568 266.497C971.786 266.852 972.089 267.136 972.477 267.349C972.87 267.562 973.33 267.669 973.855 267.669C974.395 267.669 974.92 267.553 975.432 267.321C975.948 267.084 976.414 266.746 976.831 266.305C977.252 265.865 977.586 265.337 977.832 264.721C978.079 264.106 978.202 263.417 978.202 262.655H980.119C980.119 263.592 980.013 264.385 979.8 265.034C979.587 265.678 979.329 266.203 979.026 266.611C978.727 267.013 978.446 267.328 978.18 267.555C978.095 267.631 978.015 267.707 977.939 267.782C977.863 267.858 977.783 267.934 977.697 268.01C977.205 268.507 976.608 268.874 975.908 269.111C975.212 269.347 974.525 269.466 973.848 269.466ZM1000.19 259.444H997.971C997.886 258.971 997.727 258.554 997.495 258.194C997.263 257.835 996.979 257.529 996.643 257.278C996.307 257.027 995.93 256.838 995.513 256.71C995.102 256.582 994.664 256.518 994.2 256.518C993.362 256.518 992.611 256.729 991.948 257.15C991.29 257.572 990.769 258.19 990.386 259.004C990.007 259.818 989.817 260.813 989.817 261.987C989.817 263.171 990.007 264.17 990.386 264.984C990.769 265.799 991.292 266.414 991.955 266.831C992.618 267.247 993.364 267.456 994.192 267.456C994.652 267.456 995.087 267.394 995.499 267.271C995.916 267.143 996.292 266.956 996.629 266.71C996.965 266.464 997.249 266.163 997.481 265.808C997.718 265.448 997.881 265.036 997.971 264.572L1000.19 264.579C1000.07 265.294 999.839 265.952 999.498 266.554C999.162 267.15 998.728 267.666 998.198 268.102C997.673 268.533 997.071 268.867 996.394 269.104C995.717 269.34 994.978 269.459 994.178 269.459C992.919 269.459 991.797 269.16 990.812 268.564C989.827 267.962 989.05 267.103 988.482 265.986C987.919 264.868 987.637 263.535 987.637 261.987C987.637 260.434 987.921 259.101 988.489 257.988C989.058 256.871 989.834 256.014 990.819 255.417C991.804 254.816 992.924 254.515 994.178 254.515C994.95 254.515 995.67 254.627 996.337 254.849C997.01 255.067 997.613 255.389 998.148 255.815C998.683 256.237 999.126 256.753 999.477 257.363C999.827 257.97 1000.06 258.663 1000.19 259.444ZM1007.24 269.48C1006.21 269.48 1005.32 269.246 1004.56 268.777C1003.8 268.308 1003.21 267.652 1002.78 266.809C1002.36 265.967 1002.15 264.982 1002.15 263.855C1002.15 262.723 1002.36 261.734 1002.78 260.886C1003.21 260.039 1003.8 259.381 1004.56 258.912C1005.32 258.443 1006.21 258.209 1007.24 258.209C1008.26 258.209 1009.15 258.443 1009.92 258.912C1010.68 259.381 1011.27 260.039 1011.69 260.886C1012.11 261.734 1012.32 262.723 1012.32 263.855C1012.32 264.982 1012.11 265.967 1011.69 266.809C1011.27 267.652 1010.68 268.308 1009.92 268.777C1009.15 269.246 1008.26 269.48 1007.24 269.48ZM1007.24 267.697C1007.91 267.697 1008.46 267.522 1008.89 267.172C1009.33 266.821 1009.65 266.355 1009.86 265.773C1010.07 265.19 1010.18 264.549 1010.18 263.848C1010.18 263.152 1010.07 262.513 1009.86 261.93C1009.65 261.343 1009.33 260.872 1008.89 260.517C1008.46 260.162 1007.91 259.984 1007.24 259.984C1006.58 259.984 1006.02 260.162 1005.58 260.517C1005.15 260.872 1004.82 261.343 1004.61 261.93C1004.4 262.513 1004.3 263.152 1004.3 263.848C1004.3 264.549 1004.4 265.19 1004.61 265.773C1004.82 266.355 1005.15 266.821 1005.58 267.172C1006.02 267.522 1006.58 267.697 1007.24 267.697Z" fill="#0C212C"/>
<defs>
<linearGradient id="paint0_linear_6017_8798" x1="971.5" y1="174.76" x2="1482.5" y2="174.76" gradientUnits="userSpaceOnUse">
<stop offset="0.081934" stop-color="#15BFFD" stop-opacity="0"/>
<stop offset="0.706057" stop-color="#15BFFD"/>
<stop offset="1" stop-color="#9C37FD"/>
</linearGradient>
<linearGradient id="paint1_linear_6017_8798" x1="159.772" y1="50.0251" x2="206.639" y2="467.747" gradientUnits="userSpaceOnUse">
<stop stop-color="#15BFFD"/>
<stop offset="1" stop-color="#9C37FD"/>
</linearGradient>
</defs>
</svg>
