<svg width="424" height="242" viewBox="0 0 424 242" fill="none" xmlns="http://www.w3.org/2000/svg">
<g clip-path="url(#clip0_9552_23380)">
<path d="M69 0V30.4641H51.236C51.4774 33.9447 52.468 39.8121 56.2305 43.848C59.1857 47.0138 63.3645 48.5552 69 48.5552V58.7486C60.4759 58.7486 53.6583 56.0718 48.7304 50.7928C42.637 44.2624 40.8639 35.395 40.5975 30.4724V0.00828729H69V0Z" fill="#29292B"/>
<path d="M28.4116 0V30.4641H10.6476C10.889 33.9447 11.8796 39.8121 15.6421 43.848C18.5973 47.0138 22.7761 48.5552 28.4116 48.5552V58.7486C19.8875 58.7486 13.0699 56.0718 8.14196 50.7928C2.04859 44.2624 0.275518 35.395 0.00914192 30.4724V0.00828729H28.4199L28.4116 0Z" fill="#29292B"/>
</g>
<path d="M1.73864 91.3807V88.5682H21.375V91.3807H13.142V114.75H9.97159V91.3807H1.73864ZM28.8761 102.938V114.75H25.859V88.5682H28.8761V98.1818H29.1317C29.592 97.1676 30.2823 96.3622 31.2028 95.7656C32.1317 95.1605 33.3675 94.858 34.9102 94.858C36.2482 94.858 37.4201 95.1264 38.4258 95.6634C39.4315 96.1918 40.2113 97.0057 40.7653 98.1051C41.3278 99.196 41.609 100.585 41.609 102.273V114.75H38.592V102.477C38.592 100.918 38.1871 99.7116 37.3775 98.8594C36.5763 97.9986 35.4641 97.5682 34.0408 97.5682C33.0522 97.5682 32.1658 97.777 31.3817 98.1946C30.6062 98.6122 29.9925 99.2216 29.5408 100.023C29.0977 100.824 28.8761 101.795 28.8761 102.938ZM55.3615 115.159C53.4695 115.159 51.8374 114.741 50.4652 113.906C49.1016 113.062 48.049 111.886 47.3075 110.378C46.5746 108.861 46.2081 107.097 46.2081 105.085C46.2081 103.074 46.5746 101.301 47.3075 99.767C48.049 98.2244 49.0803 97.0227 50.4013 96.1619C51.7308 95.2926 53.282 94.858 55.0547 94.858C56.0774 94.858 57.0874 95.0284 58.0845 95.3693C59.0817 95.7102 59.9893 96.2642 60.8075 97.0312C61.6257 97.7898 62.2777 98.7955 62.7635 100.048C63.2493 101.301 63.4922 102.844 63.4922 104.676V105.955H48.3558V103.347H60.424C60.424 102.239 60.2024 101.25 59.7592 100.381C59.3246 99.5114 58.7024 98.8253 57.8928 98.3224C57.0916 97.8196 56.1456 97.5682 55.0547 97.5682C53.853 97.5682 52.8132 97.8665 51.9354 98.4631C51.0661 99.0511 50.397 99.8182 49.9283 100.764C49.4595 101.71 49.2251 102.724 49.2251 103.807V105.545C49.2251 107.028 49.4808 108.286 49.9922 109.317C50.5121 110.339 51.2322 111.119 52.1527 111.656C53.0732 112.185 54.1428 112.449 55.3615 112.449C56.1541 112.449 56.87 112.338 57.5092 112.116C58.157 111.886 58.7152 111.545 59.1839 111.094C59.6527 110.634 60.0149 110.062 60.2706 109.381L63.1854 110.199C62.8786 111.188 62.3629 112.057 61.6385 112.807C60.9141 113.548 60.0192 114.128 58.9538 114.545C57.8885 114.955 56.6911 115.159 55.3615 115.159ZM78.6158 114.75V88.5682H81.6328V98.233H81.8885C82.1101 97.892 82.4169 97.4574 82.8089 96.929C83.2095 96.392 83.7805 95.9148 84.522 95.4972C85.272 95.071 86.2862 94.858 87.5646 94.858C89.218 94.858 90.6754 95.2713 91.9368 96.098C93.1982 96.9247 94.1825 98.0966 94.8899 99.6136C95.5973 101.131 95.951 102.92 95.951 104.983C95.951 107.062 95.5973 108.865 94.8899 110.391C94.1825 111.908 93.2024 113.084 91.9496 113.919C90.6967 114.746 89.2521 115.159 87.6158 115.159C86.3544 115.159 85.3445 114.95 84.5859 114.533C83.8274 114.107 83.2436 113.625 82.8345 113.088C82.4254 112.543 82.1101 112.091 81.8885 111.733H81.5305V114.75H78.6158ZM81.5817 104.932C81.5817 106.415 81.799 107.723 82.2337 108.857C82.6683 109.982 83.3033 110.864 84.1385 111.503C84.9737 112.134 85.9964 112.449 87.2067 112.449C88.468 112.449 89.5206 112.116 90.3643 111.452C91.2166 110.778 91.8558 109.875 92.282 108.741C92.7166 107.599 92.9339 106.33 92.9339 104.932C92.9339 103.551 92.7209 102.307 92.2947 101.199C91.8771 100.082 91.2422 99.2003 90.3899 98.5526C89.5462 97.8963 88.4851 97.5682 87.2067 97.5682C85.9794 97.5682 84.9482 97.8793 84.1129 98.5014C83.2777 99.1151 82.647 99.9759 82.2209 101.084C81.7947 102.183 81.5817 103.466 81.5817 104.932ZM108.799 115.159C106.907 115.159 105.275 114.741 103.903 113.906C102.539 113.062 101.487 111.886 100.745 110.378C100.012 108.861 99.6456 107.097 99.6456 105.085C99.6456 103.074 100.012 101.301 100.745 99.767C101.487 98.2244 102.518 97.0227 103.839 96.1619C105.168 95.2926 106.719 94.858 108.492 94.858C109.515 94.858 110.525 95.0284 111.522 95.3693C112.519 95.7102 113.427 96.2642 114.245 97.0312C115.063 97.7898 115.715 98.7955 116.201 100.048C116.687 101.301 116.93 102.844 116.93 104.676V105.955H101.793V103.347H113.862C113.862 102.239 113.64 101.25 113.197 100.381C112.762 99.5114 112.14 98.8253 111.33 98.3224C110.529 97.8196 109.583 97.5682 108.492 97.5682C107.29 97.5682 106.251 97.8665 105.373 98.4631C104.504 99.0511 103.835 99.8182 103.366 100.764C102.897 101.71 102.663 102.724 102.663 103.807V105.545C102.663 107.028 102.918 108.286 103.43 109.317C103.95 110.339 104.67 111.119 105.59 111.656C106.511 112.185 107.58 112.449 108.799 112.449C109.592 112.449 110.308 112.338 110.947 112.116C111.594 111.886 112.153 111.545 112.621 111.094C113.09 110.634 113.452 110.062 113.708 109.381L116.623 110.199C116.316 111.188 115.8 112.057 115.076 112.807C114.352 113.548 113.457 114.128 112.391 114.545C111.326 114.955 110.129 115.159 108.799 115.159ZM135.428 99.5114L132.718 100.278C132.548 99.8267 132.296 99.3878 131.964 98.9616C131.64 98.527 131.197 98.169 130.634 97.8878C130.072 97.6065 129.352 97.4659 128.474 97.4659C127.272 97.4659 126.271 97.7429 125.469 98.2969C124.677 98.8423 124.281 99.5369 124.281 100.381C124.281 101.131 124.553 101.723 125.099 102.158C125.644 102.592 126.496 102.955 127.656 103.244L130.57 103.96C132.326 104.386 133.634 105.038 134.495 105.916C135.356 106.786 135.786 107.906 135.786 109.278C135.786 110.403 135.462 111.409 134.815 112.295C134.175 113.182 133.281 113.881 132.13 114.392C130.979 114.903 129.641 115.159 128.116 115.159C126.113 115.159 124.455 114.724 123.143 113.855C121.83 112.986 120.999 111.716 120.65 110.045L123.513 109.33C123.786 110.386 124.302 111.179 125.06 111.707C125.827 112.236 126.829 112.5 128.065 112.5C129.471 112.5 130.587 112.202 131.414 111.605C132.249 111 132.667 110.276 132.667 109.432C132.667 108.75 132.428 108.179 131.951 107.719C131.474 107.25 130.741 106.901 129.752 106.67L126.479 105.903C124.681 105.477 123.36 104.817 122.516 103.922C121.681 103.018 121.263 101.889 121.263 100.534C121.263 99.4261 121.575 98.446 122.197 97.5938C122.827 96.7415 123.684 96.0724 124.766 95.5866C125.857 95.1009 127.093 94.858 128.474 94.858C130.417 94.858 131.942 95.2841 133.05 96.1364C134.167 96.9886 134.96 98.1136 135.428 99.5114ZM148.868 95.1136V97.6705H138.691V95.1136H148.868ZM141.657 90.4091H144.674V109.125C144.674 109.977 144.798 110.616 145.045 111.043C145.301 111.46 145.625 111.741 146.017 111.886C146.417 112.023 146.839 112.091 147.282 112.091C147.615 112.091 147.887 112.074 148.1 112.04C148.314 111.997 148.484 111.963 148.612 111.938L149.225 114.648C149.021 114.724 148.735 114.801 148.369 114.878C148.002 114.963 147.538 115.006 146.975 115.006C146.123 115.006 145.288 114.822 144.47 114.456C143.66 114.089 142.987 113.531 142.45 112.781C141.922 112.031 141.657 111.085 141.657 109.943V90.4091ZM163.531 122.114V95.1136H166.446V98.233H166.804C167.025 97.892 167.332 97.4574 167.724 96.929C168.125 96.392 168.696 95.9148 169.437 95.4972C170.187 95.071 171.201 94.858 172.48 94.858C174.133 94.858 175.591 95.2713 176.852 96.098C178.113 96.9247 179.098 98.0966 179.805 99.6136C180.512 101.131 180.866 102.92 180.866 104.983C180.866 107.062 180.512 108.865 179.805 110.391C179.098 111.908 178.118 113.084 176.865 113.919C175.612 114.746 174.167 115.159 172.531 115.159C171.27 115.159 170.26 114.95 169.501 114.533C168.743 114.107 168.159 113.625 167.75 113.088C167.341 112.543 167.025 112.091 166.804 111.733H166.548V122.114H163.531ZM166.497 104.932C166.497 106.415 166.714 107.723 167.149 108.857C167.583 109.982 168.218 110.864 169.054 111.503C169.889 112.134 170.912 112.449 172.122 112.449C173.383 112.449 174.436 112.116 175.279 111.452C176.132 110.778 176.771 109.875 177.197 108.741C177.632 107.599 177.849 106.33 177.849 104.932C177.849 103.551 177.636 102.307 177.21 101.199C176.792 100.082 176.157 99.2003 175.305 98.5526C174.461 97.8963 173.4 97.5682 172.122 97.5682C170.895 97.5682 169.863 97.8793 169.028 98.5014C168.193 99.1151 167.562 99.9759 167.136 101.084C166.71 102.183 166.497 103.466 166.497 104.932ZM188.485 88.5682V114.75H185.468V88.5682H188.485ZM199.79 115.21C198.545 115.21 197.416 114.976 196.402 114.507C195.388 114.03 194.582 113.344 193.986 112.449C193.389 111.545 193.091 110.455 193.091 109.176C193.091 108.051 193.313 107.139 193.756 106.44C194.199 105.733 194.791 105.179 195.533 104.778C196.274 104.378 197.092 104.08 197.987 103.884C198.891 103.679 199.798 103.517 200.71 103.398C201.903 103.244 202.871 103.129 203.612 103.053C204.362 102.967 204.908 102.827 205.249 102.631C205.598 102.435 205.773 102.094 205.773 101.608V101.506C205.773 100.244 205.428 99.2642 204.737 98.5653C204.055 97.8665 203.02 97.517 201.631 97.517C200.19 97.517 199.061 97.8324 198.243 98.4631C197.425 99.0937 196.849 99.767 196.517 100.483L193.653 99.4602C194.165 98.267 194.847 97.3381 195.699 96.6733C196.56 96 197.497 95.5312 198.511 95.267C199.534 94.9943 200.54 94.858 201.528 94.858C202.159 94.858 202.884 94.9347 203.702 95.0881C204.528 95.233 205.325 95.5355 206.092 95.9957C206.868 96.456 207.511 97.1506 208.023 98.0795C208.534 99.0085 208.79 100.253 208.79 101.812V114.75H205.773V112.091H205.619C205.415 112.517 205.074 112.973 204.597 113.459C204.119 113.945 203.484 114.358 202.692 114.699C201.899 115.04 200.932 115.21 199.79 115.21ZM200.25 112.5C201.443 112.5 202.449 112.266 203.267 111.797C204.094 111.328 204.716 110.723 205.134 109.982C205.56 109.24 205.773 108.46 205.773 107.642V104.881C205.645 105.034 205.364 105.175 204.929 105.303C204.503 105.422 204.009 105.528 203.446 105.622C202.892 105.707 202.351 105.784 201.822 105.852C201.303 105.912 200.881 105.963 200.557 106.006C199.773 106.108 199.04 106.274 198.358 106.504C197.685 106.726 197.139 107.062 196.722 107.514C196.313 107.957 196.108 108.562 196.108 109.33C196.108 110.378 196.496 111.17 197.271 111.707C198.055 112.236 199.048 112.5 200.25 112.5ZM222.274 115.159C220.433 115.159 218.848 114.724 217.518 113.855C216.189 112.986 215.166 111.788 214.45 110.263C213.734 108.737 213.376 106.994 213.376 105.034C213.376 103.04 213.743 101.28 214.475 99.7543C215.217 98.2202 216.248 97.0227 217.569 96.1619C218.899 95.2926 220.45 94.858 222.223 94.858C223.603 94.858 224.848 95.1136 225.956 95.625C227.064 96.1364 227.971 96.8523 228.679 97.7727C229.386 98.6932 229.825 99.767 229.995 100.994H226.978C226.748 100.099 226.237 99.3068 225.444 98.6165C224.66 97.9176 223.603 97.5682 222.274 97.5682C221.098 97.5682 220.066 97.875 219.18 98.4886C218.302 99.0937 217.616 99.9503 217.122 101.058C216.636 102.158 216.393 103.449 216.393 104.932C216.393 106.449 216.632 107.77 217.109 108.895C217.595 110.02 218.277 110.893 219.154 111.516C220.041 112.138 221.081 112.449 222.274 112.449C223.058 112.449 223.77 112.312 224.409 112.04C225.048 111.767 225.589 111.375 226.032 110.864C226.475 110.352 226.791 109.739 226.978 109.023H229.995C229.825 110.182 229.403 111.226 228.73 112.155C228.065 113.075 227.183 113.808 226.083 114.354C224.993 114.891 223.723 115.159 222.274 115.159ZM242.639 115.159C240.747 115.159 239.115 114.741 237.743 113.906C236.379 113.062 235.326 111.886 234.585 110.378C233.852 108.861 233.485 107.097 233.485 105.085C233.485 103.074 233.852 101.301 234.585 99.767C235.326 98.2244 236.358 97.0227 237.679 96.1619C239.008 95.2926 240.559 94.858 242.332 94.858C243.355 94.858 244.365 95.0284 245.362 95.3693C246.359 95.7102 247.267 96.2642 248.085 97.0312C248.903 97.7898 249.555 98.7955 250.041 100.048C250.527 101.301 250.77 102.844 250.77 104.676V105.955H235.633V103.347H247.701C247.701 102.239 247.48 101.25 247.037 100.381C246.602 99.5114 245.98 98.8253 245.17 98.3224C244.369 97.8196 243.423 97.5682 242.332 97.5682C241.13 97.5682 240.091 97.8665 239.213 98.4631C238.343 99.0511 237.674 99.8182 237.206 100.764C236.737 101.71 236.502 102.724 236.502 103.807V105.545C236.502 107.028 236.758 108.286 237.27 109.317C237.789 110.339 238.51 111.119 239.43 111.656C240.35 112.185 241.42 112.449 242.639 112.449C243.431 112.449 244.147 112.338 244.787 112.116C245.434 111.886 245.993 111.545 246.461 111.094C246.93 110.634 247.292 110.062 247.548 109.381L250.463 110.199C250.156 111.188 249.64 112.057 248.916 112.807C248.191 113.548 247.297 114.128 246.231 114.545C245.166 114.955 243.968 115.159 242.639 115.159ZM274.024 95.1136V97.6705H263.848V95.1136H274.024ZM266.814 90.4091H269.831V109.125C269.831 109.977 269.954 110.616 270.201 111.043C270.457 111.46 270.781 111.741 271.173 111.886C271.574 112.023 271.995 112.091 272.439 112.091C272.771 112.091 273.044 112.074 273.257 112.04C273.47 111.997 273.64 111.963 273.768 111.938L274.382 114.648C274.177 114.724 273.892 114.801 273.525 114.878C273.159 114.963 272.694 115.006 272.132 115.006C271.279 115.006 270.444 114.822 269.626 114.456C268.816 114.089 268.143 113.531 267.606 112.781C267.078 112.031 266.814 111.085 266.814 109.943V90.4091ZM286.328 115.159C284.556 115.159 283 114.737 281.662 113.893C280.333 113.05 279.293 111.869 278.543 110.352C277.801 108.835 277.431 107.062 277.431 105.034C277.431 102.989 277.801 101.203 278.543 99.6776C279.293 98.152 280.333 96.9673 281.662 96.1236C283 95.2798 284.556 94.858 286.328 94.858C288.101 94.858 289.652 95.2798 290.982 96.1236C292.32 96.9673 293.36 98.152 294.101 99.6776C294.851 101.203 295.226 102.989 295.226 105.034C295.226 107.062 294.851 108.835 294.101 110.352C293.36 111.869 292.32 113.05 290.982 113.893C289.652 114.737 288.101 115.159 286.328 115.159ZM286.328 112.449C287.675 112.449 288.783 112.104 289.652 111.413C290.522 110.723 291.165 109.815 291.583 108.69C292 107.565 292.209 106.347 292.209 105.034C292.209 103.722 292 102.499 291.583 101.365C291.165 100.232 290.522 99.3153 289.652 98.6165C288.783 97.9176 287.675 97.5682 286.328 97.5682C284.982 97.5682 283.874 97.9176 283.005 98.6165C282.135 99.3153 281.492 100.232 281.074 101.365C280.657 102.499 280.448 103.722 280.448 105.034C280.448 106.347 280.657 107.565 281.074 108.69C281.492 109.815 282.135 110.723 283.005 111.413C283.874 112.104 284.982 112.449 286.328 112.449ZM312.974 102.938V114.75H309.957V88.5682H312.974V98.1818H313.229C313.69 97.1676 314.38 96.3622 315.3 95.7656C316.229 95.1605 317.465 94.858 319.008 94.858C320.346 94.858 321.518 95.1264 322.523 95.6634C323.529 96.1918 324.309 97.0057 324.863 98.1051C325.425 99.196 325.707 100.585 325.707 102.273V114.75H322.69V102.477C322.69 100.918 322.285 99.7116 321.475 98.8594C320.674 97.9986 319.562 97.5682 318.138 97.5682C317.15 97.5682 316.263 97.777 315.479 98.1946C314.704 98.6122 314.09 99.2216 313.638 100.023C313.195 100.824 312.974 101.795 312.974 102.938ZM331.226 114.75V95.1136H334.243V114.75H331.226ZM332.76 91.8409C332.172 91.8409 331.665 91.6406 331.239 91.2401C330.821 90.8395 330.613 90.358 330.613 89.7955C330.613 89.233 330.821 88.7514 331.239 88.3509C331.665 87.9503 332.172 87.75 332.76 87.75C333.348 87.75 333.851 87.9503 334.269 88.3509C334.695 88.7514 334.908 89.233 334.908 89.7955C334.908 90.358 334.695 90.8395 334.269 91.2401C333.851 91.6406 333.348 91.8409 332.76 91.8409ZM347.184 115.159C345.548 115.159 344.103 114.746 342.85 113.919C341.597 113.084 340.617 111.908 339.91 110.391C339.202 108.865 338.849 107.062 338.849 104.983C338.849 102.92 339.202 101.131 339.91 99.6136C340.617 98.0966 341.602 96.9247 342.863 96.098C344.124 95.2713 345.582 94.858 347.235 94.858C348.513 94.858 349.523 95.071 350.265 95.4972C351.015 95.9148 351.586 96.392 351.978 96.929C352.379 97.4574 352.69 97.892 352.911 98.233H353.167V88.5682H356.184V114.75H353.269V111.733H352.911C352.69 112.091 352.374 112.543 351.965 113.088C351.556 113.625 350.972 114.107 350.214 114.533C349.455 114.95 348.445 115.159 347.184 115.159ZM347.593 112.449C348.803 112.449 349.826 112.134 350.661 111.503C351.496 110.864 352.131 109.982 352.566 108.857C353.001 107.723 353.218 106.415 353.218 104.932C353.218 103.466 353.005 102.183 352.579 101.084C352.153 99.9759 351.522 99.1151 350.687 98.5014C349.852 97.8793 348.82 97.5682 347.593 97.5682C346.315 97.5682 345.249 97.8963 344.397 98.5526C343.553 99.2003 342.918 100.082 342.492 101.199C342.075 102.307 341.866 103.551 341.866 104.932C341.866 106.33 342.079 107.599 342.505 108.741C342.94 109.875 343.579 110.778 344.423 111.452C345.275 112.116 346.332 112.449 347.593 112.449ZM370.362 115.159C368.469 115.159 366.837 114.741 365.465 113.906C364.102 113.062 363.049 111.886 362.308 110.378C361.575 108.861 361.208 107.097 361.208 105.085C361.208 103.074 361.575 101.301 362.308 99.767C363.049 98.2244 364.08 97.0227 365.401 96.1619C366.731 95.2926 368.282 94.858 370.055 94.858C371.077 94.858 372.087 95.0284 373.085 95.3693C374.082 95.7102 374.989 96.2642 375.808 97.0312C376.626 97.7898 377.278 98.7955 377.763 100.048C378.249 101.301 378.492 102.844 378.492 104.676V105.955H363.356V103.347H375.424C375.424 102.239 375.202 101.25 374.759 100.381C374.325 99.5114 373.702 98.8253 372.893 98.3224C372.092 97.8196 371.146 97.5682 370.055 97.5682C368.853 97.5682 367.813 97.8665 366.935 98.4631C366.066 99.0511 365.397 99.8182 364.928 100.764C364.46 101.71 364.225 102.724 364.225 103.807V105.545C364.225 107.028 364.481 108.286 364.992 109.317C365.512 110.339 366.232 111.119 367.153 111.656C368.073 112.185 369.143 112.449 370.362 112.449C371.154 112.449 371.87 112.338 372.509 112.116C373.157 111.886 373.715 111.545 374.184 111.094C374.653 110.634 375.015 110.062 375.271 109.381L378.185 110.199C377.879 111.188 377.363 112.057 376.638 112.807C375.914 113.548 375.019 114.128 373.954 114.545C372.888 114.955 371.691 115.159 370.362 115.159ZM398.985 115.21C397.741 115.21 396.612 114.976 395.597 114.507C394.583 114.03 393.778 113.344 393.181 112.449C392.585 111.545 392.286 110.455 392.286 109.176C392.286 108.051 392.508 107.139 392.951 106.44C393.394 105.733 393.987 105.179 394.728 104.778C395.469 104.378 396.288 104.08 397.183 103.884C398.086 103.679 398.994 103.517 399.906 103.398C401.099 103.244 402.066 103.129 402.808 103.053C403.558 102.967 404.103 102.827 404.444 102.631C404.793 102.435 404.968 102.094 404.968 101.608V101.506C404.968 100.244 404.623 99.2642 403.933 98.5653C403.251 97.8665 402.215 97.517 400.826 97.517C399.386 97.517 398.256 97.8324 397.438 98.4631C396.62 99.0937 396.045 99.767 395.712 100.483L392.849 99.4602C393.36 98.267 394.042 97.3381 394.894 96.6733C395.755 96 396.692 95.5312 397.707 95.267C398.729 94.9943 399.735 94.858 400.724 94.858C401.354 94.858 402.079 94.9347 402.897 95.0881C403.724 95.233 404.521 95.5355 405.288 95.9957C406.063 96.456 406.707 97.1506 407.218 98.0795C407.729 99.0085 407.985 100.253 407.985 101.812V114.75H404.968V112.091H404.815C404.61 112.517 404.269 112.973 403.792 113.459C403.315 113.945 402.68 114.358 401.887 114.699C401.094 115.04 400.127 115.21 398.985 115.21ZM399.445 112.5C400.638 112.5 401.644 112.266 402.462 111.797C403.289 111.328 403.911 110.723 404.329 109.982C404.755 109.24 404.968 108.46 404.968 107.642V104.881C404.84 105.034 404.559 105.175 404.124 105.303C403.698 105.422 403.204 105.528 402.641 105.622C402.087 105.707 401.546 105.784 401.018 105.852C400.498 105.912 400.076 105.963 399.752 106.006C398.968 106.108 398.235 106.274 397.553 106.504C396.88 106.726 396.335 107.062 395.917 107.514C395.508 107.957 395.303 108.562 395.303 109.33C395.303 110.378 395.691 111.17 396.467 111.707C397.251 112.236 398.244 112.5 399.445 112.5ZM10.1761 159.159C8.53977 159.159 7.09517 158.746 5.84233 157.919C4.58949 157.084 3.60938 155.908 2.90199 154.391C2.1946 152.865 1.84091 151.062 1.84091 148.983C1.84091 146.92 2.1946 145.131 2.90199 143.614C3.60938 142.097 4.59375 140.925 5.85511 140.098C7.11648 139.271 8.57386 138.858 10.2273 138.858C11.5057 138.858 12.5156 139.071 13.2571 139.497C14.0071 139.915 14.5781 140.392 14.9702 140.929C15.3707 141.457 15.6818 141.892 15.9034 142.233H16.1591V132.568H19.1761V158.75H16.2614V155.733H15.9034C15.6818 156.091 15.3665 156.543 14.9574 157.088C14.5483 157.625 13.9645 158.107 13.206 158.533C12.4474 158.95 11.4375 159.159 10.1761 159.159ZM10.5852 156.449C11.7955 156.449 12.8182 156.134 13.6534 155.503C14.4886 154.864 15.1236 153.982 15.5582 152.857C15.9929 151.723 16.2102 150.415 16.2102 148.932C16.2102 147.466 15.9972 146.183 15.571 145.084C15.1449 143.976 14.5142 143.115 13.679 142.501C12.8438 141.879 11.8125 141.568 10.5852 141.568C9.30682 141.568 8.24148 141.896 7.3892 142.553C6.54545 143.2 5.91051 144.082 5.48438 145.199C5.06676 146.307 4.85795 147.551 4.85795 148.932C4.85795 150.33 5.07102 151.599 5.49716 152.741C5.93182 153.875 6.57102 154.778 7.41477 155.452C8.26705 156.116 9.32386 156.449 10.5852 156.449ZM33.3537 159.159C31.4616 159.159 29.8295 158.741 28.4574 157.906C27.0938 157.062 26.0412 155.886 25.2997 154.378C24.5668 152.861 24.2003 151.097 24.2003 149.085C24.2003 147.074 24.5668 145.301 25.2997 143.767C26.0412 142.224 27.0724 141.023 28.3935 140.162C29.723 139.293 31.2741 138.858 33.0469 138.858C34.0696 138.858 35.0795 139.028 36.0767 139.369C37.0739 139.71 37.9815 140.264 38.7997 141.031C39.6179 141.79 40.2699 142.795 40.7557 144.048C41.2415 145.301 41.4844 146.844 41.4844 148.676V149.955H26.348V147.347H38.4162C38.4162 146.239 38.1946 145.25 37.7514 144.381C37.3168 143.511 36.6946 142.825 35.8849 142.322C35.0838 141.82 34.1378 141.568 33.0469 141.568C31.8452 141.568 30.8054 141.866 29.9276 142.463C29.0582 143.051 28.3892 143.818 27.9205 144.764C27.4517 145.71 27.2173 146.724 27.2173 147.807V149.545C27.2173 151.028 27.473 152.286 27.9844 153.317C28.5043 154.339 29.2244 155.119 30.1449 155.656C31.0653 156.185 32.1349 156.449 33.3537 156.449C34.1463 156.449 34.8622 156.338 35.5014 156.116C36.1491 155.886 36.7074 155.545 37.1761 155.094C37.6449 154.634 38.0071 154.062 38.2628 153.381L41.1776 154.199C40.8707 155.188 40.3551 156.057 39.6307 156.807C38.9063 157.548 38.0114 158.128 36.946 158.545C35.8807 158.955 34.6832 159.159 33.3537 159.159ZM51.8523 159.21C50.608 159.21 49.4787 158.976 48.4645 158.507C47.4503 158.03 46.6449 157.344 46.0483 156.449C45.4517 155.545 45.1534 154.455 45.1534 153.176C45.1534 152.051 45.375 151.139 45.8182 150.44C46.2614 149.733 46.8537 149.179 47.5952 148.778C48.3366 148.378 49.1548 148.08 50.0497 147.884C50.9531 147.679 51.8608 147.517 52.7727 147.398C53.9659 147.244 54.9332 147.129 55.6747 147.053C56.4247 146.967 56.9702 146.827 57.3111 146.631C57.6605 146.435 57.8352 146.094 57.8352 145.608V145.506C57.8352 144.244 57.4901 143.264 56.7997 142.565C56.1179 141.866 55.0824 141.517 53.6932 141.517C52.2528 141.517 51.1236 141.832 50.3054 142.463C49.4872 143.094 48.9119 143.767 48.5795 144.483L45.7159 143.46C46.2273 142.267 46.9091 141.338 47.7614 140.673C48.6222 140 49.5597 139.531 50.5739 139.267C51.5966 138.994 52.6023 138.858 53.5909 138.858C54.2216 138.858 54.946 138.935 55.7642 139.088C56.5909 139.233 57.3878 139.536 58.1548 139.996C58.9304 140.456 59.5739 141.151 60.0852 142.08C60.5966 143.009 60.8523 144.253 60.8523 145.812V158.75H57.8352V156.091H57.6818C57.4773 156.517 57.1364 156.973 56.6591 157.459C56.1818 157.945 55.5469 158.358 54.7543 158.699C53.9616 159.04 52.9943 159.21 51.8523 159.21ZM52.3125 156.5C53.5057 156.5 54.5114 156.266 55.3295 155.797C56.1563 155.328 56.7784 154.723 57.196 153.982C57.6222 153.24 57.8352 152.46 57.8352 151.642V148.881C57.7074 149.034 57.4261 149.175 56.9915 149.303C56.5653 149.422 56.071 149.528 55.5085 149.622C54.9545 149.707 54.4134 149.784 53.8849 149.852C53.3651 149.912 52.9432 149.963 52.6193 150.006C51.8352 150.108 51.1023 150.274 50.4205 150.504C49.7472 150.726 49.2017 151.062 48.7841 151.514C48.375 151.957 48.1705 152.562 48.1705 153.33C48.1705 154.378 48.5582 155.17 49.3338 155.707C50.1179 156.236 51.1108 156.5 52.3125 156.5ZM73.7738 159.159C72.1374 159.159 70.6928 158.746 69.44 157.919C68.1871 157.084 67.207 155.908 66.4996 154.391C65.7923 152.865 65.4386 151.062 65.4386 148.983C65.4386 146.92 65.7923 145.131 66.4996 143.614C67.207 142.097 68.1914 140.925 69.4528 140.098C70.7141 139.271 72.1715 138.858 73.8249 138.858C75.1033 138.858 76.1133 139.071 76.8548 139.497C77.6048 139.915 78.1758 140.392 78.5678 140.929C78.9684 141.457 79.2795 141.892 79.5011 142.233H79.7567V132.568H82.7738V158.75H79.859V155.733H79.5011C79.2795 156.091 78.9641 156.543 78.555 157.088C78.146 157.625 77.5621 158.107 76.8036 158.533C76.0451 158.95 75.0352 159.159 73.7738 159.159ZM74.1829 156.449C75.3931 156.449 76.4158 156.134 77.2511 155.503C78.0863 154.864 78.7212 153.982 79.1559 152.857C79.5906 151.723 79.8079 150.415 79.8079 148.932C79.8079 147.466 79.5948 146.183 79.1687 145.084C78.7425 143.976 78.1119 143.115 77.2766 142.501C76.4414 141.879 75.4102 141.568 74.1829 141.568C72.9045 141.568 71.8391 141.896 70.9869 142.553C70.1431 143.2 69.5082 144.082 69.082 145.199C68.6644 146.307 68.4556 147.551 68.4556 148.932C68.4556 150.33 68.6687 151.599 69.0948 152.741C69.5295 153.875 70.1687 154.778 71.0124 155.452C71.8647 156.116 72.9215 156.449 74.1829 156.449ZM99.2525 158.75V132.568H102.27V142.233H102.525C102.747 141.892 103.054 141.457 103.446 140.929C103.846 140.392 104.417 139.915 105.159 139.497C105.909 139.071 106.923 138.858 108.201 138.858C109.855 138.858 111.312 139.271 112.574 140.098C113.835 140.925 114.819 142.097 115.527 143.614C116.234 145.131 116.588 146.92 116.588 148.983C116.588 151.062 116.234 152.865 115.527 154.391C114.819 155.908 113.839 157.084 112.586 157.919C111.333 158.746 109.889 159.159 108.252 159.159C106.991 159.159 105.981 158.95 105.223 158.533C104.464 158.107 103.88 157.625 103.471 157.088C103.062 156.543 102.747 156.091 102.525 155.733H102.167V158.75H99.2525ZM102.218 148.932C102.218 150.415 102.436 151.723 102.87 152.857C103.305 153.982 103.94 154.864 104.775 155.503C105.61 156.134 106.633 156.449 107.843 156.449C109.105 156.449 110.157 156.116 111.001 155.452C111.853 154.778 112.493 153.875 112.919 152.741C113.353 151.599 113.571 150.33 113.571 148.932C113.571 147.551 113.358 146.307 112.931 145.199C112.514 144.082 111.879 143.2 111.027 142.553C110.183 141.896 109.122 141.568 107.843 141.568C106.616 141.568 105.585 141.879 104.75 142.501C103.914 143.115 103.284 143.976 102.858 145.084C102.431 146.183 102.218 147.466 102.218 148.932ZM129.18 159.159C127.407 159.159 125.852 158.737 124.514 157.893C123.184 157.05 122.145 155.869 121.395 154.352C120.653 152.835 120.282 151.062 120.282 149.034C120.282 146.989 120.653 145.203 121.395 143.678C122.145 142.152 123.184 140.967 124.514 140.124C125.852 139.28 127.407 138.858 129.18 138.858C130.953 138.858 132.504 139.28 133.833 140.124C135.172 140.967 136.211 142.152 136.953 143.678C137.703 145.203 138.078 146.989 138.078 149.034C138.078 151.062 137.703 152.835 136.953 154.352C136.211 155.869 135.172 157.05 133.833 157.893C132.504 158.737 130.953 159.159 129.18 159.159ZM129.18 156.449C130.527 156.449 131.635 156.104 132.504 155.413C133.373 154.723 134.017 153.815 134.434 152.69C134.852 151.565 135.061 150.347 135.061 149.034C135.061 147.722 134.852 146.499 134.434 145.365C134.017 144.232 133.373 143.315 132.504 142.616C131.635 141.918 130.527 141.568 129.18 141.568C127.833 141.568 126.725 141.918 125.856 142.616C124.987 143.315 124.343 144.232 123.926 145.365C123.508 146.499 123.299 147.722 123.299 149.034C123.299 150.347 123.508 151.565 123.926 152.69C124.343 153.815 124.987 154.723 125.856 155.413C126.725 156.104 127.833 156.449 129.18 156.449ZM150.098 159.159C148.462 159.159 147.017 158.746 145.764 157.919C144.511 157.084 143.531 155.908 142.824 154.391C142.116 152.865 141.763 151.062 141.763 148.983C141.763 146.92 142.116 145.131 142.824 143.614C143.531 142.097 144.516 140.925 145.777 140.098C147.038 139.271 148.496 138.858 150.149 138.858C151.428 138.858 152.438 139.071 153.179 139.497C153.929 139.915 154.5 140.392 154.892 140.929C155.293 141.457 155.604 141.892 155.825 142.233H156.081V132.568H159.098V158.75H156.183V155.733H155.825C155.604 156.091 155.288 156.543 154.879 157.088C154.47 157.625 153.886 158.107 153.128 158.533C152.369 158.95 151.359 159.159 150.098 159.159ZM150.507 156.449C151.717 156.449 152.74 156.134 153.575 155.503C154.411 154.864 155.045 153.982 155.48 152.857C155.915 151.723 156.132 150.415 156.132 148.932C156.132 147.466 155.919 146.183 155.493 145.084C155.067 143.976 154.436 143.115 153.601 142.501C152.766 141.879 151.734 141.568 150.507 141.568C149.229 141.568 148.163 141.896 147.311 142.553C146.467 143.2 145.832 144.082 145.406 145.199C144.989 146.307 144.78 147.551 144.78 148.932C144.78 150.33 144.993 151.599 145.419 152.741C145.854 153.875 146.493 154.778 147.337 155.452C148.189 156.116 149.246 156.449 150.507 156.449ZM166.986 166.114C166.474 166.114 166.018 166.071 165.618 165.986C165.217 165.909 164.94 165.832 164.787 165.756L165.554 163.097C166.287 163.284 166.935 163.352 167.497 163.301C168.06 163.25 168.558 162.999 168.993 162.547C169.436 162.104 169.841 161.384 170.207 160.386L170.77 158.852L163.509 139.114H166.781L172.202 154.761H172.406L177.827 139.114H181.099L172.764 161.614C172.389 162.628 171.925 163.467 171.371 164.132C170.817 164.805 170.173 165.304 169.44 165.628C168.716 165.952 167.898 166.114 166.986 166.114ZM195.207 158.75V139.114H198.224V158.75H195.207ZM196.741 135.841C196.153 135.841 195.646 135.641 195.219 135.24C194.802 134.839 194.593 134.358 194.593 133.795C194.593 133.233 194.802 132.751 195.219 132.351C195.646 131.95 196.153 131.75 196.741 131.75C197.329 131.75 197.832 131.95 198.249 132.351C198.675 132.751 198.888 133.233 198.888 133.795C198.888 134.358 198.675 134.839 198.249 135.24C197.832 135.641 197.329 135.841 196.741 135.841ZM217.659 143.511L214.949 144.278C214.778 143.827 214.527 143.388 214.194 142.962C213.87 142.527 213.427 142.169 212.865 141.888C212.302 141.607 211.582 141.466 210.704 141.466C209.502 141.466 208.501 141.743 207.7 142.297C206.907 142.842 206.511 143.537 206.511 144.381C206.511 145.131 206.784 145.723 207.329 146.158C207.875 146.592 208.727 146.955 209.886 147.244L212.801 147.96C214.556 148.386 215.865 149.038 216.725 149.916C217.586 150.786 218.017 151.906 218.017 153.278C218.017 154.403 217.693 155.409 217.045 156.295C216.406 157.182 215.511 157.881 214.36 158.392C213.21 158.903 211.872 159.159 210.346 159.159C208.343 159.159 206.686 158.724 205.373 157.855C204.061 156.986 203.23 155.716 202.88 154.045L205.744 153.33C206.017 154.386 206.532 155.179 207.291 155.707C208.058 156.236 209.059 156.5 210.295 156.5C211.701 156.5 212.818 156.202 213.645 155.605C214.48 155 214.897 154.276 214.897 153.432C214.897 152.75 214.659 152.179 214.181 151.719C213.704 151.25 212.971 150.901 211.983 150.67L208.71 149.903C206.912 149.477 205.591 148.817 204.747 147.922C203.912 147.018 203.494 145.889 203.494 144.534C203.494 143.426 203.805 142.446 204.427 141.594C205.058 140.741 205.914 140.072 206.997 139.587C208.088 139.101 209.324 138.858 210.704 138.858C212.647 138.858 214.173 139.284 215.281 140.136C216.397 140.989 217.19 142.114 217.659 143.511ZM232.683 166.114V139.114H235.598V142.233H235.956C236.178 141.892 236.484 141.457 236.876 140.929C237.277 140.392 237.848 139.915 238.589 139.497C239.339 139.071 240.354 138.858 241.632 138.858C243.286 138.858 244.743 139.271 246.004 140.098C247.266 140.925 248.25 142.097 248.957 143.614C249.665 145.131 250.018 146.92 250.018 148.983C250.018 151.062 249.665 152.865 248.957 154.391C248.25 155.908 247.27 157.084 246.017 157.919C244.764 158.746 243.32 159.159 241.683 159.159C240.422 159.159 239.412 158.95 238.653 158.533C237.895 158.107 237.311 157.625 236.902 157.088C236.493 156.543 236.178 156.091 235.956 155.733H235.7V166.114H232.683ZM235.649 148.932C235.649 150.415 235.866 151.723 236.301 152.857C236.736 153.982 237.371 154.864 238.206 155.503C239.041 156.134 240.064 156.449 241.274 156.449C242.536 156.449 243.588 156.116 244.432 155.452C245.284 154.778 245.923 153.875 246.349 152.741C246.784 151.599 247.001 150.33 247.001 148.932C247.001 147.551 246.788 146.307 246.362 145.199C245.945 144.082 245.31 143.2 244.457 142.553C243.614 141.896 242.553 141.568 241.274 141.568C240.047 141.568 239.016 141.879 238.18 142.501C237.345 143.115 236.714 143.976 236.288 145.084C235.862 146.183 235.649 147.466 235.649 148.932ZM260.399 159.21C259.155 159.21 258.026 158.976 257.011 158.507C255.997 158.03 255.192 157.344 254.595 156.449C253.999 155.545 253.7 154.455 253.7 153.176C253.7 152.051 253.922 151.139 254.365 150.44C254.808 149.733 255.401 149.179 256.142 148.778C256.884 148.378 257.702 148.08 258.597 147.884C259.5 147.679 260.408 147.517 261.32 147.398C262.513 147.244 263.48 147.129 264.222 147.053C264.972 146.967 265.517 146.827 265.858 146.631C266.207 146.435 266.382 146.094 266.382 145.608V145.506C266.382 144.244 266.037 143.264 265.347 142.565C264.665 141.866 263.629 141.517 262.24 141.517C260.8 141.517 259.67 141.832 258.852 142.463C258.034 143.094 257.459 143.767 257.126 144.483L254.263 143.46C254.774 142.267 255.456 141.338 256.308 140.673C257.169 140 258.107 139.531 259.121 139.267C260.143 138.994 261.149 138.858 262.138 138.858C262.768 138.858 263.493 138.935 264.311 139.088C265.138 139.233 265.935 139.536 266.702 139.996C267.477 140.456 268.121 141.151 268.632 142.08C269.143 143.009 269.399 144.253 269.399 145.812V158.75H266.382V156.091H266.229C266.024 156.517 265.683 156.973 265.206 157.459C264.729 157.945 264.094 158.358 263.301 158.699C262.509 159.04 261.541 159.21 260.399 159.21ZM260.859 156.5C262.053 156.5 263.058 156.266 263.876 155.797C264.703 155.328 265.325 154.723 265.743 153.982C266.169 153.24 266.382 152.46 266.382 151.642V148.881C266.254 149.034 265.973 149.175 265.538 149.303C265.112 149.422 264.618 149.528 264.055 149.622C263.501 149.707 262.96 149.784 262.432 149.852C261.912 149.912 261.49 149.963 261.166 150.006C260.382 150.108 259.649 150.274 258.967 150.504C258.294 150.726 257.749 151.062 257.331 151.514C256.922 151.957 256.717 152.562 256.717 153.33C256.717 154.378 257.105 155.17 257.881 155.707C258.665 156.236 259.658 156.5 260.859 156.5ZM282.832 166.523C281.375 166.523 280.122 166.335 279.074 165.96C278.025 165.594 277.152 165.108 276.453 164.503C275.762 163.906 275.213 163.267 274.804 162.585L277.207 160.898C277.48 161.256 277.825 161.665 278.243 162.125C278.66 162.594 279.231 162.999 279.956 163.339C280.689 163.689 281.647 163.864 282.832 163.864C284.417 163.864 285.725 163.48 286.757 162.713C287.788 161.946 288.304 160.744 288.304 159.108V155.119H288.048C287.826 155.477 287.511 155.92 287.102 156.449C286.701 156.969 286.122 157.433 285.363 157.842C284.613 158.243 283.599 158.443 282.321 158.443C280.735 158.443 279.312 158.068 278.051 157.318C276.798 156.568 275.805 155.477 275.072 154.045C274.348 152.614 273.985 150.875 273.985 148.83C273.985 146.818 274.339 145.067 275.047 143.575C275.754 142.075 276.738 140.916 278 140.098C279.261 139.271 280.718 138.858 282.372 138.858C283.65 138.858 284.664 139.071 285.414 139.497C286.173 139.915 286.752 140.392 287.153 140.929C287.562 141.457 287.877 141.892 288.099 142.233H288.406V139.114H291.321V159.312C291.321 161 290.937 162.372 290.17 163.429C289.412 164.494 288.389 165.274 287.102 165.768C285.824 166.271 284.4 166.523 282.832 166.523ZM282.73 155.733C283.94 155.733 284.963 155.456 285.798 154.902C286.633 154.348 287.268 153.551 287.703 152.511C288.137 151.472 288.355 150.227 288.355 148.778C288.355 147.364 288.142 146.115 287.716 145.033C287.289 143.95 286.659 143.102 285.824 142.489C284.988 141.875 283.957 141.568 282.73 141.568C281.451 141.568 280.386 141.892 279.534 142.54C278.69 143.187 278.055 144.057 277.629 145.148C277.211 146.239 277.002 147.449 277.002 148.778C277.002 150.142 277.216 151.348 277.642 152.396C278.076 153.436 278.716 154.254 279.559 154.851C280.412 155.439 281.468 155.733 282.73 155.733ZM305.076 159.159C303.184 159.159 301.552 158.741 300.18 157.906C298.816 157.062 297.764 155.886 297.022 154.378C296.289 152.861 295.923 151.097 295.923 149.085C295.923 147.074 296.289 145.301 297.022 143.767C297.764 142.224 298.795 141.023 300.116 140.162C301.446 139.293 302.997 138.858 304.77 138.858C305.792 138.858 306.802 139.028 307.799 139.369C308.797 139.71 309.704 140.264 310.522 141.031C311.341 141.79 311.993 142.795 312.478 144.048C312.964 145.301 313.207 146.844 313.207 148.676V149.955H298.071V147.347H310.139C310.139 146.239 309.917 145.25 309.474 144.381C309.039 143.511 308.417 142.825 307.608 142.322C306.806 141.82 305.86 141.568 304.77 141.568C303.568 141.568 302.528 141.866 301.65 142.463C300.781 143.051 300.112 143.818 299.643 144.764C299.174 145.71 298.94 146.724 298.94 147.807V149.545C298.94 151.028 299.196 152.286 299.707 153.317C300.227 154.339 300.947 155.119 301.868 155.656C302.788 156.185 303.858 156.449 305.076 156.449C305.869 156.449 306.585 156.338 307.224 156.116C307.872 155.886 308.43 155.545 308.899 155.094C309.368 154.634 309.73 154.062 309.985 153.381L312.9 154.199C312.593 155.188 312.078 156.057 311.353 156.807C310.629 157.548 309.734 158.128 308.669 158.545C307.603 158.955 306.406 159.159 305.076 159.159ZM336.461 139.114V141.67H326.285V139.114H336.461ZM329.251 134.409H332.268V153.125C332.268 153.977 332.392 154.616 332.639 155.043C332.895 155.46 333.218 155.741 333.61 155.886C334.011 156.023 334.433 156.091 334.876 156.091C335.208 156.091 335.481 156.074 335.694 156.04C335.907 155.997 336.078 155.963 336.206 155.938L336.819 158.648C336.615 158.724 336.329 158.801 335.963 158.878C335.596 158.963 335.132 159.006 334.569 159.006C333.717 159.006 332.882 158.822 332.064 158.456C331.254 158.089 330.581 157.531 330.044 156.781C329.515 156.031 329.251 155.085 329.251 153.943V134.409ZM345.449 158.75L339.466 139.114H342.636L346.88 154.148H347.085L351.278 139.114H354.5L358.642 154.097H358.846L363.091 139.114H366.261L360.278 158.75H357.312L353.017 143.665H352.71L348.414 158.75H345.449ZM377.559 159.159C375.786 159.159 374.231 158.737 372.893 157.893C371.563 157.05 370.523 155.869 369.773 154.352C369.032 152.835 368.661 151.062 368.661 149.034C368.661 146.989 369.032 145.203 369.773 143.678C370.523 142.152 371.563 140.967 372.893 140.124C374.231 139.28 375.786 138.858 377.559 138.858C379.332 138.858 380.883 139.28 382.212 140.124C383.55 140.967 384.59 142.152 385.332 143.678C386.082 145.203 386.457 146.989 386.457 149.034C386.457 151.062 386.082 152.835 385.332 154.352C384.59 155.869 383.55 157.05 382.212 157.893C380.883 158.737 379.332 159.159 377.559 159.159ZM377.559 156.449C378.906 156.449 380.013 156.104 380.883 155.413C381.752 154.723 382.396 153.815 382.813 152.69C383.231 151.565 383.44 150.347 383.44 149.034C383.44 147.722 383.231 146.499 382.813 145.365C382.396 144.232 381.752 143.315 380.883 142.616C380.013 141.918 378.906 141.568 377.559 141.568C376.212 141.568 375.104 141.918 374.235 142.616C373.366 143.315 372.722 144.232 372.305 145.365C371.887 146.499 371.678 147.722 371.678 149.034C371.678 150.347 371.887 151.565 372.305 152.69C372.722 153.815 373.366 154.723 374.235 155.413C375.104 156.104 376.212 156.449 377.559 156.449ZM10.7386 203.159C8.96591 203.159 7.41051 202.737 6.07244 201.893C4.7429 201.05 3.70312 199.869 2.95312 198.352C2.21165 196.835 1.84091 195.062 1.84091 193.034C1.84091 190.989 2.21165 189.203 2.95312 187.678C3.70312 186.152 4.7429 184.967 6.07244 184.124C7.41051 183.28 8.96591 182.858 10.7386 182.858C12.5114 182.858 14.0625 183.28 15.392 184.124C16.7301 184.967 17.7699 186.152 18.5114 187.678C19.2614 189.203 19.6364 190.989 19.6364 193.034C19.6364 195.062 19.2614 196.835 18.5114 198.352C17.7699 199.869 16.7301 201.05 15.392 201.893C14.0625 202.737 12.5114 203.159 10.7386 203.159ZM10.7386 200.449C12.0852 200.449 13.1932 200.104 14.0625 199.413C14.9318 198.723 15.5753 197.815 15.9929 196.69C16.4105 195.565 16.6193 194.347 16.6193 193.034C16.6193 191.722 16.4105 190.499 15.9929 189.365C15.5753 188.232 14.9318 187.315 14.0625 186.616C13.1932 185.918 12.0852 185.568 10.7386 185.568C9.39205 185.568 8.28409 185.918 7.41477 186.616C6.54545 187.315 5.90199 188.232 5.48438 189.365C5.06676 190.499 4.85795 191.722 4.85795 193.034C4.85795 194.347 5.06676 195.565 5.48438 196.69C5.90199 197.815 6.54545 198.723 7.41477 199.413C8.28409 200.104 9.39205 200.449 10.7386 200.449ZM32.9862 183.114V185.67H22.4009V183.114H32.9862ZM25.5714 202.75V180.403C25.5714 179.278 25.8356 178.341 26.364 177.591C26.8924 176.841 27.5785 176.278 28.4222 175.903C29.266 175.528 30.1566 175.341 31.0941 175.341C31.8356 175.341 32.4407 175.401 32.9094 175.52C33.3782 175.639 33.7276 175.75 33.9577 175.852L33.0884 178.46C32.935 178.409 32.7219 178.345 32.4492 178.268C32.185 178.192 31.8356 178.153 31.4009 178.153C30.4038 178.153 29.6836 178.405 29.2404 178.908C28.8058 179.411 28.5884 180.148 28.5884 181.119V202.75H25.5714ZM65.6463 184.75C65.3651 183.889 64.9943 183.118 64.5341 182.436C64.0824 181.746 63.5412 181.158 62.9105 180.672C62.2884 180.186 61.581 179.815 60.7884 179.56C59.9957 179.304 59.1264 179.176 58.1804 179.176C56.6293 179.176 55.2188 179.577 53.9489 180.378C52.679 181.179 51.669 182.359 50.919 183.919C50.169 185.479 49.794 187.392 49.794 189.659C49.794 191.926 50.1733 193.839 50.9318 195.399C51.6903 196.959 52.7173 198.139 54.0128 198.94C55.3082 199.741 56.7656 200.142 58.3849 200.142C59.8849 200.142 61.206 199.822 62.348 199.183C63.4986 198.536 64.3935 197.624 65.0327 196.447C65.6804 195.263 66.0043 193.869 66.0043 192.267L66.9759 192.472H59.1009V189.659H69.0724V192.472C69.0724 194.628 68.6122 196.503 67.6918 198.097C66.7798 199.69 65.5185 200.926 63.9077 201.804C62.3054 202.673 60.4645 203.108 58.3849 203.108C56.0668 203.108 54.0298 202.562 52.2741 201.472C50.527 200.381 49.1634 198.83 48.1832 196.818C47.2116 194.807 46.7259 192.42 46.7259 189.659C46.7259 187.588 47.0028 185.726 47.5568 184.072C48.1193 182.411 48.9119 180.996 49.9347 179.828C50.9574 178.661 52.1676 177.766 53.5653 177.143C54.9631 176.521 56.5014 176.21 58.1804 176.21C59.5611 176.21 60.848 176.419 62.0412 176.837C63.2429 177.246 64.3125 177.83 65.25 178.588C66.196 179.338 66.9844 180.237 67.6151 181.286C68.2457 182.325 68.6804 183.48 68.919 184.75H65.6463ZM82.0707 203.159C80.2979 203.159 78.7425 202.737 77.4045 201.893C76.0749 201.05 75.0352 199.869 74.2852 198.352C73.5437 196.835 73.1729 195.062 73.1729 193.034C73.1729 190.989 73.5437 189.203 74.2852 187.678C75.0352 186.152 76.0749 184.967 77.4045 184.124C78.7425 183.28 80.2979 182.858 82.0707 182.858C83.8434 182.858 85.3945 183.28 86.7241 184.124C88.0621 184.967 89.1019 186.152 89.8434 187.678C90.5934 189.203 90.9684 190.989 90.9684 193.034C90.9684 195.062 90.5934 196.835 89.8434 198.352C89.1019 199.869 88.0621 201.05 86.7241 201.893C85.3945 202.737 83.8434 203.159 82.0707 203.159ZM82.0707 200.449C83.4173 200.449 84.5252 200.104 85.3945 199.413C86.2638 198.723 86.9073 197.815 87.3249 196.69C87.7425 195.565 87.9514 194.347 87.9514 193.034C87.9514 191.722 87.7425 190.499 87.3249 189.365C86.9073 188.232 86.2638 187.315 85.3945 186.616C84.5252 185.918 83.4173 185.568 82.0707 185.568C80.7241 185.568 79.6161 185.918 78.7468 186.616C77.8775 187.315 77.234 188.232 76.8164 189.365C76.3988 190.499 76.19 191.722 76.19 193.034C76.19 194.347 76.3988 195.565 76.8164 196.69C77.234 197.815 77.8775 198.723 78.7468 199.413C79.6161 200.104 80.7241 200.449 82.0707 200.449ZM103.551 203.159C101.778 203.159 100.223 202.737 98.8849 201.893C97.5554 201.05 96.5156 199.869 95.7656 198.352C95.0241 196.835 94.6534 195.062 94.6534 193.034C94.6534 190.989 95.0241 189.203 95.7656 187.678C96.5156 186.152 97.5554 184.967 98.8849 184.124C100.223 183.28 101.778 182.858 103.551 182.858C105.324 182.858 106.875 183.28 108.205 184.124C109.543 184.967 110.582 186.152 111.324 187.678C112.074 189.203 112.449 190.989 112.449 193.034C112.449 195.062 112.074 196.835 111.324 198.352C110.582 199.869 109.543 201.05 108.205 201.893C106.875 202.737 105.324 203.159 103.551 203.159ZM103.551 200.449C104.898 200.449 106.006 200.104 106.875 199.413C107.744 198.723 108.388 197.815 108.805 196.69C109.223 195.565 109.432 194.347 109.432 193.034C109.432 191.722 109.223 190.499 108.805 189.365C108.388 188.232 107.744 187.315 106.875 186.616C106.006 185.918 104.898 185.568 103.551 185.568C102.205 185.568 101.097 185.918 100.227 186.616C99.358 187.315 98.7145 188.232 98.2969 189.365C97.8793 190.499 97.6705 191.722 97.6705 193.034C97.6705 194.347 97.8793 195.565 98.2969 196.69C98.7145 197.815 99.358 198.723 100.227 199.413C101.097 200.104 102.205 200.449 103.551 200.449ZM124.98 210.523C123.523 210.523 122.27 210.335 121.222 209.96C120.174 209.594 119.3 209.108 118.601 208.503C117.911 207.906 117.361 207.267 116.952 206.585L119.355 204.898C119.628 205.256 119.973 205.665 120.391 206.125C120.809 206.594 121.38 206.999 122.104 207.339C122.837 207.689 123.796 207.864 124.98 207.864C126.566 207.864 127.874 207.48 128.905 206.713C129.936 205.946 130.452 204.744 130.452 203.108V199.119H130.196C129.975 199.477 129.659 199.92 129.25 200.449C128.85 200.969 128.27 201.433 127.512 201.842C126.762 202.243 125.748 202.443 124.469 202.443C122.884 202.443 121.461 202.068 120.199 201.318C118.946 200.568 117.953 199.477 117.221 198.045C116.496 196.614 116.134 194.875 116.134 192.83C116.134 190.818 116.488 189.067 117.195 187.575C117.902 186.075 118.887 184.916 120.148 184.098C121.409 183.271 122.867 182.858 124.52 182.858C125.799 182.858 126.813 183.071 127.563 183.497C128.321 183.915 128.901 184.392 129.301 184.929C129.711 185.457 130.026 185.892 130.248 186.233H130.554V183.114H133.469V203.312C133.469 205 133.086 206.372 132.319 207.429C131.56 208.494 130.537 209.274 129.25 209.768C127.972 210.271 126.549 210.523 124.98 210.523ZM124.878 199.733C126.088 199.733 127.111 199.456 127.946 198.902C128.782 198.348 129.417 197.551 129.851 196.511C130.286 195.472 130.503 194.227 130.503 192.778C130.503 191.364 130.29 190.115 129.864 189.033C129.438 187.95 128.807 187.102 127.972 186.489C127.137 185.875 126.105 185.568 124.878 185.568C123.6 185.568 122.534 185.892 121.682 186.54C120.838 187.187 120.203 188.057 119.777 189.148C119.36 190.239 119.151 191.449 119.151 192.778C119.151 194.142 119.364 195.348 119.79 196.396C120.225 197.436 120.864 198.254 121.708 198.851C122.56 199.439 123.617 199.733 124.878 199.733ZM142.009 176.568V202.75H138.992V176.568H142.009ZM155.768 203.159C153.876 203.159 152.244 202.741 150.871 201.906C149.508 201.062 148.455 199.886 147.714 198.378C146.981 196.861 146.614 195.097 146.614 193.085C146.614 191.074 146.981 189.301 147.714 187.767C148.455 186.224 149.487 185.023 150.808 184.162C152.137 183.293 153.688 182.858 155.461 182.858C156.484 182.858 157.494 183.028 158.491 183.369C159.488 183.71 160.396 184.264 161.214 185.031C162.032 185.79 162.684 186.795 163.17 188.048C163.656 189.301 163.898 190.844 163.898 192.676V193.955H148.762V191.347H160.83C160.83 190.239 160.609 189.25 160.165 188.381C159.731 187.511 159.109 186.825 158.299 186.322C157.498 185.82 156.552 185.568 155.461 185.568C154.259 185.568 153.219 185.866 152.342 186.463C151.472 187.051 150.803 187.818 150.335 188.764C149.866 189.71 149.631 190.724 149.631 191.807V193.545C149.631 195.028 149.887 196.286 150.398 197.317C150.918 198.339 151.638 199.119 152.559 199.656C153.479 200.185 154.549 200.449 155.768 200.449C156.56 200.449 157.276 200.338 157.915 200.116C158.563 199.886 159.121 199.545 159.59 199.094C160.059 198.634 160.421 198.062 160.677 197.381L163.592 198.199C163.285 199.188 162.769 200.057 162.045 200.807C161.32 201.548 160.425 202.128 159.36 202.545C158.295 202.955 157.097 203.159 155.768 203.159ZM170.687 202.955C170.056 202.955 169.515 202.729 169.063 202.277C168.612 201.825 168.386 201.284 168.386 200.653C168.386 200.023 168.612 199.482 169.063 199.03C169.515 198.578 170.056 198.352 170.687 198.352C171.317 198.352 171.859 198.578 172.31 199.03C172.762 199.482 172.988 200.023 172.988 200.653C172.988 201.071 172.881 201.455 172.668 201.804C172.464 202.153 172.187 202.435 171.837 202.648C171.496 202.852 171.113 202.955 170.687 202.955Z" fill="black"/>
<g clip-path="url(#clip1_9552_23380)">
<path d="M189 183V213.464H206.764C206.523 216.945 205.532 222.812 201.769 226.848C198.814 230.014 194.636 231.555 189 231.555V241.749C197.524 241.749 204.342 239.072 209.27 233.793C215.363 227.262 217.136 218.395 217.402 213.472V183.008H189V183Z" fill="#29292B"/>
<path d="M229.588 183V213.464H247.352C247.111 216.945 246.12 222.812 242.358 226.848C239.403 230.014 235.224 231.555 229.588 231.555V241.749C238.112 241.749 244.93 239.072 249.858 233.793C255.951 227.262 257.724 218.395 257.991 213.472V183.008H229.58L229.588 183Z" fill="#29292B"/>
</g>
<defs>
<clipPath id="clip0_9552_23380">
<rect width="69" height="58.7486" fill="white" transform="matrix(-1 0 0 1 69 0)"/>
</clipPath>
<clipPath id="clip1_9552_23380">
<rect width="69" height="58.7486" fill="white" transform="translate(189 183)"/>
</clipPath>
</defs>
</svg>
