<svg width="1339" height="176" viewBox="0 0 1339 176" fill="none" xmlns="http://www.w3.org/2000/svg">
<path d="M48.7451 159.828V143.828H54.7451C55.9743 143.828 57.0055 144.042 57.8389 144.469C58.6774 144.896 59.3102 145.495 59.7373 146.266C60.1696 147.031 60.3857 147.924 60.3857 148.945C60.3857 149.971 60.167 150.862 59.7295 151.617C59.2972 152.367 58.6592 152.948 57.8154 153.359C56.9717 153.766 55.9352 153.969 54.7061 153.969H50.4326V151.562H54.3154C55.0342 151.562 55.6227 151.464 56.0811 151.266C56.5394 151.062 56.8779 150.768 57.0967 150.383C57.3206 149.992 57.4326 149.513 57.4326 148.945C57.4326 148.378 57.3206 147.893 57.0967 147.492C56.8727 147.086 56.5316 146.779 56.0732 146.57C55.6149 146.357 55.0238 146.25 54.2998 146.25H51.6436V159.828H48.7451ZM57.0107 152.578L60.9717 159.828H57.7373L53.8467 152.578H57.0107ZM68.0693 160.063C66.8662 160.063 65.8271 159.813 64.9521 159.312C64.0824 158.807 63.4131 158.094 62.9443 157.172C62.4756 156.245 62.2412 155.154 62.2412 153.898C62.2412 152.664 62.4756 151.581 62.9443 150.648C63.4183 149.711 64.0798 148.982 64.9287 148.461C65.7777 147.935 66.7751 147.672 67.9209 147.672C68.6605 147.672 69.3584 147.792 70.0146 148.031C70.6761 148.266 71.2594 148.63 71.7646 149.125C72.2751 149.62 72.6761 150.25 72.9678 151.016C73.2594 151.776 73.4053 152.682 73.4053 153.734V154.602H63.5693V152.695H70.6943C70.6891 152.154 70.5719 151.672 70.3428 151.25C70.1136 150.823 69.7933 150.487 69.3818 150.242C68.9756 149.997 68.5016 149.875 67.96 149.875C67.3818 149.875 66.874 150.016 66.4365 150.297C65.999 150.573 65.6579 150.937 65.4131 151.391C65.1735 151.839 65.0511 152.331 65.0459 152.867V154.531C65.0459 155.229 65.1735 155.828 65.4287 156.328C65.6839 156.823 66.0407 157.203 66.499 157.469C66.9574 157.729 67.4938 157.859 68.1084 157.859C68.5199 157.859 68.8923 157.802 69.2256 157.687C69.5589 157.568 69.848 157.393 70.0928 157.164C70.3376 156.935 70.5225 156.651 70.6475 156.312L73.2881 156.609C73.1214 157.307 72.8037 157.917 72.335 158.438C71.8714 158.953 71.2777 159.354 70.5537 159.641C69.8298 159.922 69.0016 160.063 68.0693 160.063ZM81.0322 160.063C79.8343 160.063 78.8057 159.799 77.9463 159.273C77.0921 158.747 76.4333 158.021 75.9697 157.094C75.5114 156.161 75.2822 155.089 75.2822 153.875C75.2822 152.656 75.5166 151.581 75.9854 150.648C76.4541 149.711 77.1156 148.982 77.9697 148.461C78.8291 147.935 79.8447 147.672 81.0166 147.672C81.9906 147.672 82.8525 147.852 83.6025 148.211C84.3577 148.565 84.9593 149.068 85.4072 149.719C85.8551 150.365 86.1104 151.12 86.1729 151.984H83.4697C83.3604 151.406 83.0999 150.924 82.6885 150.539C82.2822 150.148 81.738 149.953 81.0557 149.953C80.4775 149.953 79.9697 150.109 79.5322 150.422C79.0947 150.729 78.7536 151.172 78.5088 151.75C78.2692 152.328 78.1494 153.021 78.1494 153.828C78.1494 154.646 78.2692 155.349 78.5088 155.937C78.7484 156.521 79.0843 156.971 79.5166 157.289C79.9541 157.602 80.4671 157.758 81.0557 157.758C81.4723 157.758 81.8447 157.68 82.1729 157.523C82.5062 157.362 82.7848 157.13 83.0088 156.828C83.2327 156.526 83.3864 156.159 83.4697 155.727H86.1729C86.1051 156.576 85.8551 157.328 85.4229 157.984C84.9906 158.635 84.402 159.146 83.6572 159.516C82.9124 159.88 82.0374 160.063 81.0322 160.063ZM93.7295 160.063C92.5576 160.063 91.542 159.805 90.6826 159.289C89.8232 158.773 89.1566 158.052 88.6826 157.125C88.2139 156.198 87.9795 155.115 87.9795 153.875C87.9795 152.635 88.2139 151.549 88.6826 150.617C89.1566 149.685 89.8232 148.961 90.6826 148.445C91.542 147.93 92.5576 147.672 93.7295 147.672C94.9014 147.672 95.917 147.93 96.7764 148.445C97.6357 148.961 98.2998 149.685 98.7686 150.617C99.2425 151.549 99.4795 152.635 99.4795 153.875C99.4795 155.115 99.2425 156.198 98.7686 157.125C98.2998 158.052 97.6357 158.773 96.7764 159.289C95.917 159.805 94.9014 160.063 93.7295 160.063ZM93.7451 157.797C94.3805 157.797 94.9118 157.622 95.3389 157.273C95.766 156.919 96.0837 156.445 96.292 155.852C96.5055 155.258 96.6123 154.596 96.6123 153.867C96.6123 153.133 96.5055 152.469 96.292 151.875C96.0837 151.276 95.766 150.799 95.3389 150.445C94.9118 150.091 94.3805 149.914 93.7451 149.914C93.0941 149.914 92.5524 150.091 92.1201 150.445C91.693 150.799 91.3727 151.276 91.1592 151.875C90.9508 152.469 90.8467 153.133 90.8467 153.867C90.8467 154.596 90.9508 155.258 91.1592 155.852C91.3727 156.445 91.693 156.919 92.1201 157.273C92.5524 157.622 93.0941 157.797 93.7451 157.797ZM104.708 152.797V159.828H101.88V147.828H104.583V149.867H104.724C105 149.195 105.44 148.661 106.044 148.266C106.653 147.87 107.406 147.672 108.302 147.672C109.13 147.672 109.851 147.849 110.466 148.203C111.086 148.557 111.565 149.07 111.903 149.742C112.247 150.414 112.416 151.229 112.411 152.187V159.828H109.583V152.625C109.583 151.823 109.375 151.195 108.958 150.742C108.547 150.289 107.976 150.062 107.247 150.062C106.752 150.062 106.312 150.172 105.927 150.391C105.547 150.604 105.247 150.914 105.028 151.32C104.815 151.727 104.708 152.219 104.708 152.797Z" fill="#253D32"/>
<path d="M327.396 159.828H323.771L329.295 143.828H333.654L339.17 159.828H335.545L331.537 147.484H331.412L327.396 159.828ZM327.17 153.539H335.732V156.18H327.17V153.539ZM344.361 143.828V159.828H341.033V143.828H344.361ZM347.027 159.828V147.828H350.355V159.828H347.027ZM348.699 146.281C348.204 146.281 347.78 146.117 347.426 145.789C347.077 145.456 346.902 145.057 346.902 144.594C346.902 144.135 347.077 143.742 347.426 143.414C347.78 143.081 348.204 142.914 348.699 142.914C349.194 142.914 349.616 143.081 349.965 143.414C350.319 143.742 350.496 144.135 350.496 144.594C350.496 145.057 350.319 145.456 349.965 145.789C349.616 146.117 349.194 146.281 348.699 146.281ZM358.428 164.578C357.35 164.578 356.425 164.43 355.654 164.133C354.889 163.841 354.279 163.443 353.826 162.938C353.373 162.432 353.079 161.865 352.943 161.234L356.021 160.82C356.115 161.06 356.264 161.284 356.467 161.492C356.67 161.701 356.938 161.867 357.271 161.992C357.61 162.122 358.021 162.188 358.506 162.188C359.23 162.188 359.826 162.01 360.295 161.656C360.769 161.307 361.006 160.721 361.006 159.898V157.703H360.865C360.719 158.036 360.501 158.352 360.209 158.648C359.917 158.945 359.542 159.187 359.084 159.375C358.626 159.562 358.079 159.656 357.443 159.656C356.542 159.656 355.722 159.448 354.982 159.031C354.248 158.609 353.662 157.966 353.225 157.102C352.792 156.232 352.576 155.133 352.576 153.805C352.576 152.445 352.798 151.31 353.24 150.398C353.683 149.487 354.271 148.805 355.006 148.352C355.745 147.898 356.555 147.672 357.436 147.672C358.107 147.672 358.67 147.786 359.123 148.016C359.576 148.24 359.941 148.521 360.217 148.859C360.498 149.193 360.714 149.521 360.865 149.844H360.99V147.828H364.295V159.945C364.295 160.966 364.045 161.82 363.545 162.508C363.045 163.195 362.352 163.711 361.467 164.055C360.587 164.404 359.574 164.578 358.428 164.578ZM358.498 157.156C359.035 157.156 359.488 157.023 359.857 156.758C360.232 156.487 360.519 156.102 360.717 155.602C360.92 155.096 361.021 154.492 361.021 153.789C361.021 153.086 360.923 152.477 360.725 151.961C360.527 151.44 360.24 151.036 359.865 150.75C359.49 150.464 359.035 150.32 358.498 150.32C357.951 150.32 357.49 150.469 357.115 150.766C356.74 151.057 356.456 151.464 356.264 151.984C356.071 152.505 355.975 153.107 355.975 153.789C355.975 154.482 356.071 155.081 356.264 155.586C356.462 156.086 356.745 156.474 357.115 156.75C357.49 157.021 357.951 157.156 358.498 157.156ZM370.271 152.891V159.828H366.943V147.828H370.115V149.945H370.256C370.521 149.247 370.967 148.695 371.592 148.289C372.217 147.878 372.975 147.672 373.865 147.672C374.699 147.672 375.425 147.854 376.045 148.219C376.665 148.583 377.146 149.104 377.49 149.781C377.834 150.453 378.006 151.255 378.006 152.187V159.828H374.678V152.781C374.683 152.047 374.495 151.474 374.115 151.062C373.735 150.646 373.212 150.437 372.545 150.437C372.097 150.437 371.701 150.534 371.357 150.727C371.019 150.919 370.753 151.201 370.561 151.57C370.373 151.935 370.277 152.375 370.271 152.891ZM380.629 159.828V147.828H383.801V149.945H383.941C384.191 149.242 384.608 148.687 385.191 148.281C385.775 147.875 386.473 147.672 387.285 147.672C388.108 147.672 388.809 147.878 389.387 148.289C389.965 148.695 390.35 149.247 390.543 149.945H390.668C390.913 149.258 391.355 148.708 391.996 148.297C392.642 147.88 393.405 147.672 394.285 147.672C395.405 147.672 396.314 148.029 397.012 148.742C397.715 149.451 398.066 150.456 398.066 151.758V159.828H394.746V152.414C394.746 151.747 394.569 151.247 394.215 150.914C393.861 150.581 393.418 150.414 392.887 150.414C392.283 150.414 391.811 150.607 391.473 150.992C391.134 151.372 390.965 151.875 390.965 152.5V159.828H387.738V152.344C387.738 151.755 387.569 151.286 387.23 150.937C386.897 150.589 386.457 150.414 385.91 150.414C385.54 150.414 385.207 150.508 384.91 150.695C384.618 150.878 384.387 151.135 384.215 151.469C384.043 151.797 383.957 152.182 383.957 152.625V159.828H380.629ZM406.164 160.063C404.93 160.063 403.867 159.813 402.977 159.312C402.091 158.807 401.409 158.094 400.93 157.172C400.451 156.245 400.211 155.148 400.211 153.883C400.211 152.648 400.451 151.565 400.93 150.633C401.409 149.701 402.083 148.974 402.953 148.453C403.828 147.932 404.854 147.672 406.031 147.672C406.823 147.672 407.56 147.799 408.242 148.055C408.93 148.305 409.529 148.682 410.039 149.187C410.555 149.693 410.956 150.328 411.242 151.094C411.529 151.854 411.672 152.745 411.672 153.766V154.68H401.539V152.617H408.539C408.539 152.138 408.435 151.714 408.227 151.344C408.018 150.974 407.729 150.685 407.359 150.477C406.995 150.263 406.57 150.156 406.086 150.156C405.581 150.156 405.133 150.273 404.742 150.508C404.357 150.737 404.055 151.047 403.836 151.437C403.617 151.823 403.505 152.253 403.5 152.727V154.687C403.5 155.281 403.609 155.794 403.828 156.227C404.052 156.659 404.367 156.992 404.773 157.227C405.18 157.461 405.661 157.578 406.219 157.578C406.589 157.578 406.927 157.526 407.234 157.422C407.542 157.318 407.805 157.161 408.023 156.953C408.242 156.745 408.409 156.49 408.523 156.188L411.602 156.391C411.445 157.13 411.125 157.776 410.641 158.328C410.161 158.875 409.542 159.302 408.781 159.609C408.026 159.911 407.154 160.063 406.164 160.063ZM417.172 152.891V159.828H413.844V147.828H417.016V149.945H417.156C417.422 149.247 417.867 148.695 418.492 148.289C419.117 147.878 419.875 147.672 420.766 147.672C421.599 147.672 422.326 147.854 422.945 148.219C423.565 148.583 424.047 149.104 424.391 149.781C424.734 150.453 424.906 151.255 424.906 152.187V159.828H421.578V152.781C421.583 152.047 421.396 151.474 421.016 151.062C420.635 150.646 420.112 150.437 419.445 150.437C418.997 150.437 418.602 150.534 418.258 150.727C417.919 150.919 417.654 151.201 417.461 151.57C417.273 151.935 417.177 152.375 417.172 152.891ZM433.912 147.828V150.328H426.686V147.828H433.912ZM428.326 144.953H431.654V156.141C431.654 156.448 431.701 156.687 431.795 156.859C431.889 157.026 432.019 157.143 432.186 157.211C432.357 157.279 432.555 157.312 432.779 157.312C432.936 157.312 433.092 157.299 433.248 157.273C433.404 157.242 433.524 157.219 433.607 157.203L434.131 159.68C433.964 159.732 433.73 159.792 433.428 159.859C433.126 159.932 432.758 159.977 432.326 159.992C431.524 160.023 430.821 159.917 430.217 159.672C429.618 159.427 429.152 159.047 428.818 158.531C428.485 158.016 428.321 157.365 428.326 156.578V144.953Z" fill="#253D32"/>
<g filter="url(#filter0_d_8583_22140)">
<ellipse cx="80" cy="58.7305" rx="50" ry="48.7305" fill="white"/>
</g>
<path d="M380 39.7383C390.782 39.7383 399.5 48.2534 399.5 58.7305C399.5 69.2075 390.782 77.7227 380 77.7227C369.218 77.7227 360.5 69.2075 360.5 58.7305C360.5 48.2534 369.218 39.7383 380 39.7383Z" fill="white" stroke="#FFA913"/>
<path d="M631.627 159.828V143.828H638.033C639.21 143.828 640.192 144.003 640.979 144.352C641.765 144.701 642.356 145.185 642.752 145.805C643.148 146.419 643.346 147.128 643.346 147.93C643.346 148.555 643.221 149.104 642.971 149.578C642.721 150.047 642.377 150.432 641.939 150.734C641.507 151.031 641.012 151.242 640.455 151.367V151.523C641.064 151.549 641.635 151.721 642.166 152.039C642.702 152.357 643.137 152.802 643.471 153.375C643.804 153.943 643.971 154.62 643.971 155.406C643.971 156.255 643.76 157.013 643.338 157.68C642.921 158.341 642.304 158.865 641.486 159.25C640.669 159.635 639.661 159.828 638.463 159.828H631.627ZM635.01 157.062H637.768C638.71 157.062 639.398 156.883 639.83 156.523C640.262 156.159 640.479 155.674 640.479 155.07C640.479 154.628 640.372 154.237 640.158 153.898C639.945 153.56 639.64 153.294 639.244 153.102C638.854 152.909 638.387 152.812 637.846 152.812H635.01V157.062ZM635.01 150.523H637.518C637.981 150.523 638.393 150.443 638.752 150.281C639.117 150.115 639.403 149.88 639.611 149.578C639.825 149.276 639.932 148.914 639.932 148.492C639.932 147.914 639.726 147.448 639.314 147.094C638.908 146.74 638.33 146.562 637.58 146.562H635.01V150.523ZM649.438 143.828V159.828H646.109V143.828H649.438ZM659.799 154.719V147.828H663.127V159.828H659.932V157.648H659.807C659.536 158.352 659.085 158.917 658.455 159.344C657.83 159.771 657.067 159.984 656.166 159.984C655.364 159.984 654.658 159.802 654.049 159.438C653.439 159.073 652.963 158.555 652.619 157.883C652.281 157.211 652.109 156.406 652.104 155.469V147.828H655.432V154.875C655.437 155.583 655.627 156.143 656.002 156.555C656.377 156.966 656.88 157.172 657.51 157.172C657.911 157.172 658.286 157.081 658.635 156.898C658.984 156.711 659.265 156.435 659.479 156.07C659.697 155.706 659.804 155.255 659.799 154.719ZM671.258 160.063C670.023 160.063 668.961 159.813 668.07 159.312C667.185 158.807 666.503 158.094 666.023 157.172C665.544 156.245 665.305 155.148 665.305 153.883C665.305 152.648 665.544 151.565 666.023 150.633C666.503 149.701 667.177 148.974 668.047 148.453C668.922 147.932 669.948 147.672 671.125 147.672C671.917 147.672 672.654 147.799 673.336 148.055C674.023 148.305 674.622 148.682 675.133 149.187C675.648 149.693 676.049 150.328 676.336 151.094C676.622 151.854 676.766 152.745 676.766 153.766V154.68H666.633V152.617H673.633C673.633 152.138 673.529 151.714 673.32 151.344C673.112 150.974 672.823 150.685 672.453 150.477C672.089 150.263 671.664 150.156 671.18 150.156C670.674 150.156 670.227 150.273 669.836 150.508C669.451 150.737 669.148 151.047 668.93 151.437C668.711 151.823 668.599 152.253 668.594 152.727V154.687C668.594 155.281 668.703 155.794 668.922 156.227C669.146 156.659 669.461 156.992 669.867 157.227C670.273 157.461 670.755 157.578 671.312 157.578C671.682 157.578 672.021 157.526 672.328 157.422C672.635 157.318 672.898 157.161 673.117 156.953C673.336 156.745 673.503 156.49 673.617 156.188L676.695 156.391C676.539 157.13 676.219 157.776 675.734 158.328C675.255 158.875 674.635 159.302 673.875 159.609C673.12 159.911 672.247 160.063 671.258 160.063ZM678.938 164.328V147.828H682.219V149.844H682.367C682.513 149.521 682.724 149.193 683 148.859C683.281 148.521 683.646 148.24 684.094 148.016C684.547 147.786 685.109 147.672 685.781 147.672C686.656 147.672 687.464 147.901 688.203 148.359C688.943 148.812 689.534 149.497 689.977 150.414C690.419 151.326 690.641 152.469 690.641 153.844C690.641 155.182 690.424 156.312 689.992 157.234C689.565 158.151 688.982 158.846 688.242 159.32C687.508 159.789 686.685 160.023 685.773 160.023C685.128 160.023 684.578 159.917 684.125 159.703C683.677 159.49 683.31 159.221 683.023 158.898C682.737 158.57 682.518 158.24 682.367 157.906H682.266V164.328H678.938ZM682.195 153.828C682.195 154.542 682.294 155.164 682.492 155.695C682.69 156.227 682.977 156.641 683.352 156.937C683.727 157.229 684.182 157.375 684.719 157.375C685.26 157.375 685.719 157.227 686.094 156.93C686.469 156.628 686.753 156.211 686.945 155.68C687.143 155.143 687.242 154.526 687.242 153.828C687.242 153.135 687.146 152.526 686.953 152C686.76 151.474 686.477 151.062 686.102 150.766C685.727 150.469 685.266 150.32 684.719 150.32C684.177 150.32 683.719 150.464 683.344 150.75C682.974 151.036 682.69 151.443 682.492 151.969C682.294 152.495 682.195 153.115 682.195 153.828ZM692.859 159.828V147.828H696.086V149.922H696.211C696.43 149.177 696.797 148.615 697.313 148.234C697.828 147.849 698.422 147.656 699.094 147.656C699.26 147.656 699.44 147.667 699.633 147.687C699.826 147.708 699.995 147.737 700.141 147.773V150.727C699.984 150.68 699.768 150.638 699.492 150.602C699.216 150.565 698.964 150.547 698.734 150.547C698.245 150.547 697.807 150.654 697.422 150.867C697.042 151.076 696.74 151.367 696.516 151.742C696.297 152.117 696.188 152.549 696.188 153.039V159.828H692.859ZM701.861 159.828V147.828H705.189V159.828H701.861ZM703.533 146.281C703.038 146.281 702.614 146.117 702.26 145.789C701.911 145.456 701.736 145.057 701.736 144.594C701.736 144.135 701.911 143.742 702.26 143.414C702.614 143.081 703.038 142.914 703.533 142.914C704.028 142.914 704.45 143.081 704.799 143.414C705.153 143.742 705.33 144.135 705.33 144.594C705.33 145.057 705.153 145.456 704.799 145.789C704.45 146.117 704.028 146.281 703.533 146.281ZM711.184 152.891V159.828H707.855V147.828H711.027V149.945H711.168C711.434 149.247 711.879 148.695 712.504 148.289C713.129 147.878 713.887 147.672 714.777 147.672C715.611 147.672 716.337 147.854 716.957 148.219C717.577 148.583 718.059 149.104 718.402 149.781C718.746 150.453 718.918 151.255 718.918 152.187V159.828H715.59V152.781C715.595 152.047 715.408 151.474 715.027 151.062C714.647 150.646 714.124 150.437 713.457 150.437C713.009 150.437 712.613 150.534 712.27 150.727C711.931 150.919 711.665 151.201 711.473 151.57C711.285 151.935 711.189 152.375 711.184 152.891ZM727.924 147.828V150.328H720.697V147.828H727.924ZM722.338 144.953H725.666V156.141C725.666 156.448 725.713 156.687 725.807 156.859C725.9 157.026 726.031 157.143 726.197 157.211C726.369 157.279 726.567 157.312 726.791 157.312C726.947 157.312 727.104 157.299 727.26 157.273C727.416 157.242 727.536 157.219 727.619 157.203L728.143 159.68C727.976 159.732 727.742 159.792 727.439 159.859C727.137 159.932 726.77 159.977 726.338 159.992C725.536 160.023 724.833 159.917 724.229 159.672C723.63 159.427 723.163 159.047 722.83 158.531C722.497 158.016 722.333 157.365 722.338 156.578V144.953Z" fill="#253D32"/>
<path d="M680 39.7383C690.782 39.7383 699.5 48.2534 699.5 58.7305C699.5 69.2075 690.782 77.7227 680 77.7227C669.218 77.7227 660.5 69.2075 660.5 58.7305C660.5 48.2534 669.218 39.7383 680 39.7383Z" fill="white" stroke="#DA1E37"/>
<path d="M926.819 159.828V143.828H937.601V146.617H930.202V150.43H937.046V153.219H930.202V157.039H937.632V159.828H926.819ZM943.009 147.828L945.212 152.023L947.47 147.828H950.884L947.407 153.828L950.978 159.828H947.579L945.212 155.68L942.884 159.828H939.446L943.009 153.828L939.571 147.828H943.009ZM957.899 160.063C956.665 160.063 955.603 159.813 954.712 159.312C953.826 158.807 953.144 158.094 952.665 157.172C952.186 156.245 951.946 155.148 951.946 153.883C951.946 152.648 952.186 151.565 952.665 150.633C953.144 149.701 953.819 148.974 954.688 148.453C955.563 147.932 956.59 147.672 957.767 147.672C958.558 147.672 959.295 147.799 959.978 148.055C960.665 148.305 961.264 148.682 961.774 149.187C962.29 149.693 962.691 150.328 962.978 151.094C963.264 151.854 963.407 152.745 963.407 153.766V154.68H953.274V152.617H960.274C960.274 152.138 960.17 151.714 959.962 151.344C959.754 150.974 959.465 150.685 959.095 150.477C958.73 150.263 958.306 150.156 957.821 150.156C957.316 150.156 956.868 150.273 956.478 150.508C956.092 150.737 955.79 151.047 955.571 151.437C955.353 151.823 955.241 152.253 955.235 152.727V154.687C955.235 155.281 955.345 155.794 955.563 156.227C955.787 156.659 956.103 156.992 956.509 157.227C956.915 157.461 957.397 157.578 957.954 157.578C958.324 157.578 958.662 157.526 958.97 157.422C959.277 157.318 959.54 157.161 959.759 156.953C959.978 156.745 960.144 156.49 960.259 156.188L963.337 156.391C963.181 157.13 962.86 157.776 962.376 158.328C961.897 158.875 961.277 159.302 960.517 159.609C959.761 159.911 958.889 160.063 957.899 160.063ZM971.001 160.063C969.772 160.063 968.715 159.802 967.829 159.281C966.949 158.755 966.272 158.026 965.798 157.094C965.329 156.161 965.095 155.089 965.095 153.875C965.095 152.646 965.332 151.568 965.806 150.641C966.285 149.708 966.965 148.982 967.845 148.461C968.725 147.935 969.772 147.672 970.985 147.672C972.032 147.672 972.949 147.862 973.735 148.242C974.522 148.622 975.144 149.156 975.603 149.844C976.061 150.531 976.313 151.339 976.36 152.266H973.22C973.131 151.667 972.897 151.185 972.517 150.82C972.142 150.451 971.649 150.266 971.04 150.266C970.524 150.266 970.074 150.406 969.688 150.687C969.308 150.964 969.011 151.367 968.798 151.898C968.584 152.43 968.478 153.073 968.478 153.828C968.478 154.594 968.582 155.245 968.79 155.781C969.004 156.318 969.303 156.727 969.688 157.008C970.074 157.289 970.524 157.43 971.04 157.43C971.42 157.43 971.761 157.352 972.063 157.195C972.371 157.039 972.623 156.812 972.821 156.516C973.024 156.214 973.157 155.852 973.22 155.43H976.36C976.308 156.346 976.058 157.154 975.61 157.852C975.168 158.544 974.556 159.086 973.774 159.477C972.993 159.867 972.069 160.063 971.001 160.063ZM986.187 154.719V147.828H989.515V159.828H986.319V157.648H986.194C985.924 158.352 985.473 158.917 984.843 159.344C984.218 159.771 983.455 159.984 982.554 159.984C981.752 159.984 981.046 159.802 980.437 159.438C979.827 159.073 979.351 158.555 979.007 157.883C978.668 157.211 978.496 156.406 978.491 155.469V147.828H981.819V154.875C981.825 155.583 982.015 156.143 982.39 156.555C982.765 156.966 983.267 157.172 983.897 157.172C984.299 157.172 984.674 157.081 985.022 156.898C985.371 156.711 985.653 156.435 985.866 156.07C986.085 155.706 986.192 155.255 986.187 154.719ZM998.56 147.828V150.328H991.333V147.828H998.56ZM992.974 144.953H996.302V156.141C996.302 156.448 996.349 156.687 996.442 156.859C996.536 157.026 996.666 157.143 996.833 157.211C997.005 157.279 997.203 157.312 997.427 157.312C997.583 157.312 997.739 157.299 997.896 157.273C998.052 157.242 998.172 157.219 998.255 157.203L998.778 159.68C998.612 159.732 998.377 159.792 998.075 159.859C997.773 159.932 997.406 159.977 996.974 159.992C996.172 160.023 995.468 159.917 994.864 159.672C994.265 159.427 993.799 159.047 993.466 158.531C993.132 158.016 992.968 157.365 992.974 156.578V144.953ZM1000.73 159.828V147.828H1004.06V159.828H1000.73ZM1002.4 146.281C1001.9 146.281 1001.48 146.117 1001.13 145.789C1000.78 145.456 1000.6 145.057 1000.6 144.594C1000.6 144.135 1000.78 143.742 1001.13 143.414C1001.48 143.081 1001.9 142.914 1002.4 142.914C1002.89 142.914 1003.32 143.081 1003.67 143.414C1004.02 143.742 1004.2 144.135 1004.2 144.594C1004.2 145.057 1004.02 145.456 1003.67 145.789C1003.32 146.117 1002.89 146.281 1002.4 146.281ZM1012.14 160.063C1010.93 160.063 1009.88 159.805 1009 159.289C1008.11 158.768 1007.44 158.044 1006.96 157.117C1006.48 156.185 1006.24 155.104 1006.24 153.875C1006.24 152.635 1006.48 151.552 1006.96 150.625C1007.44 149.693 1008.11 148.969 1009 148.453C1009.88 147.932 1010.93 147.672 1012.14 147.672C1013.36 147.672 1014.4 147.932 1015.28 148.453C1016.17 148.969 1016.85 149.693 1017.33 150.625C1017.81 151.552 1018.05 152.635 1018.05 153.875C1018.05 155.104 1017.81 156.185 1017.33 157.117C1016.85 158.044 1016.17 158.768 1015.28 159.289C1014.4 159.805 1013.36 160.063 1012.14 160.063ZM1012.16 157.484C1012.71 157.484 1013.17 157.328 1013.54 157.016C1013.91 156.698 1014.19 156.266 1014.38 155.719C1014.57 155.172 1014.67 154.549 1014.67 153.852C1014.67 153.154 1014.57 152.531 1014.38 151.984C1014.19 151.437 1013.91 151.005 1013.54 150.687C1013.17 150.37 1012.71 150.211 1012.16 150.211C1011.6 150.211 1011.13 150.37 1010.75 150.687C1010.38 151.005 1010.09 151.437 1009.9 151.984C1009.71 152.531 1009.62 153.154 1009.62 153.852C1009.62 154.549 1009.71 155.172 1009.9 155.719C1010.09 156.266 1010.38 156.698 1010.75 157.016C1011.13 157.328 1011.6 157.484 1012.16 157.484ZM1023.54 152.891V159.828H1020.21V147.828H1023.39V149.945H1023.53C1023.79 149.247 1024.24 148.695 1024.86 148.289C1025.49 147.878 1026.25 147.672 1027.14 147.672C1027.97 147.672 1028.7 147.854 1029.32 148.219C1029.94 148.583 1030.42 149.104 1030.76 149.781C1031.1 150.453 1031.28 151.255 1031.28 152.187V159.828H1027.95V152.781C1027.95 152.047 1027.77 151.474 1027.39 151.062C1027.01 150.646 1026.48 150.437 1025.82 150.437C1025.37 150.437 1024.97 150.534 1024.63 150.727C1024.29 150.919 1024.02 151.201 1023.83 151.57C1023.64 151.935 1023.55 152.375 1023.54 152.891Z" fill="#253D32"/>
<path d="M1216.2 151.828C1216.2 153.573 1215.87 155.057 1215.21 156.281C1214.55 157.505 1213.65 158.44 1212.52 159.086C1211.39 159.727 1210.12 160.047 1208.71 160.047C1207.29 160.047 1206.01 159.724 1204.88 159.078C1203.75 158.432 1202.86 157.497 1202.2 156.273C1201.54 155.049 1201.21 153.568 1201.21 151.828C1201.21 150.083 1201.54 148.599 1202.2 147.375C1202.86 146.151 1203.75 145.219 1204.88 144.578C1206.01 143.932 1207.29 143.609 1208.71 143.609C1210.12 143.609 1211.39 143.932 1212.52 144.578C1213.65 145.219 1214.55 146.151 1215.21 147.375C1215.87 148.599 1216.2 150.083 1216.2 151.828ZM1212.77 151.828C1212.77 150.698 1212.6 149.745 1212.26 148.969C1211.93 148.193 1211.46 147.604 1210.85 147.203C1210.24 146.802 1209.52 146.602 1208.71 146.602C1207.89 146.602 1207.18 146.802 1206.57 147.203C1205.96 147.604 1205.48 148.193 1205.14 148.969C1204.81 149.745 1204.64 150.698 1204.64 151.828C1204.64 152.958 1204.81 153.911 1205.14 154.687C1205.48 155.464 1205.96 156.052 1206.57 156.453C1207.18 156.854 1207.89 157.055 1208.71 157.055C1209.52 157.055 1210.24 156.854 1210.85 156.453C1211.46 156.052 1211.93 155.464 1212.26 154.687C1212.6 153.911 1212.77 152.958 1212.77 151.828ZM1218.64 164.328V147.828H1221.92V149.844H1222.07C1222.22 149.521 1222.43 149.193 1222.71 148.859C1222.99 148.521 1223.35 148.24 1223.8 148.016C1224.25 147.786 1224.81 147.672 1225.49 147.672C1226.36 147.672 1227.17 147.901 1227.91 148.359C1228.65 148.812 1229.24 149.497 1229.68 150.414C1230.12 151.326 1230.35 152.469 1230.35 153.844C1230.35 155.182 1230.13 156.312 1229.7 157.234C1229.27 158.151 1228.69 158.846 1227.95 159.32C1227.21 159.789 1226.39 160.023 1225.48 160.023C1224.83 160.023 1224.28 159.917 1223.83 159.703C1223.38 159.49 1223.01 159.221 1222.73 158.898C1222.44 158.57 1222.22 158.24 1222.07 157.906H1221.97V164.328H1218.64ZM1221.9 153.828C1221.9 154.542 1222 155.164 1222.2 155.695C1222.4 156.227 1222.68 156.641 1223.06 156.937C1223.43 157.229 1223.89 157.375 1224.42 157.375C1224.97 157.375 1225.42 157.227 1225.8 156.93C1226.17 156.628 1226.46 156.211 1226.65 155.68C1226.85 155.143 1226.95 154.526 1226.95 153.828C1226.95 153.135 1226.85 152.526 1226.66 152C1226.47 151.474 1226.18 151.062 1225.81 150.766C1225.43 150.469 1224.97 150.32 1224.42 150.32C1223.88 150.32 1223.42 150.464 1223.05 150.75C1222.68 151.036 1222.4 151.443 1222.2 151.969C1222 152.495 1221.9 153.115 1221.9 153.828ZM1238.95 147.828V150.328H1231.72V147.828H1238.95ZM1233.36 144.953H1236.69V156.141C1236.69 156.448 1236.74 156.687 1236.83 156.859C1236.92 157.026 1237.05 157.143 1237.22 157.211C1237.39 157.279 1237.59 157.312 1237.81 157.312C1237.97 157.312 1238.13 157.299 1238.28 157.273C1238.44 157.242 1238.56 157.219 1238.64 157.203L1239.17 159.68C1239 159.732 1238.76 159.792 1238.46 159.859C1238.16 159.932 1237.79 159.977 1237.36 159.992C1236.56 160.023 1235.86 159.917 1235.25 159.672C1234.65 159.427 1234.19 159.047 1233.85 158.531C1233.52 158.016 1233.36 157.365 1233.36 156.578V144.953ZM1241.12 159.828V147.828H1244.44V159.828H1241.12ZM1242.79 146.281C1242.29 146.281 1241.87 146.117 1241.51 145.789C1241.16 145.456 1240.99 145.057 1240.99 144.594C1240.99 144.135 1241.16 143.742 1241.51 143.414C1241.87 143.081 1242.29 142.914 1242.79 142.914C1243.28 142.914 1243.7 143.081 1244.05 143.414C1244.41 143.742 1244.58 144.135 1244.58 144.594C1244.58 145.057 1244.41 145.456 1244.05 145.789C1243.7 146.117 1243.28 146.281 1242.79 146.281ZM1247.11 159.828V147.828H1250.28V149.945H1250.42C1250.67 149.242 1251.09 148.687 1251.67 148.281C1252.26 147.875 1252.95 147.672 1253.77 147.672C1254.59 147.672 1255.29 147.878 1255.87 148.289C1256.45 148.695 1256.83 149.247 1257.02 149.945H1257.15C1257.39 149.258 1257.84 148.708 1258.48 148.297C1259.12 147.88 1259.89 147.672 1260.77 147.672C1261.89 147.672 1262.79 148.029 1263.49 148.742C1264.2 149.451 1264.55 150.456 1264.55 151.758V159.828H1261.23V152.414C1261.23 151.747 1261.05 151.247 1260.7 150.914C1260.34 150.581 1259.9 150.414 1259.37 150.414C1258.76 150.414 1258.29 150.607 1257.95 150.992C1257.61 151.372 1257.45 151.875 1257.45 152.5V159.828H1254.22V152.344C1254.22 151.755 1254.05 151.286 1253.71 150.937C1253.38 150.589 1252.94 150.414 1252.39 150.414C1252.02 150.414 1251.69 150.508 1251.39 150.695C1251.1 150.878 1250.87 151.135 1250.7 151.469C1250.52 151.797 1250.44 152.182 1250.44 152.625V159.828H1247.11ZM1267.18 159.828V147.828H1270.5V159.828H1267.18ZM1268.85 146.281C1268.35 146.281 1267.93 146.117 1267.57 145.789C1267.23 145.456 1267.05 145.057 1267.05 144.594C1267.05 144.135 1267.23 143.742 1267.57 143.414C1267.93 143.081 1268.35 142.914 1268.85 142.914C1269.34 142.914 1269.76 143.081 1270.11 143.414C1270.47 143.742 1270.64 144.135 1270.64 144.594C1270.64 145.057 1270.47 145.456 1270.11 145.789C1269.76 146.117 1269.34 146.281 1268.85 146.281ZM1273.11 159.828V157.844L1278.98 150.57V150.484H1273.31V147.828H1282.99V149.992L1277.47 157.086V157.172H1283.19V159.828H1273.11ZM1289.16 160.055C1288.39 160.055 1287.71 159.922 1287.11 159.656C1286.51 159.385 1286.04 158.987 1285.69 158.461C1285.35 157.93 1285.18 157.268 1285.18 156.477C1285.18 155.81 1285.3 155.25 1285.54 154.797C1285.79 154.344 1286.12 153.979 1286.54 153.703C1286.96 153.427 1287.44 153.219 1287.98 153.078C1288.52 152.937 1289.09 152.839 1289.68 152.781C1290.38 152.708 1290.94 152.641 1291.37 152.578C1291.8 152.51 1292.11 152.411 1292.3 152.281C1292.49 152.151 1292.59 151.958 1292.59 151.703V151.656C1292.59 151.161 1292.43 150.779 1292.12 150.508C1291.81 150.237 1291.38 150.102 1290.81 150.102C1290.21 150.102 1289.73 150.234 1289.38 150.5C1289.02 150.76 1288.79 151.089 1288.68 151.484L1285.6 151.234C1285.75 150.505 1286.06 149.875 1286.52 149.344C1286.98 148.807 1287.57 148.396 1288.29 148.109C1289.02 147.818 1289.87 147.672 1290.82 147.672C1291.49 147.672 1292.13 147.75 1292.74 147.906C1293.35 148.062 1293.9 148.305 1294.37 148.633C1294.85 148.961 1295.23 149.383 1295.5 149.898C1295.78 150.409 1295.92 151.021 1295.92 151.734V159.828H1292.76V158.164H1292.67C1292.48 158.539 1292.22 158.87 1291.89 159.156C1291.57 159.437 1291.18 159.659 1290.73 159.82C1290.28 159.977 1289.75 160.055 1289.16 160.055ZM1290.11 157.758C1290.6 157.758 1291.04 157.661 1291.41 157.469C1291.79 157.271 1292.08 157.005 1292.29 156.672C1292.51 156.339 1292.61 155.961 1292.61 155.539V154.266C1292.51 154.333 1292.37 154.396 1292.18 154.453C1292.01 154.505 1291.81 154.555 1291.58 154.602C1291.36 154.643 1291.13 154.682 1290.91 154.719C1290.69 154.75 1290.48 154.779 1290.3 154.805C1289.91 154.862 1289.57 154.953 1289.28 155.078C1288.99 155.203 1288.76 155.372 1288.6 155.586C1288.44 155.794 1288.36 156.055 1288.36 156.367C1288.36 156.82 1288.52 157.167 1288.85 157.406C1289.18 157.641 1289.6 157.758 1290.11 157.758ZM1304.88 147.828V150.328H1297.66V147.828H1304.88ZM1299.3 144.953H1302.63V156.141C1302.63 156.448 1302.67 156.687 1302.77 156.859C1302.86 157.026 1302.99 157.143 1303.16 157.211C1303.33 157.279 1303.53 157.312 1303.75 157.312C1303.91 157.312 1304.06 157.299 1304.22 157.273C1304.37 157.242 1304.49 157.219 1304.58 157.203L1305.1 159.68C1304.93 159.732 1304.7 159.792 1304.4 159.859C1304.1 159.932 1303.73 159.977 1303.3 159.992C1302.49 160.023 1301.79 159.917 1301.19 159.672C1300.59 159.427 1300.12 159.047 1299.79 158.531C1299.46 158.016 1299.29 157.365 1299.3 156.578V144.953ZM1307.05 159.828V147.828H1310.38V159.828H1307.05ZM1308.72 146.281C1308.23 146.281 1307.8 146.117 1307.45 145.789C1307.1 145.456 1306.93 145.057 1306.93 144.594C1306.93 144.135 1307.1 143.742 1307.45 143.414C1307.8 143.081 1308.23 142.914 1308.72 142.914C1309.22 142.914 1309.64 143.081 1309.99 143.414C1310.34 143.742 1310.52 144.135 1310.52 144.594C1310.52 145.057 1310.34 145.456 1309.99 145.789C1309.64 146.117 1309.22 146.281 1308.72 146.281ZM1318.47 160.063C1317.25 160.063 1316.2 159.805 1315.32 159.289C1314.44 158.768 1313.76 158.044 1313.28 157.117C1312.8 156.185 1312.56 155.104 1312.56 153.875C1312.56 152.635 1312.8 151.552 1313.28 150.625C1313.76 149.693 1314.44 148.969 1315.32 148.453C1316.2 147.932 1317.25 147.672 1318.47 147.672C1319.68 147.672 1320.73 147.932 1321.61 148.453C1322.49 148.969 1323.18 149.693 1323.65 150.625C1324.13 151.552 1324.37 152.635 1324.37 153.875C1324.37 155.104 1324.13 156.185 1323.65 157.117C1323.18 158.044 1322.49 158.768 1321.61 159.289C1320.73 159.805 1319.68 160.063 1318.47 160.063ZM1318.48 157.484C1319.03 157.484 1319.5 157.328 1319.87 157.016C1320.24 156.698 1320.51 156.266 1320.7 155.719C1320.89 155.172 1320.99 154.549 1320.99 153.852C1320.99 153.154 1320.89 152.531 1320.7 151.984C1320.51 151.437 1320.24 151.005 1319.87 150.687C1319.5 150.37 1319.03 150.211 1318.48 150.211C1317.93 150.211 1317.46 150.37 1317.08 150.687C1316.7 151.005 1316.42 151.437 1316.22 151.984C1316.04 152.531 1315.94 153.154 1315.94 153.852C1315.94 154.549 1316.04 155.172 1316.22 155.719C1316.42 156.266 1316.7 156.698 1317.08 157.016C1317.46 157.328 1317.93 157.484 1318.48 157.484ZM1329.87 152.891V159.828H1326.54V147.828H1329.71V149.945H1329.85C1330.12 149.247 1330.56 148.695 1331.19 148.289C1331.81 147.878 1332.57 147.672 1333.46 147.672C1334.29 147.672 1335.02 147.854 1335.64 148.219C1336.26 148.583 1336.74 149.104 1337.08 149.781C1337.43 150.453 1337.6 151.255 1337.6 152.187V159.828H1334.27V152.781C1334.28 152.047 1334.09 151.474 1333.71 151.062C1333.33 150.646 1332.81 150.437 1332.14 150.437C1331.69 150.437 1331.29 150.534 1330.95 150.727C1330.61 150.919 1330.35 151.201 1330.15 151.57C1329.97 151.935 1329.87 152.375 1329.87 152.891Z" fill="black"/>
<path d="M980 39.7383C990.782 39.7383 999.5 48.2534 999.5 58.7305C999.5 69.2075 990.782 77.7227 980 77.7227C969.218 77.7227 960.5 69.2075 960.5 58.7305C960.5 48.2534 969.218 39.7383 980 39.7383Z" fill="white" stroke="#FFA913"/>
<path d="M1270 39.7383C1280.78 39.7383 1289.5 48.2534 1289.5 58.7305C1289.5 69.2075 1280.78 77.7227 1270 77.7227C1259.22 77.7227 1250.5 69.2075 1250.5 58.7305C1250.5 48.2534 1259.22 39.7383 1270 39.7383Z" fill="white" stroke="#FFA913"/>
<g clip-path="url(#clip0_8583_22140)">
<path d="M105 70.4934L80 34.3633L55 70.4934L80 83.0938L105 70.4934Z" fill="#C9F87C"/>
<path d="M105 70.4934L80 34.3633V83.0938L105 70.4934Z" fill="#6BCD49"/>
<path d="M80 57.8945L55 70.495L80 83.0955L105 70.495L80 57.8945Z" fill="#5EBA3F"/>
<path d="M80 57.8945V83.0955L105 70.495L80 57.8945Z" fill="#48962E"/>
</g>
<path d="M150 58.7305H340" stroke="#FFA913" stroke-linecap="square" stroke-dasharray="10 10"/>
<path d="M420 58.7305H641" stroke="#DA1E37" stroke-linecap="square" stroke-dasharray="10 10"/>
<path d="M719 58.7305H940" stroke="#FFA913" stroke-linecap="square" stroke-dasharray="10 10"/>
<path d="M1009 58.7305H1230" stroke="#FFA913" stroke-linecap="square" stroke-dasharray="10 10"/>
<defs>
<filter id="filter0_d_8583_22140" x="0" y="0" width="160" height="157.461" filterUnits="userSpaceOnUse" color-interpolation-filters="sRGB">
<feFlood flood-opacity="0" result="BackgroundImageFix"/>
<feColorMatrix in="SourceAlpha" type="matrix" values="0 0 0 0 0 0 0 0 0 0 0 0 0 0 0 0 0 0 127 0" result="hardAlpha"/>
<feOffset dy="20"/>
<feGaussianBlur stdDeviation="15"/>
<feColorMatrix type="matrix" values="0 0 0 0 0.462 0 0 0 0 0.6 0 0 0 0 0.45 0 0 0 0.05 0"/>
<feBlend mode="normal" in2="BackgroundImageFix" result="effect1_dropShadow_8583_22140"/>
<feBlend mode="normal" in="SourceGraphic" in2="effect1_dropShadow_8583_22140" result="shape"/>
</filter>
<clipPath id="clip0_8583_22140">
<rect width="50" height="48.7305" fill="white" transform="translate(55 34.3633)"/>
</clipPath>
</defs>
</svg>
